G04 #@! TF.GenerationSoftware,KiCad,Pcbnew,9.0.3*
G04 #@! TF.CreationDate,2025-07-19T22:29:45+09:00*
G04 #@! TF.ProjectId,kleinpad,6b6c6569-6e70-4616-942e-6b696361645f,1.0*
G04 #@! TF.SameCoordinates,Original*
G04 #@! TF.FileFunction,Copper,L2,Bot*
G04 #@! TF.FilePolarity,Positive*
%FSLAX46Y46*%
G04 Gerber Fmt 4.6, Leading zero omitted, Abs format (unit mm)*
G04 Created by KiCad (PCBNEW 9.0.3) date 2025-07-19 22:29:45*
%MOMM*%
%LPD*%
G01*
G04 APERTURE LIST*
G04 Aperture macros list*
%AMRoundRect*
0 Rectangle with rounded corners*
0 $1 Rounding radius*
0 $2 $3 $4 $5 $6 $7 $8 $9 X,Y pos of 4 corners*
0 Add a 4 corners polygon primitive as box body*
4,1,4,$2,$3,$4,$5,$6,$7,$8,$9,$2,$3,0*
0 Add four circle primitives for the rounded corners*
1,1,$1+$1,$2,$3*
1,1,$1+$1,$4,$5*
1,1,$1+$1,$6,$7*
1,1,$1+$1,$8,$9*
0 Add four rect primitives between the rounded corners*
20,1,$1+$1,$2,$3,$4,$5,0*
20,1,$1+$1,$4,$5,$6,$7,0*
20,1,$1+$1,$6,$7,$8,$9,0*
20,1,$1+$1,$8,$9,$2,$3,0*%
G04 Aperture macros list end*
G04 #@! TA.AperFunction,ComponentPad*
%ADD10C,1.800000*%
G04 #@! TD*
G04 #@! TA.AperFunction,ComponentPad*
%ADD11RoundRect,0.450000X-0.450000X-0.450000X0.450000X-0.450000X0.450000X0.450000X-0.450000X0.450000X0*%
G04 #@! TD*
G04 #@! TA.AperFunction,ComponentPad*
%ADD12O,1.800000X4.340000*%
G04 #@! TD*
G04 #@! TA.AperFunction,ComponentPad*
%ADD13C,1.600000*%
G04 #@! TD*
G04 #@! TA.AperFunction,ComponentPad*
%ADD14R,1.397000X1.397000*%
G04 #@! TD*
G04 #@! TA.AperFunction,SMDPad,CuDef*
%ADD15R,1.300000X0.950000*%
G04 #@! TD*
G04 #@! TA.AperFunction,ComponentPad*
%ADD16C,1.397000*%
G04 #@! TD*
G04 #@! TA.AperFunction,SMDPad,CuDef*
%ADD17R,3.300000X3.000000*%
G04 #@! TD*
G04 #@! TA.AperFunction,ComponentPad*
%ADD18C,1.905000*%
G04 #@! TD*
G04 #@! TA.AperFunction,ComponentPad*
%ADD19C,1.900000*%
G04 #@! TD*
G04 #@! TA.AperFunction,ComponentPad*
%ADD20C,1.950000*%
G04 #@! TD*
G04 #@! TA.AperFunction,ComponentPad*
%ADD21C,2.400000*%
G04 #@! TD*
G04 #@! TA.AperFunction,ComponentPad*
%ADD22C,1.650000*%
G04 #@! TD*
G04 #@! TA.AperFunction,WasherPad*
%ADD23O,3.200000X2.000000*%
G04 #@! TD*
G04 #@! TA.AperFunction,ComponentPad*
%ADD24R,2.000000X2.000000*%
G04 #@! TD*
G04 #@! TA.AperFunction,ComponentPad*
%ADD25C,2.000000*%
G04 #@! TD*
G04 #@! TA.AperFunction,ComponentPad*
%ADD26R,1.700000X1.700000*%
G04 #@! TD*
G04 #@! TA.AperFunction,ComponentPad*
%ADD27O,1.700000X1.700000*%
G04 #@! TD*
G04 #@! TA.AperFunction,ComponentPad*
%ADD28RoundRect,0.250000X-0.625000X0.350000X-0.625000X-0.350000X0.625000X-0.350000X0.625000X0.350000X0*%
G04 #@! TD*
G04 #@! TA.AperFunction,ComponentPad*
%ADD29O,1.750000X1.200000*%
G04 #@! TD*
G04 #@! TA.AperFunction,ViaPad*
%ADD30C,0.600000*%
G04 #@! TD*
G04 #@! TA.AperFunction,Conductor*
%ADD31C,0.500000*%
G04 #@! TD*
G04 #@! TA.AperFunction,Conductor*
%ADD32C,0.250000*%
G04 #@! TD*
G04 APERTURE END LIST*
D10*
X133105625Y-66305500D03*
X133105625Y-68845500D03*
D11*
X133105625Y-71385500D03*
X133105625Y-73925500D03*
D10*
X133105625Y-76465500D03*
X133105625Y-79005500D03*
X133105625Y-81545500D03*
X133105625Y-84085500D03*
X133105625Y-86625500D03*
X133105625Y-89165500D03*
X133105625Y-91705500D03*
X133105625Y-94245500D03*
D12*
X148345625Y-65035500D03*
D11*
X148345625Y-68845500D03*
D10*
X148345625Y-71385500D03*
X148345625Y-73925500D03*
X148345625Y-76465500D03*
X148345625Y-79005500D03*
X148345625Y-81545500D03*
X148345625Y-84085500D03*
X148345625Y-86625500D03*
X148345625Y-89165500D03*
X148345625Y-91705500D03*
X148345625Y-94245500D03*
X136179025Y-91151780D03*
X138719025Y-91151780D03*
X141259025Y-91151780D03*
D11*
X133105625Y-63765500D03*
D10*
X148345625Y-63765500D03*
D13*
X153625625Y-82125500D03*
X153625625Y-84625500D03*
X105775625Y-84725500D03*
X105775625Y-82225500D03*
D14*
X165612500Y-116475500D03*
D15*
X167647500Y-116475500D03*
X171197500Y-116475500D03*
D16*
X173232500Y-116475500D03*
D17*
X142851250Y-107366750D03*
X156451250Y-104826750D03*
D13*
X166375625Y-70475500D03*
X163875625Y-70475500D03*
D18*
X159025625Y-63935500D03*
X159025625Y-69015500D03*
X153945625Y-69015500D03*
X153945625Y-63935500D03*
D19*
X161575625Y-89455500D03*
D20*
X161575625Y-93955500D03*
D19*
X168075625Y-89455500D03*
D20*
X168075625Y-93955500D03*
D21*
X158500625Y-78705500D03*
X171150625Y-78705500D03*
X171150625Y-88705500D03*
X158500625Y-88705500D03*
D22*
X173555625Y-86205500D03*
X173555625Y-83705500D03*
X173555625Y-81205500D03*
X167325625Y-74975500D03*
X164825625Y-74975500D03*
X162325625Y-74975500D03*
D16*
X110025625Y-63665500D03*
X110025625Y-66205500D03*
X110025625Y-68745500D03*
X110025625Y-71285500D03*
D17*
X161901250Y-107366750D03*
X175501250Y-104826750D03*
D14*
X146715625Y-135475500D03*
D15*
X148750625Y-135475500D03*
X152300625Y-135475500D03*
D16*
X154335625Y-135475500D03*
D23*
X118275625Y-83625500D03*
X118275625Y-94825500D03*
D24*
X110775625Y-86725500D03*
D25*
X110775625Y-91725500D03*
X110775625Y-89225500D03*
X125275625Y-91725500D03*
X125275625Y-86725500D03*
D14*
X108612500Y-116475500D03*
D15*
X110647500Y-116475500D03*
X114197500Y-116475500D03*
D16*
X116232500Y-116475500D03*
D17*
X142851250Y-126416750D03*
X156451250Y-123876750D03*
D14*
X108387500Y-135475500D03*
D15*
X110422500Y-135475500D03*
X113972500Y-135475500D03*
D16*
X116007500Y-135475500D03*
D17*
X104751250Y-126416750D03*
X118351250Y-123876750D03*
D14*
X127612500Y-116475500D03*
D15*
X129647500Y-116475500D03*
X133197500Y-116475500D03*
D16*
X135232500Y-116475500D03*
D25*
X164275625Y-65475500D03*
X170775625Y-65475500D03*
D17*
X161901250Y-126416750D03*
X175501250Y-123876750D03*
X123801250Y-126416750D03*
X137401250Y-123876750D03*
D14*
X146612500Y-116475500D03*
D15*
X148647500Y-116475500D03*
X152197500Y-116475500D03*
D16*
X154232500Y-116475500D03*
D26*
X116985625Y-72475500D03*
D27*
X119525625Y-72475500D03*
X122065625Y-72475500D03*
X124605625Y-72475500D03*
X127145625Y-72475500D03*
D14*
X165815625Y-135475500D03*
D15*
X167850625Y-135475500D03*
X171400625Y-135475500D03*
D16*
X173435625Y-135475500D03*
D17*
X104751250Y-107366750D03*
X118351250Y-104826750D03*
X123801250Y-107366750D03*
X137401250Y-104826750D03*
D13*
X105825625Y-91725500D03*
X105825625Y-89225500D03*
D14*
X127612500Y-135475500D03*
D15*
X129647500Y-135475500D03*
X133197500Y-135475500D03*
D16*
X135232500Y-135475500D03*
D28*
X139075625Y-70475500D03*
D29*
X139075625Y-72475500D03*
D30*
X140725625Y-115375500D03*
X140725625Y-119575500D03*
D31*
X109625625Y-61975500D02*
X145725625Y-61975500D01*
X108025625Y-63575500D02*
X109625625Y-61975500D01*
X110025625Y-68745500D02*
X108025625Y-66745500D01*
X108025625Y-66745500D02*
X108025625Y-63575500D01*
D32*
X126735625Y-84085500D02*
X124525625Y-81875500D01*
X124525625Y-81875500D02*
X115225625Y-81875500D01*
X110775625Y-86725500D02*
X110275625Y-86725500D01*
X133105625Y-84085500D02*
X126735625Y-84085500D01*
X115225625Y-81875500D02*
X110775625Y-86325500D01*
X110275625Y-86725500D02*
X105775625Y-82225500D01*
X110775625Y-86325500D02*
X110775625Y-86725500D01*
D31*
X105775625Y-84725500D02*
X105775625Y-89175500D01*
X103825625Y-77485500D02*
X103825625Y-82775500D01*
X163875625Y-70475500D02*
X166275625Y-68075500D01*
X162325625Y-74975500D02*
X162325625Y-72025500D01*
X166275625Y-68075500D02*
X168175625Y-68075500D01*
X110775625Y-89225500D02*
X122775625Y-89225500D01*
X162325625Y-72025500D02*
X163875625Y-70475500D01*
X168555625Y-81205500D02*
X162325625Y-74975500D01*
X153625625Y-80994130D02*
X159644255Y-74975500D01*
X153625625Y-82125500D02*
X153625625Y-80994130D01*
X159644255Y-74975500D02*
X162325625Y-74975500D01*
X173555625Y-81205500D02*
X168555625Y-81205500D01*
X122775625Y-89225500D02*
X125275625Y-86725500D01*
X105825625Y-89225500D02*
X110775625Y-89225500D01*
X110025625Y-71285500D02*
X103825625Y-77485500D01*
X103825625Y-82775500D02*
X105775625Y-84725500D01*
X168175625Y-68075500D02*
X170775625Y-65475500D01*
X105775625Y-89175500D02*
X105825625Y-89225500D01*
D32*
X133105625Y-86625500D02*
X128500377Y-86625500D01*
X128500377Y-86625500D02*
X123400377Y-91725500D01*
X123400377Y-91725500D02*
X110775625Y-91725500D01*
X105825625Y-91725500D02*
X110775625Y-91725500D01*
X117901250Y-104826750D02*
X119325625Y-106251125D01*
X119325625Y-106251125D02*
X119325625Y-113382375D01*
X116232500Y-116475500D02*
X114197500Y-116475500D01*
X119325625Y-113382375D02*
X116232500Y-116475500D01*
X129647500Y-116475500D02*
X127612500Y-116475500D01*
X165612500Y-116562375D02*
X165725625Y-116675500D01*
X148647500Y-116475500D02*
X146612500Y-116475500D01*
X167647500Y-116475500D02*
X165612500Y-116475500D01*
X110647500Y-116475500D02*
X108612500Y-116475500D01*
X116007500Y-135475500D02*
X113972500Y-135475500D01*
X119425625Y-125401125D02*
X119425625Y-132057375D01*
X119425625Y-132057375D02*
X116007500Y-135475500D01*
X117901250Y-123876750D02*
X119425625Y-125401125D01*
X148750625Y-135475500D02*
X146715625Y-135475500D01*
X140725625Y-115375500D02*
X140725625Y-119575500D01*
X129647500Y-135475500D02*
X127612500Y-135475500D01*
X167850625Y-135475500D02*
X165815625Y-135475500D01*
X110422500Y-135475500D02*
X108387500Y-135475500D01*
X136951250Y-104826750D02*
X138425625Y-106301125D01*
X135232500Y-116475500D02*
X133197500Y-116475500D01*
X138425625Y-106301125D02*
X138425625Y-113282375D01*
X138425625Y-113282375D02*
X135232500Y-116475500D01*
X135232500Y-135475500D02*
X133197500Y-135475500D01*
X138425625Y-125351125D02*
X138425625Y-132282375D01*
X138425625Y-132282375D02*
X135232500Y-135475500D01*
X136951250Y-123876750D02*
X138425625Y-125351125D01*
X156001250Y-104826750D02*
X157425625Y-106251125D01*
X157425625Y-106251125D02*
X157425625Y-113282375D01*
X154232500Y-116475500D02*
X152197500Y-116475500D01*
X157425625Y-113282375D02*
X154232500Y-116475500D01*
X157425625Y-125301125D02*
X157425625Y-132385500D01*
X156001250Y-123876750D02*
X157425625Y-125301125D01*
X154335625Y-135475500D02*
X152300625Y-135475500D01*
X157425625Y-132385500D02*
X154335625Y-135475500D01*
X175051250Y-104826750D02*
X176425625Y-106201125D01*
X173232500Y-116475500D02*
X171197500Y-116475500D01*
X176425625Y-106201125D02*
X176425625Y-113282375D01*
X176425625Y-113282375D02*
X173232500Y-116475500D01*
X175051250Y-123876750D02*
X176525625Y-125351125D01*
X173435625Y-135475500D02*
X171400625Y-135475500D01*
X176525625Y-132385500D02*
X173435625Y-135475500D01*
X176525625Y-125351125D02*
X176525625Y-132385500D01*
X148345625Y-79005500D02*
X153945625Y-73405500D01*
X153945625Y-73405500D02*
X153945625Y-69015500D01*
X148345625Y-81545500D02*
X159025625Y-70865500D01*
X159025625Y-70865500D02*
X159025625Y-69015500D01*
X151625625Y-73185500D02*
X151625625Y-66255500D01*
X151625625Y-66255500D02*
X153945625Y-63935500D01*
X148345625Y-76465500D02*
X151625625Y-73185500D01*
X116985625Y-72475500D02*
X126055625Y-81545500D01*
X126055625Y-81545500D02*
X133105625Y-81545500D01*
D31*
X145725625Y-61975500D02*
X147125625Y-61975500D01*
X146675625Y-62425500D02*
X146686625Y-62414500D01*
X173025625Y-69275500D02*
X173025625Y-64275500D01*
X146425625Y-72005500D02*
X146425625Y-62675500D01*
X146164625Y-62414500D02*
X146425625Y-62675500D01*
X146425625Y-62675500D02*
X146686625Y-62414500D01*
X176125625Y-78475500D02*
X172625625Y-74975500D01*
X171724625Y-62974500D02*
X159986625Y-62974500D01*
X148345625Y-73925500D02*
X146425625Y-72005500D01*
X145725625Y-61975500D02*
X146164625Y-62414500D01*
X167325625Y-74975500D02*
X173025625Y-69275500D01*
X172625625Y-74975500D02*
X167325625Y-74975500D01*
X176085625Y-83675500D02*
X176125625Y-83675500D01*
X176125625Y-83675500D02*
X176125625Y-78475500D01*
X157065625Y-61975500D02*
X159025625Y-63935500D01*
X146175625Y-62425500D02*
X146675625Y-62425500D01*
X173025625Y-64275500D02*
X171724625Y-62974500D01*
X159986625Y-62974500D02*
X159025625Y-63935500D01*
X146686625Y-62414500D02*
X147125625Y-61975500D01*
X173555625Y-86205500D02*
X176085625Y-83675500D01*
X122205625Y-70075500D02*
X111355625Y-70075500D01*
X147125625Y-61975500D02*
X157065625Y-61975500D01*
X111355625Y-70075500D02*
X110025625Y-68745500D01*
X124605625Y-72475500D02*
X122205625Y-70075500D01*
D32*
X126055625Y-79005500D02*
X133105625Y-79005500D01*
X119525625Y-72475500D02*
X126055625Y-79005500D01*
X122065625Y-72475500D02*
X126055625Y-76465500D01*
X126055625Y-76465500D02*
X133105625Y-76465500D01*
X112665625Y-68845500D02*
X110025625Y-66205500D01*
X133105625Y-68845500D02*
X112665625Y-68845500D01*
X133105625Y-66305500D02*
X112665625Y-66305500D01*
X112665625Y-66305500D02*
X110025625Y-63665500D01*
X105201250Y-104599875D02*
X105201250Y-107366750D01*
X128475625Y-98875500D02*
X110925625Y-98875500D01*
X103851250Y-125066750D02*
X103851250Y-108716750D01*
X110925625Y-98875500D02*
X105201250Y-104599875D01*
X133105625Y-94245500D02*
X128475625Y-98875500D01*
X136179025Y-91151780D02*
X136179025Y-93222100D01*
X124251250Y-105149875D02*
X124251250Y-107366750D01*
X122901250Y-125066750D02*
X122901250Y-108716750D01*
X136179025Y-93222100D02*
X124251250Y-105149875D01*
X143301250Y-95734005D02*
X143301250Y-107366750D01*
X138719025Y-91151780D02*
X143301250Y-95734005D01*
X143301250Y-107366750D02*
X143301250Y-126416750D01*
X127835625Y-89165500D02*
X125275625Y-91725500D01*
X133105625Y-89165500D02*
X127835625Y-89165500D01*
X154802000Y-99375500D02*
X162351250Y-106924750D01*
X141259025Y-91151780D02*
X149482745Y-99375500D01*
X162351250Y-107366750D02*
X162351250Y-126416750D01*
X149482745Y-99375500D02*
X154802000Y-99375500D01*
X162351250Y-106924750D02*
X162351250Y-107366750D01*
X153625625Y-84625500D02*
X154775625Y-85775500D01*
X150345625Y-84625500D02*
X153625625Y-84625500D01*
X148345625Y-86625500D02*
X150345625Y-84625500D01*
X171485625Y-85775500D02*
X173555625Y-83705500D01*
X154775625Y-85775500D02*
X171485625Y-85775500D01*
X166375625Y-73425500D02*
X164825625Y-74975500D01*
X166375625Y-70475500D02*
X166375625Y-73425500D01*
X160555625Y-90475500D02*
X161575625Y-89455500D01*
X149655625Y-90475500D02*
X160555625Y-90475500D01*
X148345625Y-89165500D02*
X149655625Y-90475500D01*
X161575625Y-89455500D02*
X168075625Y-89455500D01*
M02*
