G04 #@! TF.GenerationSoftware,KiCad,Pcbnew,9.0.3*
G04 #@! TF.CreationDate,2025-07-19T22:29:45+09:00*
G04 #@! TF.ProjectId,kleinpad,6b6c6569-6e70-4616-942e-6b696361645f,1.0*
G04 #@! TF.SameCoordinates,Original*
G04 #@! TF.FileFunction,Soldermask,Bot*
G04 #@! TF.FilePolarity,Negative*
%FSLAX46Y46*%
G04 Gerber Fmt 4.6, Leading zero omitted, Abs format (unit mm)*
G04 Created by KiCad (PCBNEW 9.0.3) date 2025-07-19 22:29:45*
%MOMM*%
%LPD*%
G01*
G04 APERTURE LIST*
G04 Aperture macros list*
%AMRoundRect*
0 Rectangle with rounded corners*
0 $1 Rounding radius*
0 $2 $3 $4 $5 $6 $7 $8 $9 X,Y pos of 4 corners*
0 Add a 4 corners polygon primitive as box body*
4,1,4,$2,$3,$4,$5,$6,$7,$8,$9,$2,$3,0*
0 Add four circle primitives for the rounded corners*
1,1,$1+$1,$2,$3*
1,1,$1+$1,$4,$5*
1,1,$1+$1,$6,$7*
1,1,$1+$1,$8,$9*
0 Add four rect primitives between the rounded corners*
20,1,$1+$1,$2,$3,$4,$5,0*
20,1,$1+$1,$4,$5,$6,$7,0*
20,1,$1+$1,$6,$7,$8,$9,0*
20,1,$1+$1,$8,$9,$2,$3,0*%
G04 Aperture macros list end*
%ADD10C,1.800000*%
%ADD11RoundRect,0.450000X-0.450000X-0.450000X0.450000X-0.450000X0.450000X0.450000X-0.450000X0.450000X0*%
%ADD12O,1.800000X4.340000*%
%ADD13C,1.600000*%
%ADD14R,1.397000X1.397000*%
%ADD15R,1.300000X0.950000*%
%ADD16C,1.397000*%
%ADD17C,2.000000*%
%ADD18C,3.000000*%
%ADD19C,4.000000*%
%ADD20R,3.300000X3.000000*%
%ADD21C,1.905000*%
%ADD22C,1.650000*%
%ADD23C,2.104000*%
%ADD24C,2.154000*%
%ADD25C,2.604000*%
%ADD26C,1.854000*%
%ADD27O,3.200000X2.000000*%
%ADD28R,2.000000X2.000000*%
%ADD29R,1.700000X1.700000*%
%ADD30O,1.700000X1.700000*%
%ADD31RoundRect,0.250000X-0.625000X0.350000X-0.625000X-0.350000X0.625000X-0.350000X0.625000X0.350000X0*%
%ADD32O,1.750000X1.200000*%
G04 APERTURE END LIST*
D10*
X133105625Y-66305500D03*
X133105625Y-68845500D03*
D11*
X133105625Y-71385500D03*
X133105625Y-73925500D03*
D10*
X133105625Y-76465500D03*
X133105625Y-79005500D03*
X133105625Y-81545500D03*
X133105625Y-84085500D03*
X133105625Y-86625500D03*
X133105625Y-89165500D03*
X133105625Y-91705500D03*
X133105625Y-94245500D03*
D12*
X148345625Y-65035500D03*
D11*
X148345625Y-68845500D03*
D10*
X148345625Y-71385500D03*
X148345625Y-73925500D03*
X148345625Y-76465500D03*
X148345625Y-79005500D03*
X148345625Y-81545500D03*
X148345625Y-84085500D03*
X148345625Y-86625500D03*
X148345625Y-89165500D03*
X148345625Y-91705500D03*
X148345625Y-94245500D03*
X136179025Y-91151780D03*
X138719025Y-91151780D03*
X141259025Y-91151780D03*
D11*
X133105625Y-63765500D03*
D10*
X148345625Y-63765500D03*
D13*
X153625625Y-82125500D03*
X153625625Y-84625500D03*
X105775625Y-84725500D03*
X105775625Y-82225500D03*
D14*
X165612500Y-116475500D03*
D15*
X167647500Y-116475500D03*
X171197500Y-116475500D03*
D16*
X173232500Y-116475500D03*
D17*
X145221250Y-109946750D03*
D18*
X146491250Y-107406750D03*
D19*
X150301250Y-109946750D03*
D18*
X152841250Y-104866750D03*
D17*
X155381250Y-109946750D03*
D20*
X142851250Y-107366750D03*
X156451250Y-104826750D03*
D13*
X166375625Y-70475500D03*
X163875625Y-70475500D03*
D21*
X159025625Y-63935500D03*
X159025625Y-69015500D03*
X153945625Y-69015500D03*
X153945625Y-63935500D03*
D22*
X160525625Y-83705500D03*
X169125625Y-83705500D03*
D23*
X161575625Y-89455500D03*
D24*
X161575625Y-93955500D03*
D23*
X168075625Y-89455500D03*
D24*
X168075625Y-93955500D03*
D25*
X158500625Y-78705500D03*
X171150625Y-78705500D03*
X171150625Y-88705500D03*
X158500625Y-88705500D03*
D26*
X173555625Y-86205500D03*
X173555625Y-83705500D03*
X173555625Y-81205500D03*
X167325625Y-74975500D03*
X164825625Y-74975500D03*
X162325625Y-74975500D03*
D16*
X110025625Y-63665500D03*
X110025625Y-66205500D03*
X110025625Y-68745500D03*
X110025625Y-71285500D03*
D17*
X164271250Y-109946750D03*
D18*
X165541250Y-107406750D03*
D19*
X169351250Y-109946750D03*
D18*
X171891250Y-104866750D03*
D17*
X174431250Y-109946750D03*
D20*
X161901250Y-107366750D03*
X175501250Y-104826750D03*
D14*
X146715625Y-135475500D03*
D15*
X148750625Y-135475500D03*
X152300625Y-135475500D03*
D16*
X154335625Y-135475500D03*
D27*
X118275625Y-83625500D03*
X118275625Y-94825500D03*
D28*
X110775625Y-86725500D03*
D17*
X110775625Y-91725500D03*
X110775625Y-89225500D03*
X125275625Y-91725500D03*
X125275625Y-86725500D03*
D14*
X108612500Y-116475500D03*
D15*
X110647500Y-116475500D03*
X114197500Y-116475500D03*
D16*
X116232500Y-116475500D03*
D17*
X145221250Y-128996750D03*
D18*
X146491250Y-126456750D03*
D19*
X150301250Y-128996750D03*
D18*
X152841250Y-123916750D03*
D17*
X155381250Y-128996750D03*
D20*
X142851250Y-126416750D03*
X156451250Y-123876750D03*
D14*
X108387500Y-135475500D03*
D15*
X110422500Y-135475500D03*
X113972500Y-135475500D03*
D16*
X116007500Y-135475500D03*
D17*
X107121250Y-128996750D03*
D18*
X108391250Y-126456750D03*
D19*
X112201250Y-128996750D03*
D18*
X114741250Y-123916750D03*
D17*
X117281250Y-128996750D03*
D20*
X104751250Y-126416750D03*
X118351250Y-123876750D03*
D14*
X127612500Y-116475500D03*
D15*
X129647500Y-116475500D03*
X133197500Y-116475500D03*
D16*
X135232500Y-116475500D03*
D17*
X164275625Y-65475500D03*
X170775625Y-65475500D03*
X164271250Y-128996750D03*
D18*
X165541250Y-126456750D03*
D19*
X169351250Y-128996750D03*
D18*
X171891250Y-123916750D03*
D17*
X174431250Y-128996750D03*
D20*
X161901250Y-126416750D03*
X175501250Y-123876750D03*
D17*
X126171250Y-128996750D03*
D18*
X127441250Y-126456750D03*
D19*
X131251250Y-128996750D03*
D18*
X133791250Y-123916750D03*
D17*
X136331250Y-128996750D03*
D20*
X123801250Y-126416750D03*
X137401250Y-123876750D03*
D14*
X146612500Y-116475500D03*
D15*
X148647500Y-116475500D03*
X152197500Y-116475500D03*
D16*
X154232500Y-116475500D03*
D29*
X116985625Y-72475500D03*
D30*
X119525625Y-72475500D03*
X122065625Y-72475500D03*
X124605625Y-72475500D03*
X127145625Y-72475500D03*
D14*
X165815625Y-135475500D03*
D15*
X167850625Y-135475500D03*
X171400625Y-135475500D03*
D16*
X173435625Y-135475500D03*
D17*
X107121250Y-109946750D03*
D18*
X108391250Y-107406750D03*
D19*
X112201250Y-109946750D03*
D18*
X114741250Y-104866750D03*
D17*
X117281250Y-109946750D03*
D20*
X104751250Y-107366750D03*
X118351250Y-104826750D03*
D17*
X126171250Y-109946750D03*
D18*
X127441250Y-107406750D03*
D19*
X131251250Y-109946750D03*
D18*
X133791250Y-104866750D03*
D17*
X136331250Y-109946750D03*
D20*
X123801250Y-107366750D03*
X137401250Y-104826750D03*
D13*
X105825625Y-91725500D03*
X105825625Y-89225500D03*
D14*
X127612500Y-135475500D03*
D15*
X129647500Y-135475500D03*
X133197500Y-135475500D03*
D16*
X135232500Y-135475500D03*
D31*
X139075625Y-70475500D03*
D32*
X139075625Y-72475500D03*
M02*
