%TF.GenerationSoftware,KiCad,Pcbnew,9.0.3*%
%TF.CreationDate,2025-07-19T22:30:28+09:00*%
%TF.ProjectId,kleinpad,6b6c6569-6e70-4616-942e-6b696361645f,1.0*%
%TF.SameCoordinates,Original*%
%TF.FileFunction,Drillmap*%
%TF.FilePolarity,Positive*%
%FSLAX45Y45*%
G04 Gerber Fmt 4.5, Leading zero omitted, Abs format (unit mm)*
G04 Created by KiCad (PCBNEW 9.0.3) date 2025-07-19 22:30:28*
%MOMM*%
%LPD*%
G01*
G04 APERTURE LIST*
%ADD10C,0.200000*%
%ADD11C,0.010050*%
%ADD12C,0.150000*%
%ADD13C,0.100000*%
%ADD14C,0.165000*%
%ADD15C,0.300000*%
%ADD16C,0.400000*%
G04 APERTURE END LIST*
D10*
X10127563Y-10347550D02*
X10227563Y-10247550D01*
X10416238Y-9747550D02*
X10227563Y-9747550D01*
X10516238Y-13947550D02*
X10466238Y-13860947D01*
D11*
X18028065Y-13947550D02*
G75*
G02*
X18027060Y-13947550I-503J0D01*
G01*
X18027060Y-13947550D02*
G75*
G02*
X18028065Y-13947550I503J0D01*
G01*
D10*
X10227563Y-10247550D02*
X10416238Y-10247550D01*
X17827563Y-6047550D02*
X10327563Y-6047550D01*
D11*
X10128065Y-6047550D02*
G75*
G02*
X10127060Y-6047550I-503J0D01*
G01*
X10127060Y-6047550D02*
G75*
G02*
X10128065Y-6047550I503J0D01*
G01*
D10*
X10516238Y-13947550D02*
X17638887Y-13947550D01*
D11*
X18028065Y-6047550D02*
G75*
G02*
X18027060Y-6047550I-503J0D01*
G01*
X18027060Y-6047550D02*
G75*
G02*
X18028065Y-6047550I503J0D01*
G01*
D10*
X10227563Y-9747550D02*
X10127563Y-9647550D01*
X17927563Y-9747550D02*
X17738887Y-9747550D01*
X17594550Y-13697550D02*
X17688887Y-13860947D01*
X18027563Y-9647550D02*
X18027563Y-6247550D01*
X18027563Y-13347550D02*
X17927563Y-13447550D01*
X10127563Y-6247550D02*
X10127563Y-9647550D01*
X18027563Y-13347550D02*
X18027563Y-10347550D01*
X17738887Y-10247550D02*
X17927563Y-10247550D01*
X10416238Y-13447550D02*
X10227563Y-13447550D01*
X10466238Y-13860947D02*
X10560575Y-13697550D01*
X17638887Y-13947550D02*
X17688887Y-13860947D01*
D11*
X17883727Y-9997550D02*
G75*
G02*
X17882722Y-9997550I-503J0D01*
G01*
X17882722Y-9997550D02*
G75*
G02*
X17883727Y-9997550I503J0D01*
G01*
X10272403Y-9997550D02*
G75*
G02*
X10271398Y-9997550I-503J0D01*
G01*
X10271398Y-9997550D02*
G75*
G02*
X10272403Y-9997550I503J0D01*
G01*
D10*
X17738887Y-9747550D02*
X17594550Y-9997550D01*
X10560575Y-13697550D02*
X10416238Y-13447550D01*
X17927563Y-13447550D02*
X17738887Y-13447550D01*
X10560575Y-9997550D02*
X10416238Y-9747550D01*
X17927563Y-10247550D02*
X18027563Y-10347550D01*
X17827563Y-6047550D02*
X18027563Y-6247550D01*
X10416238Y-10247550D02*
X10560575Y-9997550D01*
X10227563Y-13447550D02*
X10127563Y-13347550D01*
X17738887Y-13447550D02*
X17594550Y-13697550D01*
X10127563Y-10347550D02*
X10127563Y-13347550D01*
X17594550Y-9997550D02*
X17738887Y-10247550D01*
X10327563Y-6047550D02*
X10127563Y-6247550D01*
D11*
X17883727Y-13697550D02*
G75*
G02*
X17882722Y-13697550I-503J0D01*
G01*
X17882722Y-13697550D02*
G75*
G02*
X17883727Y-13697550I503J0D01*
G01*
D10*
X18027563Y-9647550D02*
X17927563Y-9747550D01*
D12*
X11752562Y-8287550D02*
X11902562Y-8437550D01*
X11902562Y-8287550D02*
X11752562Y-8437550D01*
D13*
X11762562Y-8437550D02*
X11892562Y-8437550D01*
X11892562Y-8287550D02*
G75*
G02*
X11892562Y-8437550I0J-75000D01*
G01*
X11892562Y-8287550D02*
X11762562Y-8287550D01*
X11762562Y-8287550D02*
G75*
G03*
X11762562Y-8437550I0J-75000D01*
G01*
D12*
X11752562Y-9407550D02*
X11902562Y-9557550D01*
X11902562Y-9407550D02*
X11752562Y-9557550D01*
D13*
X11762562Y-9557550D02*
X11892562Y-9557550D01*
X11892562Y-9407550D02*
G75*
G02*
X11892562Y-9557550I0J-75000D01*
G01*
X11892562Y-9407550D02*
X11762562Y-9407550D01*
X11762562Y-9407550D02*
G75*
G03*
X11762562Y-9557550I0J-75000D01*
G01*
D14*
X16135062Y-8370550D02*
G75*
G02*
X15970062Y-8370550I-82500J0D01*
G01*
X15970062Y-8370550D02*
G75*
G02*
X16135062Y-8370550I82500J0D01*
G01*
X16995063Y-8370550D02*
G75*
G02*
X16830063Y-8370550I-82500J0D01*
G01*
X16830063Y-8370550D02*
G75*
G02*
X16995063Y-8370550I82500J0D01*
G01*
D10*
X10712125Y-10894675D02*
X10712125Y-11094675D01*
X10612125Y-10994675D02*
X10812125Y-10994675D01*
X10712125Y-12799675D02*
X10712125Y-12999675D01*
X10612125Y-12899675D02*
X10812125Y-12899675D01*
X11728125Y-10894675D02*
X11728125Y-11094675D01*
X11628125Y-10994675D02*
X11828125Y-10994675D01*
X11728125Y-12799675D02*
X11728125Y-12999675D01*
X11628125Y-12899675D02*
X11828125Y-12899675D01*
X12617125Y-10894675D02*
X12617125Y-11094675D01*
X12517125Y-10994675D02*
X12717125Y-10994675D01*
X12617125Y-12799675D02*
X12617125Y-12999675D01*
X12517125Y-12899675D02*
X12717125Y-12899675D01*
X13633125Y-10894675D02*
X13633125Y-11094675D01*
X13533125Y-10994675D02*
X13733125Y-10994675D01*
X13633125Y-12799675D02*
X13633125Y-12999675D01*
X13533125Y-12899675D02*
X13733125Y-12899675D01*
X14522125Y-10894675D02*
X14522125Y-11094675D01*
X14422125Y-10994675D02*
X14622125Y-10994675D01*
X14522125Y-12799675D02*
X14522125Y-12999675D01*
X14422125Y-12899675D02*
X14622125Y-12899675D01*
X15538125Y-10894675D02*
X15538125Y-11094675D01*
X15438125Y-10994675D02*
X15638125Y-10994675D01*
X15538125Y-12799675D02*
X15538125Y-12999675D01*
X15438125Y-12899675D02*
X15638125Y-12899675D01*
X16427125Y-10894675D02*
X16427125Y-11094675D01*
X16327125Y-10994675D02*
X16527125Y-10994675D01*
X16427125Y-12799675D02*
X16427125Y-12999675D01*
X16327125Y-12899675D02*
X16527125Y-12899675D01*
X17443125Y-10894675D02*
X17443125Y-11094675D01*
X17343125Y-10994675D02*
X17543125Y-10994675D01*
X17443125Y-12799675D02*
X17443125Y-12999675D01*
X17343125Y-12899675D02*
X17543125Y-12899675D01*
D15*
X10945192Y-10846742D02*
X10945192Y-10634608D01*
X10733058Y-10634608D01*
X10733058Y-10846742D01*
X10945192Y-10846742D01*
X10945192Y-12751742D02*
X10945192Y-12539608D01*
X10733058Y-12539608D01*
X10733058Y-12751742D01*
X10945192Y-12751742D01*
X11580192Y-10592742D02*
X11580192Y-10380608D01*
X11368058Y-10380608D01*
X11368058Y-10592742D01*
X11580192Y-10592742D01*
X11580192Y-12497742D02*
X11580192Y-12285608D01*
X11368058Y-12285608D01*
X11368058Y-12497742D01*
X11580192Y-12497742D01*
X12850192Y-10846742D02*
X12850192Y-10634608D01*
X12638058Y-10634608D01*
X12638058Y-10846742D01*
X12850192Y-10846742D01*
X12850192Y-12751742D02*
X12850192Y-12539608D01*
X12638058Y-12539608D01*
X12638058Y-12751742D01*
X12850192Y-12751742D01*
X13485192Y-10592742D02*
X13485192Y-10380608D01*
X13273058Y-10380608D01*
X13273058Y-10592742D01*
X13485192Y-10592742D01*
X13485192Y-12497742D02*
X13485192Y-12285608D01*
X13273058Y-12285608D01*
X13273058Y-12497742D01*
X13485192Y-12497742D01*
X14755192Y-10846742D02*
X14755192Y-10634608D01*
X14543058Y-10634608D01*
X14543058Y-10846742D01*
X14755192Y-10846742D01*
X14755192Y-12751742D02*
X14755192Y-12539608D01*
X14543058Y-12539608D01*
X14543058Y-12751742D01*
X14755192Y-12751742D01*
X15390192Y-10592742D02*
X15390192Y-10380608D01*
X15178058Y-10380608D01*
X15178058Y-10592742D01*
X15390192Y-10592742D01*
X15390192Y-12497742D02*
X15390192Y-12285608D01*
X15178058Y-12285608D01*
X15178058Y-12497742D01*
X15390192Y-12497742D01*
X16660192Y-10846742D02*
X16660192Y-10634608D01*
X16448058Y-10634608D01*
X16448058Y-10846742D01*
X16660192Y-10846742D01*
X16660192Y-12751742D02*
X16660192Y-12539608D01*
X16448058Y-12539608D01*
X16448058Y-12751742D01*
X16660192Y-12751742D01*
X17295192Y-10592742D02*
X17295192Y-10380608D01*
X17083058Y-10380608D01*
X17083058Y-10592742D01*
X17295192Y-10592742D01*
X17295192Y-12497742D02*
X17295192Y-12285608D01*
X17083058Y-12285608D01*
X17083058Y-12497742D01*
X17295192Y-12497742D01*
D16*
X11220125Y-11194675D02*
X11420125Y-10994675D01*
X11220125Y-10794675D01*
X11020125Y-10994675D01*
X11220125Y-11194675D01*
X11220125Y-13099675D02*
X11420125Y-12899675D01*
X11220125Y-12699675D01*
X11020125Y-12899675D01*
X11220125Y-13099675D01*
X13125125Y-11194675D02*
X13325125Y-10994675D01*
X13125125Y-10794675D01*
X12925125Y-10994675D01*
X13125125Y-11194675D01*
X13125125Y-13099675D02*
X13325125Y-12899675D01*
X13125125Y-12699675D01*
X12925125Y-12899675D01*
X13125125Y-13099675D01*
X15030125Y-11194675D02*
X15230125Y-10994675D01*
X15030125Y-10794675D01*
X14830125Y-10994675D01*
X15030125Y-11194675D01*
X15030125Y-13099675D02*
X15230125Y-12899675D01*
X15030125Y-12699675D01*
X14830125Y-12899675D01*
X15030125Y-13099675D01*
X16935125Y-11194675D02*
X17135125Y-10994675D01*
X16935125Y-10794675D01*
X16735125Y-10994675D01*
X16935125Y-11194675D01*
X16935125Y-13099675D02*
X17135125Y-12899675D01*
X16935125Y-12699675D01*
X16735125Y-12899675D01*
X16935125Y-13099675D01*
D10*
X10378339Y-14269034D02*
X10378339Y-14069034D01*
X10378339Y-14069034D02*
X10425958Y-14069034D01*
X10425958Y-14069034D02*
X10454530Y-14078558D01*
X10454530Y-14078558D02*
X10473577Y-14097605D01*
X10473577Y-14097605D02*
X10483101Y-14116653D01*
X10483101Y-14116653D02*
X10492625Y-14154748D01*
X10492625Y-14154748D02*
X10492625Y-14183319D01*
X10492625Y-14183319D02*
X10483101Y-14221415D01*
X10483101Y-14221415D02*
X10473577Y-14240462D01*
X10473577Y-14240462D02*
X10454530Y-14259510D01*
X10454530Y-14259510D02*
X10425958Y-14269034D01*
X10425958Y-14269034D02*
X10378339Y-14269034D01*
X10578339Y-14269034D02*
X10578339Y-14135700D01*
X10578339Y-14173796D02*
X10587863Y-14154748D01*
X10587863Y-14154748D02*
X10597387Y-14145224D01*
X10597387Y-14145224D02*
X10616435Y-14135700D01*
X10616435Y-14135700D02*
X10635482Y-14135700D01*
X10702149Y-14269034D02*
X10702149Y-14135700D01*
X10702149Y-14069034D02*
X10692625Y-14078558D01*
X10692625Y-14078558D02*
X10702149Y-14088081D01*
X10702149Y-14088081D02*
X10711673Y-14078558D01*
X10711673Y-14078558D02*
X10702149Y-14069034D01*
X10702149Y-14069034D02*
X10702149Y-14088081D01*
X10825958Y-14269034D02*
X10806911Y-14259510D01*
X10806911Y-14259510D02*
X10797387Y-14240462D01*
X10797387Y-14240462D02*
X10797387Y-14069034D01*
X10930720Y-14269034D02*
X10911673Y-14259510D01*
X10911673Y-14259510D02*
X10902149Y-14240462D01*
X10902149Y-14240462D02*
X10902149Y-14069034D01*
X11159292Y-14269034D02*
X11159292Y-14069034D01*
X11159292Y-14069034D02*
X11225958Y-14211891D01*
X11225958Y-14211891D02*
X11292625Y-14069034D01*
X11292625Y-14069034D02*
X11292625Y-14269034D01*
X11473577Y-14269034D02*
X11473577Y-14164272D01*
X11473577Y-14164272D02*
X11464054Y-14145224D01*
X11464054Y-14145224D02*
X11445006Y-14135700D01*
X11445006Y-14135700D02*
X11406911Y-14135700D01*
X11406911Y-14135700D02*
X11387863Y-14145224D01*
X11473577Y-14259510D02*
X11454530Y-14269034D01*
X11454530Y-14269034D02*
X11406911Y-14269034D01*
X11406911Y-14269034D02*
X11387863Y-14259510D01*
X11387863Y-14259510D02*
X11378339Y-14240462D01*
X11378339Y-14240462D02*
X11378339Y-14221415D01*
X11378339Y-14221415D02*
X11387863Y-14202367D01*
X11387863Y-14202367D02*
X11406911Y-14192843D01*
X11406911Y-14192843D02*
X11454530Y-14192843D01*
X11454530Y-14192843D02*
X11473577Y-14183319D01*
X11568815Y-14135700D02*
X11568815Y-14335700D01*
X11568815Y-14145224D02*
X11587863Y-14135700D01*
X11587863Y-14135700D02*
X11625958Y-14135700D01*
X11625958Y-14135700D02*
X11645006Y-14145224D01*
X11645006Y-14145224D02*
X11654530Y-14154748D01*
X11654530Y-14154748D02*
X11664054Y-14173796D01*
X11664054Y-14173796D02*
X11664054Y-14230938D01*
X11664054Y-14230938D02*
X11654530Y-14249986D01*
X11654530Y-14249986D02*
X11645006Y-14259510D01*
X11645006Y-14259510D02*
X11625958Y-14269034D01*
X11625958Y-14269034D02*
X11587863Y-14269034D01*
X11587863Y-14269034D02*
X11568815Y-14259510D01*
X11749768Y-14249986D02*
X11759292Y-14259510D01*
X11759292Y-14259510D02*
X11749768Y-14269034D01*
X11749768Y-14269034D02*
X11740244Y-14259510D01*
X11740244Y-14259510D02*
X11749768Y-14249986D01*
X11749768Y-14249986D02*
X11749768Y-14269034D01*
X11749768Y-14145224D02*
X11759292Y-14154748D01*
X11759292Y-14154748D02*
X11749768Y-14164272D01*
X11749768Y-14164272D02*
X11740244Y-14154748D01*
X11740244Y-14154748D02*
X11749768Y-14145224D01*
X11749768Y-14145224D02*
X11749768Y-14164272D01*
D12*
X9967563Y-14522550D02*
X10117563Y-14672550D01*
X10117563Y-14522550D02*
X9967563Y-14672550D01*
D10*
X10483101Y-14689034D02*
X10368816Y-14689034D01*
X10425958Y-14689034D02*
X10425958Y-14489034D01*
X10425958Y-14489034D02*
X10406911Y-14517605D01*
X10406911Y-14517605D02*
X10387863Y-14536653D01*
X10387863Y-14536653D02*
X10368816Y-14546177D01*
X10568816Y-14669986D02*
X10578339Y-14679510D01*
X10578339Y-14679510D02*
X10568816Y-14689034D01*
X10568816Y-14689034D02*
X10559292Y-14679510D01*
X10559292Y-14679510D02*
X10568816Y-14669986D01*
X10568816Y-14669986D02*
X10568816Y-14689034D01*
X10759292Y-14489034D02*
X10664054Y-14489034D01*
X10664054Y-14489034D02*
X10654530Y-14584272D01*
X10654530Y-14584272D02*
X10664054Y-14574748D01*
X10664054Y-14574748D02*
X10683101Y-14565224D01*
X10683101Y-14565224D02*
X10730720Y-14565224D01*
X10730720Y-14565224D02*
X10749768Y-14574748D01*
X10749768Y-14574748D02*
X10759292Y-14584272D01*
X10759292Y-14584272D02*
X10768816Y-14603319D01*
X10768816Y-14603319D02*
X10768816Y-14650938D01*
X10768816Y-14650938D02*
X10759292Y-14669986D01*
X10759292Y-14669986D02*
X10749768Y-14679510D01*
X10749768Y-14679510D02*
X10730720Y-14689034D01*
X10730720Y-14689034D02*
X10683101Y-14689034D01*
X10683101Y-14689034D02*
X10664054Y-14679510D01*
X10664054Y-14679510D02*
X10654530Y-14669986D01*
X10892625Y-14489034D02*
X10911673Y-14489034D01*
X10911673Y-14489034D02*
X10930720Y-14498558D01*
X10930720Y-14498558D02*
X10940244Y-14508081D01*
X10940244Y-14508081D02*
X10949768Y-14527129D01*
X10949768Y-14527129D02*
X10959292Y-14565224D01*
X10959292Y-14565224D02*
X10959292Y-14612843D01*
X10959292Y-14612843D02*
X10949768Y-14650938D01*
X10949768Y-14650938D02*
X10940244Y-14669986D01*
X10940244Y-14669986D02*
X10930720Y-14679510D01*
X10930720Y-14679510D02*
X10911673Y-14689034D01*
X10911673Y-14689034D02*
X10892625Y-14689034D01*
X10892625Y-14689034D02*
X10873577Y-14679510D01*
X10873577Y-14679510D02*
X10864054Y-14669986D01*
X10864054Y-14669986D02*
X10854530Y-14650938D01*
X10854530Y-14650938D02*
X10845006Y-14612843D01*
X10845006Y-14612843D02*
X10845006Y-14565224D01*
X10845006Y-14565224D02*
X10854530Y-14527129D01*
X10854530Y-14527129D02*
X10864054Y-14508081D01*
X10864054Y-14508081D02*
X10873577Y-14498558D01*
X10873577Y-14498558D02*
X10892625Y-14489034D01*
X11083101Y-14489034D02*
X11102149Y-14489034D01*
X11102149Y-14489034D02*
X11121197Y-14498558D01*
X11121197Y-14498558D02*
X11130720Y-14508081D01*
X11130720Y-14508081D02*
X11140244Y-14527129D01*
X11140244Y-14527129D02*
X11149768Y-14565224D01*
X11149768Y-14565224D02*
X11149768Y-14612843D01*
X11149768Y-14612843D02*
X11140244Y-14650938D01*
X11140244Y-14650938D02*
X11130720Y-14669986D01*
X11130720Y-14669986D02*
X11121197Y-14679510D01*
X11121197Y-14679510D02*
X11102149Y-14689034D01*
X11102149Y-14689034D02*
X11083101Y-14689034D01*
X11083101Y-14689034D02*
X11064054Y-14679510D01*
X11064054Y-14679510D02*
X11054530Y-14669986D01*
X11054530Y-14669986D02*
X11045006Y-14650938D01*
X11045006Y-14650938D02*
X11035482Y-14612843D01*
X11035482Y-14612843D02*
X11035482Y-14565224D01*
X11035482Y-14565224D02*
X11045006Y-14527129D01*
X11045006Y-14527129D02*
X11054530Y-14508081D01*
X11054530Y-14508081D02*
X11064054Y-14498558D01*
X11064054Y-14498558D02*
X11083101Y-14489034D01*
X11235482Y-14689034D02*
X11235482Y-14555700D01*
X11235482Y-14574748D02*
X11245006Y-14565224D01*
X11245006Y-14565224D02*
X11264054Y-14555700D01*
X11264054Y-14555700D02*
X11292625Y-14555700D01*
X11292625Y-14555700D02*
X11311673Y-14565224D01*
X11311673Y-14565224D02*
X11321196Y-14584272D01*
X11321196Y-14584272D02*
X11321196Y-14689034D01*
X11321196Y-14584272D02*
X11330720Y-14565224D01*
X11330720Y-14565224D02*
X11349768Y-14555700D01*
X11349768Y-14555700D02*
X11378339Y-14555700D01*
X11378339Y-14555700D02*
X11397387Y-14565224D01*
X11397387Y-14565224D02*
X11406911Y-14584272D01*
X11406911Y-14584272D02*
X11406911Y-14689034D01*
X11502149Y-14689034D02*
X11502149Y-14555700D01*
X11502149Y-14574748D02*
X11511673Y-14565224D01*
X11511673Y-14565224D02*
X11530720Y-14555700D01*
X11530720Y-14555700D02*
X11559292Y-14555700D01*
X11559292Y-14555700D02*
X11578339Y-14565224D01*
X11578339Y-14565224D02*
X11587863Y-14584272D01*
X11587863Y-14584272D02*
X11587863Y-14689034D01*
X11587863Y-14584272D02*
X11597387Y-14565224D01*
X11597387Y-14565224D02*
X11616435Y-14555700D01*
X11616435Y-14555700D02*
X11645006Y-14555700D01*
X11645006Y-14555700D02*
X11664054Y-14565224D01*
X11664054Y-14565224D02*
X11673577Y-14584272D01*
X11673577Y-14584272D02*
X11673577Y-14689034D01*
X12064054Y-14479510D02*
X11892625Y-14736653D01*
X12321197Y-14489034D02*
X12340244Y-14489034D01*
X12340244Y-14489034D02*
X12359292Y-14498558D01*
X12359292Y-14498558D02*
X12368816Y-14508081D01*
X12368816Y-14508081D02*
X12378339Y-14527129D01*
X12378339Y-14527129D02*
X12387863Y-14565224D01*
X12387863Y-14565224D02*
X12387863Y-14612843D01*
X12387863Y-14612843D02*
X12378339Y-14650938D01*
X12378339Y-14650938D02*
X12368816Y-14669986D01*
X12368816Y-14669986D02*
X12359292Y-14679510D01*
X12359292Y-14679510D02*
X12340244Y-14689034D01*
X12340244Y-14689034D02*
X12321197Y-14689034D01*
X12321197Y-14689034D02*
X12302149Y-14679510D01*
X12302149Y-14679510D02*
X12292625Y-14669986D01*
X12292625Y-14669986D02*
X12283101Y-14650938D01*
X12283101Y-14650938D02*
X12273578Y-14612843D01*
X12273578Y-14612843D02*
X12273578Y-14565224D01*
X12273578Y-14565224D02*
X12283101Y-14527129D01*
X12283101Y-14527129D02*
X12292625Y-14508081D01*
X12292625Y-14508081D02*
X12302149Y-14498558D01*
X12302149Y-14498558D02*
X12321197Y-14489034D01*
X12473578Y-14669986D02*
X12483101Y-14679510D01*
X12483101Y-14679510D02*
X12473578Y-14689034D01*
X12473578Y-14689034D02*
X12464054Y-14679510D01*
X12464054Y-14679510D02*
X12473578Y-14669986D01*
X12473578Y-14669986D02*
X12473578Y-14689034D01*
X12606911Y-14489034D02*
X12625959Y-14489034D01*
X12625959Y-14489034D02*
X12645006Y-14498558D01*
X12645006Y-14498558D02*
X12654530Y-14508081D01*
X12654530Y-14508081D02*
X12664054Y-14527129D01*
X12664054Y-14527129D02*
X12673578Y-14565224D01*
X12673578Y-14565224D02*
X12673578Y-14612843D01*
X12673578Y-14612843D02*
X12664054Y-14650938D01*
X12664054Y-14650938D02*
X12654530Y-14669986D01*
X12654530Y-14669986D02*
X12645006Y-14679510D01*
X12645006Y-14679510D02*
X12625959Y-14689034D01*
X12625959Y-14689034D02*
X12606911Y-14689034D01*
X12606911Y-14689034D02*
X12587863Y-14679510D01*
X12587863Y-14679510D02*
X12578339Y-14669986D01*
X12578339Y-14669986D02*
X12568816Y-14650938D01*
X12568816Y-14650938D02*
X12559292Y-14612843D01*
X12559292Y-14612843D02*
X12559292Y-14565224D01*
X12559292Y-14565224D02*
X12568816Y-14527129D01*
X12568816Y-14527129D02*
X12578339Y-14508081D01*
X12578339Y-14508081D02*
X12587863Y-14498558D01*
X12587863Y-14498558D02*
X12606911Y-14489034D01*
X12854530Y-14489034D02*
X12759292Y-14489034D01*
X12759292Y-14489034D02*
X12749768Y-14584272D01*
X12749768Y-14584272D02*
X12759292Y-14574748D01*
X12759292Y-14574748D02*
X12778339Y-14565224D01*
X12778339Y-14565224D02*
X12825959Y-14565224D01*
X12825959Y-14565224D02*
X12845006Y-14574748D01*
X12845006Y-14574748D02*
X12854530Y-14584272D01*
X12854530Y-14584272D02*
X12864054Y-14603319D01*
X12864054Y-14603319D02*
X12864054Y-14650938D01*
X12864054Y-14650938D02*
X12854530Y-14669986D01*
X12854530Y-14669986D02*
X12845006Y-14679510D01*
X12845006Y-14679510D02*
X12825959Y-14689034D01*
X12825959Y-14689034D02*
X12778339Y-14689034D01*
X12778339Y-14689034D02*
X12759292Y-14679510D01*
X12759292Y-14679510D02*
X12749768Y-14669986D01*
X12959292Y-14689034D02*
X12997387Y-14689034D01*
X12997387Y-14689034D02*
X13016435Y-14679510D01*
X13016435Y-14679510D02*
X13025959Y-14669986D01*
X13025959Y-14669986D02*
X13045006Y-14641415D01*
X13045006Y-14641415D02*
X13054530Y-14603319D01*
X13054530Y-14603319D02*
X13054530Y-14527129D01*
X13054530Y-14527129D02*
X13045006Y-14508081D01*
X13045006Y-14508081D02*
X13035482Y-14498558D01*
X13035482Y-14498558D02*
X13016435Y-14489034D01*
X13016435Y-14489034D02*
X12978339Y-14489034D01*
X12978339Y-14489034D02*
X12959292Y-14498558D01*
X12959292Y-14498558D02*
X12949768Y-14508081D01*
X12949768Y-14508081D02*
X12940244Y-14527129D01*
X12940244Y-14527129D02*
X12940244Y-14574748D01*
X12940244Y-14574748D02*
X12949768Y-14593796D01*
X12949768Y-14593796D02*
X12959292Y-14603319D01*
X12959292Y-14603319D02*
X12978339Y-14612843D01*
X12978339Y-14612843D02*
X13016435Y-14612843D01*
X13016435Y-14612843D02*
X13035482Y-14603319D01*
X13035482Y-14603319D02*
X13045006Y-14593796D01*
X13045006Y-14593796D02*
X13054530Y-14574748D01*
X13245006Y-14689034D02*
X13130720Y-14689034D01*
X13187863Y-14689034D02*
X13187863Y-14489034D01*
X13187863Y-14489034D02*
X13168816Y-14517605D01*
X13168816Y-14517605D02*
X13149768Y-14536653D01*
X13149768Y-14536653D02*
X13130720Y-14546177D01*
X13321197Y-14489034D02*
X13321197Y-14527129D01*
X13397387Y-14489034D02*
X13397387Y-14527129D01*
X13692625Y-14765224D02*
X13683101Y-14755700D01*
X13683101Y-14755700D02*
X13664054Y-14727129D01*
X13664054Y-14727129D02*
X13654530Y-14708081D01*
X13654530Y-14708081D02*
X13645006Y-14679510D01*
X13645006Y-14679510D02*
X13635482Y-14631891D01*
X13635482Y-14631891D02*
X13635482Y-14593796D01*
X13635482Y-14593796D02*
X13645006Y-14546177D01*
X13645006Y-14546177D02*
X13654530Y-14517605D01*
X13654530Y-14517605D02*
X13664054Y-14498558D01*
X13664054Y-14498558D02*
X13683101Y-14469986D01*
X13683101Y-14469986D02*
X13692625Y-14460462D01*
X13806911Y-14489034D02*
X13825959Y-14489034D01*
X13825959Y-14489034D02*
X13845006Y-14498558D01*
X13845006Y-14498558D02*
X13854530Y-14508081D01*
X13854530Y-14508081D02*
X13864054Y-14527129D01*
X13864054Y-14527129D02*
X13873578Y-14565224D01*
X13873578Y-14565224D02*
X13873578Y-14612843D01*
X13873578Y-14612843D02*
X13864054Y-14650938D01*
X13864054Y-14650938D02*
X13854530Y-14669986D01*
X13854530Y-14669986D02*
X13845006Y-14679510D01*
X13845006Y-14679510D02*
X13825959Y-14689034D01*
X13825959Y-14689034D02*
X13806911Y-14689034D01*
X13806911Y-14689034D02*
X13787863Y-14679510D01*
X13787863Y-14679510D02*
X13778340Y-14669986D01*
X13778340Y-14669986D02*
X13768816Y-14650938D01*
X13768816Y-14650938D02*
X13759292Y-14612843D01*
X13759292Y-14612843D02*
X13759292Y-14565224D01*
X13759292Y-14565224D02*
X13768816Y-14527129D01*
X13768816Y-14527129D02*
X13778340Y-14508081D01*
X13778340Y-14508081D02*
X13787863Y-14498558D01*
X13787863Y-14498558D02*
X13806911Y-14489034D01*
X14111673Y-14689034D02*
X14111673Y-14489034D01*
X14197387Y-14689034D02*
X14197387Y-14584272D01*
X14197387Y-14584272D02*
X14187863Y-14565224D01*
X14187863Y-14565224D02*
X14168816Y-14555700D01*
X14168816Y-14555700D02*
X14140244Y-14555700D01*
X14140244Y-14555700D02*
X14121197Y-14565224D01*
X14121197Y-14565224D02*
X14111673Y-14574748D01*
X14321197Y-14689034D02*
X14302149Y-14679510D01*
X14302149Y-14679510D02*
X14292625Y-14669986D01*
X14292625Y-14669986D02*
X14283102Y-14650938D01*
X14283102Y-14650938D02*
X14283102Y-14593796D01*
X14283102Y-14593796D02*
X14292625Y-14574748D01*
X14292625Y-14574748D02*
X14302149Y-14565224D01*
X14302149Y-14565224D02*
X14321197Y-14555700D01*
X14321197Y-14555700D02*
X14349768Y-14555700D01*
X14349768Y-14555700D02*
X14368816Y-14565224D01*
X14368816Y-14565224D02*
X14378340Y-14574748D01*
X14378340Y-14574748D02*
X14387863Y-14593796D01*
X14387863Y-14593796D02*
X14387863Y-14650938D01*
X14387863Y-14650938D02*
X14378340Y-14669986D01*
X14378340Y-14669986D02*
X14368816Y-14679510D01*
X14368816Y-14679510D02*
X14349768Y-14689034D01*
X14349768Y-14689034D02*
X14321197Y-14689034D01*
X14502149Y-14689034D02*
X14483102Y-14679510D01*
X14483102Y-14679510D02*
X14473578Y-14660462D01*
X14473578Y-14660462D02*
X14473578Y-14489034D01*
X14654530Y-14679510D02*
X14635483Y-14689034D01*
X14635483Y-14689034D02*
X14597387Y-14689034D01*
X14597387Y-14689034D02*
X14578340Y-14679510D01*
X14578340Y-14679510D02*
X14568816Y-14660462D01*
X14568816Y-14660462D02*
X14568816Y-14584272D01*
X14568816Y-14584272D02*
X14578340Y-14565224D01*
X14578340Y-14565224D02*
X14597387Y-14555700D01*
X14597387Y-14555700D02*
X14635483Y-14555700D01*
X14635483Y-14555700D02*
X14654530Y-14565224D01*
X14654530Y-14565224D02*
X14664054Y-14584272D01*
X14664054Y-14584272D02*
X14664054Y-14603319D01*
X14664054Y-14603319D02*
X14568816Y-14622367D01*
X14740244Y-14679510D02*
X14759292Y-14689034D01*
X14759292Y-14689034D02*
X14797387Y-14689034D01*
X14797387Y-14689034D02*
X14816435Y-14679510D01*
X14816435Y-14679510D02*
X14825959Y-14660462D01*
X14825959Y-14660462D02*
X14825959Y-14650938D01*
X14825959Y-14650938D02*
X14816435Y-14631891D01*
X14816435Y-14631891D02*
X14797387Y-14622367D01*
X14797387Y-14622367D02*
X14768816Y-14622367D01*
X14768816Y-14622367D02*
X14749768Y-14612843D01*
X14749768Y-14612843D02*
X14740244Y-14593796D01*
X14740244Y-14593796D02*
X14740244Y-14584272D01*
X14740244Y-14584272D02*
X14749768Y-14565224D01*
X14749768Y-14565224D02*
X14768816Y-14555700D01*
X14768816Y-14555700D02*
X14797387Y-14555700D01*
X14797387Y-14555700D02*
X14816435Y-14565224D01*
X15064054Y-14612843D02*
X15216435Y-14612843D01*
X15140245Y-14689034D02*
X15140245Y-14536653D01*
X15454530Y-14508081D02*
X15464054Y-14498558D01*
X15464054Y-14498558D02*
X15483102Y-14489034D01*
X15483102Y-14489034D02*
X15530721Y-14489034D01*
X15530721Y-14489034D02*
X15549768Y-14498558D01*
X15549768Y-14498558D02*
X15559292Y-14508081D01*
X15559292Y-14508081D02*
X15568816Y-14527129D01*
X15568816Y-14527129D02*
X15568816Y-14546177D01*
X15568816Y-14546177D02*
X15559292Y-14574748D01*
X15559292Y-14574748D02*
X15445006Y-14689034D01*
X15445006Y-14689034D02*
X15568816Y-14689034D01*
X15797387Y-14679510D02*
X15816435Y-14689034D01*
X15816435Y-14689034D02*
X15854530Y-14689034D01*
X15854530Y-14689034D02*
X15873578Y-14679510D01*
X15873578Y-14679510D02*
X15883102Y-14660462D01*
X15883102Y-14660462D02*
X15883102Y-14650938D01*
X15883102Y-14650938D02*
X15873578Y-14631891D01*
X15873578Y-14631891D02*
X15854530Y-14622367D01*
X15854530Y-14622367D02*
X15825959Y-14622367D01*
X15825959Y-14622367D02*
X15806911Y-14612843D01*
X15806911Y-14612843D02*
X15797387Y-14593796D01*
X15797387Y-14593796D02*
X15797387Y-14584272D01*
X15797387Y-14584272D02*
X15806911Y-14565224D01*
X15806911Y-14565224D02*
X15825959Y-14555700D01*
X15825959Y-14555700D02*
X15854530Y-14555700D01*
X15854530Y-14555700D02*
X15873578Y-14565224D01*
X15997387Y-14689034D02*
X15978340Y-14679510D01*
X15978340Y-14679510D02*
X15968816Y-14660462D01*
X15968816Y-14660462D02*
X15968816Y-14489034D01*
X16102149Y-14689034D02*
X16083102Y-14679510D01*
X16083102Y-14679510D02*
X16073578Y-14669986D01*
X16073578Y-14669986D02*
X16064054Y-14650938D01*
X16064054Y-14650938D02*
X16064054Y-14593796D01*
X16064054Y-14593796D02*
X16073578Y-14574748D01*
X16073578Y-14574748D02*
X16083102Y-14565224D01*
X16083102Y-14565224D02*
X16102149Y-14555700D01*
X16102149Y-14555700D02*
X16130721Y-14555700D01*
X16130721Y-14555700D02*
X16149768Y-14565224D01*
X16149768Y-14565224D02*
X16159292Y-14574748D01*
X16159292Y-14574748D02*
X16168816Y-14593796D01*
X16168816Y-14593796D02*
X16168816Y-14650938D01*
X16168816Y-14650938D02*
X16159292Y-14669986D01*
X16159292Y-14669986D02*
X16149768Y-14679510D01*
X16149768Y-14679510D02*
X16130721Y-14689034D01*
X16130721Y-14689034D02*
X16102149Y-14689034D01*
X16225959Y-14555700D02*
X16302149Y-14555700D01*
X16254530Y-14489034D02*
X16254530Y-14660462D01*
X16254530Y-14660462D02*
X16264054Y-14679510D01*
X16264054Y-14679510D02*
X16283102Y-14689034D01*
X16283102Y-14689034D02*
X16302149Y-14689034D01*
X16359292Y-14679510D02*
X16378340Y-14689034D01*
X16378340Y-14689034D02*
X16416435Y-14689034D01*
X16416435Y-14689034D02*
X16435483Y-14679510D01*
X16435483Y-14679510D02*
X16445007Y-14660462D01*
X16445007Y-14660462D02*
X16445007Y-14650938D01*
X16445007Y-14650938D02*
X16435483Y-14631891D01*
X16435483Y-14631891D02*
X16416435Y-14622367D01*
X16416435Y-14622367D02*
X16387864Y-14622367D01*
X16387864Y-14622367D02*
X16368816Y-14612843D01*
X16368816Y-14612843D02*
X16359292Y-14593796D01*
X16359292Y-14593796D02*
X16359292Y-14584272D01*
X16359292Y-14584272D02*
X16368816Y-14565224D01*
X16368816Y-14565224D02*
X16387864Y-14555700D01*
X16387864Y-14555700D02*
X16416435Y-14555700D01*
X16416435Y-14555700D02*
X16435483Y-14565224D01*
X16511673Y-14765224D02*
X16521197Y-14755700D01*
X16521197Y-14755700D02*
X16540245Y-14727129D01*
X16540245Y-14727129D02*
X16549768Y-14708081D01*
X16549768Y-14708081D02*
X16559292Y-14679510D01*
X16559292Y-14679510D02*
X16568816Y-14631891D01*
X16568816Y-14631891D02*
X16568816Y-14593796D01*
X16568816Y-14593796D02*
X16559292Y-14546177D01*
X16559292Y-14546177D02*
X16549768Y-14517605D01*
X16549768Y-14517605D02*
X16540245Y-14498558D01*
X16540245Y-14498558D02*
X16521197Y-14469986D01*
X16521197Y-14469986D02*
X16511673Y-14460462D01*
X16873578Y-14765224D02*
X16864054Y-14755700D01*
X16864054Y-14755700D02*
X16845007Y-14727129D01*
X16845007Y-14727129D02*
X16835483Y-14708081D01*
X16835483Y-14708081D02*
X16825959Y-14679510D01*
X16825959Y-14679510D02*
X16816435Y-14631891D01*
X16816435Y-14631891D02*
X16816435Y-14593796D01*
X16816435Y-14593796D02*
X16825959Y-14546177D01*
X16825959Y-14546177D02*
X16835483Y-14517605D01*
X16835483Y-14517605D02*
X16845007Y-14498558D01*
X16845007Y-14498558D02*
X16864054Y-14469986D01*
X16864054Y-14469986D02*
X16873578Y-14460462D01*
X16949769Y-14555700D02*
X16949769Y-14689034D01*
X16949769Y-14574748D02*
X16959292Y-14565224D01*
X16959292Y-14565224D02*
X16978340Y-14555700D01*
X16978340Y-14555700D02*
X17006911Y-14555700D01*
X17006911Y-14555700D02*
X17025959Y-14565224D01*
X17025959Y-14565224D02*
X17035483Y-14584272D01*
X17035483Y-14584272D02*
X17035483Y-14689034D01*
X17159292Y-14689034D02*
X17140245Y-14679510D01*
X17140245Y-14679510D02*
X17130721Y-14669986D01*
X17130721Y-14669986D02*
X17121197Y-14650938D01*
X17121197Y-14650938D02*
X17121197Y-14593796D01*
X17121197Y-14593796D02*
X17130721Y-14574748D01*
X17130721Y-14574748D02*
X17140245Y-14565224D01*
X17140245Y-14565224D02*
X17159292Y-14555700D01*
X17159292Y-14555700D02*
X17187864Y-14555700D01*
X17187864Y-14555700D02*
X17206911Y-14565224D01*
X17206911Y-14565224D02*
X17216435Y-14574748D01*
X17216435Y-14574748D02*
X17225959Y-14593796D01*
X17225959Y-14593796D02*
X17225959Y-14650938D01*
X17225959Y-14650938D02*
X17216435Y-14669986D01*
X17216435Y-14669986D02*
X17206911Y-14679510D01*
X17206911Y-14679510D02*
X17187864Y-14689034D01*
X17187864Y-14689034D02*
X17159292Y-14689034D01*
X17283102Y-14555700D02*
X17359292Y-14555700D01*
X17311673Y-14489034D02*
X17311673Y-14660462D01*
X17311673Y-14660462D02*
X17321197Y-14679510D01*
X17321197Y-14679510D02*
X17340245Y-14689034D01*
X17340245Y-14689034D02*
X17359292Y-14689034D01*
X17578340Y-14555700D02*
X17578340Y-14755700D01*
X17578340Y-14565224D02*
X17597388Y-14555700D01*
X17597388Y-14555700D02*
X17635483Y-14555700D01*
X17635483Y-14555700D02*
X17654531Y-14565224D01*
X17654531Y-14565224D02*
X17664054Y-14574748D01*
X17664054Y-14574748D02*
X17673578Y-14593796D01*
X17673578Y-14593796D02*
X17673578Y-14650938D01*
X17673578Y-14650938D02*
X17664054Y-14669986D01*
X17664054Y-14669986D02*
X17654531Y-14679510D01*
X17654531Y-14679510D02*
X17635483Y-14689034D01*
X17635483Y-14689034D02*
X17597388Y-14689034D01*
X17597388Y-14689034D02*
X17578340Y-14679510D01*
X17787864Y-14689034D02*
X17768816Y-14679510D01*
X17768816Y-14679510D02*
X17759292Y-14660462D01*
X17759292Y-14660462D02*
X17759292Y-14489034D01*
X17949769Y-14689034D02*
X17949769Y-14584272D01*
X17949769Y-14584272D02*
X17940245Y-14565224D01*
X17940245Y-14565224D02*
X17921197Y-14555700D01*
X17921197Y-14555700D02*
X17883102Y-14555700D01*
X17883102Y-14555700D02*
X17864054Y-14565224D01*
X17949769Y-14679510D02*
X17930721Y-14689034D01*
X17930721Y-14689034D02*
X17883102Y-14689034D01*
X17883102Y-14689034D02*
X17864054Y-14679510D01*
X17864054Y-14679510D02*
X17854531Y-14660462D01*
X17854531Y-14660462D02*
X17854531Y-14641415D01*
X17854531Y-14641415D02*
X17864054Y-14622367D01*
X17864054Y-14622367D02*
X17883102Y-14612843D01*
X17883102Y-14612843D02*
X17930721Y-14612843D01*
X17930721Y-14612843D02*
X17949769Y-14603319D01*
X18016435Y-14555700D02*
X18092626Y-14555700D01*
X18045007Y-14489034D02*
X18045007Y-14660462D01*
X18045007Y-14660462D02*
X18054531Y-14679510D01*
X18054531Y-14679510D02*
X18073578Y-14689034D01*
X18073578Y-14689034D02*
X18092626Y-14689034D01*
X18235483Y-14679510D02*
X18216435Y-14689034D01*
X18216435Y-14689034D02*
X18178340Y-14689034D01*
X18178340Y-14689034D02*
X18159292Y-14679510D01*
X18159292Y-14679510D02*
X18149769Y-14660462D01*
X18149769Y-14660462D02*
X18149769Y-14584272D01*
X18149769Y-14584272D02*
X18159292Y-14565224D01*
X18159292Y-14565224D02*
X18178340Y-14555700D01*
X18178340Y-14555700D02*
X18216435Y-14555700D01*
X18216435Y-14555700D02*
X18235483Y-14565224D01*
X18235483Y-14565224D02*
X18245007Y-14584272D01*
X18245007Y-14584272D02*
X18245007Y-14603319D01*
X18245007Y-14603319D02*
X18149769Y-14622367D01*
X18416435Y-14689034D02*
X18416435Y-14489034D01*
X18416435Y-14679510D02*
X18397388Y-14689034D01*
X18397388Y-14689034D02*
X18359292Y-14689034D01*
X18359292Y-14689034D02*
X18340245Y-14679510D01*
X18340245Y-14679510D02*
X18330721Y-14669986D01*
X18330721Y-14669986D02*
X18321197Y-14650938D01*
X18321197Y-14650938D02*
X18321197Y-14593796D01*
X18321197Y-14593796D02*
X18330721Y-14574748D01*
X18330721Y-14574748D02*
X18340245Y-14565224D01*
X18340245Y-14565224D02*
X18359292Y-14555700D01*
X18359292Y-14555700D02*
X18397388Y-14555700D01*
X18397388Y-14555700D02*
X18416435Y-14565224D01*
X18492626Y-14765224D02*
X18502150Y-14755700D01*
X18502150Y-14755700D02*
X18521197Y-14727129D01*
X18521197Y-14727129D02*
X18530721Y-14708081D01*
X18530721Y-14708081D02*
X18540245Y-14679510D01*
X18540245Y-14679510D02*
X18549769Y-14631891D01*
X18549769Y-14631891D02*
X18549769Y-14593796D01*
X18549769Y-14593796D02*
X18540245Y-14546177D01*
X18540245Y-14546177D02*
X18530721Y-14517605D01*
X18530721Y-14517605D02*
X18521197Y-14498558D01*
X18521197Y-14498558D02*
X18502150Y-14469986D01*
X18502150Y-14469986D02*
X18492626Y-14460462D01*
D14*
X10117563Y-14867550D02*
G75*
G02*
X9952563Y-14867550I-82500J0D01*
G01*
X9952563Y-14867550D02*
G75*
G02*
X10117563Y-14867550I82500J0D01*
G01*
D10*
X10483101Y-14959034D02*
X10368816Y-14959034D01*
X10425958Y-14959034D02*
X10425958Y-14759034D01*
X10425958Y-14759034D02*
X10406911Y-14787605D01*
X10406911Y-14787605D02*
X10387863Y-14806653D01*
X10387863Y-14806653D02*
X10368816Y-14816177D01*
X10568816Y-14939986D02*
X10578339Y-14949510D01*
X10578339Y-14949510D02*
X10568816Y-14959034D01*
X10568816Y-14959034D02*
X10559292Y-14949510D01*
X10559292Y-14949510D02*
X10568816Y-14939986D01*
X10568816Y-14939986D02*
X10568816Y-14959034D01*
X10749768Y-14759034D02*
X10711673Y-14759034D01*
X10711673Y-14759034D02*
X10692625Y-14768558D01*
X10692625Y-14768558D02*
X10683101Y-14778081D01*
X10683101Y-14778081D02*
X10664054Y-14806653D01*
X10664054Y-14806653D02*
X10654530Y-14844748D01*
X10654530Y-14844748D02*
X10654530Y-14920938D01*
X10654530Y-14920938D02*
X10664054Y-14939986D01*
X10664054Y-14939986D02*
X10673577Y-14949510D01*
X10673577Y-14949510D02*
X10692625Y-14959034D01*
X10692625Y-14959034D02*
X10730720Y-14959034D01*
X10730720Y-14959034D02*
X10749768Y-14949510D01*
X10749768Y-14949510D02*
X10759292Y-14939986D01*
X10759292Y-14939986D02*
X10768816Y-14920938D01*
X10768816Y-14920938D02*
X10768816Y-14873319D01*
X10768816Y-14873319D02*
X10759292Y-14854272D01*
X10759292Y-14854272D02*
X10749768Y-14844748D01*
X10749768Y-14844748D02*
X10730720Y-14835224D01*
X10730720Y-14835224D02*
X10692625Y-14835224D01*
X10692625Y-14835224D02*
X10673577Y-14844748D01*
X10673577Y-14844748D02*
X10664054Y-14854272D01*
X10664054Y-14854272D02*
X10654530Y-14873319D01*
X10949768Y-14759034D02*
X10854530Y-14759034D01*
X10854530Y-14759034D02*
X10845006Y-14854272D01*
X10845006Y-14854272D02*
X10854530Y-14844748D01*
X10854530Y-14844748D02*
X10873577Y-14835224D01*
X10873577Y-14835224D02*
X10921197Y-14835224D01*
X10921197Y-14835224D02*
X10940244Y-14844748D01*
X10940244Y-14844748D02*
X10949768Y-14854272D01*
X10949768Y-14854272D02*
X10959292Y-14873319D01*
X10959292Y-14873319D02*
X10959292Y-14920938D01*
X10959292Y-14920938D02*
X10949768Y-14939986D01*
X10949768Y-14939986D02*
X10940244Y-14949510D01*
X10940244Y-14949510D02*
X10921197Y-14959034D01*
X10921197Y-14959034D02*
X10873577Y-14959034D01*
X10873577Y-14959034D02*
X10854530Y-14949510D01*
X10854530Y-14949510D02*
X10845006Y-14939986D01*
X11083101Y-14759034D02*
X11102149Y-14759034D01*
X11102149Y-14759034D02*
X11121197Y-14768558D01*
X11121197Y-14768558D02*
X11130720Y-14778081D01*
X11130720Y-14778081D02*
X11140244Y-14797129D01*
X11140244Y-14797129D02*
X11149768Y-14835224D01*
X11149768Y-14835224D02*
X11149768Y-14882843D01*
X11149768Y-14882843D02*
X11140244Y-14920938D01*
X11140244Y-14920938D02*
X11130720Y-14939986D01*
X11130720Y-14939986D02*
X11121197Y-14949510D01*
X11121197Y-14949510D02*
X11102149Y-14959034D01*
X11102149Y-14959034D02*
X11083101Y-14959034D01*
X11083101Y-14959034D02*
X11064054Y-14949510D01*
X11064054Y-14949510D02*
X11054530Y-14939986D01*
X11054530Y-14939986D02*
X11045006Y-14920938D01*
X11045006Y-14920938D02*
X11035482Y-14882843D01*
X11035482Y-14882843D02*
X11035482Y-14835224D01*
X11035482Y-14835224D02*
X11045006Y-14797129D01*
X11045006Y-14797129D02*
X11054530Y-14778081D01*
X11054530Y-14778081D02*
X11064054Y-14768558D01*
X11064054Y-14768558D02*
X11083101Y-14759034D01*
X11235482Y-14959034D02*
X11235482Y-14825700D01*
X11235482Y-14844748D02*
X11245006Y-14835224D01*
X11245006Y-14835224D02*
X11264054Y-14825700D01*
X11264054Y-14825700D02*
X11292625Y-14825700D01*
X11292625Y-14825700D02*
X11311673Y-14835224D01*
X11311673Y-14835224D02*
X11321196Y-14854272D01*
X11321196Y-14854272D02*
X11321196Y-14959034D01*
X11321196Y-14854272D02*
X11330720Y-14835224D01*
X11330720Y-14835224D02*
X11349768Y-14825700D01*
X11349768Y-14825700D02*
X11378339Y-14825700D01*
X11378339Y-14825700D02*
X11397387Y-14835224D01*
X11397387Y-14835224D02*
X11406911Y-14854272D01*
X11406911Y-14854272D02*
X11406911Y-14959034D01*
X11502149Y-14959034D02*
X11502149Y-14825700D01*
X11502149Y-14844748D02*
X11511673Y-14835224D01*
X11511673Y-14835224D02*
X11530720Y-14825700D01*
X11530720Y-14825700D02*
X11559292Y-14825700D01*
X11559292Y-14825700D02*
X11578339Y-14835224D01*
X11578339Y-14835224D02*
X11587863Y-14854272D01*
X11587863Y-14854272D02*
X11587863Y-14959034D01*
X11587863Y-14854272D02*
X11597387Y-14835224D01*
X11597387Y-14835224D02*
X11616435Y-14825700D01*
X11616435Y-14825700D02*
X11645006Y-14825700D01*
X11645006Y-14825700D02*
X11664054Y-14835224D01*
X11664054Y-14835224D02*
X11673577Y-14854272D01*
X11673577Y-14854272D02*
X11673577Y-14959034D01*
X12064054Y-14749510D02*
X11892625Y-15006653D01*
X12321197Y-14759034D02*
X12340244Y-14759034D01*
X12340244Y-14759034D02*
X12359292Y-14768558D01*
X12359292Y-14768558D02*
X12368816Y-14778081D01*
X12368816Y-14778081D02*
X12378339Y-14797129D01*
X12378339Y-14797129D02*
X12387863Y-14835224D01*
X12387863Y-14835224D02*
X12387863Y-14882843D01*
X12387863Y-14882843D02*
X12378339Y-14920938D01*
X12378339Y-14920938D02*
X12368816Y-14939986D01*
X12368816Y-14939986D02*
X12359292Y-14949510D01*
X12359292Y-14949510D02*
X12340244Y-14959034D01*
X12340244Y-14959034D02*
X12321197Y-14959034D01*
X12321197Y-14959034D02*
X12302149Y-14949510D01*
X12302149Y-14949510D02*
X12292625Y-14939986D01*
X12292625Y-14939986D02*
X12283101Y-14920938D01*
X12283101Y-14920938D02*
X12273578Y-14882843D01*
X12273578Y-14882843D02*
X12273578Y-14835224D01*
X12273578Y-14835224D02*
X12283101Y-14797129D01*
X12283101Y-14797129D02*
X12292625Y-14778081D01*
X12292625Y-14778081D02*
X12302149Y-14768558D01*
X12302149Y-14768558D02*
X12321197Y-14759034D01*
X12473578Y-14939986D02*
X12483101Y-14949510D01*
X12483101Y-14949510D02*
X12473578Y-14959034D01*
X12473578Y-14959034D02*
X12464054Y-14949510D01*
X12464054Y-14949510D02*
X12473578Y-14939986D01*
X12473578Y-14939986D02*
X12473578Y-14959034D01*
X12606911Y-14759034D02*
X12625959Y-14759034D01*
X12625959Y-14759034D02*
X12645006Y-14768558D01*
X12645006Y-14768558D02*
X12654530Y-14778081D01*
X12654530Y-14778081D02*
X12664054Y-14797129D01*
X12664054Y-14797129D02*
X12673578Y-14835224D01*
X12673578Y-14835224D02*
X12673578Y-14882843D01*
X12673578Y-14882843D02*
X12664054Y-14920938D01*
X12664054Y-14920938D02*
X12654530Y-14939986D01*
X12654530Y-14939986D02*
X12645006Y-14949510D01*
X12645006Y-14949510D02*
X12625959Y-14959034D01*
X12625959Y-14959034D02*
X12606911Y-14959034D01*
X12606911Y-14959034D02*
X12587863Y-14949510D01*
X12587863Y-14949510D02*
X12578339Y-14939986D01*
X12578339Y-14939986D02*
X12568816Y-14920938D01*
X12568816Y-14920938D02*
X12559292Y-14882843D01*
X12559292Y-14882843D02*
X12559292Y-14835224D01*
X12559292Y-14835224D02*
X12568816Y-14797129D01*
X12568816Y-14797129D02*
X12578339Y-14778081D01*
X12578339Y-14778081D02*
X12587863Y-14768558D01*
X12587863Y-14768558D02*
X12606911Y-14759034D01*
X12845006Y-14759034D02*
X12806911Y-14759034D01*
X12806911Y-14759034D02*
X12787863Y-14768558D01*
X12787863Y-14768558D02*
X12778339Y-14778081D01*
X12778339Y-14778081D02*
X12759292Y-14806653D01*
X12759292Y-14806653D02*
X12749768Y-14844748D01*
X12749768Y-14844748D02*
X12749768Y-14920938D01*
X12749768Y-14920938D02*
X12759292Y-14939986D01*
X12759292Y-14939986D02*
X12768816Y-14949510D01*
X12768816Y-14949510D02*
X12787863Y-14959034D01*
X12787863Y-14959034D02*
X12825959Y-14959034D01*
X12825959Y-14959034D02*
X12845006Y-14949510D01*
X12845006Y-14949510D02*
X12854530Y-14939986D01*
X12854530Y-14939986D02*
X12864054Y-14920938D01*
X12864054Y-14920938D02*
X12864054Y-14873319D01*
X12864054Y-14873319D02*
X12854530Y-14854272D01*
X12854530Y-14854272D02*
X12845006Y-14844748D01*
X12845006Y-14844748D02*
X12825959Y-14835224D01*
X12825959Y-14835224D02*
X12787863Y-14835224D01*
X12787863Y-14835224D02*
X12768816Y-14844748D01*
X12768816Y-14844748D02*
X12759292Y-14854272D01*
X12759292Y-14854272D02*
X12749768Y-14873319D01*
X13045006Y-14759034D02*
X12949768Y-14759034D01*
X12949768Y-14759034D02*
X12940244Y-14854272D01*
X12940244Y-14854272D02*
X12949768Y-14844748D01*
X12949768Y-14844748D02*
X12968816Y-14835224D01*
X12968816Y-14835224D02*
X13016435Y-14835224D01*
X13016435Y-14835224D02*
X13035482Y-14844748D01*
X13035482Y-14844748D02*
X13045006Y-14854272D01*
X13045006Y-14854272D02*
X13054530Y-14873319D01*
X13054530Y-14873319D02*
X13054530Y-14920938D01*
X13054530Y-14920938D02*
X13045006Y-14939986D01*
X13045006Y-14939986D02*
X13035482Y-14949510D01*
X13035482Y-14949510D02*
X13016435Y-14959034D01*
X13016435Y-14959034D02*
X12968816Y-14959034D01*
X12968816Y-14959034D02*
X12949768Y-14949510D01*
X12949768Y-14949510D02*
X12940244Y-14939986D01*
X13178339Y-14759034D02*
X13197387Y-14759034D01*
X13197387Y-14759034D02*
X13216435Y-14768558D01*
X13216435Y-14768558D02*
X13225959Y-14778081D01*
X13225959Y-14778081D02*
X13235482Y-14797129D01*
X13235482Y-14797129D02*
X13245006Y-14835224D01*
X13245006Y-14835224D02*
X13245006Y-14882843D01*
X13245006Y-14882843D02*
X13235482Y-14920938D01*
X13235482Y-14920938D02*
X13225959Y-14939986D01*
X13225959Y-14939986D02*
X13216435Y-14949510D01*
X13216435Y-14949510D02*
X13197387Y-14959034D01*
X13197387Y-14959034D02*
X13178339Y-14959034D01*
X13178339Y-14959034D02*
X13159292Y-14949510D01*
X13159292Y-14949510D02*
X13149768Y-14939986D01*
X13149768Y-14939986D02*
X13140244Y-14920938D01*
X13140244Y-14920938D02*
X13130720Y-14882843D01*
X13130720Y-14882843D02*
X13130720Y-14835224D01*
X13130720Y-14835224D02*
X13140244Y-14797129D01*
X13140244Y-14797129D02*
X13149768Y-14778081D01*
X13149768Y-14778081D02*
X13159292Y-14768558D01*
X13159292Y-14768558D02*
X13178339Y-14759034D01*
X13321197Y-14759034D02*
X13321197Y-14797129D01*
X13397387Y-14759034D02*
X13397387Y-14797129D01*
X13692625Y-15035224D02*
X13683101Y-15025700D01*
X13683101Y-15025700D02*
X13664054Y-14997129D01*
X13664054Y-14997129D02*
X13654530Y-14978081D01*
X13654530Y-14978081D02*
X13645006Y-14949510D01*
X13645006Y-14949510D02*
X13635482Y-14901891D01*
X13635482Y-14901891D02*
X13635482Y-14863796D01*
X13635482Y-14863796D02*
X13645006Y-14816177D01*
X13645006Y-14816177D02*
X13654530Y-14787605D01*
X13654530Y-14787605D02*
X13664054Y-14768558D01*
X13664054Y-14768558D02*
X13683101Y-14739986D01*
X13683101Y-14739986D02*
X13692625Y-14730462D01*
X13759292Y-14778081D02*
X13768816Y-14768558D01*
X13768816Y-14768558D02*
X13787863Y-14759034D01*
X13787863Y-14759034D02*
X13835482Y-14759034D01*
X13835482Y-14759034D02*
X13854530Y-14768558D01*
X13854530Y-14768558D02*
X13864054Y-14778081D01*
X13864054Y-14778081D02*
X13873578Y-14797129D01*
X13873578Y-14797129D02*
X13873578Y-14816177D01*
X13873578Y-14816177D02*
X13864054Y-14844748D01*
X13864054Y-14844748D02*
X13749768Y-14959034D01*
X13749768Y-14959034D02*
X13873578Y-14959034D01*
X14111673Y-14959034D02*
X14111673Y-14759034D01*
X14197387Y-14959034D02*
X14197387Y-14854272D01*
X14197387Y-14854272D02*
X14187863Y-14835224D01*
X14187863Y-14835224D02*
X14168816Y-14825700D01*
X14168816Y-14825700D02*
X14140244Y-14825700D01*
X14140244Y-14825700D02*
X14121197Y-14835224D01*
X14121197Y-14835224D02*
X14111673Y-14844748D01*
X14321197Y-14959034D02*
X14302149Y-14949510D01*
X14302149Y-14949510D02*
X14292625Y-14939986D01*
X14292625Y-14939986D02*
X14283102Y-14920938D01*
X14283102Y-14920938D02*
X14283102Y-14863796D01*
X14283102Y-14863796D02*
X14292625Y-14844748D01*
X14292625Y-14844748D02*
X14302149Y-14835224D01*
X14302149Y-14835224D02*
X14321197Y-14825700D01*
X14321197Y-14825700D02*
X14349768Y-14825700D01*
X14349768Y-14825700D02*
X14368816Y-14835224D01*
X14368816Y-14835224D02*
X14378340Y-14844748D01*
X14378340Y-14844748D02*
X14387863Y-14863796D01*
X14387863Y-14863796D02*
X14387863Y-14920938D01*
X14387863Y-14920938D02*
X14378340Y-14939986D01*
X14378340Y-14939986D02*
X14368816Y-14949510D01*
X14368816Y-14949510D02*
X14349768Y-14959034D01*
X14349768Y-14959034D02*
X14321197Y-14959034D01*
X14502149Y-14959034D02*
X14483102Y-14949510D01*
X14483102Y-14949510D02*
X14473578Y-14930462D01*
X14473578Y-14930462D02*
X14473578Y-14759034D01*
X14654530Y-14949510D02*
X14635483Y-14959034D01*
X14635483Y-14959034D02*
X14597387Y-14959034D01*
X14597387Y-14959034D02*
X14578340Y-14949510D01*
X14578340Y-14949510D02*
X14568816Y-14930462D01*
X14568816Y-14930462D02*
X14568816Y-14854272D01*
X14568816Y-14854272D02*
X14578340Y-14835224D01*
X14578340Y-14835224D02*
X14597387Y-14825700D01*
X14597387Y-14825700D02*
X14635483Y-14825700D01*
X14635483Y-14825700D02*
X14654530Y-14835224D01*
X14654530Y-14835224D02*
X14664054Y-14854272D01*
X14664054Y-14854272D02*
X14664054Y-14873319D01*
X14664054Y-14873319D02*
X14568816Y-14892367D01*
X14740244Y-14949510D02*
X14759292Y-14959034D01*
X14759292Y-14959034D02*
X14797387Y-14959034D01*
X14797387Y-14959034D02*
X14816435Y-14949510D01*
X14816435Y-14949510D02*
X14825959Y-14930462D01*
X14825959Y-14930462D02*
X14825959Y-14920938D01*
X14825959Y-14920938D02*
X14816435Y-14901891D01*
X14816435Y-14901891D02*
X14797387Y-14892367D01*
X14797387Y-14892367D02*
X14768816Y-14892367D01*
X14768816Y-14892367D02*
X14749768Y-14882843D01*
X14749768Y-14882843D02*
X14740244Y-14863796D01*
X14740244Y-14863796D02*
X14740244Y-14854272D01*
X14740244Y-14854272D02*
X14749768Y-14835224D01*
X14749768Y-14835224D02*
X14768816Y-14825700D01*
X14768816Y-14825700D02*
X14797387Y-14825700D01*
X14797387Y-14825700D02*
X14816435Y-14835224D01*
X14892625Y-15035224D02*
X14902149Y-15025700D01*
X14902149Y-15025700D02*
X14921197Y-14997129D01*
X14921197Y-14997129D02*
X14930721Y-14978081D01*
X14930721Y-14978081D02*
X14940244Y-14949510D01*
X14940244Y-14949510D02*
X14949768Y-14901891D01*
X14949768Y-14901891D02*
X14949768Y-14863796D01*
X14949768Y-14863796D02*
X14940244Y-14816177D01*
X14940244Y-14816177D02*
X14930721Y-14787605D01*
X14930721Y-14787605D02*
X14921197Y-14768558D01*
X14921197Y-14768558D02*
X14902149Y-14739986D01*
X14902149Y-14739986D02*
X14892625Y-14730462D01*
X15254530Y-15035224D02*
X15245006Y-15025700D01*
X15245006Y-15025700D02*
X15225959Y-14997129D01*
X15225959Y-14997129D02*
X15216435Y-14978081D01*
X15216435Y-14978081D02*
X15206911Y-14949510D01*
X15206911Y-14949510D02*
X15197387Y-14901891D01*
X15197387Y-14901891D02*
X15197387Y-14863796D01*
X15197387Y-14863796D02*
X15206911Y-14816177D01*
X15206911Y-14816177D02*
X15216435Y-14787605D01*
X15216435Y-14787605D02*
X15225959Y-14768558D01*
X15225959Y-14768558D02*
X15245006Y-14739986D01*
X15245006Y-14739986D02*
X15254530Y-14730462D01*
X15330721Y-14825700D02*
X15330721Y-14959034D01*
X15330721Y-14844748D02*
X15340244Y-14835224D01*
X15340244Y-14835224D02*
X15359292Y-14825700D01*
X15359292Y-14825700D02*
X15387864Y-14825700D01*
X15387864Y-14825700D02*
X15406911Y-14835224D01*
X15406911Y-14835224D02*
X15416435Y-14854272D01*
X15416435Y-14854272D02*
X15416435Y-14959034D01*
X15540244Y-14959034D02*
X15521197Y-14949510D01*
X15521197Y-14949510D02*
X15511673Y-14939986D01*
X15511673Y-14939986D02*
X15502149Y-14920938D01*
X15502149Y-14920938D02*
X15502149Y-14863796D01*
X15502149Y-14863796D02*
X15511673Y-14844748D01*
X15511673Y-14844748D02*
X15521197Y-14835224D01*
X15521197Y-14835224D02*
X15540244Y-14825700D01*
X15540244Y-14825700D02*
X15568816Y-14825700D01*
X15568816Y-14825700D02*
X15587864Y-14835224D01*
X15587864Y-14835224D02*
X15597387Y-14844748D01*
X15597387Y-14844748D02*
X15606911Y-14863796D01*
X15606911Y-14863796D02*
X15606911Y-14920938D01*
X15606911Y-14920938D02*
X15597387Y-14939986D01*
X15597387Y-14939986D02*
X15587864Y-14949510D01*
X15587864Y-14949510D02*
X15568816Y-14959034D01*
X15568816Y-14959034D02*
X15540244Y-14959034D01*
X15664054Y-14825700D02*
X15740244Y-14825700D01*
X15692625Y-14759034D02*
X15692625Y-14930462D01*
X15692625Y-14930462D02*
X15702149Y-14949510D01*
X15702149Y-14949510D02*
X15721197Y-14959034D01*
X15721197Y-14959034D02*
X15740244Y-14959034D01*
X15959292Y-14825700D02*
X15959292Y-15025700D01*
X15959292Y-14835224D02*
X15978340Y-14825700D01*
X15978340Y-14825700D02*
X16016435Y-14825700D01*
X16016435Y-14825700D02*
X16035483Y-14835224D01*
X16035483Y-14835224D02*
X16045006Y-14844748D01*
X16045006Y-14844748D02*
X16054530Y-14863796D01*
X16054530Y-14863796D02*
X16054530Y-14920938D01*
X16054530Y-14920938D02*
X16045006Y-14939986D01*
X16045006Y-14939986D02*
X16035483Y-14949510D01*
X16035483Y-14949510D02*
X16016435Y-14959034D01*
X16016435Y-14959034D02*
X15978340Y-14959034D01*
X15978340Y-14959034D02*
X15959292Y-14949510D01*
X16168816Y-14959034D02*
X16149768Y-14949510D01*
X16149768Y-14949510D02*
X16140245Y-14930462D01*
X16140245Y-14930462D02*
X16140245Y-14759034D01*
X16330721Y-14959034D02*
X16330721Y-14854272D01*
X16330721Y-14854272D02*
X16321197Y-14835224D01*
X16321197Y-14835224D02*
X16302149Y-14825700D01*
X16302149Y-14825700D02*
X16264054Y-14825700D01*
X16264054Y-14825700D02*
X16245006Y-14835224D01*
X16330721Y-14949510D02*
X16311673Y-14959034D01*
X16311673Y-14959034D02*
X16264054Y-14959034D01*
X16264054Y-14959034D02*
X16245006Y-14949510D01*
X16245006Y-14949510D02*
X16235483Y-14930462D01*
X16235483Y-14930462D02*
X16235483Y-14911415D01*
X16235483Y-14911415D02*
X16245006Y-14892367D01*
X16245006Y-14892367D02*
X16264054Y-14882843D01*
X16264054Y-14882843D02*
X16311673Y-14882843D01*
X16311673Y-14882843D02*
X16330721Y-14873319D01*
X16397387Y-14825700D02*
X16473578Y-14825700D01*
X16425959Y-14759034D02*
X16425959Y-14930462D01*
X16425959Y-14930462D02*
X16435483Y-14949510D01*
X16435483Y-14949510D02*
X16454530Y-14959034D01*
X16454530Y-14959034D02*
X16473578Y-14959034D01*
X16616435Y-14949510D02*
X16597387Y-14959034D01*
X16597387Y-14959034D02*
X16559292Y-14959034D01*
X16559292Y-14959034D02*
X16540245Y-14949510D01*
X16540245Y-14949510D02*
X16530721Y-14930462D01*
X16530721Y-14930462D02*
X16530721Y-14854272D01*
X16530721Y-14854272D02*
X16540245Y-14835224D01*
X16540245Y-14835224D02*
X16559292Y-14825700D01*
X16559292Y-14825700D02*
X16597387Y-14825700D01*
X16597387Y-14825700D02*
X16616435Y-14835224D01*
X16616435Y-14835224D02*
X16625959Y-14854272D01*
X16625959Y-14854272D02*
X16625959Y-14873319D01*
X16625959Y-14873319D02*
X16530721Y-14892367D01*
X16797388Y-14959034D02*
X16797388Y-14759034D01*
X16797388Y-14949510D02*
X16778340Y-14959034D01*
X16778340Y-14959034D02*
X16740245Y-14959034D01*
X16740245Y-14959034D02*
X16721197Y-14949510D01*
X16721197Y-14949510D02*
X16711673Y-14939986D01*
X16711673Y-14939986D02*
X16702149Y-14920938D01*
X16702149Y-14920938D02*
X16702149Y-14863796D01*
X16702149Y-14863796D02*
X16711673Y-14844748D01*
X16711673Y-14844748D02*
X16721197Y-14835224D01*
X16721197Y-14835224D02*
X16740245Y-14825700D01*
X16740245Y-14825700D02*
X16778340Y-14825700D01*
X16778340Y-14825700D02*
X16797388Y-14835224D01*
X16873578Y-15035224D02*
X16883102Y-15025700D01*
X16883102Y-15025700D02*
X16902149Y-14997129D01*
X16902149Y-14997129D02*
X16911673Y-14978081D01*
X16911673Y-14978081D02*
X16921197Y-14949510D01*
X16921197Y-14949510D02*
X16930721Y-14901891D01*
X16930721Y-14901891D02*
X16930721Y-14863796D01*
X16930721Y-14863796D02*
X16921197Y-14816177D01*
X16921197Y-14816177D02*
X16911673Y-14787605D01*
X16911673Y-14787605D02*
X16902149Y-14768558D01*
X16902149Y-14768558D02*
X16883102Y-14739986D01*
X16883102Y-14739986D02*
X16873578Y-14730462D01*
X10017563Y-15052550D02*
X10017563Y-15252550D01*
X9917563Y-15152550D02*
X10117563Y-15152550D01*
X10368816Y-15063081D02*
X10378339Y-15053558D01*
X10378339Y-15053558D02*
X10397387Y-15044034D01*
X10397387Y-15044034D02*
X10445006Y-15044034D01*
X10445006Y-15044034D02*
X10464054Y-15053558D01*
X10464054Y-15053558D02*
X10473577Y-15063081D01*
X10473577Y-15063081D02*
X10483101Y-15082129D01*
X10483101Y-15082129D02*
X10483101Y-15101177D01*
X10483101Y-15101177D02*
X10473577Y-15129748D01*
X10473577Y-15129748D02*
X10359292Y-15244034D01*
X10359292Y-15244034D02*
X10483101Y-15244034D01*
X10568816Y-15224986D02*
X10578339Y-15234510D01*
X10578339Y-15234510D02*
X10568816Y-15244034D01*
X10568816Y-15244034D02*
X10559292Y-15234510D01*
X10559292Y-15234510D02*
X10568816Y-15224986D01*
X10568816Y-15224986D02*
X10568816Y-15244034D01*
X10702149Y-15044034D02*
X10721197Y-15044034D01*
X10721197Y-15044034D02*
X10740244Y-15053558D01*
X10740244Y-15053558D02*
X10749768Y-15063081D01*
X10749768Y-15063081D02*
X10759292Y-15082129D01*
X10759292Y-15082129D02*
X10768816Y-15120224D01*
X10768816Y-15120224D02*
X10768816Y-15167843D01*
X10768816Y-15167843D02*
X10759292Y-15205938D01*
X10759292Y-15205938D02*
X10749768Y-15224986D01*
X10749768Y-15224986D02*
X10740244Y-15234510D01*
X10740244Y-15234510D02*
X10721197Y-15244034D01*
X10721197Y-15244034D02*
X10702149Y-15244034D01*
X10702149Y-15244034D02*
X10683101Y-15234510D01*
X10683101Y-15234510D02*
X10673577Y-15224986D01*
X10673577Y-15224986D02*
X10664054Y-15205938D01*
X10664054Y-15205938D02*
X10654530Y-15167843D01*
X10654530Y-15167843D02*
X10654530Y-15120224D01*
X10654530Y-15120224D02*
X10664054Y-15082129D01*
X10664054Y-15082129D02*
X10673577Y-15063081D01*
X10673577Y-15063081D02*
X10683101Y-15053558D01*
X10683101Y-15053558D02*
X10702149Y-15044034D01*
X10892625Y-15044034D02*
X10911673Y-15044034D01*
X10911673Y-15044034D02*
X10930720Y-15053558D01*
X10930720Y-15053558D02*
X10940244Y-15063081D01*
X10940244Y-15063081D02*
X10949768Y-15082129D01*
X10949768Y-15082129D02*
X10959292Y-15120224D01*
X10959292Y-15120224D02*
X10959292Y-15167843D01*
X10959292Y-15167843D02*
X10949768Y-15205938D01*
X10949768Y-15205938D02*
X10940244Y-15224986D01*
X10940244Y-15224986D02*
X10930720Y-15234510D01*
X10930720Y-15234510D02*
X10911673Y-15244034D01*
X10911673Y-15244034D02*
X10892625Y-15244034D01*
X10892625Y-15244034D02*
X10873577Y-15234510D01*
X10873577Y-15234510D02*
X10864054Y-15224986D01*
X10864054Y-15224986D02*
X10854530Y-15205938D01*
X10854530Y-15205938D02*
X10845006Y-15167843D01*
X10845006Y-15167843D02*
X10845006Y-15120224D01*
X10845006Y-15120224D02*
X10854530Y-15082129D01*
X10854530Y-15082129D02*
X10864054Y-15063081D01*
X10864054Y-15063081D02*
X10873577Y-15053558D01*
X10873577Y-15053558D02*
X10892625Y-15044034D01*
X11083101Y-15044034D02*
X11102149Y-15044034D01*
X11102149Y-15044034D02*
X11121197Y-15053558D01*
X11121197Y-15053558D02*
X11130720Y-15063081D01*
X11130720Y-15063081D02*
X11140244Y-15082129D01*
X11140244Y-15082129D02*
X11149768Y-15120224D01*
X11149768Y-15120224D02*
X11149768Y-15167843D01*
X11149768Y-15167843D02*
X11140244Y-15205938D01*
X11140244Y-15205938D02*
X11130720Y-15224986D01*
X11130720Y-15224986D02*
X11121197Y-15234510D01*
X11121197Y-15234510D02*
X11102149Y-15244034D01*
X11102149Y-15244034D02*
X11083101Y-15244034D01*
X11083101Y-15244034D02*
X11064054Y-15234510D01*
X11064054Y-15234510D02*
X11054530Y-15224986D01*
X11054530Y-15224986D02*
X11045006Y-15205938D01*
X11045006Y-15205938D02*
X11035482Y-15167843D01*
X11035482Y-15167843D02*
X11035482Y-15120224D01*
X11035482Y-15120224D02*
X11045006Y-15082129D01*
X11045006Y-15082129D02*
X11054530Y-15063081D01*
X11054530Y-15063081D02*
X11064054Y-15053558D01*
X11064054Y-15053558D02*
X11083101Y-15044034D01*
X11235482Y-15244034D02*
X11235482Y-15110700D01*
X11235482Y-15129748D02*
X11245006Y-15120224D01*
X11245006Y-15120224D02*
X11264054Y-15110700D01*
X11264054Y-15110700D02*
X11292625Y-15110700D01*
X11292625Y-15110700D02*
X11311673Y-15120224D01*
X11311673Y-15120224D02*
X11321196Y-15139272D01*
X11321196Y-15139272D02*
X11321196Y-15244034D01*
X11321196Y-15139272D02*
X11330720Y-15120224D01*
X11330720Y-15120224D02*
X11349768Y-15110700D01*
X11349768Y-15110700D02*
X11378339Y-15110700D01*
X11378339Y-15110700D02*
X11397387Y-15120224D01*
X11397387Y-15120224D02*
X11406911Y-15139272D01*
X11406911Y-15139272D02*
X11406911Y-15244034D01*
X11502149Y-15244034D02*
X11502149Y-15110700D01*
X11502149Y-15129748D02*
X11511673Y-15120224D01*
X11511673Y-15120224D02*
X11530720Y-15110700D01*
X11530720Y-15110700D02*
X11559292Y-15110700D01*
X11559292Y-15110700D02*
X11578339Y-15120224D01*
X11578339Y-15120224D02*
X11587863Y-15139272D01*
X11587863Y-15139272D02*
X11587863Y-15244034D01*
X11587863Y-15139272D02*
X11597387Y-15120224D01*
X11597387Y-15120224D02*
X11616435Y-15110700D01*
X11616435Y-15110700D02*
X11645006Y-15110700D01*
X11645006Y-15110700D02*
X11664054Y-15120224D01*
X11664054Y-15120224D02*
X11673577Y-15139272D01*
X11673577Y-15139272D02*
X11673577Y-15244034D01*
X12064054Y-15034510D02*
X11892625Y-15291653D01*
X12321197Y-15044034D02*
X12340244Y-15044034D01*
X12340244Y-15044034D02*
X12359292Y-15053558D01*
X12359292Y-15053558D02*
X12368816Y-15063081D01*
X12368816Y-15063081D02*
X12378339Y-15082129D01*
X12378339Y-15082129D02*
X12387863Y-15120224D01*
X12387863Y-15120224D02*
X12387863Y-15167843D01*
X12387863Y-15167843D02*
X12378339Y-15205938D01*
X12378339Y-15205938D02*
X12368816Y-15224986D01*
X12368816Y-15224986D02*
X12359292Y-15234510D01*
X12359292Y-15234510D02*
X12340244Y-15244034D01*
X12340244Y-15244034D02*
X12321197Y-15244034D01*
X12321197Y-15244034D02*
X12302149Y-15234510D01*
X12302149Y-15234510D02*
X12292625Y-15224986D01*
X12292625Y-15224986D02*
X12283101Y-15205938D01*
X12283101Y-15205938D02*
X12273578Y-15167843D01*
X12273578Y-15167843D02*
X12273578Y-15120224D01*
X12273578Y-15120224D02*
X12283101Y-15082129D01*
X12283101Y-15082129D02*
X12292625Y-15063081D01*
X12292625Y-15063081D02*
X12302149Y-15053558D01*
X12302149Y-15053558D02*
X12321197Y-15044034D01*
X12473578Y-15224986D02*
X12483101Y-15234510D01*
X12483101Y-15234510D02*
X12473578Y-15244034D01*
X12473578Y-15244034D02*
X12464054Y-15234510D01*
X12464054Y-15234510D02*
X12473578Y-15224986D01*
X12473578Y-15224986D02*
X12473578Y-15244034D01*
X12606911Y-15044034D02*
X12625959Y-15044034D01*
X12625959Y-15044034D02*
X12645006Y-15053558D01*
X12645006Y-15053558D02*
X12654530Y-15063081D01*
X12654530Y-15063081D02*
X12664054Y-15082129D01*
X12664054Y-15082129D02*
X12673578Y-15120224D01*
X12673578Y-15120224D02*
X12673578Y-15167843D01*
X12673578Y-15167843D02*
X12664054Y-15205938D01*
X12664054Y-15205938D02*
X12654530Y-15224986D01*
X12654530Y-15224986D02*
X12645006Y-15234510D01*
X12645006Y-15234510D02*
X12625959Y-15244034D01*
X12625959Y-15244034D02*
X12606911Y-15244034D01*
X12606911Y-15244034D02*
X12587863Y-15234510D01*
X12587863Y-15234510D02*
X12578339Y-15224986D01*
X12578339Y-15224986D02*
X12568816Y-15205938D01*
X12568816Y-15205938D02*
X12559292Y-15167843D01*
X12559292Y-15167843D02*
X12559292Y-15120224D01*
X12559292Y-15120224D02*
X12568816Y-15082129D01*
X12568816Y-15082129D02*
X12578339Y-15063081D01*
X12578339Y-15063081D02*
X12587863Y-15053558D01*
X12587863Y-15053558D02*
X12606911Y-15044034D01*
X12740244Y-15044034D02*
X12873578Y-15044034D01*
X12873578Y-15044034D02*
X12787863Y-15244034D01*
X12978339Y-15129748D02*
X12959292Y-15120224D01*
X12959292Y-15120224D02*
X12949768Y-15110700D01*
X12949768Y-15110700D02*
X12940244Y-15091653D01*
X12940244Y-15091653D02*
X12940244Y-15082129D01*
X12940244Y-15082129D02*
X12949768Y-15063081D01*
X12949768Y-15063081D02*
X12959292Y-15053558D01*
X12959292Y-15053558D02*
X12978339Y-15044034D01*
X12978339Y-15044034D02*
X13016435Y-15044034D01*
X13016435Y-15044034D02*
X13035482Y-15053558D01*
X13035482Y-15053558D02*
X13045006Y-15063081D01*
X13045006Y-15063081D02*
X13054530Y-15082129D01*
X13054530Y-15082129D02*
X13054530Y-15091653D01*
X13054530Y-15091653D02*
X13045006Y-15110700D01*
X13045006Y-15110700D02*
X13035482Y-15120224D01*
X13035482Y-15120224D02*
X13016435Y-15129748D01*
X13016435Y-15129748D02*
X12978339Y-15129748D01*
X12978339Y-15129748D02*
X12959292Y-15139272D01*
X12959292Y-15139272D02*
X12949768Y-15148796D01*
X12949768Y-15148796D02*
X12940244Y-15167843D01*
X12940244Y-15167843D02*
X12940244Y-15205938D01*
X12940244Y-15205938D02*
X12949768Y-15224986D01*
X12949768Y-15224986D02*
X12959292Y-15234510D01*
X12959292Y-15234510D02*
X12978339Y-15244034D01*
X12978339Y-15244034D02*
X13016435Y-15244034D01*
X13016435Y-15244034D02*
X13035482Y-15234510D01*
X13035482Y-15234510D02*
X13045006Y-15224986D01*
X13045006Y-15224986D02*
X13054530Y-15205938D01*
X13054530Y-15205938D02*
X13054530Y-15167843D01*
X13054530Y-15167843D02*
X13045006Y-15148796D01*
X13045006Y-15148796D02*
X13035482Y-15139272D01*
X13035482Y-15139272D02*
X13016435Y-15129748D01*
X13121197Y-15044034D02*
X13254530Y-15044034D01*
X13254530Y-15044034D02*
X13168816Y-15244034D01*
X13321197Y-15044034D02*
X13321197Y-15082129D01*
X13397387Y-15044034D02*
X13397387Y-15082129D01*
X13692625Y-15320224D02*
X13683101Y-15310700D01*
X13683101Y-15310700D02*
X13664054Y-15282129D01*
X13664054Y-15282129D02*
X13654530Y-15263081D01*
X13654530Y-15263081D02*
X13645006Y-15234510D01*
X13645006Y-15234510D02*
X13635482Y-15186891D01*
X13635482Y-15186891D02*
X13635482Y-15148796D01*
X13635482Y-15148796D02*
X13645006Y-15101177D01*
X13645006Y-15101177D02*
X13654530Y-15072605D01*
X13654530Y-15072605D02*
X13664054Y-15053558D01*
X13664054Y-15053558D02*
X13683101Y-15024986D01*
X13683101Y-15024986D02*
X13692625Y-15015462D01*
X13873578Y-15244034D02*
X13759292Y-15244034D01*
X13816435Y-15244034D02*
X13816435Y-15044034D01*
X13816435Y-15044034D02*
X13797387Y-15072605D01*
X13797387Y-15072605D02*
X13778340Y-15091653D01*
X13778340Y-15091653D02*
X13759292Y-15101177D01*
X14045006Y-15044034D02*
X14006911Y-15044034D01*
X14006911Y-15044034D02*
X13987863Y-15053558D01*
X13987863Y-15053558D02*
X13978340Y-15063081D01*
X13978340Y-15063081D02*
X13959292Y-15091653D01*
X13959292Y-15091653D02*
X13949768Y-15129748D01*
X13949768Y-15129748D02*
X13949768Y-15205938D01*
X13949768Y-15205938D02*
X13959292Y-15224986D01*
X13959292Y-15224986D02*
X13968816Y-15234510D01*
X13968816Y-15234510D02*
X13987863Y-15244034D01*
X13987863Y-15244034D02*
X14025959Y-15244034D01*
X14025959Y-15244034D02*
X14045006Y-15234510D01*
X14045006Y-15234510D02*
X14054530Y-15224986D01*
X14054530Y-15224986D02*
X14064054Y-15205938D01*
X14064054Y-15205938D02*
X14064054Y-15158319D01*
X14064054Y-15158319D02*
X14054530Y-15139272D01*
X14054530Y-15139272D02*
X14045006Y-15129748D01*
X14045006Y-15129748D02*
X14025959Y-15120224D01*
X14025959Y-15120224D02*
X13987863Y-15120224D01*
X13987863Y-15120224D02*
X13968816Y-15129748D01*
X13968816Y-15129748D02*
X13959292Y-15139272D01*
X13959292Y-15139272D02*
X13949768Y-15158319D01*
X14302149Y-15244034D02*
X14302149Y-15044034D01*
X14387863Y-15244034D02*
X14387863Y-15139272D01*
X14387863Y-15139272D02*
X14378340Y-15120224D01*
X14378340Y-15120224D02*
X14359292Y-15110700D01*
X14359292Y-15110700D02*
X14330721Y-15110700D01*
X14330721Y-15110700D02*
X14311673Y-15120224D01*
X14311673Y-15120224D02*
X14302149Y-15129748D01*
X14511673Y-15244034D02*
X14492625Y-15234510D01*
X14492625Y-15234510D02*
X14483102Y-15224986D01*
X14483102Y-15224986D02*
X14473578Y-15205938D01*
X14473578Y-15205938D02*
X14473578Y-15148796D01*
X14473578Y-15148796D02*
X14483102Y-15129748D01*
X14483102Y-15129748D02*
X14492625Y-15120224D01*
X14492625Y-15120224D02*
X14511673Y-15110700D01*
X14511673Y-15110700D02*
X14540244Y-15110700D01*
X14540244Y-15110700D02*
X14559292Y-15120224D01*
X14559292Y-15120224D02*
X14568816Y-15129748D01*
X14568816Y-15129748D02*
X14578340Y-15148796D01*
X14578340Y-15148796D02*
X14578340Y-15205938D01*
X14578340Y-15205938D02*
X14568816Y-15224986D01*
X14568816Y-15224986D02*
X14559292Y-15234510D01*
X14559292Y-15234510D02*
X14540244Y-15244034D01*
X14540244Y-15244034D02*
X14511673Y-15244034D01*
X14692625Y-15244034D02*
X14673578Y-15234510D01*
X14673578Y-15234510D02*
X14664054Y-15215462D01*
X14664054Y-15215462D02*
X14664054Y-15044034D01*
X14845006Y-15234510D02*
X14825959Y-15244034D01*
X14825959Y-15244034D02*
X14787863Y-15244034D01*
X14787863Y-15244034D02*
X14768816Y-15234510D01*
X14768816Y-15234510D02*
X14759292Y-15215462D01*
X14759292Y-15215462D02*
X14759292Y-15139272D01*
X14759292Y-15139272D02*
X14768816Y-15120224D01*
X14768816Y-15120224D02*
X14787863Y-15110700D01*
X14787863Y-15110700D02*
X14825959Y-15110700D01*
X14825959Y-15110700D02*
X14845006Y-15120224D01*
X14845006Y-15120224D02*
X14854530Y-15139272D01*
X14854530Y-15139272D02*
X14854530Y-15158319D01*
X14854530Y-15158319D02*
X14759292Y-15177367D01*
X14930721Y-15234510D02*
X14949768Y-15244034D01*
X14949768Y-15244034D02*
X14987863Y-15244034D01*
X14987863Y-15244034D02*
X15006911Y-15234510D01*
X15006911Y-15234510D02*
X15016435Y-15215462D01*
X15016435Y-15215462D02*
X15016435Y-15205938D01*
X15016435Y-15205938D02*
X15006911Y-15186891D01*
X15006911Y-15186891D02*
X14987863Y-15177367D01*
X14987863Y-15177367D02*
X14959292Y-15177367D01*
X14959292Y-15177367D02*
X14940244Y-15167843D01*
X14940244Y-15167843D02*
X14930721Y-15148796D01*
X14930721Y-15148796D02*
X14930721Y-15139272D01*
X14930721Y-15139272D02*
X14940244Y-15120224D01*
X14940244Y-15120224D02*
X14959292Y-15110700D01*
X14959292Y-15110700D02*
X14987863Y-15110700D01*
X14987863Y-15110700D02*
X15006911Y-15120224D01*
X15083102Y-15320224D02*
X15092625Y-15310700D01*
X15092625Y-15310700D02*
X15111673Y-15282129D01*
X15111673Y-15282129D02*
X15121197Y-15263081D01*
X15121197Y-15263081D02*
X15130721Y-15234510D01*
X15130721Y-15234510D02*
X15140244Y-15186891D01*
X15140244Y-15186891D02*
X15140244Y-15148796D01*
X15140244Y-15148796D02*
X15130721Y-15101177D01*
X15130721Y-15101177D02*
X15121197Y-15072605D01*
X15121197Y-15072605D02*
X15111673Y-15053558D01*
X15111673Y-15053558D02*
X15092625Y-15024986D01*
X15092625Y-15024986D02*
X15083102Y-15015462D01*
X15445006Y-15320224D02*
X15435483Y-15310700D01*
X15435483Y-15310700D02*
X15416435Y-15282129D01*
X15416435Y-15282129D02*
X15406911Y-15263081D01*
X15406911Y-15263081D02*
X15397387Y-15234510D01*
X15397387Y-15234510D02*
X15387864Y-15186891D01*
X15387864Y-15186891D02*
X15387864Y-15148796D01*
X15387864Y-15148796D02*
X15397387Y-15101177D01*
X15397387Y-15101177D02*
X15406911Y-15072605D01*
X15406911Y-15072605D02*
X15416435Y-15053558D01*
X15416435Y-15053558D02*
X15435483Y-15024986D01*
X15435483Y-15024986D02*
X15445006Y-15015462D01*
X15521197Y-15110700D02*
X15521197Y-15244034D01*
X15521197Y-15129748D02*
X15530721Y-15120224D01*
X15530721Y-15120224D02*
X15549768Y-15110700D01*
X15549768Y-15110700D02*
X15578340Y-15110700D01*
X15578340Y-15110700D02*
X15597387Y-15120224D01*
X15597387Y-15120224D02*
X15606911Y-15139272D01*
X15606911Y-15139272D02*
X15606911Y-15244034D01*
X15730721Y-15244034D02*
X15711673Y-15234510D01*
X15711673Y-15234510D02*
X15702149Y-15224986D01*
X15702149Y-15224986D02*
X15692625Y-15205938D01*
X15692625Y-15205938D02*
X15692625Y-15148796D01*
X15692625Y-15148796D02*
X15702149Y-15129748D01*
X15702149Y-15129748D02*
X15711673Y-15120224D01*
X15711673Y-15120224D02*
X15730721Y-15110700D01*
X15730721Y-15110700D02*
X15759292Y-15110700D01*
X15759292Y-15110700D02*
X15778340Y-15120224D01*
X15778340Y-15120224D02*
X15787864Y-15129748D01*
X15787864Y-15129748D02*
X15797387Y-15148796D01*
X15797387Y-15148796D02*
X15797387Y-15205938D01*
X15797387Y-15205938D02*
X15787864Y-15224986D01*
X15787864Y-15224986D02*
X15778340Y-15234510D01*
X15778340Y-15234510D02*
X15759292Y-15244034D01*
X15759292Y-15244034D02*
X15730721Y-15244034D01*
X15854530Y-15110700D02*
X15930721Y-15110700D01*
X15883102Y-15044034D02*
X15883102Y-15215462D01*
X15883102Y-15215462D02*
X15892625Y-15234510D01*
X15892625Y-15234510D02*
X15911673Y-15244034D01*
X15911673Y-15244034D02*
X15930721Y-15244034D01*
X16149768Y-15110700D02*
X16149768Y-15310700D01*
X16149768Y-15120224D02*
X16168816Y-15110700D01*
X16168816Y-15110700D02*
X16206911Y-15110700D01*
X16206911Y-15110700D02*
X16225959Y-15120224D01*
X16225959Y-15120224D02*
X16235483Y-15129748D01*
X16235483Y-15129748D02*
X16245006Y-15148796D01*
X16245006Y-15148796D02*
X16245006Y-15205938D01*
X16245006Y-15205938D02*
X16235483Y-15224986D01*
X16235483Y-15224986D02*
X16225959Y-15234510D01*
X16225959Y-15234510D02*
X16206911Y-15244034D01*
X16206911Y-15244034D02*
X16168816Y-15244034D01*
X16168816Y-15244034D02*
X16149768Y-15234510D01*
X16359292Y-15244034D02*
X16340245Y-15234510D01*
X16340245Y-15234510D02*
X16330721Y-15215462D01*
X16330721Y-15215462D02*
X16330721Y-15044034D01*
X16521197Y-15244034D02*
X16521197Y-15139272D01*
X16521197Y-15139272D02*
X16511673Y-15120224D01*
X16511673Y-15120224D02*
X16492626Y-15110700D01*
X16492626Y-15110700D02*
X16454530Y-15110700D01*
X16454530Y-15110700D02*
X16435483Y-15120224D01*
X16521197Y-15234510D02*
X16502149Y-15244034D01*
X16502149Y-15244034D02*
X16454530Y-15244034D01*
X16454530Y-15244034D02*
X16435483Y-15234510D01*
X16435483Y-15234510D02*
X16425959Y-15215462D01*
X16425959Y-15215462D02*
X16425959Y-15196415D01*
X16425959Y-15196415D02*
X16435483Y-15177367D01*
X16435483Y-15177367D02*
X16454530Y-15167843D01*
X16454530Y-15167843D02*
X16502149Y-15167843D01*
X16502149Y-15167843D02*
X16521197Y-15158319D01*
X16587864Y-15110700D02*
X16664054Y-15110700D01*
X16616435Y-15044034D02*
X16616435Y-15215462D01*
X16616435Y-15215462D02*
X16625959Y-15234510D01*
X16625959Y-15234510D02*
X16645006Y-15244034D01*
X16645006Y-15244034D02*
X16664054Y-15244034D01*
X16806911Y-15234510D02*
X16787864Y-15244034D01*
X16787864Y-15244034D02*
X16749768Y-15244034D01*
X16749768Y-15244034D02*
X16730721Y-15234510D01*
X16730721Y-15234510D02*
X16721197Y-15215462D01*
X16721197Y-15215462D02*
X16721197Y-15139272D01*
X16721197Y-15139272D02*
X16730721Y-15120224D01*
X16730721Y-15120224D02*
X16749768Y-15110700D01*
X16749768Y-15110700D02*
X16787864Y-15110700D01*
X16787864Y-15110700D02*
X16806911Y-15120224D01*
X16806911Y-15120224D02*
X16816435Y-15139272D01*
X16816435Y-15139272D02*
X16816435Y-15158319D01*
X16816435Y-15158319D02*
X16721197Y-15177367D01*
X16987864Y-15244034D02*
X16987864Y-15044034D01*
X16987864Y-15234510D02*
X16968816Y-15244034D01*
X16968816Y-15244034D02*
X16930721Y-15244034D01*
X16930721Y-15244034D02*
X16911673Y-15234510D01*
X16911673Y-15234510D02*
X16902149Y-15224986D01*
X16902149Y-15224986D02*
X16892626Y-15205938D01*
X16892626Y-15205938D02*
X16892626Y-15148796D01*
X16892626Y-15148796D02*
X16902149Y-15129748D01*
X16902149Y-15129748D02*
X16911673Y-15120224D01*
X16911673Y-15120224D02*
X16930721Y-15110700D01*
X16930721Y-15110700D02*
X16968816Y-15110700D01*
X16968816Y-15110700D02*
X16987864Y-15120224D01*
X17064054Y-15320224D02*
X17073578Y-15310700D01*
X17073578Y-15310700D02*
X17092626Y-15282129D01*
X17092626Y-15282129D02*
X17102149Y-15263081D01*
X17102149Y-15263081D02*
X17111673Y-15234510D01*
X17111673Y-15234510D02*
X17121197Y-15186891D01*
X17121197Y-15186891D02*
X17121197Y-15148796D01*
X17121197Y-15148796D02*
X17111673Y-15101177D01*
X17111673Y-15101177D02*
X17102149Y-15072605D01*
X17102149Y-15072605D02*
X17092626Y-15053558D01*
X17092626Y-15053558D02*
X17073578Y-15024986D01*
X17073578Y-15024986D02*
X17064054Y-15015462D01*
X10088274Y-15543261D02*
X10088274Y-15401839D01*
X9946851Y-15401839D01*
X9946851Y-15543261D01*
X10088274Y-15543261D01*
X10359292Y-15364034D02*
X10483101Y-15364034D01*
X10483101Y-15364034D02*
X10416435Y-15440224D01*
X10416435Y-15440224D02*
X10445006Y-15440224D01*
X10445006Y-15440224D02*
X10464054Y-15449748D01*
X10464054Y-15449748D02*
X10473577Y-15459272D01*
X10473577Y-15459272D02*
X10483101Y-15478319D01*
X10483101Y-15478319D02*
X10483101Y-15525938D01*
X10483101Y-15525938D02*
X10473577Y-15544986D01*
X10473577Y-15544986D02*
X10464054Y-15554510D01*
X10464054Y-15554510D02*
X10445006Y-15564034D01*
X10445006Y-15564034D02*
X10387863Y-15564034D01*
X10387863Y-15564034D02*
X10368816Y-15554510D01*
X10368816Y-15554510D02*
X10359292Y-15544986D01*
X10568816Y-15544986D02*
X10578339Y-15554510D01*
X10578339Y-15554510D02*
X10568816Y-15564034D01*
X10568816Y-15564034D02*
X10559292Y-15554510D01*
X10559292Y-15554510D02*
X10568816Y-15544986D01*
X10568816Y-15544986D02*
X10568816Y-15564034D01*
X10702149Y-15364034D02*
X10721197Y-15364034D01*
X10721197Y-15364034D02*
X10740244Y-15373558D01*
X10740244Y-15373558D02*
X10749768Y-15383081D01*
X10749768Y-15383081D02*
X10759292Y-15402129D01*
X10759292Y-15402129D02*
X10768816Y-15440224D01*
X10768816Y-15440224D02*
X10768816Y-15487843D01*
X10768816Y-15487843D02*
X10759292Y-15525938D01*
X10759292Y-15525938D02*
X10749768Y-15544986D01*
X10749768Y-15544986D02*
X10740244Y-15554510D01*
X10740244Y-15554510D02*
X10721197Y-15564034D01*
X10721197Y-15564034D02*
X10702149Y-15564034D01*
X10702149Y-15564034D02*
X10683101Y-15554510D01*
X10683101Y-15554510D02*
X10673577Y-15544986D01*
X10673577Y-15544986D02*
X10664054Y-15525938D01*
X10664054Y-15525938D02*
X10654530Y-15487843D01*
X10654530Y-15487843D02*
X10654530Y-15440224D01*
X10654530Y-15440224D02*
X10664054Y-15402129D01*
X10664054Y-15402129D02*
X10673577Y-15383081D01*
X10673577Y-15383081D02*
X10683101Y-15373558D01*
X10683101Y-15373558D02*
X10702149Y-15364034D01*
X10892625Y-15364034D02*
X10911673Y-15364034D01*
X10911673Y-15364034D02*
X10930720Y-15373558D01*
X10930720Y-15373558D02*
X10940244Y-15383081D01*
X10940244Y-15383081D02*
X10949768Y-15402129D01*
X10949768Y-15402129D02*
X10959292Y-15440224D01*
X10959292Y-15440224D02*
X10959292Y-15487843D01*
X10959292Y-15487843D02*
X10949768Y-15525938D01*
X10949768Y-15525938D02*
X10940244Y-15544986D01*
X10940244Y-15544986D02*
X10930720Y-15554510D01*
X10930720Y-15554510D02*
X10911673Y-15564034D01*
X10911673Y-15564034D02*
X10892625Y-15564034D01*
X10892625Y-15564034D02*
X10873577Y-15554510D01*
X10873577Y-15554510D02*
X10864054Y-15544986D01*
X10864054Y-15544986D02*
X10854530Y-15525938D01*
X10854530Y-15525938D02*
X10845006Y-15487843D01*
X10845006Y-15487843D02*
X10845006Y-15440224D01*
X10845006Y-15440224D02*
X10854530Y-15402129D01*
X10854530Y-15402129D02*
X10864054Y-15383081D01*
X10864054Y-15383081D02*
X10873577Y-15373558D01*
X10873577Y-15373558D02*
X10892625Y-15364034D01*
X11083101Y-15364034D02*
X11102149Y-15364034D01*
X11102149Y-15364034D02*
X11121197Y-15373558D01*
X11121197Y-15373558D02*
X11130720Y-15383081D01*
X11130720Y-15383081D02*
X11140244Y-15402129D01*
X11140244Y-15402129D02*
X11149768Y-15440224D01*
X11149768Y-15440224D02*
X11149768Y-15487843D01*
X11149768Y-15487843D02*
X11140244Y-15525938D01*
X11140244Y-15525938D02*
X11130720Y-15544986D01*
X11130720Y-15544986D02*
X11121197Y-15554510D01*
X11121197Y-15554510D02*
X11102149Y-15564034D01*
X11102149Y-15564034D02*
X11083101Y-15564034D01*
X11083101Y-15564034D02*
X11064054Y-15554510D01*
X11064054Y-15554510D02*
X11054530Y-15544986D01*
X11054530Y-15544986D02*
X11045006Y-15525938D01*
X11045006Y-15525938D02*
X11035482Y-15487843D01*
X11035482Y-15487843D02*
X11035482Y-15440224D01*
X11035482Y-15440224D02*
X11045006Y-15402129D01*
X11045006Y-15402129D02*
X11054530Y-15383081D01*
X11054530Y-15383081D02*
X11064054Y-15373558D01*
X11064054Y-15373558D02*
X11083101Y-15364034D01*
X11235482Y-15564034D02*
X11235482Y-15430700D01*
X11235482Y-15449748D02*
X11245006Y-15440224D01*
X11245006Y-15440224D02*
X11264054Y-15430700D01*
X11264054Y-15430700D02*
X11292625Y-15430700D01*
X11292625Y-15430700D02*
X11311673Y-15440224D01*
X11311673Y-15440224D02*
X11321196Y-15459272D01*
X11321196Y-15459272D02*
X11321196Y-15564034D01*
X11321196Y-15459272D02*
X11330720Y-15440224D01*
X11330720Y-15440224D02*
X11349768Y-15430700D01*
X11349768Y-15430700D02*
X11378339Y-15430700D01*
X11378339Y-15430700D02*
X11397387Y-15440224D01*
X11397387Y-15440224D02*
X11406911Y-15459272D01*
X11406911Y-15459272D02*
X11406911Y-15564034D01*
X11502149Y-15564034D02*
X11502149Y-15430700D01*
X11502149Y-15449748D02*
X11511673Y-15440224D01*
X11511673Y-15440224D02*
X11530720Y-15430700D01*
X11530720Y-15430700D02*
X11559292Y-15430700D01*
X11559292Y-15430700D02*
X11578339Y-15440224D01*
X11578339Y-15440224D02*
X11587863Y-15459272D01*
X11587863Y-15459272D02*
X11587863Y-15564034D01*
X11587863Y-15459272D02*
X11597387Y-15440224D01*
X11597387Y-15440224D02*
X11616435Y-15430700D01*
X11616435Y-15430700D02*
X11645006Y-15430700D01*
X11645006Y-15430700D02*
X11664054Y-15440224D01*
X11664054Y-15440224D02*
X11673577Y-15459272D01*
X11673577Y-15459272D02*
X11673577Y-15564034D01*
X12064054Y-15354510D02*
X11892625Y-15611653D01*
X12321197Y-15364034D02*
X12340244Y-15364034D01*
X12340244Y-15364034D02*
X12359292Y-15373558D01*
X12359292Y-15373558D02*
X12368816Y-15383081D01*
X12368816Y-15383081D02*
X12378339Y-15402129D01*
X12378339Y-15402129D02*
X12387863Y-15440224D01*
X12387863Y-15440224D02*
X12387863Y-15487843D01*
X12387863Y-15487843D02*
X12378339Y-15525938D01*
X12378339Y-15525938D02*
X12368816Y-15544986D01*
X12368816Y-15544986D02*
X12359292Y-15554510D01*
X12359292Y-15554510D02*
X12340244Y-15564034D01*
X12340244Y-15564034D02*
X12321197Y-15564034D01*
X12321197Y-15564034D02*
X12302149Y-15554510D01*
X12302149Y-15554510D02*
X12292625Y-15544986D01*
X12292625Y-15544986D02*
X12283101Y-15525938D01*
X12283101Y-15525938D02*
X12273578Y-15487843D01*
X12273578Y-15487843D02*
X12273578Y-15440224D01*
X12273578Y-15440224D02*
X12283101Y-15402129D01*
X12283101Y-15402129D02*
X12292625Y-15383081D01*
X12292625Y-15383081D02*
X12302149Y-15373558D01*
X12302149Y-15373558D02*
X12321197Y-15364034D01*
X12473578Y-15544986D02*
X12483101Y-15554510D01*
X12483101Y-15554510D02*
X12473578Y-15564034D01*
X12473578Y-15564034D02*
X12464054Y-15554510D01*
X12464054Y-15554510D02*
X12473578Y-15544986D01*
X12473578Y-15544986D02*
X12473578Y-15564034D01*
X12673578Y-15564034D02*
X12559292Y-15564034D01*
X12616435Y-15564034D02*
X12616435Y-15364034D01*
X12616435Y-15364034D02*
X12597387Y-15392605D01*
X12597387Y-15392605D02*
X12578339Y-15411653D01*
X12578339Y-15411653D02*
X12559292Y-15421177D01*
X12864054Y-15564034D02*
X12749768Y-15564034D01*
X12806911Y-15564034D02*
X12806911Y-15364034D01*
X12806911Y-15364034D02*
X12787863Y-15392605D01*
X12787863Y-15392605D02*
X12768816Y-15411653D01*
X12768816Y-15411653D02*
X12749768Y-15421177D01*
X12978339Y-15449748D02*
X12959292Y-15440224D01*
X12959292Y-15440224D02*
X12949768Y-15430700D01*
X12949768Y-15430700D02*
X12940244Y-15411653D01*
X12940244Y-15411653D02*
X12940244Y-15402129D01*
X12940244Y-15402129D02*
X12949768Y-15383081D01*
X12949768Y-15383081D02*
X12959292Y-15373558D01*
X12959292Y-15373558D02*
X12978339Y-15364034D01*
X12978339Y-15364034D02*
X13016435Y-15364034D01*
X13016435Y-15364034D02*
X13035482Y-15373558D01*
X13035482Y-15373558D02*
X13045006Y-15383081D01*
X13045006Y-15383081D02*
X13054530Y-15402129D01*
X13054530Y-15402129D02*
X13054530Y-15411653D01*
X13054530Y-15411653D02*
X13045006Y-15430700D01*
X13045006Y-15430700D02*
X13035482Y-15440224D01*
X13035482Y-15440224D02*
X13016435Y-15449748D01*
X13016435Y-15449748D02*
X12978339Y-15449748D01*
X12978339Y-15449748D02*
X12959292Y-15459272D01*
X12959292Y-15459272D02*
X12949768Y-15468796D01*
X12949768Y-15468796D02*
X12940244Y-15487843D01*
X12940244Y-15487843D02*
X12940244Y-15525938D01*
X12940244Y-15525938D02*
X12949768Y-15544986D01*
X12949768Y-15544986D02*
X12959292Y-15554510D01*
X12959292Y-15554510D02*
X12978339Y-15564034D01*
X12978339Y-15564034D02*
X13016435Y-15564034D01*
X13016435Y-15564034D02*
X13035482Y-15554510D01*
X13035482Y-15554510D02*
X13045006Y-15544986D01*
X13045006Y-15544986D02*
X13054530Y-15525938D01*
X13054530Y-15525938D02*
X13054530Y-15487843D01*
X13054530Y-15487843D02*
X13045006Y-15468796D01*
X13045006Y-15468796D02*
X13035482Y-15459272D01*
X13035482Y-15459272D02*
X13016435Y-15449748D01*
X13245006Y-15564034D02*
X13130720Y-15564034D01*
X13187863Y-15564034D02*
X13187863Y-15364034D01*
X13187863Y-15364034D02*
X13168816Y-15392605D01*
X13168816Y-15392605D02*
X13149768Y-15411653D01*
X13149768Y-15411653D02*
X13130720Y-15421177D01*
X13321197Y-15364034D02*
X13321197Y-15402129D01*
X13397387Y-15364034D02*
X13397387Y-15402129D01*
X13692625Y-15640224D02*
X13683101Y-15630700D01*
X13683101Y-15630700D02*
X13664054Y-15602129D01*
X13664054Y-15602129D02*
X13654530Y-15583081D01*
X13654530Y-15583081D02*
X13645006Y-15554510D01*
X13645006Y-15554510D02*
X13635482Y-15506891D01*
X13635482Y-15506891D02*
X13635482Y-15468796D01*
X13635482Y-15468796D02*
X13645006Y-15421177D01*
X13645006Y-15421177D02*
X13654530Y-15392605D01*
X13654530Y-15392605D02*
X13664054Y-15373558D01*
X13664054Y-15373558D02*
X13683101Y-15344986D01*
X13683101Y-15344986D02*
X13692625Y-15335462D01*
X13873578Y-15564034D02*
X13759292Y-15564034D01*
X13816435Y-15564034D02*
X13816435Y-15364034D01*
X13816435Y-15364034D02*
X13797387Y-15392605D01*
X13797387Y-15392605D02*
X13778340Y-15411653D01*
X13778340Y-15411653D02*
X13759292Y-15421177D01*
X14045006Y-15364034D02*
X14006911Y-15364034D01*
X14006911Y-15364034D02*
X13987863Y-15373558D01*
X13987863Y-15373558D02*
X13978340Y-15383081D01*
X13978340Y-15383081D02*
X13959292Y-15411653D01*
X13959292Y-15411653D02*
X13949768Y-15449748D01*
X13949768Y-15449748D02*
X13949768Y-15525938D01*
X13949768Y-15525938D02*
X13959292Y-15544986D01*
X13959292Y-15544986D02*
X13968816Y-15554510D01*
X13968816Y-15554510D02*
X13987863Y-15564034D01*
X13987863Y-15564034D02*
X14025959Y-15564034D01*
X14025959Y-15564034D02*
X14045006Y-15554510D01*
X14045006Y-15554510D02*
X14054530Y-15544986D01*
X14054530Y-15544986D02*
X14064054Y-15525938D01*
X14064054Y-15525938D02*
X14064054Y-15478319D01*
X14064054Y-15478319D02*
X14054530Y-15459272D01*
X14054530Y-15459272D02*
X14045006Y-15449748D01*
X14045006Y-15449748D02*
X14025959Y-15440224D01*
X14025959Y-15440224D02*
X13987863Y-15440224D01*
X13987863Y-15440224D02*
X13968816Y-15449748D01*
X13968816Y-15449748D02*
X13959292Y-15459272D01*
X13959292Y-15459272D02*
X13949768Y-15478319D01*
X14302149Y-15564034D02*
X14302149Y-15364034D01*
X14387863Y-15564034D02*
X14387863Y-15459272D01*
X14387863Y-15459272D02*
X14378340Y-15440224D01*
X14378340Y-15440224D02*
X14359292Y-15430700D01*
X14359292Y-15430700D02*
X14330721Y-15430700D01*
X14330721Y-15430700D02*
X14311673Y-15440224D01*
X14311673Y-15440224D02*
X14302149Y-15449748D01*
X14511673Y-15564034D02*
X14492625Y-15554510D01*
X14492625Y-15554510D02*
X14483102Y-15544986D01*
X14483102Y-15544986D02*
X14473578Y-15525938D01*
X14473578Y-15525938D02*
X14473578Y-15468796D01*
X14473578Y-15468796D02*
X14483102Y-15449748D01*
X14483102Y-15449748D02*
X14492625Y-15440224D01*
X14492625Y-15440224D02*
X14511673Y-15430700D01*
X14511673Y-15430700D02*
X14540244Y-15430700D01*
X14540244Y-15430700D02*
X14559292Y-15440224D01*
X14559292Y-15440224D02*
X14568816Y-15449748D01*
X14568816Y-15449748D02*
X14578340Y-15468796D01*
X14578340Y-15468796D02*
X14578340Y-15525938D01*
X14578340Y-15525938D02*
X14568816Y-15544986D01*
X14568816Y-15544986D02*
X14559292Y-15554510D01*
X14559292Y-15554510D02*
X14540244Y-15564034D01*
X14540244Y-15564034D02*
X14511673Y-15564034D01*
X14692625Y-15564034D02*
X14673578Y-15554510D01*
X14673578Y-15554510D02*
X14664054Y-15535462D01*
X14664054Y-15535462D02*
X14664054Y-15364034D01*
X14845006Y-15554510D02*
X14825959Y-15564034D01*
X14825959Y-15564034D02*
X14787863Y-15564034D01*
X14787863Y-15564034D02*
X14768816Y-15554510D01*
X14768816Y-15554510D02*
X14759292Y-15535462D01*
X14759292Y-15535462D02*
X14759292Y-15459272D01*
X14759292Y-15459272D02*
X14768816Y-15440224D01*
X14768816Y-15440224D02*
X14787863Y-15430700D01*
X14787863Y-15430700D02*
X14825959Y-15430700D01*
X14825959Y-15430700D02*
X14845006Y-15440224D01*
X14845006Y-15440224D02*
X14854530Y-15459272D01*
X14854530Y-15459272D02*
X14854530Y-15478319D01*
X14854530Y-15478319D02*
X14759292Y-15497367D01*
X14930721Y-15554510D02*
X14949768Y-15564034D01*
X14949768Y-15564034D02*
X14987863Y-15564034D01*
X14987863Y-15564034D02*
X15006911Y-15554510D01*
X15006911Y-15554510D02*
X15016435Y-15535462D01*
X15016435Y-15535462D02*
X15016435Y-15525938D01*
X15016435Y-15525938D02*
X15006911Y-15506891D01*
X15006911Y-15506891D02*
X14987863Y-15497367D01*
X14987863Y-15497367D02*
X14959292Y-15497367D01*
X14959292Y-15497367D02*
X14940244Y-15487843D01*
X14940244Y-15487843D02*
X14930721Y-15468796D01*
X14930721Y-15468796D02*
X14930721Y-15459272D01*
X14930721Y-15459272D02*
X14940244Y-15440224D01*
X14940244Y-15440224D02*
X14959292Y-15430700D01*
X14959292Y-15430700D02*
X14987863Y-15430700D01*
X14987863Y-15430700D02*
X15006911Y-15440224D01*
X15083102Y-15640224D02*
X15092625Y-15630700D01*
X15092625Y-15630700D02*
X15111673Y-15602129D01*
X15111673Y-15602129D02*
X15121197Y-15583081D01*
X15121197Y-15583081D02*
X15130721Y-15554510D01*
X15130721Y-15554510D02*
X15140244Y-15506891D01*
X15140244Y-15506891D02*
X15140244Y-15468796D01*
X15140244Y-15468796D02*
X15130721Y-15421177D01*
X15130721Y-15421177D02*
X15121197Y-15392605D01*
X15121197Y-15392605D02*
X15111673Y-15373558D01*
X15111673Y-15373558D02*
X15092625Y-15344986D01*
X15092625Y-15344986D02*
X15083102Y-15335462D01*
X15445006Y-15640224D02*
X15435483Y-15630700D01*
X15435483Y-15630700D02*
X15416435Y-15602129D01*
X15416435Y-15602129D02*
X15406911Y-15583081D01*
X15406911Y-15583081D02*
X15397387Y-15554510D01*
X15397387Y-15554510D02*
X15387864Y-15506891D01*
X15387864Y-15506891D02*
X15387864Y-15468796D01*
X15387864Y-15468796D02*
X15397387Y-15421177D01*
X15397387Y-15421177D02*
X15406911Y-15392605D01*
X15406911Y-15392605D02*
X15416435Y-15373558D01*
X15416435Y-15373558D02*
X15435483Y-15344986D01*
X15435483Y-15344986D02*
X15445006Y-15335462D01*
X15521197Y-15430700D02*
X15521197Y-15564034D01*
X15521197Y-15449748D02*
X15530721Y-15440224D01*
X15530721Y-15440224D02*
X15549768Y-15430700D01*
X15549768Y-15430700D02*
X15578340Y-15430700D01*
X15578340Y-15430700D02*
X15597387Y-15440224D01*
X15597387Y-15440224D02*
X15606911Y-15459272D01*
X15606911Y-15459272D02*
X15606911Y-15564034D01*
X15730721Y-15564034D02*
X15711673Y-15554510D01*
X15711673Y-15554510D02*
X15702149Y-15544986D01*
X15702149Y-15544986D02*
X15692625Y-15525938D01*
X15692625Y-15525938D02*
X15692625Y-15468796D01*
X15692625Y-15468796D02*
X15702149Y-15449748D01*
X15702149Y-15449748D02*
X15711673Y-15440224D01*
X15711673Y-15440224D02*
X15730721Y-15430700D01*
X15730721Y-15430700D02*
X15759292Y-15430700D01*
X15759292Y-15430700D02*
X15778340Y-15440224D01*
X15778340Y-15440224D02*
X15787864Y-15449748D01*
X15787864Y-15449748D02*
X15797387Y-15468796D01*
X15797387Y-15468796D02*
X15797387Y-15525938D01*
X15797387Y-15525938D02*
X15787864Y-15544986D01*
X15787864Y-15544986D02*
X15778340Y-15554510D01*
X15778340Y-15554510D02*
X15759292Y-15564034D01*
X15759292Y-15564034D02*
X15730721Y-15564034D01*
X15854530Y-15430700D02*
X15930721Y-15430700D01*
X15883102Y-15364034D02*
X15883102Y-15535462D01*
X15883102Y-15535462D02*
X15892625Y-15554510D01*
X15892625Y-15554510D02*
X15911673Y-15564034D01*
X15911673Y-15564034D02*
X15930721Y-15564034D01*
X16149768Y-15430700D02*
X16149768Y-15630700D01*
X16149768Y-15440224D02*
X16168816Y-15430700D01*
X16168816Y-15430700D02*
X16206911Y-15430700D01*
X16206911Y-15430700D02*
X16225959Y-15440224D01*
X16225959Y-15440224D02*
X16235483Y-15449748D01*
X16235483Y-15449748D02*
X16245006Y-15468796D01*
X16245006Y-15468796D02*
X16245006Y-15525938D01*
X16245006Y-15525938D02*
X16235483Y-15544986D01*
X16235483Y-15544986D02*
X16225959Y-15554510D01*
X16225959Y-15554510D02*
X16206911Y-15564034D01*
X16206911Y-15564034D02*
X16168816Y-15564034D01*
X16168816Y-15564034D02*
X16149768Y-15554510D01*
X16359292Y-15564034D02*
X16340245Y-15554510D01*
X16340245Y-15554510D02*
X16330721Y-15535462D01*
X16330721Y-15535462D02*
X16330721Y-15364034D01*
X16521197Y-15564034D02*
X16521197Y-15459272D01*
X16521197Y-15459272D02*
X16511673Y-15440224D01*
X16511673Y-15440224D02*
X16492626Y-15430700D01*
X16492626Y-15430700D02*
X16454530Y-15430700D01*
X16454530Y-15430700D02*
X16435483Y-15440224D01*
X16521197Y-15554510D02*
X16502149Y-15564034D01*
X16502149Y-15564034D02*
X16454530Y-15564034D01*
X16454530Y-15564034D02*
X16435483Y-15554510D01*
X16435483Y-15554510D02*
X16425959Y-15535462D01*
X16425959Y-15535462D02*
X16425959Y-15516415D01*
X16425959Y-15516415D02*
X16435483Y-15497367D01*
X16435483Y-15497367D02*
X16454530Y-15487843D01*
X16454530Y-15487843D02*
X16502149Y-15487843D01*
X16502149Y-15487843D02*
X16521197Y-15478319D01*
X16587864Y-15430700D02*
X16664054Y-15430700D01*
X16616435Y-15364034D02*
X16616435Y-15535462D01*
X16616435Y-15535462D02*
X16625959Y-15554510D01*
X16625959Y-15554510D02*
X16645006Y-15564034D01*
X16645006Y-15564034D02*
X16664054Y-15564034D01*
X16806911Y-15554510D02*
X16787864Y-15564034D01*
X16787864Y-15564034D02*
X16749768Y-15564034D01*
X16749768Y-15564034D02*
X16730721Y-15554510D01*
X16730721Y-15554510D02*
X16721197Y-15535462D01*
X16721197Y-15535462D02*
X16721197Y-15459272D01*
X16721197Y-15459272D02*
X16730721Y-15440224D01*
X16730721Y-15440224D02*
X16749768Y-15430700D01*
X16749768Y-15430700D02*
X16787864Y-15430700D01*
X16787864Y-15430700D02*
X16806911Y-15440224D01*
X16806911Y-15440224D02*
X16816435Y-15459272D01*
X16816435Y-15459272D02*
X16816435Y-15478319D01*
X16816435Y-15478319D02*
X16721197Y-15497367D01*
X16987864Y-15564034D02*
X16987864Y-15364034D01*
X16987864Y-15554510D02*
X16968816Y-15564034D01*
X16968816Y-15564034D02*
X16930721Y-15564034D01*
X16930721Y-15564034D02*
X16911673Y-15554510D01*
X16911673Y-15554510D02*
X16902149Y-15544986D01*
X16902149Y-15544986D02*
X16892626Y-15525938D01*
X16892626Y-15525938D02*
X16892626Y-15468796D01*
X16892626Y-15468796D02*
X16902149Y-15449748D01*
X16902149Y-15449748D02*
X16911673Y-15440224D01*
X16911673Y-15440224D02*
X16930721Y-15430700D01*
X16930721Y-15430700D02*
X16968816Y-15430700D01*
X16968816Y-15430700D02*
X16987864Y-15440224D01*
X17064054Y-15640224D02*
X17073578Y-15630700D01*
X17073578Y-15630700D02*
X17092626Y-15602129D01*
X17092626Y-15602129D02*
X17102149Y-15583081D01*
X17102149Y-15583081D02*
X17111673Y-15554510D01*
X17111673Y-15554510D02*
X17121197Y-15506891D01*
X17121197Y-15506891D02*
X17121197Y-15468796D01*
X17121197Y-15468796D02*
X17111673Y-15421177D01*
X17111673Y-15421177D02*
X17102149Y-15392605D01*
X17102149Y-15392605D02*
X17092626Y-15373558D01*
X17092626Y-15373558D02*
X17073578Y-15344986D01*
X17073578Y-15344986D02*
X17064054Y-15335462D01*
X10017563Y-15892550D02*
X10117563Y-15792550D01*
X10017563Y-15692550D01*
X9917563Y-15792550D01*
X10017563Y-15892550D01*
X10464054Y-15750700D02*
X10464054Y-15884034D01*
X10416435Y-15674510D02*
X10368816Y-15817367D01*
X10368816Y-15817367D02*
X10492625Y-15817367D01*
X10568816Y-15864986D02*
X10578339Y-15874510D01*
X10578339Y-15874510D02*
X10568816Y-15884034D01*
X10568816Y-15884034D02*
X10559292Y-15874510D01*
X10559292Y-15874510D02*
X10568816Y-15864986D01*
X10568816Y-15864986D02*
X10568816Y-15884034D01*
X10702149Y-15684034D02*
X10721197Y-15684034D01*
X10721197Y-15684034D02*
X10740244Y-15693558D01*
X10740244Y-15693558D02*
X10749768Y-15703081D01*
X10749768Y-15703081D02*
X10759292Y-15722129D01*
X10759292Y-15722129D02*
X10768816Y-15760224D01*
X10768816Y-15760224D02*
X10768816Y-15807843D01*
X10768816Y-15807843D02*
X10759292Y-15845938D01*
X10759292Y-15845938D02*
X10749768Y-15864986D01*
X10749768Y-15864986D02*
X10740244Y-15874510D01*
X10740244Y-15874510D02*
X10721197Y-15884034D01*
X10721197Y-15884034D02*
X10702149Y-15884034D01*
X10702149Y-15884034D02*
X10683101Y-15874510D01*
X10683101Y-15874510D02*
X10673577Y-15864986D01*
X10673577Y-15864986D02*
X10664054Y-15845938D01*
X10664054Y-15845938D02*
X10654530Y-15807843D01*
X10654530Y-15807843D02*
X10654530Y-15760224D01*
X10654530Y-15760224D02*
X10664054Y-15722129D01*
X10664054Y-15722129D02*
X10673577Y-15703081D01*
X10673577Y-15703081D02*
X10683101Y-15693558D01*
X10683101Y-15693558D02*
X10702149Y-15684034D01*
X10892625Y-15684034D02*
X10911673Y-15684034D01*
X10911673Y-15684034D02*
X10930720Y-15693558D01*
X10930720Y-15693558D02*
X10940244Y-15703081D01*
X10940244Y-15703081D02*
X10949768Y-15722129D01*
X10949768Y-15722129D02*
X10959292Y-15760224D01*
X10959292Y-15760224D02*
X10959292Y-15807843D01*
X10959292Y-15807843D02*
X10949768Y-15845938D01*
X10949768Y-15845938D02*
X10940244Y-15864986D01*
X10940244Y-15864986D02*
X10930720Y-15874510D01*
X10930720Y-15874510D02*
X10911673Y-15884034D01*
X10911673Y-15884034D02*
X10892625Y-15884034D01*
X10892625Y-15884034D02*
X10873577Y-15874510D01*
X10873577Y-15874510D02*
X10864054Y-15864986D01*
X10864054Y-15864986D02*
X10854530Y-15845938D01*
X10854530Y-15845938D02*
X10845006Y-15807843D01*
X10845006Y-15807843D02*
X10845006Y-15760224D01*
X10845006Y-15760224D02*
X10854530Y-15722129D01*
X10854530Y-15722129D02*
X10864054Y-15703081D01*
X10864054Y-15703081D02*
X10873577Y-15693558D01*
X10873577Y-15693558D02*
X10892625Y-15684034D01*
X11083101Y-15684034D02*
X11102149Y-15684034D01*
X11102149Y-15684034D02*
X11121197Y-15693558D01*
X11121197Y-15693558D02*
X11130720Y-15703081D01*
X11130720Y-15703081D02*
X11140244Y-15722129D01*
X11140244Y-15722129D02*
X11149768Y-15760224D01*
X11149768Y-15760224D02*
X11149768Y-15807843D01*
X11149768Y-15807843D02*
X11140244Y-15845938D01*
X11140244Y-15845938D02*
X11130720Y-15864986D01*
X11130720Y-15864986D02*
X11121197Y-15874510D01*
X11121197Y-15874510D02*
X11102149Y-15884034D01*
X11102149Y-15884034D02*
X11083101Y-15884034D01*
X11083101Y-15884034D02*
X11064054Y-15874510D01*
X11064054Y-15874510D02*
X11054530Y-15864986D01*
X11054530Y-15864986D02*
X11045006Y-15845938D01*
X11045006Y-15845938D02*
X11035482Y-15807843D01*
X11035482Y-15807843D02*
X11035482Y-15760224D01*
X11035482Y-15760224D02*
X11045006Y-15722129D01*
X11045006Y-15722129D02*
X11054530Y-15703081D01*
X11054530Y-15703081D02*
X11064054Y-15693558D01*
X11064054Y-15693558D02*
X11083101Y-15684034D01*
X11235482Y-15884034D02*
X11235482Y-15750700D01*
X11235482Y-15769748D02*
X11245006Y-15760224D01*
X11245006Y-15760224D02*
X11264054Y-15750700D01*
X11264054Y-15750700D02*
X11292625Y-15750700D01*
X11292625Y-15750700D02*
X11311673Y-15760224D01*
X11311673Y-15760224D02*
X11321196Y-15779272D01*
X11321196Y-15779272D02*
X11321196Y-15884034D01*
X11321196Y-15779272D02*
X11330720Y-15760224D01*
X11330720Y-15760224D02*
X11349768Y-15750700D01*
X11349768Y-15750700D02*
X11378339Y-15750700D01*
X11378339Y-15750700D02*
X11397387Y-15760224D01*
X11397387Y-15760224D02*
X11406911Y-15779272D01*
X11406911Y-15779272D02*
X11406911Y-15884034D01*
X11502149Y-15884034D02*
X11502149Y-15750700D01*
X11502149Y-15769748D02*
X11511673Y-15760224D01*
X11511673Y-15760224D02*
X11530720Y-15750700D01*
X11530720Y-15750700D02*
X11559292Y-15750700D01*
X11559292Y-15750700D02*
X11578339Y-15760224D01*
X11578339Y-15760224D02*
X11587863Y-15779272D01*
X11587863Y-15779272D02*
X11587863Y-15884034D01*
X11587863Y-15779272D02*
X11597387Y-15760224D01*
X11597387Y-15760224D02*
X11616435Y-15750700D01*
X11616435Y-15750700D02*
X11645006Y-15750700D01*
X11645006Y-15750700D02*
X11664054Y-15760224D01*
X11664054Y-15760224D02*
X11673577Y-15779272D01*
X11673577Y-15779272D02*
X11673577Y-15884034D01*
X12064054Y-15674510D02*
X11892625Y-15931653D01*
X12321197Y-15684034D02*
X12340244Y-15684034D01*
X12340244Y-15684034D02*
X12359292Y-15693558D01*
X12359292Y-15693558D02*
X12368816Y-15703081D01*
X12368816Y-15703081D02*
X12378339Y-15722129D01*
X12378339Y-15722129D02*
X12387863Y-15760224D01*
X12387863Y-15760224D02*
X12387863Y-15807843D01*
X12387863Y-15807843D02*
X12378339Y-15845938D01*
X12378339Y-15845938D02*
X12368816Y-15864986D01*
X12368816Y-15864986D02*
X12359292Y-15874510D01*
X12359292Y-15874510D02*
X12340244Y-15884034D01*
X12340244Y-15884034D02*
X12321197Y-15884034D01*
X12321197Y-15884034D02*
X12302149Y-15874510D01*
X12302149Y-15874510D02*
X12292625Y-15864986D01*
X12292625Y-15864986D02*
X12283101Y-15845938D01*
X12283101Y-15845938D02*
X12273578Y-15807843D01*
X12273578Y-15807843D02*
X12273578Y-15760224D01*
X12273578Y-15760224D02*
X12283101Y-15722129D01*
X12283101Y-15722129D02*
X12292625Y-15703081D01*
X12292625Y-15703081D02*
X12302149Y-15693558D01*
X12302149Y-15693558D02*
X12321197Y-15684034D01*
X12473578Y-15864986D02*
X12483101Y-15874510D01*
X12483101Y-15874510D02*
X12473578Y-15884034D01*
X12473578Y-15884034D02*
X12464054Y-15874510D01*
X12464054Y-15874510D02*
X12473578Y-15864986D01*
X12473578Y-15864986D02*
X12473578Y-15884034D01*
X12673578Y-15884034D02*
X12559292Y-15884034D01*
X12616435Y-15884034D02*
X12616435Y-15684034D01*
X12616435Y-15684034D02*
X12597387Y-15712605D01*
X12597387Y-15712605D02*
X12578339Y-15731653D01*
X12578339Y-15731653D02*
X12559292Y-15741177D01*
X12854530Y-15684034D02*
X12759292Y-15684034D01*
X12759292Y-15684034D02*
X12749768Y-15779272D01*
X12749768Y-15779272D02*
X12759292Y-15769748D01*
X12759292Y-15769748D02*
X12778339Y-15760224D01*
X12778339Y-15760224D02*
X12825959Y-15760224D01*
X12825959Y-15760224D02*
X12845006Y-15769748D01*
X12845006Y-15769748D02*
X12854530Y-15779272D01*
X12854530Y-15779272D02*
X12864054Y-15798319D01*
X12864054Y-15798319D02*
X12864054Y-15845938D01*
X12864054Y-15845938D02*
X12854530Y-15864986D01*
X12854530Y-15864986D02*
X12845006Y-15874510D01*
X12845006Y-15874510D02*
X12825959Y-15884034D01*
X12825959Y-15884034D02*
X12778339Y-15884034D01*
X12778339Y-15884034D02*
X12759292Y-15874510D01*
X12759292Y-15874510D02*
X12749768Y-15864986D01*
X12930720Y-15684034D02*
X13064054Y-15684034D01*
X13064054Y-15684034D02*
X12978339Y-15884034D01*
X13235482Y-15684034D02*
X13140244Y-15684034D01*
X13140244Y-15684034D02*
X13130720Y-15779272D01*
X13130720Y-15779272D02*
X13140244Y-15769748D01*
X13140244Y-15769748D02*
X13159292Y-15760224D01*
X13159292Y-15760224D02*
X13206911Y-15760224D01*
X13206911Y-15760224D02*
X13225959Y-15769748D01*
X13225959Y-15769748D02*
X13235482Y-15779272D01*
X13235482Y-15779272D02*
X13245006Y-15798319D01*
X13245006Y-15798319D02*
X13245006Y-15845938D01*
X13245006Y-15845938D02*
X13235482Y-15864986D01*
X13235482Y-15864986D02*
X13225959Y-15874510D01*
X13225959Y-15874510D02*
X13206911Y-15884034D01*
X13206911Y-15884034D02*
X13159292Y-15884034D01*
X13159292Y-15884034D02*
X13140244Y-15874510D01*
X13140244Y-15874510D02*
X13130720Y-15864986D01*
X13321197Y-15684034D02*
X13321197Y-15722129D01*
X13397387Y-15684034D02*
X13397387Y-15722129D01*
X13692625Y-15960224D02*
X13683101Y-15950700D01*
X13683101Y-15950700D02*
X13664054Y-15922129D01*
X13664054Y-15922129D02*
X13654530Y-15903081D01*
X13654530Y-15903081D02*
X13645006Y-15874510D01*
X13645006Y-15874510D02*
X13635482Y-15826891D01*
X13635482Y-15826891D02*
X13635482Y-15788796D01*
X13635482Y-15788796D02*
X13645006Y-15741177D01*
X13645006Y-15741177D02*
X13654530Y-15712605D01*
X13654530Y-15712605D02*
X13664054Y-15693558D01*
X13664054Y-15693558D02*
X13683101Y-15664986D01*
X13683101Y-15664986D02*
X13692625Y-15655462D01*
X13797387Y-15769748D02*
X13778340Y-15760224D01*
X13778340Y-15760224D02*
X13768816Y-15750700D01*
X13768816Y-15750700D02*
X13759292Y-15731653D01*
X13759292Y-15731653D02*
X13759292Y-15722129D01*
X13759292Y-15722129D02*
X13768816Y-15703081D01*
X13768816Y-15703081D02*
X13778340Y-15693558D01*
X13778340Y-15693558D02*
X13797387Y-15684034D01*
X13797387Y-15684034D02*
X13835482Y-15684034D01*
X13835482Y-15684034D02*
X13854530Y-15693558D01*
X13854530Y-15693558D02*
X13864054Y-15703081D01*
X13864054Y-15703081D02*
X13873578Y-15722129D01*
X13873578Y-15722129D02*
X13873578Y-15731653D01*
X13873578Y-15731653D02*
X13864054Y-15750700D01*
X13864054Y-15750700D02*
X13854530Y-15760224D01*
X13854530Y-15760224D02*
X13835482Y-15769748D01*
X13835482Y-15769748D02*
X13797387Y-15769748D01*
X13797387Y-15769748D02*
X13778340Y-15779272D01*
X13778340Y-15779272D02*
X13768816Y-15788796D01*
X13768816Y-15788796D02*
X13759292Y-15807843D01*
X13759292Y-15807843D02*
X13759292Y-15845938D01*
X13759292Y-15845938D02*
X13768816Y-15864986D01*
X13768816Y-15864986D02*
X13778340Y-15874510D01*
X13778340Y-15874510D02*
X13797387Y-15884034D01*
X13797387Y-15884034D02*
X13835482Y-15884034D01*
X13835482Y-15884034D02*
X13854530Y-15874510D01*
X13854530Y-15874510D02*
X13864054Y-15864986D01*
X13864054Y-15864986D02*
X13873578Y-15845938D01*
X13873578Y-15845938D02*
X13873578Y-15807843D01*
X13873578Y-15807843D02*
X13864054Y-15788796D01*
X13864054Y-15788796D02*
X13854530Y-15779272D01*
X13854530Y-15779272D02*
X13835482Y-15769748D01*
X14111673Y-15884034D02*
X14111673Y-15684034D01*
X14197387Y-15884034D02*
X14197387Y-15779272D01*
X14197387Y-15779272D02*
X14187863Y-15760224D01*
X14187863Y-15760224D02*
X14168816Y-15750700D01*
X14168816Y-15750700D02*
X14140244Y-15750700D01*
X14140244Y-15750700D02*
X14121197Y-15760224D01*
X14121197Y-15760224D02*
X14111673Y-15769748D01*
X14321197Y-15884034D02*
X14302149Y-15874510D01*
X14302149Y-15874510D02*
X14292625Y-15864986D01*
X14292625Y-15864986D02*
X14283102Y-15845938D01*
X14283102Y-15845938D02*
X14283102Y-15788796D01*
X14283102Y-15788796D02*
X14292625Y-15769748D01*
X14292625Y-15769748D02*
X14302149Y-15760224D01*
X14302149Y-15760224D02*
X14321197Y-15750700D01*
X14321197Y-15750700D02*
X14349768Y-15750700D01*
X14349768Y-15750700D02*
X14368816Y-15760224D01*
X14368816Y-15760224D02*
X14378340Y-15769748D01*
X14378340Y-15769748D02*
X14387863Y-15788796D01*
X14387863Y-15788796D02*
X14387863Y-15845938D01*
X14387863Y-15845938D02*
X14378340Y-15864986D01*
X14378340Y-15864986D02*
X14368816Y-15874510D01*
X14368816Y-15874510D02*
X14349768Y-15884034D01*
X14349768Y-15884034D02*
X14321197Y-15884034D01*
X14502149Y-15884034D02*
X14483102Y-15874510D01*
X14483102Y-15874510D02*
X14473578Y-15855462D01*
X14473578Y-15855462D02*
X14473578Y-15684034D01*
X14654530Y-15874510D02*
X14635483Y-15884034D01*
X14635483Y-15884034D02*
X14597387Y-15884034D01*
X14597387Y-15884034D02*
X14578340Y-15874510D01*
X14578340Y-15874510D02*
X14568816Y-15855462D01*
X14568816Y-15855462D02*
X14568816Y-15779272D01*
X14568816Y-15779272D02*
X14578340Y-15760224D01*
X14578340Y-15760224D02*
X14597387Y-15750700D01*
X14597387Y-15750700D02*
X14635483Y-15750700D01*
X14635483Y-15750700D02*
X14654530Y-15760224D01*
X14654530Y-15760224D02*
X14664054Y-15779272D01*
X14664054Y-15779272D02*
X14664054Y-15798319D01*
X14664054Y-15798319D02*
X14568816Y-15817367D01*
X14740244Y-15874510D02*
X14759292Y-15884034D01*
X14759292Y-15884034D02*
X14797387Y-15884034D01*
X14797387Y-15884034D02*
X14816435Y-15874510D01*
X14816435Y-15874510D02*
X14825959Y-15855462D01*
X14825959Y-15855462D02*
X14825959Y-15845938D01*
X14825959Y-15845938D02*
X14816435Y-15826891D01*
X14816435Y-15826891D02*
X14797387Y-15817367D01*
X14797387Y-15817367D02*
X14768816Y-15817367D01*
X14768816Y-15817367D02*
X14749768Y-15807843D01*
X14749768Y-15807843D02*
X14740244Y-15788796D01*
X14740244Y-15788796D02*
X14740244Y-15779272D01*
X14740244Y-15779272D02*
X14749768Y-15760224D01*
X14749768Y-15760224D02*
X14768816Y-15750700D01*
X14768816Y-15750700D02*
X14797387Y-15750700D01*
X14797387Y-15750700D02*
X14816435Y-15760224D01*
X14892625Y-15960224D02*
X14902149Y-15950700D01*
X14902149Y-15950700D02*
X14921197Y-15922129D01*
X14921197Y-15922129D02*
X14930721Y-15903081D01*
X14930721Y-15903081D02*
X14940244Y-15874510D01*
X14940244Y-15874510D02*
X14949768Y-15826891D01*
X14949768Y-15826891D02*
X14949768Y-15788796D01*
X14949768Y-15788796D02*
X14940244Y-15741177D01*
X14940244Y-15741177D02*
X14930721Y-15712605D01*
X14930721Y-15712605D02*
X14921197Y-15693558D01*
X14921197Y-15693558D02*
X14902149Y-15664986D01*
X14902149Y-15664986D02*
X14892625Y-15655462D01*
X15254530Y-15960224D02*
X15245006Y-15950700D01*
X15245006Y-15950700D02*
X15225959Y-15922129D01*
X15225959Y-15922129D02*
X15216435Y-15903081D01*
X15216435Y-15903081D02*
X15206911Y-15874510D01*
X15206911Y-15874510D02*
X15197387Y-15826891D01*
X15197387Y-15826891D02*
X15197387Y-15788796D01*
X15197387Y-15788796D02*
X15206911Y-15741177D01*
X15206911Y-15741177D02*
X15216435Y-15712605D01*
X15216435Y-15712605D02*
X15225959Y-15693558D01*
X15225959Y-15693558D02*
X15245006Y-15664986D01*
X15245006Y-15664986D02*
X15254530Y-15655462D01*
X15330721Y-15750700D02*
X15330721Y-15884034D01*
X15330721Y-15769748D02*
X15340244Y-15760224D01*
X15340244Y-15760224D02*
X15359292Y-15750700D01*
X15359292Y-15750700D02*
X15387864Y-15750700D01*
X15387864Y-15750700D02*
X15406911Y-15760224D01*
X15406911Y-15760224D02*
X15416435Y-15779272D01*
X15416435Y-15779272D02*
X15416435Y-15884034D01*
X15540244Y-15884034D02*
X15521197Y-15874510D01*
X15521197Y-15874510D02*
X15511673Y-15864986D01*
X15511673Y-15864986D02*
X15502149Y-15845938D01*
X15502149Y-15845938D02*
X15502149Y-15788796D01*
X15502149Y-15788796D02*
X15511673Y-15769748D01*
X15511673Y-15769748D02*
X15521197Y-15760224D01*
X15521197Y-15760224D02*
X15540244Y-15750700D01*
X15540244Y-15750700D02*
X15568816Y-15750700D01*
X15568816Y-15750700D02*
X15587864Y-15760224D01*
X15587864Y-15760224D02*
X15597387Y-15769748D01*
X15597387Y-15769748D02*
X15606911Y-15788796D01*
X15606911Y-15788796D02*
X15606911Y-15845938D01*
X15606911Y-15845938D02*
X15597387Y-15864986D01*
X15597387Y-15864986D02*
X15587864Y-15874510D01*
X15587864Y-15874510D02*
X15568816Y-15884034D01*
X15568816Y-15884034D02*
X15540244Y-15884034D01*
X15664054Y-15750700D02*
X15740244Y-15750700D01*
X15692625Y-15684034D02*
X15692625Y-15855462D01*
X15692625Y-15855462D02*
X15702149Y-15874510D01*
X15702149Y-15874510D02*
X15721197Y-15884034D01*
X15721197Y-15884034D02*
X15740244Y-15884034D01*
X15959292Y-15750700D02*
X15959292Y-15950700D01*
X15959292Y-15760224D02*
X15978340Y-15750700D01*
X15978340Y-15750700D02*
X16016435Y-15750700D01*
X16016435Y-15750700D02*
X16035483Y-15760224D01*
X16035483Y-15760224D02*
X16045006Y-15769748D01*
X16045006Y-15769748D02*
X16054530Y-15788796D01*
X16054530Y-15788796D02*
X16054530Y-15845938D01*
X16054530Y-15845938D02*
X16045006Y-15864986D01*
X16045006Y-15864986D02*
X16035483Y-15874510D01*
X16035483Y-15874510D02*
X16016435Y-15884034D01*
X16016435Y-15884034D02*
X15978340Y-15884034D01*
X15978340Y-15884034D02*
X15959292Y-15874510D01*
X16168816Y-15884034D02*
X16149768Y-15874510D01*
X16149768Y-15874510D02*
X16140245Y-15855462D01*
X16140245Y-15855462D02*
X16140245Y-15684034D01*
X16330721Y-15884034D02*
X16330721Y-15779272D01*
X16330721Y-15779272D02*
X16321197Y-15760224D01*
X16321197Y-15760224D02*
X16302149Y-15750700D01*
X16302149Y-15750700D02*
X16264054Y-15750700D01*
X16264054Y-15750700D02*
X16245006Y-15760224D01*
X16330721Y-15874510D02*
X16311673Y-15884034D01*
X16311673Y-15884034D02*
X16264054Y-15884034D01*
X16264054Y-15884034D02*
X16245006Y-15874510D01*
X16245006Y-15874510D02*
X16235483Y-15855462D01*
X16235483Y-15855462D02*
X16235483Y-15836415D01*
X16235483Y-15836415D02*
X16245006Y-15817367D01*
X16245006Y-15817367D02*
X16264054Y-15807843D01*
X16264054Y-15807843D02*
X16311673Y-15807843D01*
X16311673Y-15807843D02*
X16330721Y-15798319D01*
X16397387Y-15750700D02*
X16473578Y-15750700D01*
X16425959Y-15684034D02*
X16425959Y-15855462D01*
X16425959Y-15855462D02*
X16435483Y-15874510D01*
X16435483Y-15874510D02*
X16454530Y-15884034D01*
X16454530Y-15884034D02*
X16473578Y-15884034D01*
X16616435Y-15874510D02*
X16597387Y-15884034D01*
X16597387Y-15884034D02*
X16559292Y-15884034D01*
X16559292Y-15884034D02*
X16540245Y-15874510D01*
X16540245Y-15874510D02*
X16530721Y-15855462D01*
X16530721Y-15855462D02*
X16530721Y-15779272D01*
X16530721Y-15779272D02*
X16540245Y-15760224D01*
X16540245Y-15760224D02*
X16559292Y-15750700D01*
X16559292Y-15750700D02*
X16597387Y-15750700D01*
X16597387Y-15750700D02*
X16616435Y-15760224D01*
X16616435Y-15760224D02*
X16625959Y-15779272D01*
X16625959Y-15779272D02*
X16625959Y-15798319D01*
X16625959Y-15798319D02*
X16530721Y-15817367D01*
X16797388Y-15884034D02*
X16797388Y-15684034D01*
X16797388Y-15874510D02*
X16778340Y-15884034D01*
X16778340Y-15884034D02*
X16740245Y-15884034D01*
X16740245Y-15884034D02*
X16721197Y-15874510D01*
X16721197Y-15874510D02*
X16711673Y-15864986D01*
X16711673Y-15864986D02*
X16702149Y-15845938D01*
X16702149Y-15845938D02*
X16702149Y-15788796D01*
X16702149Y-15788796D02*
X16711673Y-15769748D01*
X16711673Y-15769748D02*
X16721197Y-15760224D01*
X16721197Y-15760224D02*
X16740245Y-15750700D01*
X16740245Y-15750700D02*
X16778340Y-15750700D01*
X16778340Y-15750700D02*
X16797388Y-15760224D01*
X16873578Y-15960224D02*
X16883102Y-15950700D01*
X16883102Y-15950700D02*
X16902149Y-15922129D01*
X16902149Y-15922129D02*
X16911673Y-15903081D01*
X16911673Y-15903081D02*
X16921197Y-15874510D01*
X16921197Y-15874510D02*
X16930721Y-15826891D01*
X16930721Y-15826891D02*
X16930721Y-15788796D01*
X16930721Y-15788796D02*
X16921197Y-15741177D01*
X16921197Y-15741177D02*
X16911673Y-15712605D01*
X16911673Y-15712605D02*
X16902149Y-15693558D01*
X16902149Y-15693558D02*
X16883102Y-15664986D01*
X16883102Y-15664986D02*
X16873578Y-15655462D01*
M02*
