M48
; DRILL file {KiCad 9.0.3} date 2025-07-19T22:30:28+0900
; FORMAT={-:-/ absolute / metric / decimal}
; #@! TF.CreationDate,2025-07-19T22:30:28+09:00
; #@! TF.GenerationSoftware,Kicad,Pcbnew,9.0.3
; #@! TF.FileFunction,NonPlated,1,2,NPTH
FMAT,2
METRIC
; #@! TA.AperFunction,NonPlated,NPTH,ComponentDrill
T1C1.500
; #@! TA.AperFunction,NonPlated,NPTH,ComponentDrill
T2C1.650
; #@! TA.AperFunction,NonPlated,NPTH,ComponentDrill
T3C2.000
; #@! TA.AperFunction,NonPlated,NPTH,ComponentDrill
T4C3.000
; #@! TA.AperFunction,NonPlated,NPTH,ComponentDrill
T5C4.000
%
G90
G05
T2
X160.526Y-83.706
X169.126Y-83.706
T3
X107.121Y-109.947
X107.121Y-128.997
X117.281Y-109.947
X117.281Y-128.997
X126.171Y-109.947
X126.171Y-128.997
X136.331Y-109.947
X136.331Y-128.997
X145.221Y-109.947
X145.221Y-128.997
X155.381Y-109.947
X155.381Y-128.997
X164.271Y-109.947
X164.271Y-128.997
X174.431Y-109.947
X174.431Y-128.997
T4
X108.391Y-107.407
X108.391Y-126.457
X114.741Y-104.867
X114.741Y-123.917
X127.441Y-107.407
X127.441Y-126.457
X133.791Y-104.867
X133.791Y-123.917
X146.491Y-107.407
X146.491Y-126.457
X152.841Y-104.867
X152.841Y-123.917
X165.541Y-107.407
X165.541Y-126.457
X171.891Y-104.867
X171.891Y-123.917
T5
X112.201Y-109.947
X112.201Y-128.997
X131.251Y-109.947
X131.251Y-128.997
X150.301Y-109.947
X150.301Y-128.997
X169.351Y-109.947
X169.351Y-128.997
T1
G00X117.626Y-83.626
M15
G01X118.926Y-83.626
M16
G05
G00X117.626Y-94.825
M15
G01X118.926Y-94.825
M16
G05
M30
