%TF.GenerationSoftware,KiCad,Pcbnew,9.0.3*%
%TF.CreationDate,2025-07-19T22:30:28+09:00*%
%TF.ProjectId,kleinpad,6b6c6569-6e70-4616-942e-6b696361645f,1.0*%
%TF.SameCoordinates,Original*%
%TF.FileFunction,Drillmap*%
%TF.FilePolarity,Positive*%
%FSLAX45Y45*%
G04 Gerber Fmt 4.5, Leading zero omitted, Abs format (unit mm)*
G04 Created by KiCad (PCBNEW 9.0.3) date 2025-07-19 22:30:28*
%MOMM*%
%LPD*%
G01*
G04 APERTURE LIST*
%ADD10C,0.200000*%
%ADD11C,0.010050*%
%ADD12C,0.100000*%
%ADD13C,0.110000*%
%ADD14C,0.130000*%
%ADD15C,0.160000*%
G04 APERTURE END LIST*
D10*
X10127563Y-10347550D02*
X10227563Y-10247550D01*
X10416238Y-9747550D02*
X10227563Y-9747550D01*
X10516238Y-13947550D02*
X10466238Y-13860947D01*
D11*
X18028065Y-13947550D02*
G75*
G02*
X18027060Y-13947550I-503J0D01*
G01*
X18027060Y-13947550D02*
G75*
G02*
X18028065Y-13947550I503J0D01*
G01*
D10*
X10227563Y-10247550D02*
X10416238Y-10247550D01*
X17827563Y-6047550D02*
X10327563Y-6047550D01*
D11*
X10128065Y-6047550D02*
G75*
G02*
X10127060Y-6047550I-503J0D01*
G01*
X10127060Y-6047550D02*
G75*
G02*
X10128065Y-6047550I503J0D01*
G01*
D10*
X10516238Y-13947550D02*
X17638887Y-13947550D01*
D11*
X18028065Y-6047550D02*
G75*
G02*
X18027060Y-6047550I-503J0D01*
G01*
X18027060Y-6047550D02*
G75*
G02*
X18028065Y-6047550I503J0D01*
G01*
D10*
X10227563Y-9747550D02*
X10127563Y-9647550D01*
X17927563Y-9747550D02*
X17738887Y-9747550D01*
X17594550Y-13697550D02*
X17688887Y-13860947D01*
X18027563Y-9647550D02*
X18027563Y-6247550D01*
X18027563Y-13347550D02*
X17927563Y-13447550D01*
X10127563Y-6247550D02*
X10127563Y-9647550D01*
X18027563Y-13347550D02*
X18027563Y-10347550D01*
X17738887Y-10247550D02*
X17927563Y-10247550D01*
X10416238Y-13447550D02*
X10227563Y-13447550D01*
X10466238Y-13860947D02*
X10560575Y-13697550D01*
X17638887Y-13947550D02*
X17688887Y-13860947D01*
D11*
X17883727Y-9997550D02*
G75*
G02*
X17882722Y-9997550I-503J0D01*
G01*
X17882722Y-9997550D02*
G75*
G02*
X17883727Y-9997550I503J0D01*
G01*
X10272403Y-9997550D02*
G75*
G02*
X10271398Y-9997550I-503J0D01*
G01*
X10271398Y-9997550D02*
G75*
G02*
X10272403Y-9997550I503J0D01*
G01*
D10*
X17738887Y-9747550D02*
X17594550Y-9997550D01*
X10560575Y-13697550D02*
X10416238Y-13447550D01*
X17927563Y-13447550D02*
X17738887Y-13447550D01*
X10560575Y-9997550D02*
X10416238Y-9747550D01*
X17927563Y-10247550D02*
X18027563Y-10347550D01*
X17827563Y-6047550D02*
X18027563Y-6247550D01*
X10416238Y-10247550D02*
X10560575Y-9997550D01*
X10227563Y-13447550D02*
X10127563Y-13347550D01*
X17738887Y-13447550D02*
X17594550Y-13697550D01*
X10127563Y-10347550D02*
X10127563Y-13347550D01*
X17594550Y-9997550D02*
X17738887Y-10247550D01*
X10327563Y-6047550D02*
X10127563Y-6247550D01*
D11*
X17883727Y-13697550D02*
G75*
G02*
X17882722Y-13697550I-503J0D01*
G01*
X17882722Y-13697550D02*
G75*
G02*
X17883727Y-13697550I503J0D01*
G01*
D10*
X18027563Y-9647550D02*
X17927563Y-9747550D01*
D12*
X14057562Y-11522550D02*
X14087562Y-11552550D01*
X14087562Y-11522550D02*
X14057562Y-11552550D01*
X14057562Y-11942550D02*
X14087562Y-11972550D01*
X14087562Y-11942550D02*
X14057562Y-11972550D01*
X13945062Y-7047550D02*
G75*
G02*
X13870062Y-7047550I-37500J0D01*
G01*
X13870062Y-7047550D02*
G75*
G02*
X13945062Y-7047550I37500J0D01*
G01*
X13945062Y-7247550D02*
G75*
G02*
X13870062Y-7247550I-37500J0D01*
G01*
X13870062Y-7247550D02*
G75*
G02*
X13945062Y-7247550I37500J0D01*
G01*
X10577563Y-8182550D02*
X10577563Y-8262550D01*
X10537563Y-8222550D02*
X10617563Y-8222550D01*
X10577563Y-8432550D02*
X10577563Y-8512550D01*
X10537563Y-8472550D02*
X10617563Y-8472550D01*
X10582563Y-8882550D02*
X10582563Y-8962550D01*
X10542563Y-8922550D02*
X10622563Y-8922550D01*
X10582563Y-9132550D02*
X10582563Y-9212550D01*
X10542563Y-9172550D02*
X10622563Y-9172550D01*
X15362562Y-8172550D02*
X15362562Y-8252550D01*
X15322562Y-8212550D02*
X15402562Y-8212550D01*
X15362562Y-8422550D02*
X15362562Y-8502550D01*
X15322562Y-8462550D02*
X15402562Y-8462550D01*
X16387562Y-7007550D02*
X16387562Y-7087550D01*
X16347562Y-7047550D02*
X16427562Y-7047550D01*
X16637562Y-7007550D02*
X16637562Y-7087550D01*
X16597562Y-7047550D02*
X16677562Y-7047550D01*
X10867487Y-13576287D02*
X10867487Y-13518813D01*
X10810013Y-13518813D01*
X10810013Y-13576287D01*
X10867487Y-13576287D01*
X10889987Y-11676287D02*
X10889987Y-11618813D01*
X10832513Y-11618813D01*
X10832513Y-11676287D01*
X10889987Y-11676287D01*
X11031300Y-6395287D02*
X11031300Y-6337813D01*
X10973825Y-6337813D01*
X10973825Y-6395287D01*
X11031300Y-6395287D01*
X11031300Y-6649287D02*
X11031300Y-6591813D01*
X10973825Y-6591813D01*
X10973825Y-6649287D01*
X11031300Y-6649287D01*
X11031300Y-6903287D02*
X11031300Y-6845813D01*
X10973825Y-6845813D01*
X10973825Y-6903287D01*
X11031300Y-6903287D01*
X11031300Y-7157287D02*
X11031300Y-7099813D01*
X10973825Y-7099813D01*
X10973825Y-7157287D01*
X11031300Y-7157287D01*
X11629487Y-13576287D02*
X11629487Y-13518813D01*
X11572013Y-13518813D01*
X11572013Y-13576287D01*
X11629487Y-13576287D01*
X11651987Y-11676287D02*
X11651987Y-11618813D01*
X11594513Y-11618813D01*
X11594513Y-11676287D01*
X11651987Y-11676287D01*
X12789987Y-11676287D02*
X12789987Y-11618813D01*
X12732513Y-11618813D01*
X12732513Y-11676287D01*
X12789987Y-11676287D01*
X12789987Y-13576287D02*
X12789987Y-13518813D01*
X12732513Y-13518813D01*
X12732513Y-13576287D01*
X12789987Y-13576287D01*
X13551987Y-11676287D02*
X13551987Y-11618813D01*
X13494513Y-11618813D01*
X13494513Y-11676287D01*
X13551987Y-11676287D01*
X13551987Y-13576287D02*
X13551987Y-13518813D01*
X13494513Y-13518813D01*
X13494513Y-13576287D01*
X13551987Y-13576287D01*
X14689987Y-11676287D02*
X14689987Y-11618813D01*
X14632513Y-11618813D01*
X14632513Y-11676287D01*
X14689987Y-11676287D01*
X14700300Y-13576287D02*
X14700300Y-13518813D01*
X14642825Y-13518813D01*
X14642825Y-13576287D01*
X14700300Y-13576287D01*
X15451987Y-11676287D02*
X15451987Y-11618813D01*
X15394513Y-11618813D01*
X15394513Y-11676287D01*
X15451987Y-11676287D01*
X15462300Y-13576287D02*
X15462300Y-13518813D01*
X15404825Y-13518813D01*
X15404825Y-13576287D01*
X15462300Y-13576287D01*
X16589987Y-11676287D02*
X16589987Y-11618813D01*
X16532513Y-11618813D01*
X16532513Y-11676287D01*
X16589987Y-11676287D01*
X16610300Y-13576287D02*
X16610300Y-13518813D01*
X16552825Y-13518813D01*
X16552825Y-13576287D01*
X16610300Y-13576287D01*
X17351987Y-11676287D02*
X17351987Y-11618813D01*
X17294513Y-11618813D01*
X17294513Y-11676287D01*
X17351987Y-11676287D01*
X17372300Y-13576287D02*
X17372300Y-13518813D01*
X17314825Y-13518813D01*
X17314825Y-13576287D01*
X17372300Y-13576287D01*
X15394562Y-6437050D02*
X15438062Y-6393550D01*
X15394562Y-6350050D01*
X15351062Y-6393550D01*
X15394562Y-6437050D01*
X15394562Y-6945050D02*
X15438062Y-6901550D01*
X15394562Y-6858050D01*
X15351062Y-6901550D01*
X15394562Y-6945050D01*
X15902562Y-6437050D02*
X15946062Y-6393550D01*
X15902562Y-6350050D01*
X15859062Y-6393550D01*
X15902562Y-6437050D01*
X15902562Y-6945050D02*
X15946062Y-6901550D01*
X15902562Y-6858050D01*
X15859062Y-6901550D01*
X15902562Y-6945050D01*
X11027563Y-8622550D02*
X11127563Y-8722550D01*
X11127563Y-8622550D02*
X11027563Y-8722550D01*
X11127563Y-8672550D02*
G75*
G02*
X11027563Y-8672550I-50000J0D01*
G01*
X11027563Y-8672550D02*
G75*
G02*
X11127563Y-8672550I50000J0D01*
G01*
X11027563Y-8872550D02*
X11127563Y-8972550D01*
X11127563Y-8872550D02*
X11027563Y-8972550D01*
X11127563Y-8922550D02*
G75*
G02*
X11027563Y-8922550I-50000J0D01*
G01*
X11027563Y-8922550D02*
G75*
G02*
X11127563Y-8922550I50000J0D01*
G01*
X11027563Y-9122550D02*
X11127563Y-9222550D01*
X11127563Y-9122550D02*
X11027563Y-9222550D01*
X11127563Y-9172550D02*
G75*
G02*
X11027563Y-9172550I-50000J0D01*
G01*
X11027563Y-9172550D02*
G75*
G02*
X11127563Y-9172550I50000J0D01*
G01*
X11648562Y-7197550D02*
X11748562Y-7297550D01*
X11748562Y-7197550D02*
X11648562Y-7297550D01*
X11748562Y-7247550D02*
G75*
G02*
X11648562Y-7247550I-50000J0D01*
G01*
X11648562Y-7247550D02*
G75*
G02*
X11748562Y-7247550I50000J0D01*
G01*
X11902562Y-7197550D02*
X12002562Y-7297550D01*
X12002562Y-7197550D02*
X11902562Y-7297550D01*
X12002562Y-7247550D02*
G75*
G02*
X11902562Y-7247550I-50000J0D01*
G01*
X11902562Y-7247550D02*
G75*
G02*
X12002562Y-7247550I50000J0D01*
G01*
X12156562Y-7197550D02*
X12256562Y-7297550D01*
X12256562Y-7197550D02*
X12156562Y-7297550D01*
X12256562Y-7247550D02*
G75*
G02*
X12156562Y-7247550I-50000J0D01*
G01*
X12156562Y-7247550D02*
G75*
G02*
X12256562Y-7247550I50000J0D01*
G01*
X12410562Y-7197550D02*
X12510562Y-7297550D01*
X12510562Y-7197550D02*
X12410562Y-7297550D01*
X12510562Y-7247550D02*
G75*
G02*
X12410562Y-7247550I-50000J0D01*
G01*
X12410562Y-7247550D02*
G75*
G02*
X12510562Y-7247550I50000J0D01*
G01*
X12477562Y-8622550D02*
X12577562Y-8722550D01*
X12577562Y-8622550D02*
X12477562Y-8722550D01*
X12577562Y-8672550D02*
G75*
G02*
X12477562Y-8672550I-50000J0D01*
G01*
X12477562Y-8672550D02*
G75*
G02*
X12577562Y-8672550I50000J0D01*
G01*
X12477562Y-9122550D02*
X12577562Y-9222550D01*
X12577562Y-9122550D02*
X12477562Y-9222550D01*
X12577562Y-9172550D02*
G75*
G02*
X12477562Y-9172550I-50000J0D01*
G01*
X12477562Y-9172550D02*
G75*
G02*
X12577562Y-9172550I50000J0D01*
G01*
X12664562Y-7197550D02*
X12764562Y-7297550D01*
X12764562Y-7197550D02*
X12664562Y-7297550D01*
X12764562Y-7247550D02*
G75*
G02*
X12664562Y-7247550I-50000J0D01*
G01*
X12664562Y-7247550D02*
G75*
G02*
X12764562Y-7247550I50000J0D01*
G01*
X13260562Y-6326550D02*
X13360562Y-6426550D01*
X13360562Y-6326550D02*
X13260562Y-6426550D01*
X13360562Y-6376550D02*
G75*
G02*
X13260562Y-6376550I-50000J0D01*
G01*
X13260562Y-6376550D02*
G75*
G02*
X13360562Y-6376550I50000J0D01*
G01*
X13260562Y-6580550D02*
X13360562Y-6680550D01*
X13360562Y-6580550D02*
X13260562Y-6680550D01*
X13360562Y-6630550D02*
G75*
G02*
X13260562Y-6630550I-50000J0D01*
G01*
X13260562Y-6630550D02*
G75*
G02*
X13360562Y-6630550I50000J0D01*
G01*
X13260562Y-6834550D02*
X13360562Y-6934550D01*
X13360562Y-6834550D02*
X13260562Y-6934550D01*
X13360562Y-6884550D02*
G75*
G02*
X13260562Y-6884550I-50000J0D01*
G01*
X13260562Y-6884550D02*
G75*
G02*
X13360562Y-6884550I50000J0D01*
G01*
X13260562Y-7088550D02*
X13360562Y-7188550D01*
X13360562Y-7088550D02*
X13260562Y-7188550D01*
X13360562Y-7138550D02*
G75*
G02*
X13260562Y-7138550I-50000J0D01*
G01*
X13260562Y-7138550D02*
G75*
G02*
X13360562Y-7138550I50000J0D01*
G01*
X13260562Y-7342550D02*
X13360562Y-7442550D01*
X13360562Y-7342550D02*
X13260562Y-7442550D01*
X13360562Y-7392550D02*
G75*
G02*
X13260562Y-7392550I-50000J0D01*
G01*
X13260562Y-7392550D02*
G75*
G02*
X13360562Y-7392550I50000J0D01*
G01*
X13260562Y-7596550D02*
X13360562Y-7696550D01*
X13360562Y-7596550D02*
X13260562Y-7696550D01*
X13360562Y-7646550D02*
G75*
G02*
X13260562Y-7646550I-50000J0D01*
G01*
X13260562Y-7646550D02*
G75*
G02*
X13360562Y-7646550I50000J0D01*
G01*
X13260562Y-7850550D02*
X13360562Y-7950550D01*
X13360562Y-7850550D02*
X13260562Y-7950550D01*
X13360562Y-7900550D02*
G75*
G02*
X13260562Y-7900550I-50000J0D01*
G01*
X13260562Y-7900550D02*
G75*
G02*
X13360562Y-7900550I50000J0D01*
G01*
X13260562Y-8104550D02*
X13360562Y-8204550D01*
X13360562Y-8104550D02*
X13260562Y-8204550D01*
X13360562Y-8154550D02*
G75*
G02*
X13260562Y-8154550I-50000J0D01*
G01*
X13260562Y-8154550D02*
G75*
G02*
X13360562Y-8154550I50000J0D01*
G01*
X13260562Y-8358550D02*
X13360562Y-8458550D01*
X13360562Y-8358550D02*
X13260562Y-8458550D01*
X13360562Y-8408550D02*
G75*
G02*
X13260562Y-8408550I-50000J0D01*
G01*
X13260562Y-8408550D02*
G75*
G02*
X13360562Y-8408550I50000J0D01*
G01*
X13260562Y-8612550D02*
X13360562Y-8712550D01*
X13360562Y-8612550D02*
X13260562Y-8712550D01*
X13360562Y-8662550D02*
G75*
G02*
X13260562Y-8662550I-50000J0D01*
G01*
X13260562Y-8662550D02*
G75*
G02*
X13360562Y-8662550I50000J0D01*
G01*
X13260562Y-8866550D02*
X13360562Y-8966550D01*
X13360562Y-8866550D02*
X13260562Y-8966550D01*
X13360562Y-8916550D02*
G75*
G02*
X13260562Y-8916550I-50000J0D01*
G01*
X13260562Y-8916550D02*
G75*
G02*
X13360562Y-8916550I50000J0D01*
G01*
X13260562Y-9120550D02*
X13360562Y-9220550D01*
X13360562Y-9120550D02*
X13260562Y-9220550D01*
X13360562Y-9170550D02*
G75*
G02*
X13260562Y-9170550I-50000J0D01*
G01*
X13260562Y-9170550D02*
G75*
G02*
X13360562Y-9170550I50000J0D01*
G01*
X13260562Y-9374550D02*
X13360562Y-9474550D01*
X13360562Y-9374550D02*
X13260562Y-9474550D01*
X13360562Y-9424550D02*
G75*
G02*
X13260562Y-9424550I-50000J0D01*
G01*
X13260562Y-9424550D02*
G75*
G02*
X13360562Y-9424550I50000J0D01*
G01*
X13567902Y-9065178D02*
X13667902Y-9165178D01*
X13667902Y-9065178D02*
X13567902Y-9165178D01*
X13667902Y-9115178D02*
G75*
G02*
X13567902Y-9115178I-50000J0D01*
G01*
X13567902Y-9115178D02*
G75*
G02*
X13667902Y-9115178I50000J0D01*
G01*
X13821902Y-9065178D02*
X13921902Y-9165178D01*
X13921902Y-9065178D02*
X13821902Y-9165178D01*
X13921902Y-9115178D02*
G75*
G02*
X13821902Y-9115178I-50000J0D01*
G01*
X13821902Y-9115178D02*
G75*
G02*
X13921902Y-9115178I50000J0D01*
G01*
X14075902Y-9065178D02*
X14175902Y-9165178D01*
X14175902Y-9065178D02*
X14075902Y-9165178D01*
X14175902Y-9115178D02*
G75*
G02*
X14075902Y-9115178I-50000J0D01*
G01*
X14075902Y-9115178D02*
G75*
G02*
X14175902Y-9115178I50000J0D01*
G01*
X14784562Y-6326550D02*
X14884562Y-6426550D01*
X14884562Y-6326550D02*
X14784562Y-6426550D01*
X14884562Y-6376550D02*
G75*
G02*
X14784562Y-6376550I-50000J0D01*
G01*
X14784562Y-6376550D02*
G75*
G02*
X14884562Y-6376550I50000J0D01*
G01*
X14784562Y-6580550D02*
X14884562Y-6680550D01*
X14884562Y-6580550D02*
X14784562Y-6680550D01*
X14884562Y-6630550D02*
G75*
G02*
X14784562Y-6630550I-50000J0D01*
G01*
X14784562Y-6630550D02*
G75*
G02*
X14884562Y-6630550I50000J0D01*
G01*
X14784562Y-6834550D02*
X14884562Y-6934550D01*
X14884562Y-6834550D02*
X14784562Y-6934550D01*
X14884562Y-6884550D02*
G75*
G02*
X14784562Y-6884550I-50000J0D01*
G01*
X14784562Y-6884550D02*
G75*
G02*
X14884562Y-6884550I50000J0D01*
G01*
X14784562Y-7088550D02*
X14884562Y-7188550D01*
X14884562Y-7088550D02*
X14784562Y-7188550D01*
X14884562Y-7138550D02*
G75*
G02*
X14784562Y-7138550I-50000J0D01*
G01*
X14784562Y-7138550D02*
G75*
G02*
X14884562Y-7138550I50000J0D01*
G01*
X14784562Y-7342550D02*
X14884562Y-7442550D01*
X14884562Y-7342550D02*
X14784562Y-7442550D01*
X14884562Y-7392550D02*
G75*
G02*
X14784562Y-7392550I-50000J0D01*
G01*
X14784562Y-7392550D02*
G75*
G02*
X14884562Y-7392550I50000J0D01*
G01*
X14784562Y-7596550D02*
X14884562Y-7696550D01*
X14884562Y-7596550D02*
X14784562Y-7696550D01*
X14884562Y-7646550D02*
G75*
G02*
X14784562Y-7646550I-50000J0D01*
G01*
X14784562Y-7646550D02*
G75*
G02*
X14884562Y-7646550I50000J0D01*
G01*
X14784562Y-7850550D02*
X14884562Y-7950550D01*
X14884562Y-7850550D02*
X14784562Y-7950550D01*
X14884562Y-7900550D02*
G75*
G02*
X14784562Y-7900550I-50000J0D01*
G01*
X14784562Y-7900550D02*
G75*
G02*
X14884562Y-7900550I50000J0D01*
G01*
X14784562Y-8104550D02*
X14884562Y-8204550D01*
X14884562Y-8104550D02*
X14784562Y-8204550D01*
X14884562Y-8154550D02*
G75*
G02*
X14784562Y-8154550I-50000J0D01*
G01*
X14784562Y-8154550D02*
G75*
G02*
X14884562Y-8154550I50000J0D01*
G01*
X14784562Y-8358550D02*
X14884562Y-8458550D01*
X14884562Y-8358550D02*
X14784562Y-8458550D01*
X14884562Y-8408550D02*
G75*
G02*
X14784562Y-8408550I-50000J0D01*
G01*
X14784562Y-8408550D02*
G75*
G02*
X14884562Y-8408550I50000J0D01*
G01*
X14784562Y-8612550D02*
X14884562Y-8712550D01*
X14884562Y-8612550D02*
X14784562Y-8712550D01*
X14884562Y-8662550D02*
G75*
G02*
X14784562Y-8662550I-50000J0D01*
G01*
X14784562Y-8662550D02*
G75*
G02*
X14884562Y-8662550I50000J0D01*
G01*
X14784562Y-8866550D02*
X14884562Y-8966550D01*
X14884562Y-8866550D02*
X14784562Y-8966550D01*
X14884562Y-8916550D02*
G75*
G02*
X14784562Y-8916550I-50000J0D01*
G01*
X14784562Y-8916550D02*
G75*
G02*
X14884562Y-8916550I50000J0D01*
G01*
X14784562Y-9120550D02*
X14884562Y-9220550D01*
X14884562Y-9120550D02*
X14784562Y-9220550D01*
X14884562Y-9170550D02*
G75*
G02*
X14784562Y-9170550I-50000J0D01*
G01*
X14784562Y-9170550D02*
G75*
G02*
X14884562Y-9170550I50000J0D01*
G01*
X14784562Y-9374550D02*
X14884562Y-9474550D01*
X14884562Y-9374550D02*
X14784562Y-9474550D01*
X14884562Y-9424550D02*
G75*
G02*
X14784562Y-9424550I-50000J0D01*
G01*
X14784562Y-9424550D02*
G75*
G02*
X14884562Y-9424550I50000J0D01*
G01*
D13*
X16177562Y-7442550D02*
X16287562Y-7552550D01*
X16287562Y-7442550D02*
X16177562Y-7552550D01*
X16232562Y-7442550D02*
X16232562Y-7552550D01*
X16177562Y-7497550D02*
X16287562Y-7497550D01*
X16427562Y-7442550D02*
X16537562Y-7552550D01*
X16537562Y-7442550D02*
X16427562Y-7552550D01*
X16482562Y-7442550D02*
X16482562Y-7552550D01*
X16427562Y-7497550D02*
X16537562Y-7497550D01*
X16677562Y-7442550D02*
X16787563Y-7552550D01*
X16787563Y-7442550D02*
X16677562Y-7552550D01*
X16732562Y-7442550D02*
X16732562Y-7552550D01*
X16677562Y-7497550D02*
X16787563Y-7497550D01*
X17300563Y-8065550D02*
X17410563Y-8175550D01*
X17410563Y-8065550D02*
X17300563Y-8175550D01*
X17355563Y-8065550D02*
X17355563Y-8175550D01*
X17300563Y-8120550D02*
X17410563Y-8120550D01*
X17300563Y-8315550D02*
X17410563Y-8425550D01*
X17410563Y-8315550D02*
X17300563Y-8425550D01*
X17355563Y-8315550D02*
X17355563Y-8425550D01*
X17300563Y-8370550D02*
X17410563Y-8370550D01*
X17300563Y-8565550D02*
X17410563Y-8675550D01*
X17410563Y-8565550D02*
X17300563Y-8675550D01*
X17355563Y-8565550D02*
X17355563Y-8675550D01*
X17300563Y-8620550D02*
X17410563Y-8620550D01*
D14*
X16092562Y-8880550D02*
X16222562Y-9010550D01*
X16222562Y-8880550D02*
X16092562Y-9010550D01*
X16203525Y-8991512D02*
X16203525Y-8899588D01*
X16111600Y-8899588D01*
X16111600Y-8991512D01*
X16203525Y-8991512D01*
X16092562Y-9330550D02*
X16222562Y-9460550D01*
X16222562Y-9330550D02*
X16092562Y-9460550D01*
X16203525Y-9441512D02*
X16203525Y-9349588D01*
X16111600Y-9349588D01*
X16111600Y-9441512D01*
X16203525Y-9441512D01*
X16362562Y-6482550D02*
X16492562Y-6612550D01*
X16492562Y-6482550D02*
X16362562Y-6612550D01*
X16473525Y-6593512D02*
X16473525Y-6501588D01*
X16381600Y-6501588D01*
X16381600Y-6593512D01*
X16473525Y-6593512D01*
X16742562Y-8880550D02*
X16872563Y-9010550D01*
X16872563Y-8880550D02*
X16742562Y-9010550D01*
X16853525Y-8991512D02*
X16853525Y-8899588D01*
X16761600Y-8899588D01*
X16761600Y-8991512D01*
X16853525Y-8991512D01*
X16742562Y-9330550D02*
X16872563Y-9460550D01*
X16872563Y-9330550D02*
X16742562Y-9460550D01*
X16853525Y-9441512D02*
X16853525Y-9349588D01*
X16761600Y-9349588D01*
X16761600Y-9441512D01*
X16853525Y-9441512D01*
X17012563Y-6482550D02*
X17142563Y-6612550D01*
X17142563Y-6482550D02*
X17012563Y-6612550D01*
X17123525Y-6593512D02*
X17123525Y-6501588D01*
X17031600Y-6501588D01*
X17031600Y-6593512D01*
X17123525Y-6593512D01*
D15*
X15770062Y-7790550D02*
X15930062Y-7950550D01*
X15930062Y-7790550D02*
X15770062Y-7950550D01*
X15850062Y-7950550D02*
X15930062Y-7870550D01*
X15850062Y-7790550D01*
X15770062Y-7870550D01*
X15850062Y-7950550D01*
X15770062Y-8790550D02*
X15930062Y-8950550D01*
X15930062Y-8790550D02*
X15770062Y-8950550D01*
X15850062Y-8950550D02*
X15930062Y-8870550D01*
X15850062Y-8790550D01*
X15770062Y-8870550D01*
X15850062Y-8950550D01*
X17035063Y-7790550D02*
X17195063Y-7950550D01*
X17195063Y-7790550D02*
X17035063Y-7950550D01*
X17115063Y-7950550D02*
X17195063Y-7870550D01*
X17115063Y-7790550D01*
X17035063Y-7870550D01*
X17115063Y-7950550D01*
X17035063Y-8790550D02*
X17195063Y-8950550D01*
X17195063Y-8790550D02*
X17035063Y-8950550D01*
X17115063Y-8950550D02*
X17195063Y-8870550D01*
X17115063Y-8790550D01*
X17035063Y-8870550D01*
X17115063Y-8950550D01*
D10*
X10378339Y-14269034D02*
X10378339Y-14069034D01*
X10378339Y-14069034D02*
X10425958Y-14069034D01*
X10425958Y-14069034D02*
X10454530Y-14078558D01*
X10454530Y-14078558D02*
X10473577Y-14097605D01*
X10473577Y-14097605D02*
X10483101Y-14116653D01*
X10483101Y-14116653D02*
X10492625Y-14154748D01*
X10492625Y-14154748D02*
X10492625Y-14183319D01*
X10492625Y-14183319D02*
X10483101Y-14221415D01*
X10483101Y-14221415D02*
X10473577Y-14240462D01*
X10473577Y-14240462D02*
X10454530Y-14259510D01*
X10454530Y-14259510D02*
X10425958Y-14269034D01*
X10425958Y-14269034D02*
X10378339Y-14269034D01*
X10578339Y-14269034D02*
X10578339Y-14135700D01*
X10578339Y-14173796D02*
X10587863Y-14154748D01*
X10587863Y-14154748D02*
X10597387Y-14145224D01*
X10597387Y-14145224D02*
X10616435Y-14135700D01*
X10616435Y-14135700D02*
X10635482Y-14135700D01*
X10702149Y-14269034D02*
X10702149Y-14135700D01*
X10702149Y-14069034D02*
X10692625Y-14078558D01*
X10692625Y-14078558D02*
X10702149Y-14088081D01*
X10702149Y-14088081D02*
X10711673Y-14078558D01*
X10711673Y-14078558D02*
X10702149Y-14069034D01*
X10702149Y-14069034D02*
X10702149Y-14088081D01*
X10825958Y-14269034D02*
X10806911Y-14259510D01*
X10806911Y-14259510D02*
X10797387Y-14240462D01*
X10797387Y-14240462D02*
X10797387Y-14069034D01*
X10930720Y-14269034D02*
X10911673Y-14259510D01*
X10911673Y-14259510D02*
X10902149Y-14240462D01*
X10902149Y-14240462D02*
X10902149Y-14069034D01*
X11159292Y-14269034D02*
X11159292Y-14069034D01*
X11159292Y-14069034D02*
X11225958Y-14211891D01*
X11225958Y-14211891D02*
X11292625Y-14069034D01*
X11292625Y-14069034D02*
X11292625Y-14269034D01*
X11473577Y-14269034D02*
X11473577Y-14164272D01*
X11473577Y-14164272D02*
X11464054Y-14145224D01*
X11464054Y-14145224D02*
X11445006Y-14135700D01*
X11445006Y-14135700D02*
X11406911Y-14135700D01*
X11406911Y-14135700D02*
X11387863Y-14145224D01*
X11473577Y-14259510D02*
X11454530Y-14269034D01*
X11454530Y-14269034D02*
X11406911Y-14269034D01*
X11406911Y-14269034D02*
X11387863Y-14259510D01*
X11387863Y-14259510D02*
X11378339Y-14240462D01*
X11378339Y-14240462D02*
X11378339Y-14221415D01*
X11378339Y-14221415D02*
X11387863Y-14202367D01*
X11387863Y-14202367D02*
X11406911Y-14192843D01*
X11406911Y-14192843D02*
X11454530Y-14192843D01*
X11454530Y-14192843D02*
X11473577Y-14183319D01*
X11568815Y-14135700D02*
X11568815Y-14335700D01*
X11568815Y-14145224D02*
X11587863Y-14135700D01*
X11587863Y-14135700D02*
X11625958Y-14135700D01*
X11625958Y-14135700D02*
X11645006Y-14145224D01*
X11645006Y-14145224D02*
X11654530Y-14154748D01*
X11654530Y-14154748D02*
X11664054Y-14173796D01*
X11664054Y-14173796D02*
X11664054Y-14230938D01*
X11664054Y-14230938D02*
X11654530Y-14249986D01*
X11654530Y-14249986D02*
X11645006Y-14259510D01*
X11645006Y-14259510D02*
X11625958Y-14269034D01*
X11625958Y-14269034D02*
X11587863Y-14269034D01*
X11587863Y-14269034D02*
X11568815Y-14259510D01*
X11749768Y-14249986D02*
X11759292Y-14259510D01*
X11759292Y-14259510D02*
X11749768Y-14269034D01*
X11749768Y-14269034D02*
X11740244Y-14259510D01*
X11740244Y-14259510D02*
X11749768Y-14249986D01*
X11749768Y-14249986D02*
X11749768Y-14269034D01*
X11749768Y-14145224D02*
X11759292Y-14154748D01*
X11759292Y-14154748D02*
X11749768Y-14164272D01*
X11749768Y-14164272D02*
X11740244Y-14154748D01*
X11740244Y-14154748D02*
X11749768Y-14145224D01*
X11749768Y-14145224D02*
X11749768Y-14164272D01*
D12*
X10087563Y-14582550D02*
X10117563Y-14612550D01*
X10117563Y-14582550D02*
X10087563Y-14612550D01*
D10*
X10416435Y-14489034D02*
X10435482Y-14489034D01*
X10435482Y-14489034D02*
X10454530Y-14498558D01*
X10454530Y-14498558D02*
X10464054Y-14508081D01*
X10464054Y-14508081D02*
X10473577Y-14527129D01*
X10473577Y-14527129D02*
X10483101Y-14565224D01*
X10483101Y-14565224D02*
X10483101Y-14612843D01*
X10483101Y-14612843D02*
X10473577Y-14650938D01*
X10473577Y-14650938D02*
X10464054Y-14669986D01*
X10464054Y-14669986D02*
X10454530Y-14679510D01*
X10454530Y-14679510D02*
X10435482Y-14689034D01*
X10435482Y-14689034D02*
X10416435Y-14689034D01*
X10416435Y-14689034D02*
X10397387Y-14679510D01*
X10397387Y-14679510D02*
X10387863Y-14669986D01*
X10387863Y-14669986D02*
X10378339Y-14650938D01*
X10378339Y-14650938D02*
X10368816Y-14612843D01*
X10368816Y-14612843D02*
X10368816Y-14565224D01*
X10368816Y-14565224D02*
X10378339Y-14527129D01*
X10378339Y-14527129D02*
X10387863Y-14508081D01*
X10387863Y-14508081D02*
X10397387Y-14498558D01*
X10397387Y-14498558D02*
X10416435Y-14489034D01*
X10568816Y-14669986D02*
X10578339Y-14679510D01*
X10578339Y-14679510D02*
X10568816Y-14689034D01*
X10568816Y-14689034D02*
X10559292Y-14679510D01*
X10559292Y-14679510D02*
X10568816Y-14669986D01*
X10568816Y-14669986D02*
X10568816Y-14689034D01*
X10645006Y-14489034D02*
X10768816Y-14489034D01*
X10768816Y-14489034D02*
X10702149Y-14565224D01*
X10702149Y-14565224D02*
X10730720Y-14565224D01*
X10730720Y-14565224D02*
X10749768Y-14574748D01*
X10749768Y-14574748D02*
X10759292Y-14584272D01*
X10759292Y-14584272D02*
X10768816Y-14603319D01*
X10768816Y-14603319D02*
X10768816Y-14650938D01*
X10768816Y-14650938D02*
X10759292Y-14669986D01*
X10759292Y-14669986D02*
X10749768Y-14679510D01*
X10749768Y-14679510D02*
X10730720Y-14689034D01*
X10730720Y-14689034D02*
X10673577Y-14689034D01*
X10673577Y-14689034D02*
X10654530Y-14679510D01*
X10654530Y-14679510D02*
X10645006Y-14669986D01*
X10892625Y-14489034D02*
X10911673Y-14489034D01*
X10911673Y-14489034D02*
X10930720Y-14498558D01*
X10930720Y-14498558D02*
X10940244Y-14508081D01*
X10940244Y-14508081D02*
X10949768Y-14527129D01*
X10949768Y-14527129D02*
X10959292Y-14565224D01*
X10959292Y-14565224D02*
X10959292Y-14612843D01*
X10959292Y-14612843D02*
X10949768Y-14650938D01*
X10949768Y-14650938D02*
X10940244Y-14669986D01*
X10940244Y-14669986D02*
X10930720Y-14679510D01*
X10930720Y-14679510D02*
X10911673Y-14689034D01*
X10911673Y-14689034D02*
X10892625Y-14689034D01*
X10892625Y-14689034D02*
X10873577Y-14679510D01*
X10873577Y-14679510D02*
X10864054Y-14669986D01*
X10864054Y-14669986D02*
X10854530Y-14650938D01*
X10854530Y-14650938D02*
X10845006Y-14612843D01*
X10845006Y-14612843D02*
X10845006Y-14565224D01*
X10845006Y-14565224D02*
X10854530Y-14527129D01*
X10854530Y-14527129D02*
X10864054Y-14508081D01*
X10864054Y-14508081D02*
X10873577Y-14498558D01*
X10873577Y-14498558D02*
X10892625Y-14489034D01*
X11083101Y-14489034D02*
X11102149Y-14489034D01*
X11102149Y-14489034D02*
X11121197Y-14498558D01*
X11121197Y-14498558D02*
X11130720Y-14508081D01*
X11130720Y-14508081D02*
X11140244Y-14527129D01*
X11140244Y-14527129D02*
X11149768Y-14565224D01*
X11149768Y-14565224D02*
X11149768Y-14612843D01*
X11149768Y-14612843D02*
X11140244Y-14650938D01*
X11140244Y-14650938D02*
X11130720Y-14669986D01*
X11130720Y-14669986D02*
X11121197Y-14679510D01*
X11121197Y-14679510D02*
X11102149Y-14689034D01*
X11102149Y-14689034D02*
X11083101Y-14689034D01*
X11083101Y-14689034D02*
X11064054Y-14679510D01*
X11064054Y-14679510D02*
X11054530Y-14669986D01*
X11054530Y-14669986D02*
X11045006Y-14650938D01*
X11045006Y-14650938D02*
X11035482Y-14612843D01*
X11035482Y-14612843D02*
X11035482Y-14565224D01*
X11035482Y-14565224D02*
X11045006Y-14527129D01*
X11045006Y-14527129D02*
X11054530Y-14508081D01*
X11054530Y-14508081D02*
X11064054Y-14498558D01*
X11064054Y-14498558D02*
X11083101Y-14489034D01*
X11235482Y-14689034D02*
X11235482Y-14555700D01*
X11235482Y-14574748D02*
X11245006Y-14565224D01*
X11245006Y-14565224D02*
X11264054Y-14555700D01*
X11264054Y-14555700D02*
X11292625Y-14555700D01*
X11292625Y-14555700D02*
X11311673Y-14565224D01*
X11311673Y-14565224D02*
X11321196Y-14584272D01*
X11321196Y-14584272D02*
X11321196Y-14689034D01*
X11321196Y-14584272D02*
X11330720Y-14565224D01*
X11330720Y-14565224D02*
X11349768Y-14555700D01*
X11349768Y-14555700D02*
X11378339Y-14555700D01*
X11378339Y-14555700D02*
X11397387Y-14565224D01*
X11397387Y-14565224D02*
X11406911Y-14584272D01*
X11406911Y-14584272D02*
X11406911Y-14689034D01*
X11502149Y-14689034D02*
X11502149Y-14555700D01*
X11502149Y-14574748D02*
X11511673Y-14565224D01*
X11511673Y-14565224D02*
X11530720Y-14555700D01*
X11530720Y-14555700D02*
X11559292Y-14555700D01*
X11559292Y-14555700D02*
X11578339Y-14565224D01*
X11578339Y-14565224D02*
X11587863Y-14584272D01*
X11587863Y-14584272D02*
X11587863Y-14689034D01*
X11587863Y-14584272D02*
X11597387Y-14565224D01*
X11597387Y-14565224D02*
X11616435Y-14555700D01*
X11616435Y-14555700D02*
X11645006Y-14555700D01*
X11645006Y-14555700D02*
X11664054Y-14565224D01*
X11664054Y-14565224D02*
X11673577Y-14584272D01*
X11673577Y-14584272D02*
X11673577Y-14689034D01*
X12064054Y-14479510D02*
X11892625Y-14736653D01*
X12321197Y-14489034D02*
X12340244Y-14489034D01*
X12340244Y-14489034D02*
X12359292Y-14498558D01*
X12359292Y-14498558D02*
X12368816Y-14508081D01*
X12368816Y-14508081D02*
X12378339Y-14527129D01*
X12378339Y-14527129D02*
X12387863Y-14565224D01*
X12387863Y-14565224D02*
X12387863Y-14612843D01*
X12387863Y-14612843D02*
X12378339Y-14650938D01*
X12378339Y-14650938D02*
X12368816Y-14669986D01*
X12368816Y-14669986D02*
X12359292Y-14679510D01*
X12359292Y-14679510D02*
X12340244Y-14689034D01*
X12340244Y-14689034D02*
X12321197Y-14689034D01*
X12321197Y-14689034D02*
X12302149Y-14679510D01*
X12302149Y-14679510D02*
X12292625Y-14669986D01*
X12292625Y-14669986D02*
X12283101Y-14650938D01*
X12283101Y-14650938D02*
X12273578Y-14612843D01*
X12273578Y-14612843D02*
X12273578Y-14565224D01*
X12273578Y-14565224D02*
X12283101Y-14527129D01*
X12283101Y-14527129D02*
X12292625Y-14508081D01*
X12292625Y-14508081D02*
X12302149Y-14498558D01*
X12302149Y-14498558D02*
X12321197Y-14489034D01*
X12473578Y-14669986D02*
X12483101Y-14679510D01*
X12483101Y-14679510D02*
X12473578Y-14689034D01*
X12473578Y-14689034D02*
X12464054Y-14679510D01*
X12464054Y-14679510D02*
X12473578Y-14669986D01*
X12473578Y-14669986D02*
X12473578Y-14689034D01*
X12606911Y-14489034D02*
X12625959Y-14489034D01*
X12625959Y-14489034D02*
X12645006Y-14498558D01*
X12645006Y-14498558D02*
X12654530Y-14508081D01*
X12654530Y-14508081D02*
X12664054Y-14527129D01*
X12664054Y-14527129D02*
X12673578Y-14565224D01*
X12673578Y-14565224D02*
X12673578Y-14612843D01*
X12673578Y-14612843D02*
X12664054Y-14650938D01*
X12664054Y-14650938D02*
X12654530Y-14669986D01*
X12654530Y-14669986D02*
X12645006Y-14679510D01*
X12645006Y-14679510D02*
X12625959Y-14689034D01*
X12625959Y-14689034D02*
X12606911Y-14689034D01*
X12606911Y-14689034D02*
X12587863Y-14679510D01*
X12587863Y-14679510D02*
X12578339Y-14669986D01*
X12578339Y-14669986D02*
X12568816Y-14650938D01*
X12568816Y-14650938D02*
X12559292Y-14612843D01*
X12559292Y-14612843D02*
X12559292Y-14565224D01*
X12559292Y-14565224D02*
X12568816Y-14527129D01*
X12568816Y-14527129D02*
X12578339Y-14508081D01*
X12578339Y-14508081D02*
X12587863Y-14498558D01*
X12587863Y-14498558D02*
X12606911Y-14489034D01*
X12864054Y-14689034D02*
X12749768Y-14689034D01*
X12806911Y-14689034D02*
X12806911Y-14489034D01*
X12806911Y-14489034D02*
X12787863Y-14517605D01*
X12787863Y-14517605D02*
X12768816Y-14536653D01*
X12768816Y-14536653D02*
X12749768Y-14546177D01*
X13054530Y-14689034D02*
X12940244Y-14689034D01*
X12997387Y-14689034D02*
X12997387Y-14489034D01*
X12997387Y-14489034D02*
X12978339Y-14517605D01*
X12978339Y-14517605D02*
X12959292Y-14536653D01*
X12959292Y-14536653D02*
X12940244Y-14546177D01*
X13168816Y-14574748D02*
X13149768Y-14565224D01*
X13149768Y-14565224D02*
X13140244Y-14555700D01*
X13140244Y-14555700D02*
X13130720Y-14536653D01*
X13130720Y-14536653D02*
X13130720Y-14527129D01*
X13130720Y-14527129D02*
X13140244Y-14508081D01*
X13140244Y-14508081D02*
X13149768Y-14498558D01*
X13149768Y-14498558D02*
X13168816Y-14489034D01*
X13168816Y-14489034D02*
X13206911Y-14489034D01*
X13206911Y-14489034D02*
X13225959Y-14498558D01*
X13225959Y-14498558D02*
X13235482Y-14508081D01*
X13235482Y-14508081D02*
X13245006Y-14527129D01*
X13245006Y-14527129D02*
X13245006Y-14536653D01*
X13245006Y-14536653D02*
X13235482Y-14555700D01*
X13235482Y-14555700D02*
X13225959Y-14565224D01*
X13225959Y-14565224D02*
X13206911Y-14574748D01*
X13206911Y-14574748D02*
X13168816Y-14574748D01*
X13168816Y-14574748D02*
X13149768Y-14584272D01*
X13149768Y-14584272D02*
X13140244Y-14593796D01*
X13140244Y-14593796D02*
X13130720Y-14612843D01*
X13130720Y-14612843D02*
X13130720Y-14650938D01*
X13130720Y-14650938D02*
X13140244Y-14669986D01*
X13140244Y-14669986D02*
X13149768Y-14679510D01*
X13149768Y-14679510D02*
X13168816Y-14689034D01*
X13168816Y-14689034D02*
X13206911Y-14689034D01*
X13206911Y-14689034D02*
X13225959Y-14679510D01*
X13225959Y-14679510D02*
X13235482Y-14669986D01*
X13235482Y-14669986D02*
X13245006Y-14650938D01*
X13245006Y-14650938D02*
X13245006Y-14612843D01*
X13245006Y-14612843D02*
X13235482Y-14593796D01*
X13235482Y-14593796D02*
X13225959Y-14584272D01*
X13225959Y-14584272D02*
X13206911Y-14574748D01*
X13321197Y-14489034D02*
X13321197Y-14527129D01*
X13397387Y-14489034D02*
X13397387Y-14527129D01*
X13692625Y-14765224D02*
X13683101Y-14755700D01*
X13683101Y-14755700D02*
X13664054Y-14727129D01*
X13664054Y-14727129D02*
X13654530Y-14708081D01*
X13654530Y-14708081D02*
X13645006Y-14679510D01*
X13645006Y-14679510D02*
X13635482Y-14631891D01*
X13635482Y-14631891D02*
X13635482Y-14593796D01*
X13635482Y-14593796D02*
X13645006Y-14546177D01*
X13645006Y-14546177D02*
X13654530Y-14517605D01*
X13654530Y-14517605D02*
X13664054Y-14498558D01*
X13664054Y-14498558D02*
X13683101Y-14469986D01*
X13683101Y-14469986D02*
X13692625Y-14460462D01*
X13759292Y-14508081D02*
X13768816Y-14498558D01*
X13768816Y-14498558D02*
X13787863Y-14489034D01*
X13787863Y-14489034D02*
X13835482Y-14489034D01*
X13835482Y-14489034D02*
X13854530Y-14498558D01*
X13854530Y-14498558D02*
X13864054Y-14508081D01*
X13864054Y-14508081D02*
X13873578Y-14527129D01*
X13873578Y-14527129D02*
X13873578Y-14546177D01*
X13873578Y-14546177D02*
X13864054Y-14574748D01*
X13864054Y-14574748D02*
X13749768Y-14689034D01*
X13749768Y-14689034D02*
X13873578Y-14689034D01*
X14111673Y-14689034D02*
X14111673Y-14489034D01*
X14197387Y-14689034D02*
X14197387Y-14584272D01*
X14197387Y-14584272D02*
X14187863Y-14565224D01*
X14187863Y-14565224D02*
X14168816Y-14555700D01*
X14168816Y-14555700D02*
X14140244Y-14555700D01*
X14140244Y-14555700D02*
X14121197Y-14565224D01*
X14121197Y-14565224D02*
X14111673Y-14574748D01*
X14321197Y-14689034D02*
X14302149Y-14679510D01*
X14302149Y-14679510D02*
X14292625Y-14669986D01*
X14292625Y-14669986D02*
X14283102Y-14650938D01*
X14283102Y-14650938D02*
X14283102Y-14593796D01*
X14283102Y-14593796D02*
X14292625Y-14574748D01*
X14292625Y-14574748D02*
X14302149Y-14565224D01*
X14302149Y-14565224D02*
X14321197Y-14555700D01*
X14321197Y-14555700D02*
X14349768Y-14555700D01*
X14349768Y-14555700D02*
X14368816Y-14565224D01*
X14368816Y-14565224D02*
X14378340Y-14574748D01*
X14378340Y-14574748D02*
X14387863Y-14593796D01*
X14387863Y-14593796D02*
X14387863Y-14650938D01*
X14387863Y-14650938D02*
X14378340Y-14669986D01*
X14378340Y-14669986D02*
X14368816Y-14679510D01*
X14368816Y-14679510D02*
X14349768Y-14689034D01*
X14349768Y-14689034D02*
X14321197Y-14689034D01*
X14502149Y-14689034D02*
X14483102Y-14679510D01*
X14483102Y-14679510D02*
X14473578Y-14660462D01*
X14473578Y-14660462D02*
X14473578Y-14489034D01*
X14654530Y-14679510D02*
X14635483Y-14689034D01*
X14635483Y-14689034D02*
X14597387Y-14689034D01*
X14597387Y-14689034D02*
X14578340Y-14679510D01*
X14578340Y-14679510D02*
X14568816Y-14660462D01*
X14568816Y-14660462D02*
X14568816Y-14584272D01*
X14568816Y-14584272D02*
X14578340Y-14565224D01*
X14578340Y-14565224D02*
X14597387Y-14555700D01*
X14597387Y-14555700D02*
X14635483Y-14555700D01*
X14635483Y-14555700D02*
X14654530Y-14565224D01*
X14654530Y-14565224D02*
X14664054Y-14584272D01*
X14664054Y-14584272D02*
X14664054Y-14603319D01*
X14664054Y-14603319D02*
X14568816Y-14622367D01*
X14740244Y-14679510D02*
X14759292Y-14689034D01*
X14759292Y-14689034D02*
X14797387Y-14689034D01*
X14797387Y-14689034D02*
X14816435Y-14679510D01*
X14816435Y-14679510D02*
X14825959Y-14660462D01*
X14825959Y-14660462D02*
X14825959Y-14650938D01*
X14825959Y-14650938D02*
X14816435Y-14631891D01*
X14816435Y-14631891D02*
X14797387Y-14622367D01*
X14797387Y-14622367D02*
X14768816Y-14622367D01*
X14768816Y-14622367D02*
X14749768Y-14612843D01*
X14749768Y-14612843D02*
X14740244Y-14593796D01*
X14740244Y-14593796D02*
X14740244Y-14584272D01*
X14740244Y-14584272D02*
X14749768Y-14565224D01*
X14749768Y-14565224D02*
X14768816Y-14555700D01*
X14768816Y-14555700D02*
X14797387Y-14555700D01*
X14797387Y-14555700D02*
X14816435Y-14565224D01*
X14892625Y-14765224D02*
X14902149Y-14755700D01*
X14902149Y-14755700D02*
X14921197Y-14727129D01*
X14921197Y-14727129D02*
X14930721Y-14708081D01*
X14930721Y-14708081D02*
X14940244Y-14679510D01*
X14940244Y-14679510D02*
X14949768Y-14631891D01*
X14949768Y-14631891D02*
X14949768Y-14593796D01*
X14949768Y-14593796D02*
X14940244Y-14546177D01*
X14940244Y-14546177D02*
X14930721Y-14517605D01*
X14930721Y-14517605D02*
X14921197Y-14498558D01*
X14921197Y-14498558D02*
X14902149Y-14469986D01*
X14902149Y-14469986D02*
X14892625Y-14460462D01*
D12*
X10117563Y-14861550D02*
G75*
G02*
X10042563Y-14861550I-37500J0D01*
G01*
X10042563Y-14861550D02*
G75*
G02*
X10117563Y-14861550I37500J0D01*
G01*
D10*
X10416435Y-14753034D02*
X10435482Y-14753034D01*
X10435482Y-14753034D02*
X10454530Y-14762558D01*
X10454530Y-14762558D02*
X10464054Y-14772081D01*
X10464054Y-14772081D02*
X10473577Y-14791129D01*
X10473577Y-14791129D02*
X10483101Y-14829224D01*
X10483101Y-14829224D02*
X10483101Y-14876843D01*
X10483101Y-14876843D02*
X10473577Y-14914938D01*
X10473577Y-14914938D02*
X10464054Y-14933986D01*
X10464054Y-14933986D02*
X10454530Y-14943510D01*
X10454530Y-14943510D02*
X10435482Y-14953034D01*
X10435482Y-14953034D02*
X10416435Y-14953034D01*
X10416435Y-14953034D02*
X10397387Y-14943510D01*
X10397387Y-14943510D02*
X10387863Y-14933986D01*
X10387863Y-14933986D02*
X10378339Y-14914938D01*
X10378339Y-14914938D02*
X10368816Y-14876843D01*
X10368816Y-14876843D02*
X10368816Y-14829224D01*
X10368816Y-14829224D02*
X10378339Y-14791129D01*
X10378339Y-14791129D02*
X10387863Y-14772081D01*
X10387863Y-14772081D02*
X10397387Y-14762558D01*
X10397387Y-14762558D02*
X10416435Y-14753034D01*
X10568816Y-14933986D02*
X10578339Y-14943510D01*
X10578339Y-14943510D02*
X10568816Y-14953034D01*
X10568816Y-14953034D02*
X10559292Y-14943510D01*
X10559292Y-14943510D02*
X10568816Y-14933986D01*
X10568816Y-14933986D02*
X10568816Y-14953034D01*
X10645006Y-14753034D02*
X10778339Y-14753034D01*
X10778339Y-14753034D02*
X10692625Y-14953034D01*
X10949768Y-14753034D02*
X10854530Y-14753034D01*
X10854530Y-14753034D02*
X10845006Y-14848272D01*
X10845006Y-14848272D02*
X10854530Y-14838748D01*
X10854530Y-14838748D02*
X10873577Y-14829224D01*
X10873577Y-14829224D02*
X10921197Y-14829224D01*
X10921197Y-14829224D02*
X10940244Y-14838748D01*
X10940244Y-14838748D02*
X10949768Y-14848272D01*
X10949768Y-14848272D02*
X10959292Y-14867319D01*
X10959292Y-14867319D02*
X10959292Y-14914938D01*
X10959292Y-14914938D02*
X10949768Y-14933986D01*
X10949768Y-14933986D02*
X10940244Y-14943510D01*
X10940244Y-14943510D02*
X10921197Y-14953034D01*
X10921197Y-14953034D02*
X10873577Y-14953034D01*
X10873577Y-14953034D02*
X10854530Y-14943510D01*
X10854530Y-14943510D02*
X10845006Y-14933986D01*
X11083101Y-14753034D02*
X11102149Y-14753034D01*
X11102149Y-14753034D02*
X11121197Y-14762558D01*
X11121197Y-14762558D02*
X11130720Y-14772081D01*
X11130720Y-14772081D02*
X11140244Y-14791129D01*
X11140244Y-14791129D02*
X11149768Y-14829224D01*
X11149768Y-14829224D02*
X11149768Y-14876843D01*
X11149768Y-14876843D02*
X11140244Y-14914938D01*
X11140244Y-14914938D02*
X11130720Y-14933986D01*
X11130720Y-14933986D02*
X11121197Y-14943510D01*
X11121197Y-14943510D02*
X11102149Y-14953034D01*
X11102149Y-14953034D02*
X11083101Y-14953034D01*
X11083101Y-14953034D02*
X11064054Y-14943510D01*
X11064054Y-14943510D02*
X11054530Y-14933986D01*
X11054530Y-14933986D02*
X11045006Y-14914938D01*
X11045006Y-14914938D02*
X11035482Y-14876843D01*
X11035482Y-14876843D02*
X11035482Y-14829224D01*
X11035482Y-14829224D02*
X11045006Y-14791129D01*
X11045006Y-14791129D02*
X11054530Y-14772081D01*
X11054530Y-14772081D02*
X11064054Y-14762558D01*
X11064054Y-14762558D02*
X11083101Y-14753034D01*
X11235482Y-14953034D02*
X11235482Y-14819700D01*
X11235482Y-14838748D02*
X11245006Y-14829224D01*
X11245006Y-14829224D02*
X11264054Y-14819700D01*
X11264054Y-14819700D02*
X11292625Y-14819700D01*
X11292625Y-14819700D02*
X11311673Y-14829224D01*
X11311673Y-14829224D02*
X11321196Y-14848272D01*
X11321196Y-14848272D02*
X11321196Y-14953034D01*
X11321196Y-14848272D02*
X11330720Y-14829224D01*
X11330720Y-14829224D02*
X11349768Y-14819700D01*
X11349768Y-14819700D02*
X11378339Y-14819700D01*
X11378339Y-14819700D02*
X11397387Y-14829224D01*
X11397387Y-14829224D02*
X11406911Y-14848272D01*
X11406911Y-14848272D02*
X11406911Y-14953034D01*
X11502149Y-14953034D02*
X11502149Y-14819700D01*
X11502149Y-14838748D02*
X11511673Y-14829224D01*
X11511673Y-14829224D02*
X11530720Y-14819700D01*
X11530720Y-14819700D02*
X11559292Y-14819700D01*
X11559292Y-14819700D02*
X11578339Y-14829224D01*
X11578339Y-14829224D02*
X11587863Y-14848272D01*
X11587863Y-14848272D02*
X11587863Y-14953034D01*
X11587863Y-14848272D02*
X11597387Y-14829224D01*
X11597387Y-14829224D02*
X11616435Y-14819700D01*
X11616435Y-14819700D02*
X11645006Y-14819700D01*
X11645006Y-14819700D02*
X11664054Y-14829224D01*
X11664054Y-14829224D02*
X11673577Y-14848272D01*
X11673577Y-14848272D02*
X11673577Y-14953034D01*
X12064054Y-14743510D02*
X11892625Y-15000653D01*
X12321197Y-14753034D02*
X12340244Y-14753034D01*
X12340244Y-14753034D02*
X12359292Y-14762558D01*
X12359292Y-14762558D02*
X12368816Y-14772081D01*
X12368816Y-14772081D02*
X12378339Y-14791129D01*
X12378339Y-14791129D02*
X12387863Y-14829224D01*
X12387863Y-14829224D02*
X12387863Y-14876843D01*
X12387863Y-14876843D02*
X12378339Y-14914938D01*
X12378339Y-14914938D02*
X12368816Y-14933986D01*
X12368816Y-14933986D02*
X12359292Y-14943510D01*
X12359292Y-14943510D02*
X12340244Y-14953034D01*
X12340244Y-14953034D02*
X12321197Y-14953034D01*
X12321197Y-14953034D02*
X12302149Y-14943510D01*
X12302149Y-14943510D02*
X12292625Y-14933986D01*
X12292625Y-14933986D02*
X12283101Y-14914938D01*
X12283101Y-14914938D02*
X12273578Y-14876843D01*
X12273578Y-14876843D02*
X12273578Y-14829224D01*
X12273578Y-14829224D02*
X12283101Y-14791129D01*
X12283101Y-14791129D02*
X12292625Y-14772081D01*
X12292625Y-14772081D02*
X12302149Y-14762558D01*
X12302149Y-14762558D02*
X12321197Y-14753034D01*
X12473578Y-14933986D02*
X12483101Y-14943510D01*
X12483101Y-14943510D02*
X12473578Y-14953034D01*
X12473578Y-14953034D02*
X12464054Y-14943510D01*
X12464054Y-14943510D02*
X12473578Y-14933986D01*
X12473578Y-14933986D02*
X12473578Y-14953034D01*
X12606911Y-14753034D02*
X12625959Y-14753034D01*
X12625959Y-14753034D02*
X12645006Y-14762558D01*
X12645006Y-14762558D02*
X12654530Y-14772081D01*
X12654530Y-14772081D02*
X12664054Y-14791129D01*
X12664054Y-14791129D02*
X12673578Y-14829224D01*
X12673578Y-14829224D02*
X12673578Y-14876843D01*
X12673578Y-14876843D02*
X12664054Y-14914938D01*
X12664054Y-14914938D02*
X12654530Y-14933986D01*
X12654530Y-14933986D02*
X12645006Y-14943510D01*
X12645006Y-14943510D02*
X12625959Y-14953034D01*
X12625959Y-14953034D02*
X12606911Y-14953034D01*
X12606911Y-14953034D02*
X12587863Y-14943510D01*
X12587863Y-14943510D02*
X12578339Y-14933986D01*
X12578339Y-14933986D02*
X12568816Y-14914938D01*
X12568816Y-14914938D02*
X12559292Y-14876843D01*
X12559292Y-14876843D02*
X12559292Y-14829224D01*
X12559292Y-14829224D02*
X12568816Y-14791129D01*
X12568816Y-14791129D02*
X12578339Y-14772081D01*
X12578339Y-14772081D02*
X12587863Y-14762558D01*
X12587863Y-14762558D02*
X12606911Y-14753034D01*
X12749768Y-14772081D02*
X12759292Y-14762558D01*
X12759292Y-14762558D02*
X12778339Y-14753034D01*
X12778339Y-14753034D02*
X12825959Y-14753034D01*
X12825959Y-14753034D02*
X12845006Y-14762558D01*
X12845006Y-14762558D02*
X12854530Y-14772081D01*
X12854530Y-14772081D02*
X12864054Y-14791129D01*
X12864054Y-14791129D02*
X12864054Y-14810177D01*
X12864054Y-14810177D02*
X12854530Y-14838748D01*
X12854530Y-14838748D02*
X12740244Y-14953034D01*
X12740244Y-14953034D02*
X12864054Y-14953034D01*
X12959292Y-14953034D02*
X12997387Y-14953034D01*
X12997387Y-14953034D02*
X13016435Y-14943510D01*
X13016435Y-14943510D02*
X13025959Y-14933986D01*
X13025959Y-14933986D02*
X13045006Y-14905415D01*
X13045006Y-14905415D02*
X13054530Y-14867319D01*
X13054530Y-14867319D02*
X13054530Y-14791129D01*
X13054530Y-14791129D02*
X13045006Y-14772081D01*
X13045006Y-14772081D02*
X13035482Y-14762558D01*
X13035482Y-14762558D02*
X13016435Y-14753034D01*
X13016435Y-14753034D02*
X12978339Y-14753034D01*
X12978339Y-14753034D02*
X12959292Y-14762558D01*
X12959292Y-14762558D02*
X12949768Y-14772081D01*
X12949768Y-14772081D02*
X12940244Y-14791129D01*
X12940244Y-14791129D02*
X12940244Y-14838748D01*
X12940244Y-14838748D02*
X12949768Y-14857796D01*
X12949768Y-14857796D02*
X12959292Y-14867319D01*
X12959292Y-14867319D02*
X12978339Y-14876843D01*
X12978339Y-14876843D02*
X13016435Y-14876843D01*
X13016435Y-14876843D02*
X13035482Y-14867319D01*
X13035482Y-14867319D02*
X13045006Y-14857796D01*
X13045006Y-14857796D02*
X13054530Y-14838748D01*
X13235482Y-14753034D02*
X13140244Y-14753034D01*
X13140244Y-14753034D02*
X13130720Y-14848272D01*
X13130720Y-14848272D02*
X13140244Y-14838748D01*
X13140244Y-14838748D02*
X13159292Y-14829224D01*
X13159292Y-14829224D02*
X13206911Y-14829224D01*
X13206911Y-14829224D02*
X13225959Y-14838748D01*
X13225959Y-14838748D02*
X13235482Y-14848272D01*
X13235482Y-14848272D02*
X13245006Y-14867319D01*
X13245006Y-14867319D02*
X13245006Y-14914938D01*
X13245006Y-14914938D02*
X13235482Y-14933986D01*
X13235482Y-14933986D02*
X13225959Y-14943510D01*
X13225959Y-14943510D02*
X13206911Y-14953034D01*
X13206911Y-14953034D02*
X13159292Y-14953034D01*
X13159292Y-14953034D02*
X13140244Y-14943510D01*
X13140244Y-14943510D02*
X13130720Y-14933986D01*
X13321197Y-14753034D02*
X13321197Y-14791129D01*
X13397387Y-14753034D02*
X13397387Y-14791129D01*
X13692625Y-15029224D02*
X13683101Y-15019700D01*
X13683101Y-15019700D02*
X13664054Y-14991129D01*
X13664054Y-14991129D02*
X13654530Y-14972081D01*
X13654530Y-14972081D02*
X13645006Y-14943510D01*
X13645006Y-14943510D02*
X13635482Y-14895891D01*
X13635482Y-14895891D02*
X13635482Y-14857796D01*
X13635482Y-14857796D02*
X13645006Y-14810177D01*
X13645006Y-14810177D02*
X13654530Y-14781605D01*
X13654530Y-14781605D02*
X13664054Y-14762558D01*
X13664054Y-14762558D02*
X13683101Y-14733986D01*
X13683101Y-14733986D02*
X13692625Y-14724462D01*
X13759292Y-14772081D02*
X13768816Y-14762558D01*
X13768816Y-14762558D02*
X13787863Y-14753034D01*
X13787863Y-14753034D02*
X13835482Y-14753034D01*
X13835482Y-14753034D02*
X13854530Y-14762558D01*
X13854530Y-14762558D02*
X13864054Y-14772081D01*
X13864054Y-14772081D02*
X13873578Y-14791129D01*
X13873578Y-14791129D02*
X13873578Y-14810177D01*
X13873578Y-14810177D02*
X13864054Y-14838748D01*
X13864054Y-14838748D02*
X13749768Y-14953034D01*
X13749768Y-14953034D02*
X13873578Y-14953034D01*
X14111673Y-14953034D02*
X14111673Y-14753034D01*
X14197387Y-14953034D02*
X14197387Y-14848272D01*
X14197387Y-14848272D02*
X14187863Y-14829224D01*
X14187863Y-14829224D02*
X14168816Y-14819700D01*
X14168816Y-14819700D02*
X14140244Y-14819700D01*
X14140244Y-14819700D02*
X14121197Y-14829224D01*
X14121197Y-14829224D02*
X14111673Y-14838748D01*
X14321197Y-14953034D02*
X14302149Y-14943510D01*
X14302149Y-14943510D02*
X14292625Y-14933986D01*
X14292625Y-14933986D02*
X14283102Y-14914938D01*
X14283102Y-14914938D02*
X14283102Y-14857796D01*
X14283102Y-14857796D02*
X14292625Y-14838748D01*
X14292625Y-14838748D02*
X14302149Y-14829224D01*
X14302149Y-14829224D02*
X14321197Y-14819700D01*
X14321197Y-14819700D02*
X14349768Y-14819700D01*
X14349768Y-14819700D02*
X14368816Y-14829224D01*
X14368816Y-14829224D02*
X14378340Y-14838748D01*
X14378340Y-14838748D02*
X14387863Y-14857796D01*
X14387863Y-14857796D02*
X14387863Y-14914938D01*
X14387863Y-14914938D02*
X14378340Y-14933986D01*
X14378340Y-14933986D02*
X14368816Y-14943510D01*
X14368816Y-14943510D02*
X14349768Y-14953034D01*
X14349768Y-14953034D02*
X14321197Y-14953034D01*
X14502149Y-14953034D02*
X14483102Y-14943510D01*
X14483102Y-14943510D02*
X14473578Y-14924462D01*
X14473578Y-14924462D02*
X14473578Y-14753034D01*
X14654530Y-14943510D02*
X14635483Y-14953034D01*
X14635483Y-14953034D02*
X14597387Y-14953034D01*
X14597387Y-14953034D02*
X14578340Y-14943510D01*
X14578340Y-14943510D02*
X14568816Y-14924462D01*
X14568816Y-14924462D02*
X14568816Y-14848272D01*
X14568816Y-14848272D02*
X14578340Y-14829224D01*
X14578340Y-14829224D02*
X14597387Y-14819700D01*
X14597387Y-14819700D02*
X14635483Y-14819700D01*
X14635483Y-14819700D02*
X14654530Y-14829224D01*
X14654530Y-14829224D02*
X14664054Y-14848272D01*
X14664054Y-14848272D02*
X14664054Y-14867319D01*
X14664054Y-14867319D02*
X14568816Y-14886367D01*
X14740244Y-14943510D02*
X14759292Y-14953034D01*
X14759292Y-14953034D02*
X14797387Y-14953034D01*
X14797387Y-14953034D02*
X14816435Y-14943510D01*
X14816435Y-14943510D02*
X14825959Y-14924462D01*
X14825959Y-14924462D02*
X14825959Y-14914938D01*
X14825959Y-14914938D02*
X14816435Y-14895891D01*
X14816435Y-14895891D02*
X14797387Y-14886367D01*
X14797387Y-14886367D02*
X14768816Y-14886367D01*
X14768816Y-14886367D02*
X14749768Y-14876843D01*
X14749768Y-14876843D02*
X14740244Y-14857796D01*
X14740244Y-14857796D02*
X14740244Y-14848272D01*
X14740244Y-14848272D02*
X14749768Y-14829224D01*
X14749768Y-14829224D02*
X14768816Y-14819700D01*
X14768816Y-14819700D02*
X14797387Y-14819700D01*
X14797387Y-14819700D02*
X14816435Y-14829224D01*
X14892625Y-15029224D02*
X14902149Y-15019700D01*
X14902149Y-15019700D02*
X14921197Y-14991129D01*
X14921197Y-14991129D02*
X14930721Y-14972081D01*
X14930721Y-14972081D02*
X14940244Y-14943510D01*
X14940244Y-14943510D02*
X14949768Y-14895891D01*
X14949768Y-14895891D02*
X14949768Y-14857796D01*
X14949768Y-14857796D02*
X14940244Y-14810177D01*
X14940244Y-14810177D02*
X14930721Y-14781605D01*
X14930721Y-14781605D02*
X14921197Y-14762558D01*
X14921197Y-14762558D02*
X14902149Y-14733986D01*
X14902149Y-14733986D02*
X14892625Y-14724462D01*
D12*
X10077563Y-15085550D02*
X10077563Y-15165550D01*
X10037563Y-15125550D02*
X10117563Y-15125550D01*
D10*
X10416435Y-15017034D02*
X10435482Y-15017034D01*
X10435482Y-15017034D02*
X10454530Y-15026558D01*
X10454530Y-15026558D02*
X10464054Y-15036081D01*
X10464054Y-15036081D02*
X10473577Y-15055129D01*
X10473577Y-15055129D02*
X10483101Y-15093224D01*
X10483101Y-15093224D02*
X10483101Y-15140843D01*
X10483101Y-15140843D02*
X10473577Y-15178938D01*
X10473577Y-15178938D02*
X10464054Y-15197986D01*
X10464054Y-15197986D02*
X10454530Y-15207510D01*
X10454530Y-15207510D02*
X10435482Y-15217034D01*
X10435482Y-15217034D02*
X10416435Y-15217034D01*
X10416435Y-15217034D02*
X10397387Y-15207510D01*
X10397387Y-15207510D02*
X10387863Y-15197986D01*
X10387863Y-15197986D02*
X10378339Y-15178938D01*
X10378339Y-15178938D02*
X10368816Y-15140843D01*
X10368816Y-15140843D02*
X10368816Y-15093224D01*
X10368816Y-15093224D02*
X10378339Y-15055129D01*
X10378339Y-15055129D02*
X10387863Y-15036081D01*
X10387863Y-15036081D02*
X10397387Y-15026558D01*
X10397387Y-15026558D02*
X10416435Y-15017034D01*
X10568816Y-15197986D02*
X10578339Y-15207510D01*
X10578339Y-15207510D02*
X10568816Y-15217034D01*
X10568816Y-15217034D02*
X10559292Y-15207510D01*
X10559292Y-15207510D02*
X10568816Y-15197986D01*
X10568816Y-15197986D02*
X10568816Y-15217034D01*
X10692625Y-15102748D02*
X10673577Y-15093224D01*
X10673577Y-15093224D02*
X10664054Y-15083700D01*
X10664054Y-15083700D02*
X10654530Y-15064653D01*
X10654530Y-15064653D02*
X10654530Y-15055129D01*
X10654530Y-15055129D02*
X10664054Y-15036081D01*
X10664054Y-15036081D02*
X10673577Y-15026558D01*
X10673577Y-15026558D02*
X10692625Y-15017034D01*
X10692625Y-15017034D02*
X10730720Y-15017034D01*
X10730720Y-15017034D02*
X10749768Y-15026558D01*
X10749768Y-15026558D02*
X10759292Y-15036081D01*
X10759292Y-15036081D02*
X10768816Y-15055129D01*
X10768816Y-15055129D02*
X10768816Y-15064653D01*
X10768816Y-15064653D02*
X10759292Y-15083700D01*
X10759292Y-15083700D02*
X10749768Y-15093224D01*
X10749768Y-15093224D02*
X10730720Y-15102748D01*
X10730720Y-15102748D02*
X10692625Y-15102748D01*
X10692625Y-15102748D02*
X10673577Y-15112272D01*
X10673577Y-15112272D02*
X10664054Y-15121796D01*
X10664054Y-15121796D02*
X10654530Y-15140843D01*
X10654530Y-15140843D02*
X10654530Y-15178938D01*
X10654530Y-15178938D02*
X10664054Y-15197986D01*
X10664054Y-15197986D02*
X10673577Y-15207510D01*
X10673577Y-15207510D02*
X10692625Y-15217034D01*
X10692625Y-15217034D02*
X10730720Y-15217034D01*
X10730720Y-15217034D02*
X10749768Y-15207510D01*
X10749768Y-15207510D02*
X10759292Y-15197986D01*
X10759292Y-15197986D02*
X10768816Y-15178938D01*
X10768816Y-15178938D02*
X10768816Y-15140843D01*
X10768816Y-15140843D02*
X10759292Y-15121796D01*
X10759292Y-15121796D02*
X10749768Y-15112272D01*
X10749768Y-15112272D02*
X10730720Y-15102748D01*
X10892625Y-15017034D02*
X10911673Y-15017034D01*
X10911673Y-15017034D02*
X10930720Y-15026558D01*
X10930720Y-15026558D02*
X10940244Y-15036081D01*
X10940244Y-15036081D02*
X10949768Y-15055129D01*
X10949768Y-15055129D02*
X10959292Y-15093224D01*
X10959292Y-15093224D02*
X10959292Y-15140843D01*
X10959292Y-15140843D02*
X10949768Y-15178938D01*
X10949768Y-15178938D02*
X10940244Y-15197986D01*
X10940244Y-15197986D02*
X10930720Y-15207510D01*
X10930720Y-15207510D02*
X10911673Y-15217034D01*
X10911673Y-15217034D02*
X10892625Y-15217034D01*
X10892625Y-15217034D02*
X10873577Y-15207510D01*
X10873577Y-15207510D02*
X10864054Y-15197986D01*
X10864054Y-15197986D02*
X10854530Y-15178938D01*
X10854530Y-15178938D02*
X10845006Y-15140843D01*
X10845006Y-15140843D02*
X10845006Y-15093224D01*
X10845006Y-15093224D02*
X10854530Y-15055129D01*
X10854530Y-15055129D02*
X10864054Y-15036081D01*
X10864054Y-15036081D02*
X10873577Y-15026558D01*
X10873577Y-15026558D02*
X10892625Y-15017034D01*
X11083101Y-15017034D02*
X11102149Y-15017034D01*
X11102149Y-15017034D02*
X11121197Y-15026558D01*
X11121197Y-15026558D02*
X11130720Y-15036081D01*
X11130720Y-15036081D02*
X11140244Y-15055129D01*
X11140244Y-15055129D02*
X11149768Y-15093224D01*
X11149768Y-15093224D02*
X11149768Y-15140843D01*
X11149768Y-15140843D02*
X11140244Y-15178938D01*
X11140244Y-15178938D02*
X11130720Y-15197986D01*
X11130720Y-15197986D02*
X11121197Y-15207510D01*
X11121197Y-15207510D02*
X11102149Y-15217034D01*
X11102149Y-15217034D02*
X11083101Y-15217034D01*
X11083101Y-15217034D02*
X11064054Y-15207510D01*
X11064054Y-15207510D02*
X11054530Y-15197986D01*
X11054530Y-15197986D02*
X11045006Y-15178938D01*
X11045006Y-15178938D02*
X11035482Y-15140843D01*
X11035482Y-15140843D02*
X11035482Y-15093224D01*
X11035482Y-15093224D02*
X11045006Y-15055129D01*
X11045006Y-15055129D02*
X11054530Y-15036081D01*
X11054530Y-15036081D02*
X11064054Y-15026558D01*
X11064054Y-15026558D02*
X11083101Y-15017034D01*
X11235482Y-15217034D02*
X11235482Y-15083700D01*
X11235482Y-15102748D02*
X11245006Y-15093224D01*
X11245006Y-15093224D02*
X11264054Y-15083700D01*
X11264054Y-15083700D02*
X11292625Y-15083700D01*
X11292625Y-15083700D02*
X11311673Y-15093224D01*
X11311673Y-15093224D02*
X11321196Y-15112272D01*
X11321196Y-15112272D02*
X11321196Y-15217034D01*
X11321196Y-15112272D02*
X11330720Y-15093224D01*
X11330720Y-15093224D02*
X11349768Y-15083700D01*
X11349768Y-15083700D02*
X11378339Y-15083700D01*
X11378339Y-15083700D02*
X11397387Y-15093224D01*
X11397387Y-15093224D02*
X11406911Y-15112272D01*
X11406911Y-15112272D02*
X11406911Y-15217034D01*
X11502149Y-15217034D02*
X11502149Y-15083700D01*
X11502149Y-15102748D02*
X11511673Y-15093224D01*
X11511673Y-15093224D02*
X11530720Y-15083700D01*
X11530720Y-15083700D02*
X11559292Y-15083700D01*
X11559292Y-15083700D02*
X11578339Y-15093224D01*
X11578339Y-15093224D02*
X11587863Y-15112272D01*
X11587863Y-15112272D02*
X11587863Y-15217034D01*
X11587863Y-15112272D02*
X11597387Y-15093224D01*
X11597387Y-15093224D02*
X11616435Y-15083700D01*
X11616435Y-15083700D02*
X11645006Y-15083700D01*
X11645006Y-15083700D02*
X11664054Y-15093224D01*
X11664054Y-15093224D02*
X11673577Y-15112272D01*
X11673577Y-15112272D02*
X11673577Y-15217034D01*
X12064054Y-15007510D02*
X11892625Y-15264653D01*
X12321197Y-15017034D02*
X12340244Y-15017034D01*
X12340244Y-15017034D02*
X12359292Y-15026558D01*
X12359292Y-15026558D02*
X12368816Y-15036081D01*
X12368816Y-15036081D02*
X12378339Y-15055129D01*
X12378339Y-15055129D02*
X12387863Y-15093224D01*
X12387863Y-15093224D02*
X12387863Y-15140843D01*
X12387863Y-15140843D02*
X12378339Y-15178938D01*
X12378339Y-15178938D02*
X12368816Y-15197986D01*
X12368816Y-15197986D02*
X12359292Y-15207510D01*
X12359292Y-15207510D02*
X12340244Y-15217034D01*
X12340244Y-15217034D02*
X12321197Y-15217034D01*
X12321197Y-15217034D02*
X12302149Y-15207510D01*
X12302149Y-15207510D02*
X12292625Y-15197986D01*
X12292625Y-15197986D02*
X12283101Y-15178938D01*
X12283101Y-15178938D02*
X12273578Y-15140843D01*
X12273578Y-15140843D02*
X12273578Y-15093224D01*
X12273578Y-15093224D02*
X12283101Y-15055129D01*
X12283101Y-15055129D02*
X12292625Y-15036081D01*
X12292625Y-15036081D02*
X12302149Y-15026558D01*
X12302149Y-15026558D02*
X12321197Y-15017034D01*
X12473578Y-15197986D02*
X12483101Y-15207510D01*
X12483101Y-15207510D02*
X12473578Y-15217034D01*
X12473578Y-15217034D02*
X12464054Y-15207510D01*
X12464054Y-15207510D02*
X12473578Y-15197986D01*
X12473578Y-15197986D02*
X12473578Y-15217034D01*
X12606911Y-15017034D02*
X12625959Y-15017034D01*
X12625959Y-15017034D02*
X12645006Y-15026558D01*
X12645006Y-15026558D02*
X12654530Y-15036081D01*
X12654530Y-15036081D02*
X12664054Y-15055129D01*
X12664054Y-15055129D02*
X12673578Y-15093224D01*
X12673578Y-15093224D02*
X12673578Y-15140843D01*
X12673578Y-15140843D02*
X12664054Y-15178938D01*
X12664054Y-15178938D02*
X12654530Y-15197986D01*
X12654530Y-15197986D02*
X12645006Y-15207510D01*
X12645006Y-15207510D02*
X12625959Y-15217034D01*
X12625959Y-15217034D02*
X12606911Y-15217034D01*
X12606911Y-15217034D02*
X12587863Y-15207510D01*
X12587863Y-15207510D02*
X12578339Y-15197986D01*
X12578339Y-15197986D02*
X12568816Y-15178938D01*
X12568816Y-15178938D02*
X12559292Y-15140843D01*
X12559292Y-15140843D02*
X12559292Y-15093224D01*
X12559292Y-15093224D02*
X12568816Y-15055129D01*
X12568816Y-15055129D02*
X12578339Y-15036081D01*
X12578339Y-15036081D02*
X12587863Y-15026558D01*
X12587863Y-15026558D02*
X12606911Y-15017034D01*
X12740244Y-15017034D02*
X12864054Y-15017034D01*
X12864054Y-15017034D02*
X12797387Y-15093224D01*
X12797387Y-15093224D02*
X12825959Y-15093224D01*
X12825959Y-15093224D02*
X12845006Y-15102748D01*
X12845006Y-15102748D02*
X12854530Y-15112272D01*
X12854530Y-15112272D02*
X12864054Y-15131319D01*
X12864054Y-15131319D02*
X12864054Y-15178938D01*
X12864054Y-15178938D02*
X12854530Y-15197986D01*
X12854530Y-15197986D02*
X12845006Y-15207510D01*
X12845006Y-15207510D02*
X12825959Y-15217034D01*
X12825959Y-15217034D02*
X12768816Y-15217034D01*
X12768816Y-15217034D02*
X12749768Y-15207510D01*
X12749768Y-15207510D02*
X12740244Y-15197986D01*
X13054530Y-15217034D02*
X12940244Y-15217034D01*
X12997387Y-15217034D02*
X12997387Y-15017034D01*
X12997387Y-15017034D02*
X12978339Y-15045605D01*
X12978339Y-15045605D02*
X12959292Y-15064653D01*
X12959292Y-15064653D02*
X12940244Y-15074177D01*
X13235482Y-15017034D02*
X13140244Y-15017034D01*
X13140244Y-15017034D02*
X13130720Y-15112272D01*
X13130720Y-15112272D02*
X13140244Y-15102748D01*
X13140244Y-15102748D02*
X13159292Y-15093224D01*
X13159292Y-15093224D02*
X13206911Y-15093224D01*
X13206911Y-15093224D02*
X13225959Y-15102748D01*
X13225959Y-15102748D02*
X13235482Y-15112272D01*
X13235482Y-15112272D02*
X13245006Y-15131319D01*
X13245006Y-15131319D02*
X13245006Y-15178938D01*
X13245006Y-15178938D02*
X13235482Y-15197986D01*
X13235482Y-15197986D02*
X13225959Y-15207510D01*
X13225959Y-15207510D02*
X13206911Y-15217034D01*
X13206911Y-15217034D02*
X13159292Y-15217034D01*
X13159292Y-15217034D02*
X13140244Y-15207510D01*
X13140244Y-15207510D02*
X13130720Y-15197986D01*
X13321197Y-15017034D02*
X13321197Y-15055129D01*
X13397387Y-15017034D02*
X13397387Y-15055129D01*
X13692625Y-15293224D02*
X13683101Y-15283700D01*
X13683101Y-15283700D02*
X13664054Y-15255129D01*
X13664054Y-15255129D02*
X13654530Y-15236081D01*
X13654530Y-15236081D02*
X13645006Y-15207510D01*
X13645006Y-15207510D02*
X13635482Y-15159891D01*
X13635482Y-15159891D02*
X13635482Y-15121796D01*
X13635482Y-15121796D02*
X13645006Y-15074177D01*
X13645006Y-15074177D02*
X13654530Y-15045605D01*
X13654530Y-15045605D02*
X13664054Y-15026558D01*
X13664054Y-15026558D02*
X13683101Y-14997986D01*
X13683101Y-14997986D02*
X13692625Y-14988462D01*
X13797387Y-15102748D02*
X13778340Y-15093224D01*
X13778340Y-15093224D02*
X13768816Y-15083700D01*
X13768816Y-15083700D02*
X13759292Y-15064653D01*
X13759292Y-15064653D02*
X13759292Y-15055129D01*
X13759292Y-15055129D02*
X13768816Y-15036081D01*
X13768816Y-15036081D02*
X13778340Y-15026558D01*
X13778340Y-15026558D02*
X13797387Y-15017034D01*
X13797387Y-15017034D02*
X13835482Y-15017034D01*
X13835482Y-15017034D02*
X13854530Y-15026558D01*
X13854530Y-15026558D02*
X13864054Y-15036081D01*
X13864054Y-15036081D02*
X13873578Y-15055129D01*
X13873578Y-15055129D02*
X13873578Y-15064653D01*
X13873578Y-15064653D02*
X13864054Y-15083700D01*
X13864054Y-15083700D02*
X13854530Y-15093224D01*
X13854530Y-15093224D02*
X13835482Y-15102748D01*
X13835482Y-15102748D02*
X13797387Y-15102748D01*
X13797387Y-15102748D02*
X13778340Y-15112272D01*
X13778340Y-15112272D02*
X13768816Y-15121796D01*
X13768816Y-15121796D02*
X13759292Y-15140843D01*
X13759292Y-15140843D02*
X13759292Y-15178938D01*
X13759292Y-15178938D02*
X13768816Y-15197986D01*
X13768816Y-15197986D02*
X13778340Y-15207510D01*
X13778340Y-15207510D02*
X13797387Y-15217034D01*
X13797387Y-15217034D02*
X13835482Y-15217034D01*
X13835482Y-15217034D02*
X13854530Y-15207510D01*
X13854530Y-15207510D02*
X13864054Y-15197986D01*
X13864054Y-15197986D02*
X13873578Y-15178938D01*
X13873578Y-15178938D02*
X13873578Y-15140843D01*
X13873578Y-15140843D02*
X13864054Y-15121796D01*
X13864054Y-15121796D02*
X13854530Y-15112272D01*
X13854530Y-15112272D02*
X13835482Y-15102748D01*
X14111673Y-15217034D02*
X14111673Y-15017034D01*
X14197387Y-15217034D02*
X14197387Y-15112272D01*
X14197387Y-15112272D02*
X14187863Y-15093224D01*
X14187863Y-15093224D02*
X14168816Y-15083700D01*
X14168816Y-15083700D02*
X14140244Y-15083700D01*
X14140244Y-15083700D02*
X14121197Y-15093224D01*
X14121197Y-15093224D02*
X14111673Y-15102748D01*
X14321197Y-15217034D02*
X14302149Y-15207510D01*
X14302149Y-15207510D02*
X14292625Y-15197986D01*
X14292625Y-15197986D02*
X14283102Y-15178938D01*
X14283102Y-15178938D02*
X14283102Y-15121796D01*
X14283102Y-15121796D02*
X14292625Y-15102748D01*
X14292625Y-15102748D02*
X14302149Y-15093224D01*
X14302149Y-15093224D02*
X14321197Y-15083700D01*
X14321197Y-15083700D02*
X14349768Y-15083700D01*
X14349768Y-15083700D02*
X14368816Y-15093224D01*
X14368816Y-15093224D02*
X14378340Y-15102748D01*
X14378340Y-15102748D02*
X14387863Y-15121796D01*
X14387863Y-15121796D02*
X14387863Y-15178938D01*
X14387863Y-15178938D02*
X14378340Y-15197986D01*
X14378340Y-15197986D02*
X14368816Y-15207510D01*
X14368816Y-15207510D02*
X14349768Y-15217034D01*
X14349768Y-15217034D02*
X14321197Y-15217034D01*
X14502149Y-15217034D02*
X14483102Y-15207510D01*
X14483102Y-15207510D02*
X14473578Y-15188462D01*
X14473578Y-15188462D02*
X14473578Y-15017034D01*
X14654530Y-15207510D02*
X14635483Y-15217034D01*
X14635483Y-15217034D02*
X14597387Y-15217034D01*
X14597387Y-15217034D02*
X14578340Y-15207510D01*
X14578340Y-15207510D02*
X14568816Y-15188462D01*
X14568816Y-15188462D02*
X14568816Y-15112272D01*
X14568816Y-15112272D02*
X14578340Y-15093224D01*
X14578340Y-15093224D02*
X14597387Y-15083700D01*
X14597387Y-15083700D02*
X14635483Y-15083700D01*
X14635483Y-15083700D02*
X14654530Y-15093224D01*
X14654530Y-15093224D02*
X14664054Y-15112272D01*
X14664054Y-15112272D02*
X14664054Y-15131319D01*
X14664054Y-15131319D02*
X14568816Y-15150367D01*
X14740244Y-15207510D02*
X14759292Y-15217034D01*
X14759292Y-15217034D02*
X14797387Y-15217034D01*
X14797387Y-15217034D02*
X14816435Y-15207510D01*
X14816435Y-15207510D02*
X14825959Y-15188462D01*
X14825959Y-15188462D02*
X14825959Y-15178938D01*
X14825959Y-15178938D02*
X14816435Y-15159891D01*
X14816435Y-15159891D02*
X14797387Y-15150367D01*
X14797387Y-15150367D02*
X14768816Y-15150367D01*
X14768816Y-15150367D02*
X14749768Y-15140843D01*
X14749768Y-15140843D02*
X14740244Y-15121796D01*
X14740244Y-15121796D02*
X14740244Y-15112272D01*
X14740244Y-15112272D02*
X14749768Y-15093224D01*
X14749768Y-15093224D02*
X14768816Y-15083700D01*
X14768816Y-15083700D02*
X14797387Y-15083700D01*
X14797387Y-15083700D02*
X14816435Y-15093224D01*
X14892625Y-15293224D02*
X14902149Y-15283700D01*
X14902149Y-15283700D02*
X14921197Y-15255129D01*
X14921197Y-15255129D02*
X14930721Y-15236081D01*
X14930721Y-15236081D02*
X14940244Y-15207510D01*
X14940244Y-15207510D02*
X14949768Y-15159891D01*
X14949768Y-15159891D02*
X14949768Y-15121796D01*
X14949768Y-15121796D02*
X14940244Y-15074177D01*
X14940244Y-15074177D02*
X14930721Y-15045605D01*
X14930721Y-15045605D02*
X14921197Y-15026558D01*
X14921197Y-15026558D02*
X14902149Y-14997986D01*
X14902149Y-14997986D02*
X14892625Y-14988462D01*
D12*
X10105660Y-15418287D02*
X10105660Y-15360813D01*
X10048185Y-15360813D01*
X10048185Y-15418287D01*
X10105660Y-15418287D01*
D10*
X10416435Y-15281034D02*
X10435482Y-15281034D01*
X10435482Y-15281034D02*
X10454530Y-15290558D01*
X10454530Y-15290558D02*
X10464054Y-15300081D01*
X10464054Y-15300081D02*
X10473577Y-15319129D01*
X10473577Y-15319129D02*
X10483101Y-15357224D01*
X10483101Y-15357224D02*
X10483101Y-15404843D01*
X10483101Y-15404843D02*
X10473577Y-15442938D01*
X10473577Y-15442938D02*
X10464054Y-15461986D01*
X10464054Y-15461986D02*
X10454530Y-15471510D01*
X10454530Y-15471510D02*
X10435482Y-15481034D01*
X10435482Y-15481034D02*
X10416435Y-15481034D01*
X10416435Y-15481034D02*
X10397387Y-15471510D01*
X10397387Y-15471510D02*
X10387863Y-15461986D01*
X10387863Y-15461986D02*
X10378339Y-15442938D01*
X10378339Y-15442938D02*
X10368816Y-15404843D01*
X10368816Y-15404843D02*
X10368816Y-15357224D01*
X10368816Y-15357224D02*
X10378339Y-15319129D01*
X10378339Y-15319129D02*
X10387863Y-15300081D01*
X10387863Y-15300081D02*
X10397387Y-15290558D01*
X10397387Y-15290558D02*
X10416435Y-15281034D01*
X10568816Y-15461986D02*
X10578339Y-15471510D01*
X10578339Y-15471510D02*
X10568816Y-15481034D01*
X10568816Y-15481034D02*
X10559292Y-15471510D01*
X10559292Y-15471510D02*
X10568816Y-15461986D01*
X10568816Y-15461986D02*
X10568816Y-15481034D01*
X10692625Y-15366748D02*
X10673577Y-15357224D01*
X10673577Y-15357224D02*
X10664054Y-15347700D01*
X10664054Y-15347700D02*
X10654530Y-15328653D01*
X10654530Y-15328653D02*
X10654530Y-15319129D01*
X10654530Y-15319129D02*
X10664054Y-15300081D01*
X10664054Y-15300081D02*
X10673577Y-15290558D01*
X10673577Y-15290558D02*
X10692625Y-15281034D01*
X10692625Y-15281034D02*
X10730720Y-15281034D01*
X10730720Y-15281034D02*
X10749768Y-15290558D01*
X10749768Y-15290558D02*
X10759292Y-15300081D01*
X10759292Y-15300081D02*
X10768816Y-15319129D01*
X10768816Y-15319129D02*
X10768816Y-15328653D01*
X10768816Y-15328653D02*
X10759292Y-15347700D01*
X10759292Y-15347700D02*
X10749768Y-15357224D01*
X10749768Y-15357224D02*
X10730720Y-15366748D01*
X10730720Y-15366748D02*
X10692625Y-15366748D01*
X10692625Y-15366748D02*
X10673577Y-15376272D01*
X10673577Y-15376272D02*
X10664054Y-15385796D01*
X10664054Y-15385796D02*
X10654530Y-15404843D01*
X10654530Y-15404843D02*
X10654530Y-15442938D01*
X10654530Y-15442938D02*
X10664054Y-15461986D01*
X10664054Y-15461986D02*
X10673577Y-15471510D01*
X10673577Y-15471510D02*
X10692625Y-15481034D01*
X10692625Y-15481034D02*
X10730720Y-15481034D01*
X10730720Y-15481034D02*
X10749768Y-15471510D01*
X10749768Y-15471510D02*
X10759292Y-15461986D01*
X10759292Y-15461986D02*
X10768816Y-15442938D01*
X10768816Y-15442938D02*
X10768816Y-15404843D01*
X10768816Y-15404843D02*
X10759292Y-15385796D01*
X10759292Y-15385796D02*
X10749768Y-15376272D01*
X10749768Y-15376272D02*
X10730720Y-15366748D01*
X10959292Y-15481034D02*
X10845006Y-15481034D01*
X10902149Y-15481034D02*
X10902149Y-15281034D01*
X10902149Y-15281034D02*
X10883101Y-15309605D01*
X10883101Y-15309605D02*
X10864054Y-15328653D01*
X10864054Y-15328653D02*
X10845006Y-15338177D01*
X11025958Y-15281034D02*
X11149768Y-15281034D01*
X11149768Y-15281034D02*
X11083101Y-15357224D01*
X11083101Y-15357224D02*
X11111673Y-15357224D01*
X11111673Y-15357224D02*
X11130720Y-15366748D01*
X11130720Y-15366748D02*
X11140244Y-15376272D01*
X11140244Y-15376272D02*
X11149768Y-15395319D01*
X11149768Y-15395319D02*
X11149768Y-15442938D01*
X11149768Y-15442938D02*
X11140244Y-15461986D01*
X11140244Y-15461986D02*
X11130720Y-15471510D01*
X11130720Y-15471510D02*
X11111673Y-15481034D01*
X11111673Y-15481034D02*
X11054530Y-15481034D01*
X11054530Y-15481034D02*
X11035482Y-15471510D01*
X11035482Y-15471510D02*
X11025958Y-15461986D01*
X11235482Y-15481034D02*
X11235482Y-15347700D01*
X11235482Y-15366748D02*
X11245006Y-15357224D01*
X11245006Y-15357224D02*
X11264054Y-15347700D01*
X11264054Y-15347700D02*
X11292625Y-15347700D01*
X11292625Y-15347700D02*
X11311673Y-15357224D01*
X11311673Y-15357224D02*
X11321196Y-15376272D01*
X11321196Y-15376272D02*
X11321196Y-15481034D01*
X11321196Y-15376272D02*
X11330720Y-15357224D01*
X11330720Y-15357224D02*
X11349768Y-15347700D01*
X11349768Y-15347700D02*
X11378339Y-15347700D01*
X11378339Y-15347700D02*
X11397387Y-15357224D01*
X11397387Y-15357224D02*
X11406911Y-15376272D01*
X11406911Y-15376272D02*
X11406911Y-15481034D01*
X11502149Y-15481034D02*
X11502149Y-15347700D01*
X11502149Y-15366748D02*
X11511673Y-15357224D01*
X11511673Y-15357224D02*
X11530720Y-15347700D01*
X11530720Y-15347700D02*
X11559292Y-15347700D01*
X11559292Y-15347700D02*
X11578339Y-15357224D01*
X11578339Y-15357224D02*
X11587863Y-15376272D01*
X11587863Y-15376272D02*
X11587863Y-15481034D01*
X11587863Y-15376272D02*
X11597387Y-15357224D01*
X11597387Y-15357224D02*
X11616435Y-15347700D01*
X11616435Y-15347700D02*
X11645006Y-15347700D01*
X11645006Y-15347700D02*
X11664054Y-15357224D01*
X11664054Y-15357224D02*
X11673577Y-15376272D01*
X11673577Y-15376272D02*
X11673577Y-15481034D01*
X12064054Y-15271510D02*
X11892625Y-15528653D01*
X12321197Y-15281034D02*
X12340244Y-15281034D01*
X12340244Y-15281034D02*
X12359292Y-15290558D01*
X12359292Y-15290558D02*
X12368816Y-15300081D01*
X12368816Y-15300081D02*
X12378339Y-15319129D01*
X12378339Y-15319129D02*
X12387863Y-15357224D01*
X12387863Y-15357224D02*
X12387863Y-15404843D01*
X12387863Y-15404843D02*
X12378339Y-15442938D01*
X12378339Y-15442938D02*
X12368816Y-15461986D01*
X12368816Y-15461986D02*
X12359292Y-15471510D01*
X12359292Y-15471510D02*
X12340244Y-15481034D01*
X12340244Y-15481034D02*
X12321197Y-15481034D01*
X12321197Y-15481034D02*
X12302149Y-15471510D01*
X12302149Y-15471510D02*
X12292625Y-15461986D01*
X12292625Y-15461986D02*
X12283101Y-15442938D01*
X12283101Y-15442938D02*
X12273578Y-15404843D01*
X12273578Y-15404843D02*
X12273578Y-15357224D01*
X12273578Y-15357224D02*
X12283101Y-15319129D01*
X12283101Y-15319129D02*
X12292625Y-15300081D01*
X12292625Y-15300081D02*
X12302149Y-15290558D01*
X12302149Y-15290558D02*
X12321197Y-15281034D01*
X12473578Y-15461986D02*
X12483101Y-15471510D01*
X12483101Y-15471510D02*
X12473578Y-15481034D01*
X12473578Y-15481034D02*
X12464054Y-15471510D01*
X12464054Y-15471510D02*
X12473578Y-15461986D01*
X12473578Y-15461986D02*
X12473578Y-15481034D01*
X12606911Y-15281034D02*
X12625959Y-15281034D01*
X12625959Y-15281034D02*
X12645006Y-15290558D01*
X12645006Y-15290558D02*
X12654530Y-15300081D01*
X12654530Y-15300081D02*
X12664054Y-15319129D01*
X12664054Y-15319129D02*
X12673578Y-15357224D01*
X12673578Y-15357224D02*
X12673578Y-15404843D01*
X12673578Y-15404843D02*
X12664054Y-15442938D01*
X12664054Y-15442938D02*
X12654530Y-15461986D01*
X12654530Y-15461986D02*
X12645006Y-15471510D01*
X12645006Y-15471510D02*
X12625959Y-15481034D01*
X12625959Y-15481034D02*
X12606911Y-15481034D01*
X12606911Y-15481034D02*
X12587863Y-15471510D01*
X12587863Y-15471510D02*
X12578339Y-15461986D01*
X12578339Y-15461986D02*
X12568816Y-15442938D01*
X12568816Y-15442938D02*
X12559292Y-15404843D01*
X12559292Y-15404843D02*
X12559292Y-15357224D01*
X12559292Y-15357224D02*
X12568816Y-15319129D01*
X12568816Y-15319129D02*
X12578339Y-15300081D01*
X12578339Y-15300081D02*
X12587863Y-15290558D01*
X12587863Y-15290558D02*
X12606911Y-15281034D01*
X12740244Y-15281034D02*
X12864054Y-15281034D01*
X12864054Y-15281034D02*
X12797387Y-15357224D01*
X12797387Y-15357224D02*
X12825959Y-15357224D01*
X12825959Y-15357224D02*
X12845006Y-15366748D01*
X12845006Y-15366748D02*
X12854530Y-15376272D01*
X12854530Y-15376272D02*
X12864054Y-15395319D01*
X12864054Y-15395319D02*
X12864054Y-15442938D01*
X12864054Y-15442938D02*
X12854530Y-15461986D01*
X12854530Y-15461986D02*
X12845006Y-15471510D01*
X12845006Y-15471510D02*
X12825959Y-15481034D01*
X12825959Y-15481034D02*
X12768816Y-15481034D01*
X12768816Y-15481034D02*
X12749768Y-15471510D01*
X12749768Y-15471510D02*
X12740244Y-15461986D01*
X12940244Y-15300081D02*
X12949768Y-15290558D01*
X12949768Y-15290558D02*
X12968816Y-15281034D01*
X12968816Y-15281034D02*
X13016435Y-15281034D01*
X13016435Y-15281034D02*
X13035482Y-15290558D01*
X13035482Y-15290558D02*
X13045006Y-15300081D01*
X13045006Y-15300081D02*
X13054530Y-15319129D01*
X13054530Y-15319129D02*
X13054530Y-15338177D01*
X13054530Y-15338177D02*
X13045006Y-15366748D01*
X13045006Y-15366748D02*
X12930720Y-15481034D01*
X12930720Y-15481034D02*
X13054530Y-15481034D01*
X13178339Y-15281034D02*
X13197387Y-15281034D01*
X13197387Y-15281034D02*
X13216435Y-15290558D01*
X13216435Y-15290558D02*
X13225959Y-15300081D01*
X13225959Y-15300081D02*
X13235482Y-15319129D01*
X13235482Y-15319129D02*
X13245006Y-15357224D01*
X13245006Y-15357224D02*
X13245006Y-15404843D01*
X13245006Y-15404843D02*
X13235482Y-15442938D01*
X13235482Y-15442938D02*
X13225959Y-15461986D01*
X13225959Y-15461986D02*
X13216435Y-15471510D01*
X13216435Y-15471510D02*
X13197387Y-15481034D01*
X13197387Y-15481034D02*
X13178339Y-15481034D01*
X13178339Y-15481034D02*
X13159292Y-15471510D01*
X13159292Y-15471510D02*
X13149768Y-15461986D01*
X13149768Y-15461986D02*
X13140244Y-15442938D01*
X13140244Y-15442938D02*
X13130720Y-15404843D01*
X13130720Y-15404843D02*
X13130720Y-15357224D01*
X13130720Y-15357224D02*
X13140244Y-15319129D01*
X13140244Y-15319129D02*
X13149768Y-15300081D01*
X13149768Y-15300081D02*
X13159292Y-15290558D01*
X13159292Y-15290558D02*
X13178339Y-15281034D01*
X13321197Y-15281034D02*
X13321197Y-15319129D01*
X13397387Y-15281034D02*
X13397387Y-15319129D01*
X13692625Y-15557224D02*
X13683101Y-15547700D01*
X13683101Y-15547700D02*
X13664054Y-15519129D01*
X13664054Y-15519129D02*
X13654530Y-15500081D01*
X13654530Y-15500081D02*
X13645006Y-15471510D01*
X13645006Y-15471510D02*
X13635482Y-15423891D01*
X13635482Y-15423891D02*
X13635482Y-15385796D01*
X13635482Y-15385796D02*
X13645006Y-15338177D01*
X13645006Y-15338177D02*
X13654530Y-15309605D01*
X13654530Y-15309605D02*
X13664054Y-15290558D01*
X13664054Y-15290558D02*
X13683101Y-15261986D01*
X13683101Y-15261986D02*
X13692625Y-15252462D01*
X13759292Y-15300081D02*
X13768816Y-15290558D01*
X13768816Y-15290558D02*
X13787863Y-15281034D01*
X13787863Y-15281034D02*
X13835482Y-15281034D01*
X13835482Y-15281034D02*
X13854530Y-15290558D01*
X13854530Y-15290558D02*
X13864054Y-15300081D01*
X13864054Y-15300081D02*
X13873578Y-15319129D01*
X13873578Y-15319129D02*
X13873578Y-15338177D01*
X13873578Y-15338177D02*
X13864054Y-15366748D01*
X13864054Y-15366748D02*
X13749768Y-15481034D01*
X13749768Y-15481034D02*
X13873578Y-15481034D01*
X13997387Y-15281034D02*
X14016435Y-15281034D01*
X14016435Y-15281034D02*
X14035482Y-15290558D01*
X14035482Y-15290558D02*
X14045006Y-15300081D01*
X14045006Y-15300081D02*
X14054530Y-15319129D01*
X14054530Y-15319129D02*
X14064054Y-15357224D01*
X14064054Y-15357224D02*
X14064054Y-15404843D01*
X14064054Y-15404843D02*
X14054530Y-15442938D01*
X14054530Y-15442938D02*
X14045006Y-15461986D01*
X14045006Y-15461986D02*
X14035482Y-15471510D01*
X14035482Y-15471510D02*
X14016435Y-15481034D01*
X14016435Y-15481034D02*
X13997387Y-15481034D01*
X13997387Y-15481034D02*
X13978340Y-15471510D01*
X13978340Y-15471510D02*
X13968816Y-15461986D01*
X13968816Y-15461986D02*
X13959292Y-15442938D01*
X13959292Y-15442938D02*
X13949768Y-15404843D01*
X13949768Y-15404843D02*
X13949768Y-15357224D01*
X13949768Y-15357224D02*
X13959292Y-15319129D01*
X13959292Y-15319129D02*
X13968816Y-15300081D01*
X13968816Y-15300081D02*
X13978340Y-15290558D01*
X13978340Y-15290558D02*
X13997387Y-15281034D01*
X14302149Y-15481034D02*
X14302149Y-15281034D01*
X14387863Y-15481034D02*
X14387863Y-15376272D01*
X14387863Y-15376272D02*
X14378340Y-15357224D01*
X14378340Y-15357224D02*
X14359292Y-15347700D01*
X14359292Y-15347700D02*
X14330721Y-15347700D01*
X14330721Y-15347700D02*
X14311673Y-15357224D01*
X14311673Y-15357224D02*
X14302149Y-15366748D01*
X14511673Y-15481034D02*
X14492625Y-15471510D01*
X14492625Y-15471510D02*
X14483102Y-15461986D01*
X14483102Y-15461986D02*
X14473578Y-15442938D01*
X14473578Y-15442938D02*
X14473578Y-15385796D01*
X14473578Y-15385796D02*
X14483102Y-15366748D01*
X14483102Y-15366748D02*
X14492625Y-15357224D01*
X14492625Y-15357224D02*
X14511673Y-15347700D01*
X14511673Y-15347700D02*
X14540244Y-15347700D01*
X14540244Y-15347700D02*
X14559292Y-15357224D01*
X14559292Y-15357224D02*
X14568816Y-15366748D01*
X14568816Y-15366748D02*
X14578340Y-15385796D01*
X14578340Y-15385796D02*
X14578340Y-15442938D01*
X14578340Y-15442938D02*
X14568816Y-15461986D01*
X14568816Y-15461986D02*
X14559292Y-15471510D01*
X14559292Y-15471510D02*
X14540244Y-15481034D01*
X14540244Y-15481034D02*
X14511673Y-15481034D01*
X14692625Y-15481034D02*
X14673578Y-15471510D01*
X14673578Y-15471510D02*
X14664054Y-15452462D01*
X14664054Y-15452462D02*
X14664054Y-15281034D01*
X14845006Y-15471510D02*
X14825959Y-15481034D01*
X14825959Y-15481034D02*
X14787863Y-15481034D01*
X14787863Y-15481034D02*
X14768816Y-15471510D01*
X14768816Y-15471510D02*
X14759292Y-15452462D01*
X14759292Y-15452462D02*
X14759292Y-15376272D01*
X14759292Y-15376272D02*
X14768816Y-15357224D01*
X14768816Y-15357224D02*
X14787863Y-15347700D01*
X14787863Y-15347700D02*
X14825959Y-15347700D01*
X14825959Y-15347700D02*
X14845006Y-15357224D01*
X14845006Y-15357224D02*
X14854530Y-15376272D01*
X14854530Y-15376272D02*
X14854530Y-15395319D01*
X14854530Y-15395319D02*
X14759292Y-15414367D01*
X14930721Y-15471510D02*
X14949768Y-15481034D01*
X14949768Y-15481034D02*
X14987863Y-15481034D01*
X14987863Y-15481034D02*
X15006911Y-15471510D01*
X15006911Y-15471510D02*
X15016435Y-15452462D01*
X15016435Y-15452462D02*
X15016435Y-15442938D01*
X15016435Y-15442938D02*
X15006911Y-15423891D01*
X15006911Y-15423891D02*
X14987863Y-15414367D01*
X14987863Y-15414367D02*
X14959292Y-15414367D01*
X14959292Y-15414367D02*
X14940244Y-15404843D01*
X14940244Y-15404843D02*
X14930721Y-15385796D01*
X14930721Y-15385796D02*
X14930721Y-15376272D01*
X14930721Y-15376272D02*
X14940244Y-15357224D01*
X14940244Y-15357224D02*
X14959292Y-15347700D01*
X14959292Y-15347700D02*
X14987863Y-15347700D01*
X14987863Y-15347700D02*
X15006911Y-15357224D01*
X15083102Y-15557224D02*
X15092625Y-15547700D01*
X15092625Y-15547700D02*
X15111673Y-15519129D01*
X15111673Y-15519129D02*
X15121197Y-15500081D01*
X15121197Y-15500081D02*
X15130721Y-15471510D01*
X15130721Y-15471510D02*
X15140244Y-15423891D01*
X15140244Y-15423891D02*
X15140244Y-15385796D01*
X15140244Y-15385796D02*
X15130721Y-15338177D01*
X15130721Y-15338177D02*
X15121197Y-15309605D01*
X15121197Y-15309605D02*
X15111673Y-15290558D01*
X15111673Y-15290558D02*
X15092625Y-15261986D01*
X15092625Y-15261986D02*
X15083102Y-15252462D01*
D12*
X10074063Y-15697050D02*
X10117563Y-15653550D01*
X10074063Y-15610050D01*
X10030563Y-15653550D01*
X10074063Y-15697050D01*
D10*
X10416435Y-15545034D02*
X10435482Y-15545034D01*
X10435482Y-15545034D02*
X10454530Y-15554558D01*
X10454530Y-15554558D02*
X10464054Y-15564081D01*
X10464054Y-15564081D02*
X10473577Y-15583129D01*
X10473577Y-15583129D02*
X10483101Y-15621224D01*
X10483101Y-15621224D02*
X10483101Y-15668843D01*
X10483101Y-15668843D02*
X10473577Y-15706938D01*
X10473577Y-15706938D02*
X10464054Y-15725986D01*
X10464054Y-15725986D02*
X10454530Y-15735510D01*
X10454530Y-15735510D02*
X10435482Y-15745034D01*
X10435482Y-15745034D02*
X10416435Y-15745034D01*
X10416435Y-15745034D02*
X10397387Y-15735510D01*
X10397387Y-15735510D02*
X10387863Y-15725986D01*
X10387863Y-15725986D02*
X10378339Y-15706938D01*
X10378339Y-15706938D02*
X10368816Y-15668843D01*
X10368816Y-15668843D02*
X10368816Y-15621224D01*
X10368816Y-15621224D02*
X10378339Y-15583129D01*
X10378339Y-15583129D02*
X10387863Y-15564081D01*
X10387863Y-15564081D02*
X10397387Y-15554558D01*
X10397387Y-15554558D02*
X10416435Y-15545034D01*
X10568816Y-15725986D02*
X10578339Y-15735510D01*
X10578339Y-15735510D02*
X10568816Y-15745034D01*
X10568816Y-15745034D02*
X10559292Y-15735510D01*
X10559292Y-15735510D02*
X10568816Y-15725986D01*
X10568816Y-15725986D02*
X10568816Y-15745034D01*
X10692625Y-15630748D02*
X10673577Y-15621224D01*
X10673577Y-15621224D02*
X10664054Y-15611700D01*
X10664054Y-15611700D02*
X10654530Y-15592653D01*
X10654530Y-15592653D02*
X10654530Y-15583129D01*
X10654530Y-15583129D02*
X10664054Y-15564081D01*
X10664054Y-15564081D02*
X10673577Y-15554558D01*
X10673577Y-15554558D02*
X10692625Y-15545034D01*
X10692625Y-15545034D02*
X10730720Y-15545034D01*
X10730720Y-15545034D02*
X10749768Y-15554558D01*
X10749768Y-15554558D02*
X10759292Y-15564081D01*
X10759292Y-15564081D02*
X10768816Y-15583129D01*
X10768816Y-15583129D02*
X10768816Y-15592653D01*
X10768816Y-15592653D02*
X10759292Y-15611700D01*
X10759292Y-15611700D02*
X10749768Y-15621224D01*
X10749768Y-15621224D02*
X10730720Y-15630748D01*
X10730720Y-15630748D02*
X10692625Y-15630748D01*
X10692625Y-15630748D02*
X10673577Y-15640272D01*
X10673577Y-15640272D02*
X10664054Y-15649796D01*
X10664054Y-15649796D02*
X10654530Y-15668843D01*
X10654530Y-15668843D02*
X10654530Y-15706938D01*
X10654530Y-15706938D02*
X10664054Y-15725986D01*
X10664054Y-15725986D02*
X10673577Y-15735510D01*
X10673577Y-15735510D02*
X10692625Y-15745034D01*
X10692625Y-15745034D02*
X10730720Y-15745034D01*
X10730720Y-15745034D02*
X10749768Y-15735510D01*
X10749768Y-15735510D02*
X10759292Y-15725986D01*
X10759292Y-15725986D02*
X10768816Y-15706938D01*
X10768816Y-15706938D02*
X10768816Y-15668843D01*
X10768816Y-15668843D02*
X10759292Y-15649796D01*
X10759292Y-15649796D02*
X10749768Y-15640272D01*
X10749768Y-15640272D02*
X10730720Y-15630748D01*
X10835482Y-15545034D02*
X10968816Y-15545034D01*
X10968816Y-15545034D02*
X10883101Y-15745034D01*
X11083101Y-15545034D02*
X11102149Y-15545034D01*
X11102149Y-15545034D02*
X11121197Y-15554558D01*
X11121197Y-15554558D02*
X11130720Y-15564081D01*
X11130720Y-15564081D02*
X11140244Y-15583129D01*
X11140244Y-15583129D02*
X11149768Y-15621224D01*
X11149768Y-15621224D02*
X11149768Y-15668843D01*
X11149768Y-15668843D02*
X11140244Y-15706938D01*
X11140244Y-15706938D02*
X11130720Y-15725986D01*
X11130720Y-15725986D02*
X11121197Y-15735510D01*
X11121197Y-15735510D02*
X11102149Y-15745034D01*
X11102149Y-15745034D02*
X11083101Y-15745034D01*
X11083101Y-15745034D02*
X11064054Y-15735510D01*
X11064054Y-15735510D02*
X11054530Y-15725986D01*
X11054530Y-15725986D02*
X11045006Y-15706938D01*
X11045006Y-15706938D02*
X11035482Y-15668843D01*
X11035482Y-15668843D02*
X11035482Y-15621224D01*
X11035482Y-15621224D02*
X11045006Y-15583129D01*
X11045006Y-15583129D02*
X11054530Y-15564081D01*
X11054530Y-15564081D02*
X11064054Y-15554558D01*
X11064054Y-15554558D02*
X11083101Y-15545034D01*
X11235482Y-15745034D02*
X11235482Y-15611700D01*
X11235482Y-15630748D02*
X11245006Y-15621224D01*
X11245006Y-15621224D02*
X11264054Y-15611700D01*
X11264054Y-15611700D02*
X11292625Y-15611700D01*
X11292625Y-15611700D02*
X11311673Y-15621224D01*
X11311673Y-15621224D02*
X11321196Y-15640272D01*
X11321196Y-15640272D02*
X11321196Y-15745034D01*
X11321196Y-15640272D02*
X11330720Y-15621224D01*
X11330720Y-15621224D02*
X11349768Y-15611700D01*
X11349768Y-15611700D02*
X11378339Y-15611700D01*
X11378339Y-15611700D02*
X11397387Y-15621224D01*
X11397387Y-15621224D02*
X11406911Y-15640272D01*
X11406911Y-15640272D02*
X11406911Y-15745034D01*
X11502149Y-15745034D02*
X11502149Y-15611700D01*
X11502149Y-15630748D02*
X11511673Y-15621224D01*
X11511673Y-15621224D02*
X11530720Y-15611700D01*
X11530720Y-15611700D02*
X11559292Y-15611700D01*
X11559292Y-15611700D02*
X11578339Y-15621224D01*
X11578339Y-15621224D02*
X11587863Y-15640272D01*
X11587863Y-15640272D02*
X11587863Y-15745034D01*
X11587863Y-15640272D02*
X11597387Y-15621224D01*
X11597387Y-15621224D02*
X11616435Y-15611700D01*
X11616435Y-15611700D02*
X11645006Y-15611700D01*
X11645006Y-15611700D02*
X11664054Y-15621224D01*
X11664054Y-15621224D02*
X11673577Y-15640272D01*
X11673577Y-15640272D02*
X11673577Y-15745034D01*
X12064054Y-15535510D02*
X11892625Y-15792653D01*
X12321197Y-15545034D02*
X12340244Y-15545034D01*
X12340244Y-15545034D02*
X12359292Y-15554558D01*
X12359292Y-15554558D02*
X12368816Y-15564081D01*
X12368816Y-15564081D02*
X12378339Y-15583129D01*
X12378339Y-15583129D02*
X12387863Y-15621224D01*
X12387863Y-15621224D02*
X12387863Y-15668843D01*
X12387863Y-15668843D02*
X12378339Y-15706938D01*
X12378339Y-15706938D02*
X12368816Y-15725986D01*
X12368816Y-15725986D02*
X12359292Y-15735510D01*
X12359292Y-15735510D02*
X12340244Y-15745034D01*
X12340244Y-15745034D02*
X12321197Y-15745034D01*
X12321197Y-15745034D02*
X12302149Y-15735510D01*
X12302149Y-15735510D02*
X12292625Y-15725986D01*
X12292625Y-15725986D02*
X12283101Y-15706938D01*
X12283101Y-15706938D02*
X12273578Y-15668843D01*
X12273578Y-15668843D02*
X12273578Y-15621224D01*
X12273578Y-15621224D02*
X12283101Y-15583129D01*
X12283101Y-15583129D02*
X12292625Y-15564081D01*
X12292625Y-15564081D02*
X12302149Y-15554558D01*
X12302149Y-15554558D02*
X12321197Y-15545034D01*
X12473578Y-15725986D02*
X12483101Y-15735510D01*
X12483101Y-15735510D02*
X12473578Y-15745034D01*
X12473578Y-15745034D02*
X12464054Y-15735510D01*
X12464054Y-15735510D02*
X12473578Y-15725986D01*
X12473578Y-15725986D02*
X12473578Y-15745034D01*
X12606911Y-15545034D02*
X12625959Y-15545034D01*
X12625959Y-15545034D02*
X12645006Y-15554558D01*
X12645006Y-15554558D02*
X12654530Y-15564081D01*
X12654530Y-15564081D02*
X12664054Y-15583129D01*
X12664054Y-15583129D02*
X12673578Y-15621224D01*
X12673578Y-15621224D02*
X12673578Y-15668843D01*
X12673578Y-15668843D02*
X12664054Y-15706938D01*
X12664054Y-15706938D02*
X12654530Y-15725986D01*
X12654530Y-15725986D02*
X12645006Y-15735510D01*
X12645006Y-15735510D02*
X12625959Y-15745034D01*
X12625959Y-15745034D02*
X12606911Y-15745034D01*
X12606911Y-15745034D02*
X12587863Y-15735510D01*
X12587863Y-15735510D02*
X12578339Y-15725986D01*
X12578339Y-15725986D02*
X12568816Y-15706938D01*
X12568816Y-15706938D02*
X12559292Y-15668843D01*
X12559292Y-15668843D02*
X12559292Y-15621224D01*
X12559292Y-15621224D02*
X12568816Y-15583129D01*
X12568816Y-15583129D02*
X12578339Y-15564081D01*
X12578339Y-15564081D02*
X12587863Y-15554558D01*
X12587863Y-15554558D02*
X12606911Y-15545034D01*
X12740244Y-15545034D02*
X12864054Y-15545034D01*
X12864054Y-15545034D02*
X12797387Y-15621224D01*
X12797387Y-15621224D02*
X12825959Y-15621224D01*
X12825959Y-15621224D02*
X12845006Y-15630748D01*
X12845006Y-15630748D02*
X12854530Y-15640272D01*
X12854530Y-15640272D02*
X12864054Y-15659319D01*
X12864054Y-15659319D02*
X12864054Y-15706938D01*
X12864054Y-15706938D02*
X12854530Y-15725986D01*
X12854530Y-15725986D02*
X12845006Y-15735510D01*
X12845006Y-15735510D02*
X12825959Y-15745034D01*
X12825959Y-15745034D02*
X12768816Y-15745034D01*
X12768816Y-15745034D02*
X12749768Y-15735510D01*
X12749768Y-15735510D02*
X12740244Y-15725986D01*
X13035482Y-15611700D02*
X13035482Y-15745034D01*
X12987863Y-15535510D02*
X12940244Y-15678367D01*
X12940244Y-15678367D02*
X13064054Y-15678367D01*
X13121197Y-15545034D02*
X13245006Y-15545034D01*
X13245006Y-15545034D02*
X13178339Y-15621224D01*
X13178339Y-15621224D02*
X13206911Y-15621224D01*
X13206911Y-15621224D02*
X13225959Y-15630748D01*
X13225959Y-15630748D02*
X13235482Y-15640272D01*
X13235482Y-15640272D02*
X13245006Y-15659319D01*
X13245006Y-15659319D02*
X13245006Y-15706938D01*
X13245006Y-15706938D02*
X13235482Y-15725986D01*
X13235482Y-15725986D02*
X13225959Y-15735510D01*
X13225959Y-15735510D02*
X13206911Y-15745034D01*
X13206911Y-15745034D02*
X13149768Y-15745034D01*
X13149768Y-15745034D02*
X13130720Y-15735510D01*
X13130720Y-15735510D02*
X13121197Y-15725986D01*
X13321197Y-15545034D02*
X13321197Y-15583129D01*
X13397387Y-15545034D02*
X13397387Y-15583129D01*
X13692625Y-15821224D02*
X13683101Y-15811700D01*
X13683101Y-15811700D02*
X13664054Y-15783129D01*
X13664054Y-15783129D02*
X13654530Y-15764081D01*
X13654530Y-15764081D02*
X13645006Y-15735510D01*
X13645006Y-15735510D02*
X13635482Y-15687891D01*
X13635482Y-15687891D02*
X13635482Y-15649796D01*
X13635482Y-15649796D02*
X13645006Y-15602177D01*
X13645006Y-15602177D02*
X13654530Y-15573605D01*
X13654530Y-15573605D02*
X13664054Y-15554558D01*
X13664054Y-15554558D02*
X13683101Y-15525986D01*
X13683101Y-15525986D02*
X13692625Y-15516462D01*
X13854530Y-15611700D02*
X13854530Y-15745034D01*
X13806911Y-15535510D02*
X13759292Y-15678367D01*
X13759292Y-15678367D02*
X13883101Y-15678367D01*
X14111673Y-15745034D02*
X14111673Y-15545034D01*
X14197387Y-15745034D02*
X14197387Y-15640272D01*
X14197387Y-15640272D02*
X14187863Y-15621224D01*
X14187863Y-15621224D02*
X14168816Y-15611700D01*
X14168816Y-15611700D02*
X14140244Y-15611700D01*
X14140244Y-15611700D02*
X14121197Y-15621224D01*
X14121197Y-15621224D02*
X14111673Y-15630748D01*
X14321197Y-15745034D02*
X14302149Y-15735510D01*
X14302149Y-15735510D02*
X14292625Y-15725986D01*
X14292625Y-15725986D02*
X14283102Y-15706938D01*
X14283102Y-15706938D02*
X14283102Y-15649796D01*
X14283102Y-15649796D02*
X14292625Y-15630748D01*
X14292625Y-15630748D02*
X14302149Y-15621224D01*
X14302149Y-15621224D02*
X14321197Y-15611700D01*
X14321197Y-15611700D02*
X14349768Y-15611700D01*
X14349768Y-15611700D02*
X14368816Y-15621224D01*
X14368816Y-15621224D02*
X14378340Y-15630748D01*
X14378340Y-15630748D02*
X14387863Y-15649796D01*
X14387863Y-15649796D02*
X14387863Y-15706938D01*
X14387863Y-15706938D02*
X14378340Y-15725986D01*
X14378340Y-15725986D02*
X14368816Y-15735510D01*
X14368816Y-15735510D02*
X14349768Y-15745034D01*
X14349768Y-15745034D02*
X14321197Y-15745034D01*
X14502149Y-15745034D02*
X14483102Y-15735510D01*
X14483102Y-15735510D02*
X14473578Y-15716462D01*
X14473578Y-15716462D02*
X14473578Y-15545034D01*
X14654530Y-15735510D02*
X14635483Y-15745034D01*
X14635483Y-15745034D02*
X14597387Y-15745034D01*
X14597387Y-15745034D02*
X14578340Y-15735510D01*
X14578340Y-15735510D02*
X14568816Y-15716462D01*
X14568816Y-15716462D02*
X14568816Y-15640272D01*
X14568816Y-15640272D02*
X14578340Y-15621224D01*
X14578340Y-15621224D02*
X14597387Y-15611700D01*
X14597387Y-15611700D02*
X14635483Y-15611700D01*
X14635483Y-15611700D02*
X14654530Y-15621224D01*
X14654530Y-15621224D02*
X14664054Y-15640272D01*
X14664054Y-15640272D02*
X14664054Y-15659319D01*
X14664054Y-15659319D02*
X14568816Y-15678367D01*
X14740244Y-15735510D02*
X14759292Y-15745034D01*
X14759292Y-15745034D02*
X14797387Y-15745034D01*
X14797387Y-15745034D02*
X14816435Y-15735510D01*
X14816435Y-15735510D02*
X14825959Y-15716462D01*
X14825959Y-15716462D02*
X14825959Y-15706938D01*
X14825959Y-15706938D02*
X14816435Y-15687891D01*
X14816435Y-15687891D02*
X14797387Y-15678367D01*
X14797387Y-15678367D02*
X14768816Y-15678367D01*
X14768816Y-15678367D02*
X14749768Y-15668843D01*
X14749768Y-15668843D02*
X14740244Y-15649796D01*
X14740244Y-15649796D02*
X14740244Y-15640272D01*
X14740244Y-15640272D02*
X14749768Y-15621224D01*
X14749768Y-15621224D02*
X14768816Y-15611700D01*
X14768816Y-15611700D02*
X14797387Y-15611700D01*
X14797387Y-15611700D02*
X14816435Y-15621224D01*
X14892625Y-15821224D02*
X14902149Y-15811700D01*
X14902149Y-15811700D02*
X14921197Y-15783129D01*
X14921197Y-15783129D02*
X14930721Y-15764081D01*
X14930721Y-15764081D02*
X14940244Y-15735510D01*
X14940244Y-15735510D02*
X14949768Y-15687891D01*
X14949768Y-15687891D02*
X14949768Y-15649796D01*
X14949768Y-15649796D02*
X14940244Y-15602177D01*
X14940244Y-15602177D02*
X14930721Y-15573605D01*
X14930721Y-15573605D02*
X14921197Y-15554558D01*
X14921197Y-15554558D02*
X14902149Y-15525986D01*
X14902149Y-15525986D02*
X14892625Y-15516462D01*
D12*
X10017563Y-15867550D02*
X10117563Y-15967550D01*
X10117563Y-15867550D02*
X10017563Y-15967550D01*
X10117563Y-15917550D02*
G75*
G02*
X10017563Y-15917550I-50000J0D01*
G01*
X10017563Y-15917550D02*
G75*
G02*
X10117563Y-15917550I50000J0D01*
G01*
D10*
X10483101Y-16009034D02*
X10368816Y-16009034D01*
X10425958Y-16009034D02*
X10425958Y-15809034D01*
X10425958Y-15809034D02*
X10406911Y-15837605D01*
X10406911Y-15837605D02*
X10387863Y-15856653D01*
X10387863Y-15856653D02*
X10368816Y-15866177D01*
X10568816Y-15989986D02*
X10578339Y-15999510D01*
X10578339Y-15999510D02*
X10568816Y-16009034D01*
X10568816Y-16009034D02*
X10559292Y-15999510D01*
X10559292Y-15999510D02*
X10568816Y-15989986D01*
X10568816Y-15989986D02*
X10568816Y-16009034D01*
X10702149Y-15809034D02*
X10721197Y-15809034D01*
X10721197Y-15809034D02*
X10740244Y-15818558D01*
X10740244Y-15818558D02*
X10749768Y-15828081D01*
X10749768Y-15828081D02*
X10759292Y-15847129D01*
X10759292Y-15847129D02*
X10768816Y-15885224D01*
X10768816Y-15885224D02*
X10768816Y-15932843D01*
X10768816Y-15932843D02*
X10759292Y-15970938D01*
X10759292Y-15970938D02*
X10749768Y-15989986D01*
X10749768Y-15989986D02*
X10740244Y-15999510D01*
X10740244Y-15999510D02*
X10721197Y-16009034D01*
X10721197Y-16009034D02*
X10702149Y-16009034D01*
X10702149Y-16009034D02*
X10683101Y-15999510D01*
X10683101Y-15999510D02*
X10673577Y-15989986D01*
X10673577Y-15989986D02*
X10664054Y-15970938D01*
X10664054Y-15970938D02*
X10654530Y-15932843D01*
X10654530Y-15932843D02*
X10654530Y-15885224D01*
X10654530Y-15885224D02*
X10664054Y-15847129D01*
X10664054Y-15847129D02*
X10673577Y-15828081D01*
X10673577Y-15828081D02*
X10683101Y-15818558D01*
X10683101Y-15818558D02*
X10702149Y-15809034D01*
X10892625Y-15809034D02*
X10911673Y-15809034D01*
X10911673Y-15809034D02*
X10930720Y-15818558D01*
X10930720Y-15818558D02*
X10940244Y-15828081D01*
X10940244Y-15828081D02*
X10949768Y-15847129D01*
X10949768Y-15847129D02*
X10959292Y-15885224D01*
X10959292Y-15885224D02*
X10959292Y-15932843D01*
X10959292Y-15932843D02*
X10949768Y-15970938D01*
X10949768Y-15970938D02*
X10940244Y-15989986D01*
X10940244Y-15989986D02*
X10930720Y-15999510D01*
X10930720Y-15999510D02*
X10911673Y-16009034D01*
X10911673Y-16009034D02*
X10892625Y-16009034D01*
X10892625Y-16009034D02*
X10873577Y-15999510D01*
X10873577Y-15999510D02*
X10864054Y-15989986D01*
X10864054Y-15989986D02*
X10854530Y-15970938D01*
X10854530Y-15970938D02*
X10845006Y-15932843D01*
X10845006Y-15932843D02*
X10845006Y-15885224D01*
X10845006Y-15885224D02*
X10854530Y-15847129D01*
X10854530Y-15847129D02*
X10864054Y-15828081D01*
X10864054Y-15828081D02*
X10873577Y-15818558D01*
X10873577Y-15818558D02*
X10892625Y-15809034D01*
X11083101Y-15809034D02*
X11102149Y-15809034D01*
X11102149Y-15809034D02*
X11121197Y-15818558D01*
X11121197Y-15818558D02*
X11130720Y-15828081D01*
X11130720Y-15828081D02*
X11140244Y-15847129D01*
X11140244Y-15847129D02*
X11149768Y-15885224D01*
X11149768Y-15885224D02*
X11149768Y-15932843D01*
X11149768Y-15932843D02*
X11140244Y-15970938D01*
X11140244Y-15970938D02*
X11130720Y-15989986D01*
X11130720Y-15989986D02*
X11121197Y-15999510D01*
X11121197Y-15999510D02*
X11102149Y-16009034D01*
X11102149Y-16009034D02*
X11083101Y-16009034D01*
X11083101Y-16009034D02*
X11064054Y-15999510D01*
X11064054Y-15999510D02*
X11054530Y-15989986D01*
X11054530Y-15989986D02*
X11045006Y-15970938D01*
X11045006Y-15970938D02*
X11035482Y-15932843D01*
X11035482Y-15932843D02*
X11035482Y-15885224D01*
X11035482Y-15885224D02*
X11045006Y-15847129D01*
X11045006Y-15847129D02*
X11054530Y-15828081D01*
X11054530Y-15828081D02*
X11064054Y-15818558D01*
X11064054Y-15818558D02*
X11083101Y-15809034D01*
X11235482Y-16009034D02*
X11235482Y-15875700D01*
X11235482Y-15894748D02*
X11245006Y-15885224D01*
X11245006Y-15885224D02*
X11264054Y-15875700D01*
X11264054Y-15875700D02*
X11292625Y-15875700D01*
X11292625Y-15875700D02*
X11311673Y-15885224D01*
X11311673Y-15885224D02*
X11321196Y-15904272D01*
X11321196Y-15904272D02*
X11321196Y-16009034D01*
X11321196Y-15904272D02*
X11330720Y-15885224D01*
X11330720Y-15885224D02*
X11349768Y-15875700D01*
X11349768Y-15875700D02*
X11378339Y-15875700D01*
X11378339Y-15875700D02*
X11397387Y-15885224D01*
X11397387Y-15885224D02*
X11406911Y-15904272D01*
X11406911Y-15904272D02*
X11406911Y-16009034D01*
X11502149Y-16009034D02*
X11502149Y-15875700D01*
X11502149Y-15894748D02*
X11511673Y-15885224D01*
X11511673Y-15885224D02*
X11530720Y-15875700D01*
X11530720Y-15875700D02*
X11559292Y-15875700D01*
X11559292Y-15875700D02*
X11578339Y-15885224D01*
X11578339Y-15885224D02*
X11587863Y-15904272D01*
X11587863Y-15904272D02*
X11587863Y-16009034D01*
X11587863Y-15904272D02*
X11597387Y-15885224D01*
X11597387Y-15885224D02*
X11616435Y-15875700D01*
X11616435Y-15875700D02*
X11645006Y-15875700D01*
X11645006Y-15875700D02*
X11664054Y-15885224D01*
X11664054Y-15885224D02*
X11673577Y-15904272D01*
X11673577Y-15904272D02*
X11673577Y-16009034D01*
X12064054Y-15799510D02*
X11892625Y-16056653D01*
X12321197Y-15809034D02*
X12340244Y-15809034D01*
X12340244Y-15809034D02*
X12359292Y-15818558D01*
X12359292Y-15818558D02*
X12368816Y-15828081D01*
X12368816Y-15828081D02*
X12378339Y-15847129D01*
X12378339Y-15847129D02*
X12387863Y-15885224D01*
X12387863Y-15885224D02*
X12387863Y-15932843D01*
X12387863Y-15932843D02*
X12378339Y-15970938D01*
X12378339Y-15970938D02*
X12368816Y-15989986D01*
X12368816Y-15989986D02*
X12359292Y-15999510D01*
X12359292Y-15999510D02*
X12340244Y-16009034D01*
X12340244Y-16009034D02*
X12321197Y-16009034D01*
X12321197Y-16009034D02*
X12302149Y-15999510D01*
X12302149Y-15999510D02*
X12292625Y-15989986D01*
X12292625Y-15989986D02*
X12283101Y-15970938D01*
X12283101Y-15970938D02*
X12273578Y-15932843D01*
X12273578Y-15932843D02*
X12273578Y-15885224D01*
X12273578Y-15885224D02*
X12283101Y-15847129D01*
X12283101Y-15847129D02*
X12292625Y-15828081D01*
X12292625Y-15828081D02*
X12302149Y-15818558D01*
X12302149Y-15818558D02*
X12321197Y-15809034D01*
X12473578Y-15989986D02*
X12483101Y-15999510D01*
X12483101Y-15999510D02*
X12473578Y-16009034D01*
X12473578Y-16009034D02*
X12464054Y-15999510D01*
X12464054Y-15999510D02*
X12473578Y-15989986D01*
X12473578Y-15989986D02*
X12473578Y-16009034D01*
X12606911Y-15809034D02*
X12625959Y-15809034D01*
X12625959Y-15809034D02*
X12645006Y-15818558D01*
X12645006Y-15818558D02*
X12654530Y-15828081D01*
X12654530Y-15828081D02*
X12664054Y-15847129D01*
X12664054Y-15847129D02*
X12673578Y-15885224D01*
X12673578Y-15885224D02*
X12673578Y-15932843D01*
X12673578Y-15932843D02*
X12664054Y-15970938D01*
X12664054Y-15970938D02*
X12654530Y-15989986D01*
X12654530Y-15989986D02*
X12645006Y-15999510D01*
X12645006Y-15999510D02*
X12625959Y-16009034D01*
X12625959Y-16009034D02*
X12606911Y-16009034D01*
X12606911Y-16009034D02*
X12587863Y-15999510D01*
X12587863Y-15999510D02*
X12578339Y-15989986D01*
X12578339Y-15989986D02*
X12568816Y-15970938D01*
X12568816Y-15970938D02*
X12559292Y-15932843D01*
X12559292Y-15932843D02*
X12559292Y-15885224D01*
X12559292Y-15885224D02*
X12568816Y-15847129D01*
X12568816Y-15847129D02*
X12578339Y-15828081D01*
X12578339Y-15828081D02*
X12587863Y-15818558D01*
X12587863Y-15818558D02*
X12606911Y-15809034D01*
X12740244Y-15809034D02*
X12864054Y-15809034D01*
X12864054Y-15809034D02*
X12797387Y-15885224D01*
X12797387Y-15885224D02*
X12825959Y-15885224D01*
X12825959Y-15885224D02*
X12845006Y-15894748D01*
X12845006Y-15894748D02*
X12854530Y-15904272D01*
X12854530Y-15904272D02*
X12864054Y-15923319D01*
X12864054Y-15923319D02*
X12864054Y-15970938D01*
X12864054Y-15970938D02*
X12854530Y-15989986D01*
X12854530Y-15989986D02*
X12845006Y-15999510D01*
X12845006Y-15999510D02*
X12825959Y-16009034D01*
X12825959Y-16009034D02*
X12768816Y-16009034D01*
X12768816Y-16009034D02*
X12749768Y-15999510D01*
X12749768Y-15999510D02*
X12740244Y-15989986D01*
X12959292Y-16009034D02*
X12997387Y-16009034D01*
X12997387Y-16009034D02*
X13016435Y-15999510D01*
X13016435Y-15999510D02*
X13025959Y-15989986D01*
X13025959Y-15989986D02*
X13045006Y-15961415D01*
X13045006Y-15961415D02*
X13054530Y-15923319D01*
X13054530Y-15923319D02*
X13054530Y-15847129D01*
X13054530Y-15847129D02*
X13045006Y-15828081D01*
X13045006Y-15828081D02*
X13035482Y-15818558D01*
X13035482Y-15818558D02*
X13016435Y-15809034D01*
X13016435Y-15809034D02*
X12978339Y-15809034D01*
X12978339Y-15809034D02*
X12959292Y-15818558D01*
X12959292Y-15818558D02*
X12949768Y-15828081D01*
X12949768Y-15828081D02*
X12940244Y-15847129D01*
X12940244Y-15847129D02*
X12940244Y-15894748D01*
X12940244Y-15894748D02*
X12949768Y-15913796D01*
X12949768Y-15913796D02*
X12959292Y-15923319D01*
X12959292Y-15923319D02*
X12978339Y-15932843D01*
X12978339Y-15932843D02*
X13016435Y-15932843D01*
X13016435Y-15932843D02*
X13035482Y-15923319D01*
X13035482Y-15923319D02*
X13045006Y-15913796D01*
X13045006Y-15913796D02*
X13054530Y-15894748D01*
X13225959Y-15875700D02*
X13225959Y-16009034D01*
X13178339Y-15799510D02*
X13130720Y-15942367D01*
X13130720Y-15942367D02*
X13254530Y-15942367D01*
X13321197Y-15809034D02*
X13321197Y-15847129D01*
X13397387Y-15809034D02*
X13397387Y-15847129D01*
X13692625Y-16085224D02*
X13683101Y-16075700D01*
X13683101Y-16075700D02*
X13664054Y-16047129D01*
X13664054Y-16047129D02*
X13654530Y-16028081D01*
X13654530Y-16028081D02*
X13645006Y-15999510D01*
X13645006Y-15999510D02*
X13635482Y-15951891D01*
X13635482Y-15951891D02*
X13635482Y-15913796D01*
X13635482Y-15913796D02*
X13645006Y-15866177D01*
X13645006Y-15866177D02*
X13654530Y-15837605D01*
X13654530Y-15837605D02*
X13664054Y-15818558D01*
X13664054Y-15818558D02*
X13683101Y-15789986D01*
X13683101Y-15789986D02*
X13692625Y-15780462D01*
X13749768Y-15809034D02*
X13873578Y-15809034D01*
X13873578Y-15809034D02*
X13806911Y-15885224D01*
X13806911Y-15885224D02*
X13835482Y-15885224D01*
X13835482Y-15885224D02*
X13854530Y-15894748D01*
X13854530Y-15894748D02*
X13864054Y-15904272D01*
X13864054Y-15904272D02*
X13873578Y-15923319D01*
X13873578Y-15923319D02*
X13873578Y-15970938D01*
X13873578Y-15970938D02*
X13864054Y-15989986D01*
X13864054Y-15989986D02*
X13854530Y-15999510D01*
X13854530Y-15999510D02*
X13835482Y-16009034D01*
X13835482Y-16009034D02*
X13778340Y-16009034D01*
X13778340Y-16009034D02*
X13759292Y-15999510D01*
X13759292Y-15999510D02*
X13749768Y-15989986D01*
X13968816Y-16009034D02*
X14006911Y-16009034D01*
X14006911Y-16009034D02*
X14025959Y-15999510D01*
X14025959Y-15999510D02*
X14035482Y-15989986D01*
X14035482Y-15989986D02*
X14054530Y-15961415D01*
X14054530Y-15961415D02*
X14064054Y-15923319D01*
X14064054Y-15923319D02*
X14064054Y-15847129D01*
X14064054Y-15847129D02*
X14054530Y-15828081D01*
X14054530Y-15828081D02*
X14045006Y-15818558D01*
X14045006Y-15818558D02*
X14025959Y-15809034D01*
X14025959Y-15809034D02*
X13987863Y-15809034D01*
X13987863Y-15809034D02*
X13968816Y-15818558D01*
X13968816Y-15818558D02*
X13959292Y-15828081D01*
X13959292Y-15828081D02*
X13949768Y-15847129D01*
X13949768Y-15847129D02*
X13949768Y-15894748D01*
X13949768Y-15894748D02*
X13959292Y-15913796D01*
X13959292Y-15913796D02*
X13968816Y-15923319D01*
X13968816Y-15923319D02*
X13987863Y-15932843D01*
X13987863Y-15932843D02*
X14025959Y-15932843D01*
X14025959Y-15932843D02*
X14045006Y-15923319D01*
X14045006Y-15923319D02*
X14054530Y-15913796D01*
X14054530Y-15913796D02*
X14064054Y-15894748D01*
X14302149Y-16009034D02*
X14302149Y-15809034D01*
X14387863Y-16009034D02*
X14387863Y-15904272D01*
X14387863Y-15904272D02*
X14378340Y-15885224D01*
X14378340Y-15885224D02*
X14359292Y-15875700D01*
X14359292Y-15875700D02*
X14330721Y-15875700D01*
X14330721Y-15875700D02*
X14311673Y-15885224D01*
X14311673Y-15885224D02*
X14302149Y-15894748D01*
X14511673Y-16009034D02*
X14492625Y-15999510D01*
X14492625Y-15999510D02*
X14483102Y-15989986D01*
X14483102Y-15989986D02*
X14473578Y-15970938D01*
X14473578Y-15970938D02*
X14473578Y-15913796D01*
X14473578Y-15913796D02*
X14483102Y-15894748D01*
X14483102Y-15894748D02*
X14492625Y-15885224D01*
X14492625Y-15885224D02*
X14511673Y-15875700D01*
X14511673Y-15875700D02*
X14540244Y-15875700D01*
X14540244Y-15875700D02*
X14559292Y-15885224D01*
X14559292Y-15885224D02*
X14568816Y-15894748D01*
X14568816Y-15894748D02*
X14578340Y-15913796D01*
X14578340Y-15913796D02*
X14578340Y-15970938D01*
X14578340Y-15970938D02*
X14568816Y-15989986D01*
X14568816Y-15989986D02*
X14559292Y-15999510D01*
X14559292Y-15999510D02*
X14540244Y-16009034D01*
X14540244Y-16009034D02*
X14511673Y-16009034D01*
X14692625Y-16009034D02*
X14673578Y-15999510D01*
X14673578Y-15999510D02*
X14664054Y-15980462D01*
X14664054Y-15980462D02*
X14664054Y-15809034D01*
X14845006Y-15999510D02*
X14825959Y-16009034D01*
X14825959Y-16009034D02*
X14787863Y-16009034D01*
X14787863Y-16009034D02*
X14768816Y-15999510D01*
X14768816Y-15999510D02*
X14759292Y-15980462D01*
X14759292Y-15980462D02*
X14759292Y-15904272D01*
X14759292Y-15904272D02*
X14768816Y-15885224D01*
X14768816Y-15885224D02*
X14787863Y-15875700D01*
X14787863Y-15875700D02*
X14825959Y-15875700D01*
X14825959Y-15875700D02*
X14845006Y-15885224D01*
X14845006Y-15885224D02*
X14854530Y-15904272D01*
X14854530Y-15904272D02*
X14854530Y-15923319D01*
X14854530Y-15923319D02*
X14759292Y-15942367D01*
X14930721Y-15999510D02*
X14949768Y-16009034D01*
X14949768Y-16009034D02*
X14987863Y-16009034D01*
X14987863Y-16009034D02*
X15006911Y-15999510D01*
X15006911Y-15999510D02*
X15016435Y-15980462D01*
X15016435Y-15980462D02*
X15016435Y-15970938D01*
X15016435Y-15970938D02*
X15006911Y-15951891D01*
X15006911Y-15951891D02*
X14987863Y-15942367D01*
X14987863Y-15942367D02*
X14959292Y-15942367D01*
X14959292Y-15942367D02*
X14940244Y-15932843D01*
X14940244Y-15932843D02*
X14930721Y-15913796D01*
X14930721Y-15913796D02*
X14930721Y-15904272D01*
X14930721Y-15904272D02*
X14940244Y-15885224D01*
X14940244Y-15885224D02*
X14959292Y-15875700D01*
X14959292Y-15875700D02*
X14987863Y-15875700D01*
X14987863Y-15875700D02*
X15006911Y-15885224D01*
X15083102Y-16085224D02*
X15092625Y-16075700D01*
X15092625Y-16075700D02*
X15111673Y-16047129D01*
X15111673Y-16047129D02*
X15121197Y-16028081D01*
X15121197Y-16028081D02*
X15130721Y-15999510D01*
X15130721Y-15999510D02*
X15140244Y-15951891D01*
X15140244Y-15951891D02*
X15140244Y-15913796D01*
X15140244Y-15913796D02*
X15130721Y-15866177D01*
X15130721Y-15866177D02*
X15121197Y-15837605D01*
X15121197Y-15837605D02*
X15111673Y-15818558D01*
X15111673Y-15818558D02*
X15092625Y-15789986D01*
X15092625Y-15789986D02*
X15083102Y-15780462D01*
D13*
X10007563Y-16126550D02*
X10117563Y-16236550D01*
X10117563Y-16126550D02*
X10007563Y-16236550D01*
X10062563Y-16126550D02*
X10062563Y-16236550D01*
X10007563Y-16181550D02*
X10117563Y-16181550D01*
D10*
X10483101Y-16273034D02*
X10368816Y-16273034D01*
X10425958Y-16273034D02*
X10425958Y-16073034D01*
X10425958Y-16073034D02*
X10406911Y-16101605D01*
X10406911Y-16101605D02*
X10387863Y-16120653D01*
X10387863Y-16120653D02*
X10368816Y-16130177D01*
X10568816Y-16253986D02*
X10578339Y-16263510D01*
X10578339Y-16263510D02*
X10568816Y-16273034D01*
X10568816Y-16273034D02*
X10559292Y-16263510D01*
X10559292Y-16263510D02*
X10568816Y-16253986D01*
X10568816Y-16253986D02*
X10568816Y-16273034D01*
X10768816Y-16273034D02*
X10654530Y-16273034D01*
X10711673Y-16273034D02*
X10711673Y-16073034D01*
X10711673Y-16073034D02*
X10692625Y-16101605D01*
X10692625Y-16101605D02*
X10673577Y-16120653D01*
X10673577Y-16120653D02*
X10654530Y-16130177D01*
X10892625Y-16073034D02*
X10911673Y-16073034D01*
X10911673Y-16073034D02*
X10930720Y-16082558D01*
X10930720Y-16082558D02*
X10940244Y-16092081D01*
X10940244Y-16092081D02*
X10949768Y-16111129D01*
X10949768Y-16111129D02*
X10959292Y-16149224D01*
X10959292Y-16149224D02*
X10959292Y-16196843D01*
X10959292Y-16196843D02*
X10949768Y-16234938D01*
X10949768Y-16234938D02*
X10940244Y-16253986D01*
X10940244Y-16253986D02*
X10930720Y-16263510D01*
X10930720Y-16263510D02*
X10911673Y-16273034D01*
X10911673Y-16273034D02*
X10892625Y-16273034D01*
X10892625Y-16273034D02*
X10873577Y-16263510D01*
X10873577Y-16263510D02*
X10864054Y-16253986D01*
X10864054Y-16253986D02*
X10854530Y-16234938D01*
X10854530Y-16234938D02*
X10845006Y-16196843D01*
X10845006Y-16196843D02*
X10845006Y-16149224D01*
X10845006Y-16149224D02*
X10854530Y-16111129D01*
X10854530Y-16111129D02*
X10864054Y-16092081D01*
X10864054Y-16092081D02*
X10873577Y-16082558D01*
X10873577Y-16082558D02*
X10892625Y-16073034D01*
X11083101Y-16073034D02*
X11102149Y-16073034D01*
X11102149Y-16073034D02*
X11121197Y-16082558D01*
X11121197Y-16082558D02*
X11130720Y-16092081D01*
X11130720Y-16092081D02*
X11140244Y-16111129D01*
X11140244Y-16111129D02*
X11149768Y-16149224D01*
X11149768Y-16149224D02*
X11149768Y-16196843D01*
X11149768Y-16196843D02*
X11140244Y-16234938D01*
X11140244Y-16234938D02*
X11130720Y-16253986D01*
X11130720Y-16253986D02*
X11121197Y-16263510D01*
X11121197Y-16263510D02*
X11102149Y-16273034D01*
X11102149Y-16273034D02*
X11083101Y-16273034D01*
X11083101Y-16273034D02*
X11064054Y-16263510D01*
X11064054Y-16263510D02*
X11054530Y-16253986D01*
X11054530Y-16253986D02*
X11045006Y-16234938D01*
X11045006Y-16234938D02*
X11035482Y-16196843D01*
X11035482Y-16196843D02*
X11035482Y-16149224D01*
X11035482Y-16149224D02*
X11045006Y-16111129D01*
X11045006Y-16111129D02*
X11054530Y-16092081D01*
X11054530Y-16092081D02*
X11064054Y-16082558D01*
X11064054Y-16082558D02*
X11083101Y-16073034D01*
X11235482Y-16273034D02*
X11235482Y-16139700D01*
X11235482Y-16158748D02*
X11245006Y-16149224D01*
X11245006Y-16149224D02*
X11264054Y-16139700D01*
X11264054Y-16139700D02*
X11292625Y-16139700D01*
X11292625Y-16139700D02*
X11311673Y-16149224D01*
X11311673Y-16149224D02*
X11321196Y-16168272D01*
X11321196Y-16168272D02*
X11321196Y-16273034D01*
X11321196Y-16168272D02*
X11330720Y-16149224D01*
X11330720Y-16149224D02*
X11349768Y-16139700D01*
X11349768Y-16139700D02*
X11378339Y-16139700D01*
X11378339Y-16139700D02*
X11397387Y-16149224D01*
X11397387Y-16149224D02*
X11406911Y-16168272D01*
X11406911Y-16168272D02*
X11406911Y-16273034D01*
X11502149Y-16273034D02*
X11502149Y-16139700D01*
X11502149Y-16158748D02*
X11511673Y-16149224D01*
X11511673Y-16149224D02*
X11530720Y-16139700D01*
X11530720Y-16139700D02*
X11559292Y-16139700D01*
X11559292Y-16139700D02*
X11578339Y-16149224D01*
X11578339Y-16149224D02*
X11587863Y-16168272D01*
X11587863Y-16168272D02*
X11587863Y-16273034D01*
X11587863Y-16168272D02*
X11597387Y-16149224D01*
X11597387Y-16149224D02*
X11616435Y-16139700D01*
X11616435Y-16139700D02*
X11645006Y-16139700D01*
X11645006Y-16139700D02*
X11664054Y-16149224D01*
X11664054Y-16149224D02*
X11673577Y-16168272D01*
X11673577Y-16168272D02*
X11673577Y-16273034D01*
X12064054Y-16063510D02*
X11892625Y-16320653D01*
X12321197Y-16073034D02*
X12340244Y-16073034D01*
X12340244Y-16073034D02*
X12359292Y-16082558D01*
X12359292Y-16082558D02*
X12368816Y-16092081D01*
X12368816Y-16092081D02*
X12378339Y-16111129D01*
X12378339Y-16111129D02*
X12387863Y-16149224D01*
X12387863Y-16149224D02*
X12387863Y-16196843D01*
X12387863Y-16196843D02*
X12378339Y-16234938D01*
X12378339Y-16234938D02*
X12368816Y-16253986D01*
X12368816Y-16253986D02*
X12359292Y-16263510D01*
X12359292Y-16263510D02*
X12340244Y-16273034D01*
X12340244Y-16273034D02*
X12321197Y-16273034D01*
X12321197Y-16273034D02*
X12302149Y-16263510D01*
X12302149Y-16263510D02*
X12292625Y-16253986D01*
X12292625Y-16253986D02*
X12283101Y-16234938D01*
X12283101Y-16234938D02*
X12273578Y-16196843D01*
X12273578Y-16196843D02*
X12273578Y-16149224D01*
X12273578Y-16149224D02*
X12283101Y-16111129D01*
X12283101Y-16111129D02*
X12292625Y-16092081D01*
X12292625Y-16092081D02*
X12302149Y-16082558D01*
X12302149Y-16082558D02*
X12321197Y-16073034D01*
X12473578Y-16253986D02*
X12483101Y-16263510D01*
X12483101Y-16263510D02*
X12473578Y-16273034D01*
X12473578Y-16273034D02*
X12464054Y-16263510D01*
X12464054Y-16263510D02*
X12473578Y-16253986D01*
X12473578Y-16253986D02*
X12473578Y-16273034D01*
X12606911Y-16073034D02*
X12625959Y-16073034D01*
X12625959Y-16073034D02*
X12645006Y-16082558D01*
X12645006Y-16082558D02*
X12654530Y-16092081D01*
X12654530Y-16092081D02*
X12664054Y-16111129D01*
X12664054Y-16111129D02*
X12673578Y-16149224D01*
X12673578Y-16149224D02*
X12673578Y-16196843D01*
X12673578Y-16196843D02*
X12664054Y-16234938D01*
X12664054Y-16234938D02*
X12654530Y-16253986D01*
X12654530Y-16253986D02*
X12645006Y-16263510D01*
X12645006Y-16263510D02*
X12625959Y-16273034D01*
X12625959Y-16273034D02*
X12606911Y-16273034D01*
X12606911Y-16273034D02*
X12587863Y-16263510D01*
X12587863Y-16263510D02*
X12578339Y-16253986D01*
X12578339Y-16253986D02*
X12568816Y-16234938D01*
X12568816Y-16234938D02*
X12559292Y-16196843D01*
X12559292Y-16196843D02*
X12559292Y-16149224D01*
X12559292Y-16149224D02*
X12568816Y-16111129D01*
X12568816Y-16111129D02*
X12578339Y-16092081D01*
X12578339Y-16092081D02*
X12587863Y-16082558D01*
X12587863Y-16082558D02*
X12606911Y-16073034D01*
X12845006Y-16139700D02*
X12845006Y-16273034D01*
X12797387Y-16063510D02*
X12749768Y-16206367D01*
X12749768Y-16206367D02*
X12873578Y-16206367D01*
X12930720Y-16073034D02*
X13054530Y-16073034D01*
X13054530Y-16073034D02*
X12987863Y-16149224D01*
X12987863Y-16149224D02*
X13016435Y-16149224D01*
X13016435Y-16149224D02*
X13035482Y-16158748D01*
X13035482Y-16158748D02*
X13045006Y-16168272D01*
X13045006Y-16168272D02*
X13054530Y-16187319D01*
X13054530Y-16187319D02*
X13054530Y-16234938D01*
X13054530Y-16234938D02*
X13045006Y-16253986D01*
X13045006Y-16253986D02*
X13035482Y-16263510D01*
X13035482Y-16263510D02*
X13016435Y-16273034D01*
X13016435Y-16273034D02*
X12959292Y-16273034D01*
X12959292Y-16273034D02*
X12940244Y-16263510D01*
X12940244Y-16263510D02*
X12930720Y-16253986D01*
X13121197Y-16073034D02*
X13245006Y-16073034D01*
X13245006Y-16073034D02*
X13178339Y-16149224D01*
X13178339Y-16149224D02*
X13206911Y-16149224D01*
X13206911Y-16149224D02*
X13225959Y-16158748D01*
X13225959Y-16158748D02*
X13235482Y-16168272D01*
X13235482Y-16168272D02*
X13245006Y-16187319D01*
X13245006Y-16187319D02*
X13245006Y-16234938D01*
X13245006Y-16234938D02*
X13235482Y-16253986D01*
X13235482Y-16253986D02*
X13225959Y-16263510D01*
X13225959Y-16263510D02*
X13206911Y-16273034D01*
X13206911Y-16273034D02*
X13149768Y-16273034D01*
X13149768Y-16273034D02*
X13130720Y-16263510D01*
X13130720Y-16263510D02*
X13121197Y-16253986D01*
X13321197Y-16073034D02*
X13321197Y-16111129D01*
X13397387Y-16073034D02*
X13397387Y-16111129D01*
X13692625Y-16349224D02*
X13683101Y-16339700D01*
X13683101Y-16339700D02*
X13664054Y-16311129D01*
X13664054Y-16311129D02*
X13654530Y-16292081D01*
X13654530Y-16292081D02*
X13645006Y-16263510D01*
X13645006Y-16263510D02*
X13635482Y-16215891D01*
X13635482Y-16215891D02*
X13635482Y-16177796D01*
X13635482Y-16177796D02*
X13645006Y-16130177D01*
X13645006Y-16130177D02*
X13654530Y-16101605D01*
X13654530Y-16101605D02*
X13664054Y-16082558D01*
X13664054Y-16082558D02*
X13683101Y-16053986D01*
X13683101Y-16053986D02*
X13692625Y-16044462D01*
X13854530Y-16073034D02*
X13816435Y-16073034D01*
X13816435Y-16073034D02*
X13797387Y-16082558D01*
X13797387Y-16082558D02*
X13787863Y-16092081D01*
X13787863Y-16092081D02*
X13768816Y-16120653D01*
X13768816Y-16120653D02*
X13759292Y-16158748D01*
X13759292Y-16158748D02*
X13759292Y-16234938D01*
X13759292Y-16234938D02*
X13768816Y-16253986D01*
X13768816Y-16253986D02*
X13778340Y-16263510D01*
X13778340Y-16263510D02*
X13797387Y-16273034D01*
X13797387Y-16273034D02*
X13835482Y-16273034D01*
X13835482Y-16273034D02*
X13854530Y-16263510D01*
X13854530Y-16263510D02*
X13864054Y-16253986D01*
X13864054Y-16253986D02*
X13873578Y-16234938D01*
X13873578Y-16234938D02*
X13873578Y-16187319D01*
X13873578Y-16187319D02*
X13864054Y-16168272D01*
X13864054Y-16168272D02*
X13854530Y-16158748D01*
X13854530Y-16158748D02*
X13835482Y-16149224D01*
X13835482Y-16149224D02*
X13797387Y-16149224D01*
X13797387Y-16149224D02*
X13778340Y-16158748D01*
X13778340Y-16158748D02*
X13768816Y-16168272D01*
X13768816Y-16168272D02*
X13759292Y-16187319D01*
X14111673Y-16273034D02*
X14111673Y-16073034D01*
X14197387Y-16273034D02*
X14197387Y-16168272D01*
X14197387Y-16168272D02*
X14187863Y-16149224D01*
X14187863Y-16149224D02*
X14168816Y-16139700D01*
X14168816Y-16139700D02*
X14140244Y-16139700D01*
X14140244Y-16139700D02*
X14121197Y-16149224D01*
X14121197Y-16149224D02*
X14111673Y-16158748D01*
X14321197Y-16273034D02*
X14302149Y-16263510D01*
X14302149Y-16263510D02*
X14292625Y-16253986D01*
X14292625Y-16253986D02*
X14283102Y-16234938D01*
X14283102Y-16234938D02*
X14283102Y-16177796D01*
X14283102Y-16177796D02*
X14292625Y-16158748D01*
X14292625Y-16158748D02*
X14302149Y-16149224D01*
X14302149Y-16149224D02*
X14321197Y-16139700D01*
X14321197Y-16139700D02*
X14349768Y-16139700D01*
X14349768Y-16139700D02*
X14368816Y-16149224D01*
X14368816Y-16149224D02*
X14378340Y-16158748D01*
X14378340Y-16158748D02*
X14387863Y-16177796D01*
X14387863Y-16177796D02*
X14387863Y-16234938D01*
X14387863Y-16234938D02*
X14378340Y-16253986D01*
X14378340Y-16253986D02*
X14368816Y-16263510D01*
X14368816Y-16263510D02*
X14349768Y-16273034D01*
X14349768Y-16273034D02*
X14321197Y-16273034D01*
X14502149Y-16273034D02*
X14483102Y-16263510D01*
X14483102Y-16263510D02*
X14473578Y-16244462D01*
X14473578Y-16244462D02*
X14473578Y-16073034D01*
X14654530Y-16263510D02*
X14635483Y-16273034D01*
X14635483Y-16273034D02*
X14597387Y-16273034D01*
X14597387Y-16273034D02*
X14578340Y-16263510D01*
X14578340Y-16263510D02*
X14568816Y-16244462D01*
X14568816Y-16244462D02*
X14568816Y-16168272D01*
X14568816Y-16168272D02*
X14578340Y-16149224D01*
X14578340Y-16149224D02*
X14597387Y-16139700D01*
X14597387Y-16139700D02*
X14635483Y-16139700D01*
X14635483Y-16139700D02*
X14654530Y-16149224D01*
X14654530Y-16149224D02*
X14664054Y-16168272D01*
X14664054Y-16168272D02*
X14664054Y-16187319D01*
X14664054Y-16187319D02*
X14568816Y-16206367D01*
X14740244Y-16263510D02*
X14759292Y-16273034D01*
X14759292Y-16273034D02*
X14797387Y-16273034D01*
X14797387Y-16273034D02*
X14816435Y-16263510D01*
X14816435Y-16263510D02*
X14825959Y-16244462D01*
X14825959Y-16244462D02*
X14825959Y-16234938D01*
X14825959Y-16234938D02*
X14816435Y-16215891D01*
X14816435Y-16215891D02*
X14797387Y-16206367D01*
X14797387Y-16206367D02*
X14768816Y-16206367D01*
X14768816Y-16206367D02*
X14749768Y-16196843D01*
X14749768Y-16196843D02*
X14740244Y-16177796D01*
X14740244Y-16177796D02*
X14740244Y-16168272D01*
X14740244Y-16168272D02*
X14749768Y-16149224D01*
X14749768Y-16149224D02*
X14768816Y-16139700D01*
X14768816Y-16139700D02*
X14797387Y-16139700D01*
X14797387Y-16139700D02*
X14816435Y-16149224D01*
X14892625Y-16349224D02*
X14902149Y-16339700D01*
X14902149Y-16339700D02*
X14921197Y-16311129D01*
X14921197Y-16311129D02*
X14930721Y-16292081D01*
X14930721Y-16292081D02*
X14940244Y-16263510D01*
X14940244Y-16263510D02*
X14949768Y-16215891D01*
X14949768Y-16215891D02*
X14949768Y-16177796D01*
X14949768Y-16177796D02*
X14940244Y-16130177D01*
X14940244Y-16130177D02*
X14930721Y-16101605D01*
X14930721Y-16101605D02*
X14921197Y-16082558D01*
X14921197Y-16082558D02*
X14902149Y-16053986D01*
X14902149Y-16053986D02*
X14892625Y-16044462D01*
D14*
X9987563Y-16380550D02*
X10117563Y-16510550D01*
X10117563Y-16380550D02*
X9987563Y-16510550D01*
X10098525Y-16491512D02*
X10098525Y-16399588D01*
X10006600Y-16399588D01*
X10006600Y-16491512D01*
X10098525Y-16491512D01*
D10*
X10483101Y-16537034D02*
X10368816Y-16537034D01*
X10425958Y-16537034D02*
X10425958Y-16337034D01*
X10425958Y-16337034D02*
X10406911Y-16365605D01*
X10406911Y-16365605D02*
X10387863Y-16384653D01*
X10387863Y-16384653D02*
X10368816Y-16394177D01*
X10568816Y-16517986D02*
X10578339Y-16527510D01*
X10578339Y-16527510D02*
X10568816Y-16537034D01*
X10568816Y-16537034D02*
X10559292Y-16527510D01*
X10559292Y-16527510D02*
X10568816Y-16517986D01*
X10568816Y-16517986D02*
X10568816Y-16537034D01*
X10645006Y-16337034D02*
X10768816Y-16337034D01*
X10768816Y-16337034D02*
X10702149Y-16413224D01*
X10702149Y-16413224D02*
X10730720Y-16413224D01*
X10730720Y-16413224D02*
X10749768Y-16422748D01*
X10749768Y-16422748D02*
X10759292Y-16432272D01*
X10759292Y-16432272D02*
X10768816Y-16451319D01*
X10768816Y-16451319D02*
X10768816Y-16498938D01*
X10768816Y-16498938D02*
X10759292Y-16517986D01*
X10759292Y-16517986D02*
X10749768Y-16527510D01*
X10749768Y-16527510D02*
X10730720Y-16537034D01*
X10730720Y-16537034D02*
X10673577Y-16537034D01*
X10673577Y-16537034D02*
X10654530Y-16527510D01*
X10654530Y-16527510D02*
X10645006Y-16517986D01*
X10892625Y-16337034D02*
X10911673Y-16337034D01*
X10911673Y-16337034D02*
X10930720Y-16346558D01*
X10930720Y-16346558D02*
X10940244Y-16356081D01*
X10940244Y-16356081D02*
X10949768Y-16375129D01*
X10949768Y-16375129D02*
X10959292Y-16413224D01*
X10959292Y-16413224D02*
X10959292Y-16460843D01*
X10959292Y-16460843D02*
X10949768Y-16498938D01*
X10949768Y-16498938D02*
X10940244Y-16517986D01*
X10940244Y-16517986D02*
X10930720Y-16527510D01*
X10930720Y-16527510D02*
X10911673Y-16537034D01*
X10911673Y-16537034D02*
X10892625Y-16537034D01*
X10892625Y-16537034D02*
X10873577Y-16527510D01*
X10873577Y-16527510D02*
X10864054Y-16517986D01*
X10864054Y-16517986D02*
X10854530Y-16498938D01*
X10854530Y-16498938D02*
X10845006Y-16460843D01*
X10845006Y-16460843D02*
X10845006Y-16413224D01*
X10845006Y-16413224D02*
X10854530Y-16375129D01*
X10854530Y-16375129D02*
X10864054Y-16356081D01*
X10864054Y-16356081D02*
X10873577Y-16346558D01*
X10873577Y-16346558D02*
X10892625Y-16337034D01*
X11083101Y-16337034D02*
X11102149Y-16337034D01*
X11102149Y-16337034D02*
X11121197Y-16346558D01*
X11121197Y-16346558D02*
X11130720Y-16356081D01*
X11130720Y-16356081D02*
X11140244Y-16375129D01*
X11140244Y-16375129D02*
X11149768Y-16413224D01*
X11149768Y-16413224D02*
X11149768Y-16460843D01*
X11149768Y-16460843D02*
X11140244Y-16498938D01*
X11140244Y-16498938D02*
X11130720Y-16517986D01*
X11130720Y-16517986D02*
X11121197Y-16527510D01*
X11121197Y-16527510D02*
X11102149Y-16537034D01*
X11102149Y-16537034D02*
X11083101Y-16537034D01*
X11083101Y-16537034D02*
X11064054Y-16527510D01*
X11064054Y-16527510D02*
X11054530Y-16517986D01*
X11054530Y-16517986D02*
X11045006Y-16498938D01*
X11045006Y-16498938D02*
X11035482Y-16460843D01*
X11035482Y-16460843D02*
X11035482Y-16413224D01*
X11035482Y-16413224D02*
X11045006Y-16375129D01*
X11045006Y-16375129D02*
X11054530Y-16356081D01*
X11054530Y-16356081D02*
X11064054Y-16346558D01*
X11064054Y-16346558D02*
X11083101Y-16337034D01*
X11235482Y-16537034D02*
X11235482Y-16403700D01*
X11235482Y-16422748D02*
X11245006Y-16413224D01*
X11245006Y-16413224D02*
X11264054Y-16403700D01*
X11264054Y-16403700D02*
X11292625Y-16403700D01*
X11292625Y-16403700D02*
X11311673Y-16413224D01*
X11311673Y-16413224D02*
X11321196Y-16432272D01*
X11321196Y-16432272D02*
X11321196Y-16537034D01*
X11321196Y-16432272D02*
X11330720Y-16413224D01*
X11330720Y-16413224D02*
X11349768Y-16403700D01*
X11349768Y-16403700D02*
X11378339Y-16403700D01*
X11378339Y-16403700D02*
X11397387Y-16413224D01*
X11397387Y-16413224D02*
X11406911Y-16432272D01*
X11406911Y-16432272D02*
X11406911Y-16537034D01*
X11502149Y-16537034D02*
X11502149Y-16403700D01*
X11502149Y-16422748D02*
X11511673Y-16413224D01*
X11511673Y-16413224D02*
X11530720Y-16403700D01*
X11530720Y-16403700D02*
X11559292Y-16403700D01*
X11559292Y-16403700D02*
X11578339Y-16413224D01*
X11578339Y-16413224D02*
X11587863Y-16432272D01*
X11587863Y-16432272D02*
X11587863Y-16537034D01*
X11587863Y-16432272D02*
X11597387Y-16413224D01*
X11597387Y-16413224D02*
X11616435Y-16403700D01*
X11616435Y-16403700D02*
X11645006Y-16403700D01*
X11645006Y-16403700D02*
X11664054Y-16413224D01*
X11664054Y-16413224D02*
X11673577Y-16432272D01*
X11673577Y-16432272D02*
X11673577Y-16537034D01*
X12064054Y-16327510D02*
X11892625Y-16584653D01*
X12321197Y-16337034D02*
X12340244Y-16337034D01*
X12340244Y-16337034D02*
X12359292Y-16346558D01*
X12359292Y-16346558D02*
X12368816Y-16356081D01*
X12368816Y-16356081D02*
X12378339Y-16375129D01*
X12378339Y-16375129D02*
X12387863Y-16413224D01*
X12387863Y-16413224D02*
X12387863Y-16460843D01*
X12387863Y-16460843D02*
X12378339Y-16498938D01*
X12378339Y-16498938D02*
X12368816Y-16517986D01*
X12368816Y-16517986D02*
X12359292Y-16527510D01*
X12359292Y-16527510D02*
X12340244Y-16537034D01*
X12340244Y-16537034D02*
X12321197Y-16537034D01*
X12321197Y-16537034D02*
X12302149Y-16527510D01*
X12302149Y-16527510D02*
X12292625Y-16517986D01*
X12292625Y-16517986D02*
X12283101Y-16498938D01*
X12283101Y-16498938D02*
X12273578Y-16460843D01*
X12273578Y-16460843D02*
X12273578Y-16413224D01*
X12273578Y-16413224D02*
X12283101Y-16375129D01*
X12283101Y-16375129D02*
X12292625Y-16356081D01*
X12292625Y-16356081D02*
X12302149Y-16346558D01*
X12302149Y-16346558D02*
X12321197Y-16337034D01*
X12473578Y-16517986D02*
X12483101Y-16527510D01*
X12483101Y-16527510D02*
X12473578Y-16537034D01*
X12473578Y-16537034D02*
X12464054Y-16527510D01*
X12464054Y-16527510D02*
X12473578Y-16517986D01*
X12473578Y-16517986D02*
X12473578Y-16537034D01*
X12606911Y-16337034D02*
X12625959Y-16337034D01*
X12625959Y-16337034D02*
X12645006Y-16346558D01*
X12645006Y-16346558D02*
X12654530Y-16356081D01*
X12654530Y-16356081D02*
X12664054Y-16375129D01*
X12664054Y-16375129D02*
X12673578Y-16413224D01*
X12673578Y-16413224D02*
X12673578Y-16460843D01*
X12673578Y-16460843D02*
X12664054Y-16498938D01*
X12664054Y-16498938D02*
X12654530Y-16517986D01*
X12654530Y-16517986D02*
X12645006Y-16527510D01*
X12645006Y-16527510D02*
X12625959Y-16537034D01*
X12625959Y-16537034D02*
X12606911Y-16537034D01*
X12606911Y-16537034D02*
X12587863Y-16527510D01*
X12587863Y-16527510D02*
X12578339Y-16517986D01*
X12578339Y-16517986D02*
X12568816Y-16498938D01*
X12568816Y-16498938D02*
X12559292Y-16460843D01*
X12559292Y-16460843D02*
X12559292Y-16413224D01*
X12559292Y-16413224D02*
X12568816Y-16375129D01*
X12568816Y-16375129D02*
X12578339Y-16356081D01*
X12578339Y-16356081D02*
X12587863Y-16346558D01*
X12587863Y-16346558D02*
X12606911Y-16337034D01*
X12854530Y-16337034D02*
X12759292Y-16337034D01*
X12759292Y-16337034D02*
X12749768Y-16432272D01*
X12749768Y-16432272D02*
X12759292Y-16422748D01*
X12759292Y-16422748D02*
X12778339Y-16413224D01*
X12778339Y-16413224D02*
X12825959Y-16413224D01*
X12825959Y-16413224D02*
X12845006Y-16422748D01*
X12845006Y-16422748D02*
X12854530Y-16432272D01*
X12854530Y-16432272D02*
X12864054Y-16451319D01*
X12864054Y-16451319D02*
X12864054Y-16498938D01*
X12864054Y-16498938D02*
X12854530Y-16517986D01*
X12854530Y-16517986D02*
X12845006Y-16527510D01*
X12845006Y-16527510D02*
X12825959Y-16537034D01*
X12825959Y-16537034D02*
X12778339Y-16537034D01*
X12778339Y-16537034D02*
X12759292Y-16527510D01*
X12759292Y-16527510D02*
X12749768Y-16517986D01*
X13054530Y-16537034D02*
X12940244Y-16537034D01*
X12997387Y-16537034D02*
X12997387Y-16337034D01*
X12997387Y-16337034D02*
X12978339Y-16365605D01*
X12978339Y-16365605D02*
X12959292Y-16384653D01*
X12959292Y-16384653D02*
X12940244Y-16394177D01*
X13130720Y-16356081D02*
X13140244Y-16346558D01*
X13140244Y-16346558D02*
X13159292Y-16337034D01*
X13159292Y-16337034D02*
X13206911Y-16337034D01*
X13206911Y-16337034D02*
X13225959Y-16346558D01*
X13225959Y-16346558D02*
X13235482Y-16356081D01*
X13235482Y-16356081D02*
X13245006Y-16375129D01*
X13245006Y-16375129D02*
X13245006Y-16394177D01*
X13245006Y-16394177D02*
X13235482Y-16422748D01*
X13235482Y-16422748D02*
X13121197Y-16537034D01*
X13121197Y-16537034D02*
X13245006Y-16537034D01*
X13321197Y-16337034D02*
X13321197Y-16375129D01*
X13397387Y-16337034D02*
X13397387Y-16375129D01*
X13692625Y-16613224D02*
X13683101Y-16603700D01*
X13683101Y-16603700D02*
X13664054Y-16575129D01*
X13664054Y-16575129D02*
X13654530Y-16556081D01*
X13654530Y-16556081D02*
X13645006Y-16527510D01*
X13645006Y-16527510D02*
X13635482Y-16479891D01*
X13635482Y-16479891D02*
X13635482Y-16441796D01*
X13635482Y-16441796D02*
X13645006Y-16394177D01*
X13645006Y-16394177D02*
X13654530Y-16365605D01*
X13654530Y-16365605D02*
X13664054Y-16346558D01*
X13664054Y-16346558D02*
X13683101Y-16317986D01*
X13683101Y-16317986D02*
X13692625Y-16308462D01*
X13854530Y-16337034D02*
X13816435Y-16337034D01*
X13816435Y-16337034D02*
X13797387Y-16346558D01*
X13797387Y-16346558D02*
X13787863Y-16356081D01*
X13787863Y-16356081D02*
X13768816Y-16384653D01*
X13768816Y-16384653D02*
X13759292Y-16422748D01*
X13759292Y-16422748D02*
X13759292Y-16498938D01*
X13759292Y-16498938D02*
X13768816Y-16517986D01*
X13768816Y-16517986D02*
X13778340Y-16527510D01*
X13778340Y-16527510D02*
X13797387Y-16537034D01*
X13797387Y-16537034D02*
X13835482Y-16537034D01*
X13835482Y-16537034D02*
X13854530Y-16527510D01*
X13854530Y-16527510D02*
X13864054Y-16517986D01*
X13864054Y-16517986D02*
X13873578Y-16498938D01*
X13873578Y-16498938D02*
X13873578Y-16451319D01*
X13873578Y-16451319D02*
X13864054Y-16432272D01*
X13864054Y-16432272D02*
X13854530Y-16422748D01*
X13854530Y-16422748D02*
X13835482Y-16413224D01*
X13835482Y-16413224D02*
X13797387Y-16413224D01*
X13797387Y-16413224D02*
X13778340Y-16422748D01*
X13778340Y-16422748D02*
X13768816Y-16432272D01*
X13768816Y-16432272D02*
X13759292Y-16451319D01*
X14111673Y-16537034D02*
X14111673Y-16337034D01*
X14197387Y-16537034D02*
X14197387Y-16432272D01*
X14197387Y-16432272D02*
X14187863Y-16413224D01*
X14187863Y-16413224D02*
X14168816Y-16403700D01*
X14168816Y-16403700D02*
X14140244Y-16403700D01*
X14140244Y-16403700D02*
X14121197Y-16413224D01*
X14121197Y-16413224D02*
X14111673Y-16422748D01*
X14321197Y-16537034D02*
X14302149Y-16527510D01*
X14302149Y-16527510D02*
X14292625Y-16517986D01*
X14292625Y-16517986D02*
X14283102Y-16498938D01*
X14283102Y-16498938D02*
X14283102Y-16441796D01*
X14283102Y-16441796D02*
X14292625Y-16422748D01*
X14292625Y-16422748D02*
X14302149Y-16413224D01*
X14302149Y-16413224D02*
X14321197Y-16403700D01*
X14321197Y-16403700D02*
X14349768Y-16403700D01*
X14349768Y-16403700D02*
X14368816Y-16413224D01*
X14368816Y-16413224D02*
X14378340Y-16422748D01*
X14378340Y-16422748D02*
X14387863Y-16441796D01*
X14387863Y-16441796D02*
X14387863Y-16498938D01*
X14387863Y-16498938D02*
X14378340Y-16517986D01*
X14378340Y-16517986D02*
X14368816Y-16527510D01*
X14368816Y-16527510D02*
X14349768Y-16537034D01*
X14349768Y-16537034D02*
X14321197Y-16537034D01*
X14502149Y-16537034D02*
X14483102Y-16527510D01*
X14483102Y-16527510D02*
X14473578Y-16508462D01*
X14473578Y-16508462D02*
X14473578Y-16337034D01*
X14654530Y-16527510D02*
X14635483Y-16537034D01*
X14635483Y-16537034D02*
X14597387Y-16537034D01*
X14597387Y-16537034D02*
X14578340Y-16527510D01*
X14578340Y-16527510D02*
X14568816Y-16508462D01*
X14568816Y-16508462D02*
X14568816Y-16432272D01*
X14568816Y-16432272D02*
X14578340Y-16413224D01*
X14578340Y-16413224D02*
X14597387Y-16403700D01*
X14597387Y-16403700D02*
X14635483Y-16403700D01*
X14635483Y-16403700D02*
X14654530Y-16413224D01*
X14654530Y-16413224D02*
X14664054Y-16432272D01*
X14664054Y-16432272D02*
X14664054Y-16451319D01*
X14664054Y-16451319D02*
X14568816Y-16470367D01*
X14740244Y-16527510D02*
X14759292Y-16537034D01*
X14759292Y-16537034D02*
X14797387Y-16537034D01*
X14797387Y-16537034D02*
X14816435Y-16527510D01*
X14816435Y-16527510D02*
X14825959Y-16508462D01*
X14825959Y-16508462D02*
X14825959Y-16498938D01*
X14825959Y-16498938D02*
X14816435Y-16479891D01*
X14816435Y-16479891D02*
X14797387Y-16470367D01*
X14797387Y-16470367D02*
X14768816Y-16470367D01*
X14768816Y-16470367D02*
X14749768Y-16460843D01*
X14749768Y-16460843D02*
X14740244Y-16441796D01*
X14740244Y-16441796D02*
X14740244Y-16432272D01*
X14740244Y-16432272D02*
X14749768Y-16413224D01*
X14749768Y-16413224D02*
X14768816Y-16403700D01*
X14768816Y-16403700D02*
X14797387Y-16403700D01*
X14797387Y-16403700D02*
X14816435Y-16413224D01*
X14892625Y-16613224D02*
X14902149Y-16603700D01*
X14902149Y-16603700D02*
X14921197Y-16575129D01*
X14921197Y-16575129D02*
X14930721Y-16556081D01*
X14930721Y-16556081D02*
X14940244Y-16527510D01*
X14940244Y-16527510D02*
X14949768Y-16479891D01*
X14949768Y-16479891D02*
X14949768Y-16441796D01*
X14949768Y-16441796D02*
X14940244Y-16394177D01*
X14940244Y-16394177D02*
X14930721Y-16365605D01*
X14930721Y-16365605D02*
X14921197Y-16346558D01*
X14921197Y-16346558D02*
X14902149Y-16317986D01*
X14902149Y-16317986D02*
X14892625Y-16308462D01*
D15*
X9957563Y-16629550D02*
X10117563Y-16789550D01*
X10117563Y-16629550D02*
X9957563Y-16789550D01*
X10037563Y-16789550D02*
X10117563Y-16709550D01*
X10037563Y-16629550D01*
X9957563Y-16709550D01*
X10037563Y-16789550D01*
D10*
X10483101Y-16801034D02*
X10368816Y-16801034D01*
X10425958Y-16801034D02*
X10425958Y-16601034D01*
X10425958Y-16601034D02*
X10406911Y-16629605D01*
X10406911Y-16629605D02*
X10387863Y-16648653D01*
X10387863Y-16648653D02*
X10368816Y-16658177D01*
X10568816Y-16781986D02*
X10578339Y-16791510D01*
X10578339Y-16791510D02*
X10568816Y-16801034D01*
X10568816Y-16801034D02*
X10559292Y-16791510D01*
X10559292Y-16791510D02*
X10568816Y-16781986D01*
X10568816Y-16781986D02*
X10568816Y-16801034D01*
X10749768Y-16601034D02*
X10711673Y-16601034D01*
X10711673Y-16601034D02*
X10692625Y-16610558D01*
X10692625Y-16610558D02*
X10683101Y-16620081D01*
X10683101Y-16620081D02*
X10664054Y-16648653D01*
X10664054Y-16648653D02*
X10654530Y-16686748D01*
X10654530Y-16686748D02*
X10654530Y-16762938D01*
X10654530Y-16762938D02*
X10664054Y-16781986D01*
X10664054Y-16781986D02*
X10673577Y-16791510D01*
X10673577Y-16791510D02*
X10692625Y-16801034D01*
X10692625Y-16801034D02*
X10730720Y-16801034D01*
X10730720Y-16801034D02*
X10749768Y-16791510D01*
X10749768Y-16791510D02*
X10759292Y-16781986D01*
X10759292Y-16781986D02*
X10768816Y-16762938D01*
X10768816Y-16762938D02*
X10768816Y-16715319D01*
X10768816Y-16715319D02*
X10759292Y-16696272D01*
X10759292Y-16696272D02*
X10749768Y-16686748D01*
X10749768Y-16686748D02*
X10730720Y-16677224D01*
X10730720Y-16677224D02*
X10692625Y-16677224D01*
X10692625Y-16677224D02*
X10673577Y-16686748D01*
X10673577Y-16686748D02*
X10664054Y-16696272D01*
X10664054Y-16696272D02*
X10654530Y-16715319D01*
X10892625Y-16601034D02*
X10911673Y-16601034D01*
X10911673Y-16601034D02*
X10930720Y-16610558D01*
X10930720Y-16610558D02*
X10940244Y-16620081D01*
X10940244Y-16620081D02*
X10949768Y-16639129D01*
X10949768Y-16639129D02*
X10959292Y-16677224D01*
X10959292Y-16677224D02*
X10959292Y-16724843D01*
X10959292Y-16724843D02*
X10949768Y-16762938D01*
X10949768Y-16762938D02*
X10940244Y-16781986D01*
X10940244Y-16781986D02*
X10930720Y-16791510D01*
X10930720Y-16791510D02*
X10911673Y-16801034D01*
X10911673Y-16801034D02*
X10892625Y-16801034D01*
X10892625Y-16801034D02*
X10873577Y-16791510D01*
X10873577Y-16791510D02*
X10864054Y-16781986D01*
X10864054Y-16781986D02*
X10854530Y-16762938D01*
X10854530Y-16762938D02*
X10845006Y-16724843D01*
X10845006Y-16724843D02*
X10845006Y-16677224D01*
X10845006Y-16677224D02*
X10854530Y-16639129D01*
X10854530Y-16639129D02*
X10864054Y-16620081D01*
X10864054Y-16620081D02*
X10873577Y-16610558D01*
X10873577Y-16610558D02*
X10892625Y-16601034D01*
X11083101Y-16601034D02*
X11102149Y-16601034D01*
X11102149Y-16601034D02*
X11121197Y-16610558D01*
X11121197Y-16610558D02*
X11130720Y-16620081D01*
X11130720Y-16620081D02*
X11140244Y-16639129D01*
X11140244Y-16639129D02*
X11149768Y-16677224D01*
X11149768Y-16677224D02*
X11149768Y-16724843D01*
X11149768Y-16724843D02*
X11140244Y-16762938D01*
X11140244Y-16762938D02*
X11130720Y-16781986D01*
X11130720Y-16781986D02*
X11121197Y-16791510D01*
X11121197Y-16791510D02*
X11102149Y-16801034D01*
X11102149Y-16801034D02*
X11083101Y-16801034D01*
X11083101Y-16801034D02*
X11064054Y-16791510D01*
X11064054Y-16791510D02*
X11054530Y-16781986D01*
X11054530Y-16781986D02*
X11045006Y-16762938D01*
X11045006Y-16762938D02*
X11035482Y-16724843D01*
X11035482Y-16724843D02*
X11035482Y-16677224D01*
X11035482Y-16677224D02*
X11045006Y-16639129D01*
X11045006Y-16639129D02*
X11054530Y-16620081D01*
X11054530Y-16620081D02*
X11064054Y-16610558D01*
X11064054Y-16610558D02*
X11083101Y-16601034D01*
X11235482Y-16801034D02*
X11235482Y-16667700D01*
X11235482Y-16686748D02*
X11245006Y-16677224D01*
X11245006Y-16677224D02*
X11264054Y-16667700D01*
X11264054Y-16667700D02*
X11292625Y-16667700D01*
X11292625Y-16667700D02*
X11311673Y-16677224D01*
X11311673Y-16677224D02*
X11321196Y-16696272D01*
X11321196Y-16696272D02*
X11321196Y-16801034D01*
X11321196Y-16696272D02*
X11330720Y-16677224D01*
X11330720Y-16677224D02*
X11349768Y-16667700D01*
X11349768Y-16667700D02*
X11378339Y-16667700D01*
X11378339Y-16667700D02*
X11397387Y-16677224D01*
X11397387Y-16677224D02*
X11406911Y-16696272D01*
X11406911Y-16696272D02*
X11406911Y-16801034D01*
X11502149Y-16801034D02*
X11502149Y-16667700D01*
X11502149Y-16686748D02*
X11511673Y-16677224D01*
X11511673Y-16677224D02*
X11530720Y-16667700D01*
X11530720Y-16667700D02*
X11559292Y-16667700D01*
X11559292Y-16667700D02*
X11578339Y-16677224D01*
X11578339Y-16677224D02*
X11587863Y-16696272D01*
X11587863Y-16696272D02*
X11587863Y-16801034D01*
X11587863Y-16696272D02*
X11597387Y-16677224D01*
X11597387Y-16677224D02*
X11616435Y-16667700D01*
X11616435Y-16667700D02*
X11645006Y-16667700D01*
X11645006Y-16667700D02*
X11664054Y-16677224D01*
X11664054Y-16677224D02*
X11673577Y-16696272D01*
X11673577Y-16696272D02*
X11673577Y-16801034D01*
X12064054Y-16591510D02*
X11892625Y-16848653D01*
X12321197Y-16601034D02*
X12340244Y-16601034D01*
X12340244Y-16601034D02*
X12359292Y-16610558D01*
X12359292Y-16610558D02*
X12368816Y-16620081D01*
X12368816Y-16620081D02*
X12378339Y-16639129D01*
X12378339Y-16639129D02*
X12387863Y-16677224D01*
X12387863Y-16677224D02*
X12387863Y-16724843D01*
X12387863Y-16724843D02*
X12378339Y-16762938D01*
X12378339Y-16762938D02*
X12368816Y-16781986D01*
X12368816Y-16781986D02*
X12359292Y-16791510D01*
X12359292Y-16791510D02*
X12340244Y-16801034D01*
X12340244Y-16801034D02*
X12321197Y-16801034D01*
X12321197Y-16801034D02*
X12302149Y-16791510D01*
X12302149Y-16791510D02*
X12292625Y-16781986D01*
X12292625Y-16781986D02*
X12283101Y-16762938D01*
X12283101Y-16762938D02*
X12273578Y-16724843D01*
X12273578Y-16724843D02*
X12273578Y-16677224D01*
X12273578Y-16677224D02*
X12283101Y-16639129D01*
X12283101Y-16639129D02*
X12292625Y-16620081D01*
X12292625Y-16620081D02*
X12302149Y-16610558D01*
X12302149Y-16610558D02*
X12321197Y-16601034D01*
X12473578Y-16781986D02*
X12483101Y-16791510D01*
X12483101Y-16791510D02*
X12473578Y-16801034D01*
X12473578Y-16801034D02*
X12464054Y-16791510D01*
X12464054Y-16791510D02*
X12473578Y-16781986D01*
X12473578Y-16781986D02*
X12473578Y-16801034D01*
X12606911Y-16601034D02*
X12625959Y-16601034D01*
X12625959Y-16601034D02*
X12645006Y-16610558D01*
X12645006Y-16610558D02*
X12654530Y-16620081D01*
X12654530Y-16620081D02*
X12664054Y-16639129D01*
X12664054Y-16639129D02*
X12673578Y-16677224D01*
X12673578Y-16677224D02*
X12673578Y-16724843D01*
X12673578Y-16724843D02*
X12664054Y-16762938D01*
X12664054Y-16762938D02*
X12654530Y-16781986D01*
X12654530Y-16781986D02*
X12645006Y-16791510D01*
X12645006Y-16791510D02*
X12625959Y-16801034D01*
X12625959Y-16801034D02*
X12606911Y-16801034D01*
X12606911Y-16801034D02*
X12587863Y-16791510D01*
X12587863Y-16791510D02*
X12578339Y-16781986D01*
X12578339Y-16781986D02*
X12568816Y-16762938D01*
X12568816Y-16762938D02*
X12559292Y-16724843D01*
X12559292Y-16724843D02*
X12559292Y-16677224D01*
X12559292Y-16677224D02*
X12568816Y-16639129D01*
X12568816Y-16639129D02*
X12578339Y-16620081D01*
X12578339Y-16620081D02*
X12587863Y-16610558D01*
X12587863Y-16610558D02*
X12606911Y-16601034D01*
X12845006Y-16601034D02*
X12806911Y-16601034D01*
X12806911Y-16601034D02*
X12787863Y-16610558D01*
X12787863Y-16610558D02*
X12778339Y-16620081D01*
X12778339Y-16620081D02*
X12759292Y-16648653D01*
X12759292Y-16648653D02*
X12749768Y-16686748D01*
X12749768Y-16686748D02*
X12749768Y-16762938D01*
X12749768Y-16762938D02*
X12759292Y-16781986D01*
X12759292Y-16781986D02*
X12768816Y-16791510D01*
X12768816Y-16791510D02*
X12787863Y-16801034D01*
X12787863Y-16801034D02*
X12825959Y-16801034D01*
X12825959Y-16801034D02*
X12845006Y-16791510D01*
X12845006Y-16791510D02*
X12854530Y-16781986D01*
X12854530Y-16781986D02*
X12864054Y-16762938D01*
X12864054Y-16762938D02*
X12864054Y-16715319D01*
X12864054Y-16715319D02*
X12854530Y-16696272D01*
X12854530Y-16696272D02*
X12845006Y-16686748D01*
X12845006Y-16686748D02*
X12825959Y-16677224D01*
X12825959Y-16677224D02*
X12787863Y-16677224D01*
X12787863Y-16677224D02*
X12768816Y-16686748D01*
X12768816Y-16686748D02*
X12759292Y-16696272D01*
X12759292Y-16696272D02*
X12749768Y-16715319D01*
X12930720Y-16601034D02*
X13054530Y-16601034D01*
X13054530Y-16601034D02*
X12987863Y-16677224D01*
X12987863Y-16677224D02*
X13016435Y-16677224D01*
X13016435Y-16677224D02*
X13035482Y-16686748D01*
X13035482Y-16686748D02*
X13045006Y-16696272D01*
X13045006Y-16696272D02*
X13054530Y-16715319D01*
X13054530Y-16715319D02*
X13054530Y-16762938D01*
X13054530Y-16762938D02*
X13045006Y-16781986D01*
X13045006Y-16781986D02*
X13035482Y-16791510D01*
X13035482Y-16791510D02*
X13016435Y-16801034D01*
X13016435Y-16801034D02*
X12959292Y-16801034D01*
X12959292Y-16801034D02*
X12940244Y-16791510D01*
X12940244Y-16791510D02*
X12930720Y-16781986D01*
X13178339Y-16601034D02*
X13197387Y-16601034D01*
X13197387Y-16601034D02*
X13216435Y-16610558D01*
X13216435Y-16610558D02*
X13225959Y-16620081D01*
X13225959Y-16620081D02*
X13235482Y-16639129D01*
X13235482Y-16639129D02*
X13245006Y-16677224D01*
X13245006Y-16677224D02*
X13245006Y-16724843D01*
X13245006Y-16724843D02*
X13235482Y-16762938D01*
X13235482Y-16762938D02*
X13225959Y-16781986D01*
X13225959Y-16781986D02*
X13216435Y-16791510D01*
X13216435Y-16791510D02*
X13197387Y-16801034D01*
X13197387Y-16801034D02*
X13178339Y-16801034D01*
X13178339Y-16801034D02*
X13159292Y-16791510D01*
X13159292Y-16791510D02*
X13149768Y-16781986D01*
X13149768Y-16781986D02*
X13140244Y-16762938D01*
X13140244Y-16762938D02*
X13130720Y-16724843D01*
X13130720Y-16724843D02*
X13130720Y-16677224D01*
X13130720Y-16677224D02*
X13140244Y-16639129D01*
X13140244Y-16639129D02*
X13149768Y-16620081D01*
X13149768Y-16620081D02*
X13159292Y-16610558D01*
X13159292Y-16610558D02*
X13178339Y-16601034D01*
X13321197Y-16601034D02*
X13321197Y-16639129D01*
X13397387Y-16601034D02*
X13397387Y-16639129D01*
X13692625Y-16877224D02*
X13683101Y-16867700D01*
X13683101Y-16867700D02*
X13664054Y-16839129D01*
X13664054Y-16839129D02*
X13654530Y-16820081D01*
X13654530Y-16820081D02*
X13645006Y-16791510D01*
X13645006Y-16791510D02*
X13635482Y-16743891D01*
X13635482Y-16743891D02*
X13635482Y-16705796D01*
X13635482Y-16705796D02*
X13645006Y-16658177D01*
X13645006Y-16658177D02*
X13654530Y-16629605D01*
X13654530Y-16629605D02*
X13664054Y-16610558D01*
X13664054Y-16610558D02*
X13683101Y-16581986D01*
X13683101Y-16581986D02*
X13692625Y-16572462D01*
X13854530Y-16667700D02*
X13854530Y-16801034D01*
X13806911Y-16591510D02*
X13759292Y-16734367D01*
X13759292Y-16734367D02*
X13883101Y-16734367D01*
X14111673Y-16801034D02*
X14111673Y-16601034D01*
X14197387Y-16801034D02*
X14197387Y-16696272D01*
X14197387Y-16696272D02*
X14187863Y-16677224D01*
X14187863Y-16677224D02*
X14168816Y-16667700D01*
X14168816Y-16667700D02*
X14140244Y-16667700D01*
X14140244Y-16667700D02*
X14121197Y-16677224D01*
X14121197Y-16677224D02*
X14111673Y-16686748D01*
X14321197Y-16801034D02*
X14302149Y-16791510D01*
X14302149Y-16791510D02*
X14292625Y-16781986D01*
X14292625Y-16781986D02*
X14283102Y-16762938D01*
X14283102Y-16762938D02*
X14283102Y-16705796D01*
X14283102Y-16705796D02*
X14292625Y-16686748D01*
X14292625Y-16686748D02*
X14302149Y-16677224D01*
X14302149Y-16677224D02*
X14321197Y-16667700D01*
X14321197Y-16667700D02*
X14349768Y-16667700D01*
X14349768Y-16667700D02*
X14368816Y-16677224D01*
X14368816Y-16677224D02*
X14378340Y-16686748D01*
X14378340Y-16686748D02*
X14387863Y-16705796D01*
X14387863Y-16705796D02*
X14387863Y-16762938D01*
X14387863Y-16762938D02*
X14378340Y-16781986D01*
X14378340Y-16781986D02*
X14368816Y-16791510D01*
X14368816Y-16791510D02*
X14349768Y-16801034D01*
X14349768Y-16801034D02*
X14321197Y-16801034D01*
X14502149Y-16801034D02*
X14483102Y-16791510D01*
X14483102Y-16791510D02*
X14473578Y-16772462D01*
X14473578Y-16772462D02*
X14473578Y-16601034D01*
X14654530Y-16791510D02*
X14635483Y-16801034D01*
X14635483Y-16801034D02*
X14597387Y-16801034D01*
X14597387Y-16801034D02*
X14578340Y-16791510D01*
X14578340Y-16791510D02*
X14568816Y-16772462D01*
X14568816Y-16772462D02*
X14568816Y-16696272D01*
X14568816Y-16696272D02*
X14578340Y-16677224D01*
X14578340Y-16677224D02*
X14597387Y-16667700D01*
X14597387Y-16667700D02*
X14635483Y-16667700D01*
X14635483Y-16667700D02*
X14654530Y-16677224D01*
X14654530Y-16677224D02*
X14664054Y-16696272D01*
X14664054Y-16696272D02*
X14664054Y-16715319D01*
X14664054Y-16715319D02*
X14568816Y-16734367D01*
X14740244Y-16791510D02*
X14759292Y-16801034D01*
X14759292Y-16801034D02*
X14797387Y-16801034D01*
X14797387Y-16801034D02*
X14816435Y-16791510D01*
X14816435Y-16791510D02*
X14825959Y-16772462D01*
X14825959Y-16772462D02*
X14825959Y-16762938D01*
X14825959Y-16762938D02*
X14816435Y-16743891D01*
X14816435Y-16743891D02*
X14797387Y-16734367D01*
X14797387Y-16734367D02*
X14768816Y-16734367D01*
X14768816Y-16734367D02*
X14749768Y-16724843D01*
X14749768Y-16724843D02*
X14740244Y-16705796D01*
X14740244Y-16705796D02*
X14740244Y-16696272D01*
X14740244Y-16696272D02*
X14749768Y-16677224D01*
X14749768Y-16677224D02*
X14768816Y-16667700D01*
X14768816Y-16667700D02*
X14797387Y-16667700D01*
X14797387Y-16667700D02*
X14816435Y-16677224D01*
X14892625Y-16877224D02*
X14902149Y-16867700D01*
X14902149Y-16867700D02*
X14921197Y-16839129D01*
X14921197Y-16839129D02*
X14930721Y-16820081D01*
X14930721Y-16820081D02*
X14940244Y-16791510D01*
X14940244Y-16791510D02*
X14949768Y-16743891D01*
X14949768Y-16743891D02*
X14949768Y-16705796D01*
X14949768Y-16705796D02*
X14940244Y-16658177D01*
X14940244Y-16658177D02*
X14930721Y-16629605D01*
X14930721Y-16629605D02*
X14921197Y-16610558D01*
X14921197Y-16610558D02*
X14902149Y-16581986D01*
X14902149Y-16581986D02*
X14892625Y-16572462D01*
M02*
