G04 #@! TF.GenerationSoftware,KiCad,Pcbnew,9.0.3*
G04 #@! TF.CreationDate,2025-07-19T22:29:45+09:00*
G04 #@! TF.ProjectId,kleinpad,6b6c6569-6e70-4616-942e-6b696361645f,1.0*
G04 #@! TF.SameCoordinates,Original*
G04 #@! TF.FileFunction,Legend,Bot*
G04 #@! TF.FilePolarity,Positive*
%FSLAX46Y46*%
G04 Gerber Fmt 4.6, Leading zero omitted, Abs format (unit mm)*
G04 Created by KiCad (PCBNEW 9.0.3) date 2025-07-19 22:29:45*
%MOMM*%
%LPD*%
G01*
G04 APERTURE LIST*
%ADD10C,0.100000*%
%ADD11C,0.160000*%
%ADD12C,0.150000*%
%ADD13C,0.125000*%
%ADD14C,0.300000*%
%ADD15C,0.500000*%
%ADD16C,0.800000*%
%ADD17C,3.000000*%
%ADD18C,3.500000*%
%ADD19C,1.000000*%
%ADD20C,0.400000*%
%ADD21C,0.120000*%
G04 APERTURE END LIST*
D10*
X137078883Y-72432919D02*
X137126502Y-72409109D01*
X137126502Y-72409109D02*
X137197931Y-72409109D01*
X137197931Y-72409109D02*
X137269359Y-72432919D01*
X137269359Y-72432919D02*
X137316978Y-72480538D01*
X137316978Y-72480538D02*
X137340788Y-72528157D01*
X137340788Y-72528157D02*
X137364597Y-72623395D01*
X137364597Y-72623395D02*
X137364597Y-72694823D01*
X137364597Y-72694823D02*
X137340788Y-72790061D01*
X137340788Y-72790061D02*
X137316978Y-72837680D01*
X137316978Y-72837680D02*
X137269359Y-72885300D01*
X137269359Y-72885300D02*
X137197931Y-72909109D01*
X137197931Y-72909109D02*
X137150312Y-72909109D01*
X137150312Y-72909109D02*
X137078883Y-72885300D01*
X137078883Y-72885300D02*
X137055074Y-72861490D01*
X137055074Y-72861490D02*
X137055074Y-72694823D01*
X137055074Y-72694823D02*
X137150312Y-72694823D01*
X136840788Y-72909109D02*
X136840788Y-72409109D01*
X136840788Y-72409109D02*
X136555074Y-72909109D01*
X136555074Y-72909109D02*
X136555074Y-72409109D01*
X136316978Y-72909109D02*
X136316978Y-72409109D01*
X136316978Y-72409109D02*
X136197930Y-72409109D01*
X136197930Y-72409109D02*
X136126502Y-72432919D01*
X136126502Y-72432919D02*
X136078883Y-72480538D01*
X136078883Y-72480538D02*
X136055073Y-72528157D01*
X136055073Y-72528157D02*
X136031264Y-72623395D01*
X136031264Y-72623395D02*
X136031264Y-72694823D01*
X136031264Y-72694823D02*
X136055073Y-72790061D01*
X136055073Y-72790061D02*
X136078883Y-72837680D01*
X136078883Y-72837680D02*
X136126502Y-72885300D01*
X136126502Y-72885300D02*
X136197930Y-72909109D01*
X136197930Y-72909109D02*
X136316978Y-72909109D01*
X137174121Y-70647204D02*
X137102693Y-70671014D01*
X137102693Y-70671014D02*
X137078883Y-70694823D01*
X137078883Y-70694823D02*
X137055074Y-70742442D01*
X137055074Y-70742442D02*
X137055074Y-70813871D01*
X137055074Y-70813871D02*
X137078883Y-70861490D01*
X137078883Y-70861490D02*
X137102693Y-70885300D01*
X137102693Y-70885300D02*
X137150312Y-70909109D01*
X137150312Y-70909109D02*
X137340788Y-70909109D01*
X137340788Y-70909109D02*
X137340788Y-70409109D01*
X137340788Y-70409109D02*
X137174121Y-70409109D01*
X137174121Y-70409109D02*
X137126502Y-70432919D01*
X137126502Y-70432919D02*
X137102693Y-70456728D01*
X137102693Y-70456728D02*
X137078883Y-70504347D01*
X137078883Y-70504347D02*
X137078883Y-70551966D01*
X137078883Y-70551966D02*
X137102693Y-70599585D01*
X137102693Y-70599585D02*
X137126502Y-70623395D01*
X137126502Y-70623395D02*
X137174121Y-70647204D01*
X137174121Y-70647204D02*
X137340788Y-70647204D01*
X136864597Y-70766252D02*
X136626502Y-70766252D01*
X136912216Y-70909109D02*
X136745550Y-70409109D01*
X136745550Y-70409109D02*
X136578883Y-70909109D01*
X136436026Y-70766252D02*
X136197931Y-70766252D01*
X136483645Y-70909109D02*
X136316979Y-70409109D01*
X136316979Y-70409109D02*
X136150312Y-70909109D01*
X136055074Y-70409109D02*
X135769360Y-70409109D01*
X135912217Y-70909109D02*
X135912217Y-70409109D01*
X135602694Y-70718633D02*
X135221742Y-70718633D01*
X135412218Y-70909109D02*
X135412218Y-70528157D01*
X136555074Y-94361490D02*
X136578883Y-94385300D01*
X136578883Y-94385300D02*
X136650312Y-94409109D01*
X136650312Y-94409109D02*
X136697931Y-94409109D01*
X136697931Y-94409109D02*
X136769359Y-94385300D01*
X136769359Y-94385300D02*
X136816978Y-94337680D01*
X136816978Y-94337680D02*
X136840788Y-94290061D01*
X136840788Y-94290061D02*
X136864597Y-94194823D01*
X136864597Y-94194823D02*
X136864597Y-94123395D01*
X136864597Y-94123395D02*
X136840788Y-94028157D01*
X136840788Y-94028157D02*
X136816978Y-93980538D01*
X136816978Y-93980538D02*
X136769359Y-93932919D01*
X136769359Y-93932919D02*
X136697931Y-93909109D01*
X136697931Y-93909109D02*
X136650312Y-93909109D01*
X136650312Y-93909109D02*
X136578883Y-93932919D01*
X136578883Y-93932919D02*
X136555074Y-93956728D01*
X136245550Y-93909109D02*
X136150312Y-93909109D01*
X136150312Y-93909109D02*
X136102693Y-93932919D01*
X136102693Y-93932919D02*
X136055074Y-93980538D01*
X136055074Y-93980538D02*
X136031264Y-94075776D01*
X136031264Y-94075776D02*
X136031264Y-94242442D01*
X136031264Y-94242442D02*
X136055074Y-94337680D01*
X136055074Y-94337680D02*
X136102693Y-94385300D01*
X136102693Y-94385300D02*
X136150312Y-94409109D01*
X136150312Y-94409109D02*
X136245550Y-94409109D01*
X136245550Y-94409109D02*
X136293169Y-94385300D01*
X136293169Y-94385300D02*
X136340788Y-94337680D01*
X136340788Y-94337680D02*
X136364597Y-94242442D01*
X136364597Y-94242442D02*
X136364597Y-94075776D01*
X136364597Y-94075776D02*
X136340788Y-93980538D01*
X136340788Y-93980538D02*
X136293169Y-93932919D01*
X136293169Y-93932919D02*
X136245550Y-93909109D01*
X135578883Y-94409109D02*
X135816978Y-94409109D01*
X135816978Y-94409109D02*
X135816978Y-93909109D01*
X135531264Y-94456728D02*
X135150311Y-94456728D01*
X134769359Y-94409109D02*
X135055073Y-94409109D01*
X134912216Y-94409109D02*
X134912216Y-93909109D01*
X134912216Y-93909109D02*
X134959835Y-93980538D01*
X134959835Y-93980538D02*
X135007454Y-94028157D01*
X135007454Y-94028157D02*
X135055073Y-94051966D01*
X137055074Y-92861490D02*
X137078883Y-92885300D01*
X137078883Y-92885300D02*
X137150312Y-92909109D01*
X137150312Y-92909109D02*
X137197931Y-92909109D01*
X137197931Y-92909109D02*
X137269359Y-92885300D01*
X137269359Y-92885300D02*
X137316978Y-92837680D01*
X137316978Y-92837680D02*
X137340788Y-92790061D01*
X137340788Y-92790061D02*
X137364597Y-92694823D01*
X137364597Y-92694823D02*
X137364597Y-92623395D01*
X137364597Y-92623395D02*
X137340788Y-92528157D01*
X137340788Y-92528157D02*
X137316978Y-92480538D01*
X137316978Y-92480538D02*
X137269359Y-92432919D01*
X137269359Y-92432919D02*
X137197931Y-92409109D01*
X137197931Y-92409109D02*
X137150312Y-92409109D01*
X137150312Y-92409109D02*
X137078883Y-92432919D01*
X137078883Y-92432919D02*
X137055074Y-92456728D01*
X136745550Y-92409109D02*
X136650312Y-92409109D01*
X136650312Y-92409109D02*
X136602693Y-92432919D01*
X136602693Y-92432919D02*
X136555074Y-92480538D01*
X136555074Y-92480538D02*
X136531264Y-92575776D01*
X136531264Y-92575776D02*
X136531264Y-92742442D01*
X136531264Y-92742442D02*
X136555074Y-92837680D01*
X136555074Y-92837680D02*
X136602693Y-92885300D01*
X136602693Y-92885300D02*
X136650312Y-92909109D01*
X136650312Y-92909109D02*
X136745550Y-92909109D01*
X136745550Y-92909109D02*
X136793169Y-92885300D01*
X136793169Y-92885300D02*
X136840788Y-92837680D01*
X136840788Y-92837680D02*
X136864597Y-92742442D01*
X136864597Y-92742442D02*
X136864597Y-92575776D01*
X136864597Y-92575776D02*
X136840788Y-92480538D01*
X136840788Y-92480538D02*
X136793169Y-92432919D01*
X136793169Y-92432919D02*
X136745550Y-92409109D01*
X136078883Y-92909109D02*
X136316978Y-92909109D01*
X136316978Y-92909109D02*
X136316978Y-92409109D01*
X136031264Y-92956728D02*
X135650311Y-92956728D01*
X135555073Y-92456728D02*
X135531264Y-92432919D01*
X135531264Y-92432919D02*
X135483645Y-92409109D01*
X135483645Y-92409109D02*
X135364597Y-92409109D01*
X135364597Y-92409109D02*
X135316978Y-92432919D01*
X135316978Y-92432919D02*
X135293169Y-92456728D01*
X135293169Y-92456728D02*
X135269359Y-92504347D01*
X135269359Y-92504347D02*
X135269359Y-92551966D01*
X135269359Y-92551966D02*
X135293169Y-92623395D01*
X135293169Y-92623395D02*
X135578883Y-92909109D01*
X135578883Y-92909109D02*
X135269359Y-92909109D01*
X140055074Y-92861490D02*
X140078883Y-92885300D01*
X140078883Y-92885300D02*
X140150312Y-92909109D01*
X140150312Y-92909109D02*
X140197931Y-92909109D01*
X140197931Y-92909109D02*
X140269359Y-92885300D01*
X140269359Y-92885300D02*
X140316978Y-92837680D01*
X140316978Y-92837680D02*
X140340788Y-92790061D01*
X140340788Y-92790061D02*
X140364597Y-92694823D01*
X140364597Y-92694823D02*
X140364597Y-92623395D01*
X140364597Y-92623395D02*
X140340788Y-92528157D01*
X140340788Y-92528157D02*
X140316978Y-92480538D01*
X140316978Y-92480538D02*
X140269359Y-92432919D01*
X140269359Y-92432919D02*
X140197931Y-92409109D01*
X140197931Y-92409109D02*
X140150312Y-92409109D01*
X140150312Y-92409109D02*
X140078883Y-92432919D01*
X140078883Y-92432919D02*
X140055074Y-92456728D01*
X139745550Y-92409109D02*
X139650312Y-92409109D01*
X139650312Y-92409109D02*
X139602693Y-92432919D01*
X139602693Y-92432919D02*
X139555074Y-92480538D01*
X139555074Y-92480538D02*
X139531264Y-92575776D01*
X139531264Y-92575776D02*
X139531264Y-92742442D01*
X139531264Y-92742442D02*
X139555074Y-92837680D01*
X139555074Y-92837680D02*
X139602693Y-92885300D01*
X139602693Y-92885300D02*
X139650312Y-92909109D01*
X139650312Y-92909109D02*
X139745550Y-92909109D01*
X139745550Y-92909109D02*
X139793169Y-92885300D01*
X139793169Y-92885300D02*
X139840788Y-92837680D01*
X139840788Y-92837680D02*
X139864597Y-92742442D01*
X139864597Y-92742442D02*
X139864597Y-92575776D01*
X139864597Y-92575776D02*
X139840788Y-92480538D01*
X139840788Y-92480538D02*
X139793169Y-92432919D01*
X139793169Y-92432919D02*
X139745550Y-92409109D01*
X139078883Y-92909109D02*
X139316978Y-92909109D01*
X139316978Y-92909109D02*
X139316978Y-92409109D01*
X139031264Y-92956728D02*
X138650311Y-92956728D01*
X138578883Y-92409109D02*
X138269359Y-92409109D01*
X138269359Y-92409109D02*
X138436026Y-92599585D01*
X138436026Y-92599585D02*
X138364597Y-92599585D01*
X138364597Y-92599585D02*
X138316978Y-92623395D01*
X138316978Y-92623395D02*
X138293169Y-92647204D01*
X138293169Y-92647204D02*
X138269359Y-92694823D01*
X138269359Y-92694823D02*
X138269359Y-92813871D01*
X138269359Y-92813871D02*
X138293169Y-92861490D01*
X138293169Y-92861490D02*
X138316978Y-92885300D01*
X138316978Y-92885300D02*
X138364597Y-92909109D01*
X138364597Y-92909109D02*
X138507454Y-92909109D01*
X138507454Y-92909109D02*
X138555073Y-92885300D01*
X138555073Y-92885300D02*
X138578883Y-92861490D01*
X142055074Y-89861490D02*
X142078883Y-89885300D01*
X142078883Y-89885300D02*
X142150312Y-89909109D01*
X142150312Y-89909109D02*
X142197931Y-89909109D01*
X142197931Y-89909109D02*
X142269359Y-89885300D01*
X142269359Y-89885300D02*
X142316978Y-89837680D01*
X142316978Y-89837680D02*
X142340788Y-89790061D01*
X142340788Y-89790061D02*
X142364597Y-89694823D01*
X142364597Y-89694823D02*
X142364597Y-89623395D01*
X142364597Y-89623395D02*
X142340788Y-89528157D01*
X142340788Y-89528157D02*
X142316978Y-89480538D01*
X142316978Y-89480538D02*
X142269359Y-89432919D01*
X142269359Y-89432919D02*
X142197931Y-89409109D01*
X142197931Y-89409109D02*
X142150312Y-89409109D01*
X142150312Y-89409109D02*
X142078883Y-89432919D01*
X142078883Y-89432919D02*
X142055074Y-89456728D01*
X141745550Y-89409109D02*
X141650312Y-89409109D01*
X141650312Y-89409109D02*
X141602693Y-89432919D01*
X141602693Y-89432919D02*
X141555074Y-89480538D01*
X141555074Y-89480538D02*
X141531264Y-89575776D01*
X141531264Y-89575776D02*
X141531264Y-89742442D01*
X141531264Y-89742442D02*
X141555074Y-89837680D01*
X141555074Y-89837680D02*
X141602693Y-89885300D01*
X141602693Y-89885300D02*
X141650312Y-89909109D01*
X141650312Y-89909109D02*
X141745550Y-89909109D01*
X141745550Y-89909109D02*
X141793169Y-89885300D01*
X141793169Y-89885300D02*
X141840788Y-89837680D01*
X141840788Y-89837680D02*
X141864597Y-89742442D01*
X141864597Y-89742442D02*
X141864597Y-89575776D01*
X141864597Y-89575776D02*
X141840788Y-89480538D01*
X141840788Y-89480538D02*
X141793169Y-89432919D01*
X141793169Y-89432919D02*
X141745550Y-89409109D01*
X141078883Y-89909109D02*
X141316978Y-89909109D01*
X141316978Y-89909109D02*
X141316978Y-89409109D01*
X141031264Y-89956728D02*
X140650311Y-89956728D01*
X140316978Y-89575776D02*
X140316978Y-89909109D01*
X140436026Y-89385300D02*
X140555073Y-89742442D01*
X140555073Y-89742442D02*
X140245550Y-89742442D01*
X136840788Y-76909109D02*
X136840788Y-76409109D01*
X136840788Y-76409109D02*
X136674121Y-76766252D01*
X136674121Y-76766252D02*
X136507455Y-76409109D01*
X136507455Y-76409109D02*
X136507455Y-76909109D01*
X136174121Y-76409109D02*
X136078883Y-76409109D01*
X136078883Y-76409109D02*
X136031264Y-76432919D01*
X136031264Y-76432919D02*
X135983645Y-76480538D01*
X135983645Y-76480538D02*
X135959835Y-76575776D01*
X135959835Y-76575776D02*
X135959835Y-76742442D01*
X135959835Y-76742442D02*
X135983645Y-76837680D01*
X135983645Y-76837680D02*
X136031264Y-76885300D01*
X136031264Y-76885300D02*
X136078883Y-76909109D01*
X136078883Y-76909109D02*
X136174121Y-76909109D01*
X136174121Y-76909109D02*
X136221740Y-76885300D01*
X136221740Y-76885300D02*
X136269359Y-76837680D01*
X136269359Y-76837680D02*
X136293168Y-76742442D01*
X136293168Y-76742442D02*
X136293168Y-76575776D01*
X136293168Y-76575776D02*
X136269359Y-76480538D01*
X136269359Y-76480538D02*
X136221740Y-76432919D01*
X136221740Y-76432919D02*
X136174121Y-76409109D01*
X135769358Y-76885300D02*
X135697930Y-76909109D01*
X135697930Y-76909109D02*
X135578882Y-76909109D01*
X135578882Y-76909109D02*
X135531263Y-76885300D01*
X135531263Y-76885300D02*
X135507454Y-76861490D01*
X135507454Y-76861490D02*
X135483644Y-76813871D01*
X135483644Y-76813871D02*
X135483644Y-76766252D01*
X135483644Y-76766252D02*
X135507454Y-76718633D01*
X135507454Y-76718633D02*
X135531263Y-76694823D01*
X135531263Y-76694823D02*
X135578882Y-76671014D01*
X135578882Y-76671014D02*
X135674120Y-76647204D01*
X135674120Y-76647204D02*
X135721739Y-76623395D01*
X135721739Y-76623395D02*
X135745549Y-76599585D01*
X135745549Y-76599585D02*
X135769358Y-76551966D01*
X135769358Y-76551966D02*
X135769358Y-76504347D01*
X135769358Y-76504347D02*
X135745549Y-76456728D01*
X135745549Y-76456728D02*
X135721739Y-76432919D01*
X135721739Y-76432919D02*
X135674120Y-76409109D01*
X135674120Y-76409109D02*
X135555073Y-76409109D01*
X135555073Y-76409109D02*
X135483644Y-76432919D01*
X135269359Y-76909109D02*
X135269359Y-76409109D01*
X136840788Y-79409109D02*
X136840788Y-78909109D01*
X136840788Y-78909109D02*
X136674121Y-79266252D01*
X136674121Y-79266252D02*
X136507455Y-78909109D01*
X136507455Y-78909109D02*
X136507455Y-79409109D01*
X136269359Y-79409109D02*
X136269359Y-78909109D01*
X136055073Y-79385300D02*
X135983645Y-79409109D01*
X135983645Y-79409109D02*
X135864597Y-79409109D01*
X135864597Y-79409109D02*
X135816978Y-79385300D01*
X135816978Y-79385300D02*
X135793169Y-79361490D01*
X135793169Y-79361490D02*
X135769359Y-79313871D01*
X135769359Y-79313871D02*
X135769359Y-79266252D01*
X135769359Y-79266252D02*
X135793169Y-79218633D01*
X135793169Y-79218633D02*
X135816978Y-79194823D01*
X135816978Y-79194823D02*
X135864597Y-79171014D01*
X135864597Y-79171014D02*
X135959835Y-79147204D01*
X135959835Y-79147204D02*
X136007454Y-79123395D01*
X136007454Y-79123395D02*
X136031264Y-79099585D01*
X136031264Y-79099585D02*
X136055073Y-79051966D01*
X136055073Y-79051966D02*
X136055073Y-79004347D01*
X136055073Y-79004347D02*
X136031264Y-78956728D01*
X136031264Y-78956728D02*
X136007454Y-78932919D01*
X136007454Y-78932919D02*
X135959835Y-78909109D01*
X135959835Y-78909109D02*
X135840788Y-78909109D01*
X135840788Y-78909109D02*
X135769359Y-78932919D01*
X135459836Y-78909109D02*
X135364598Y-78909109D01*
X135364598Y-78909109D02*
X135316979Y-78932919D01*
X135316979Y-78932919D02*
X135269360Y-78980538D01*
X135269360Y-78980538D02*
X135245550Y-79075776D01*
X135245550Y-79075776D02*
X135245550Y-79242442D01*
X135245550Y-79242442D02*
X135269360Y-79337680D01*
X135269360Y-79337680D02*
X135316979Y-79385300D01*
X135316979Y-79385300D02*
X135364598Y-79409109D01*
X135364598Y-79409109D02*
X135459836Y-79409109D01*
X135459836Y-79409109D02*
X135507455Y-79385300D01*
X135507455Y-79385300D02*
X135555074Y-79337680D01*
X135555074Y-79337680D02*
X135578883Y-79242442D01*
X135578883Y-79242442D02*
X135578883Y-79075776D01*
X135578883Y-79075776D02*
X135555074Y-78980538D01*
X135555074Y-78980538D02*
X135507455Y-78932919D01*
X135507455Y-78932919D02*
X135459836Y-78909109D01*
X136864597Y-81885300D02*
X136793169Y-81909109D01*
X136793169Y-81909109D02*
X136674121Y-81909109D01*
X136674121Y-81909109D02*
X136626502Y-81885300D01*
X136626502Y-81885300D02*
X136602693Y-81861490D01*
X136602693Y-81861490D02*
X136578883Y-81813871D01*
X136578883Y-81813871D02*
X136578883Y-81766252D01*
X136578883Y-81766252D02*
X136602693Y-81718633D01*
X136602693Y-81718633D02*
X136626502Y-81694823D01*
X136626502Y-81694823D02*
X136674121Y-81671014D01*
X136674121Y-81671014D02*
X136769359Y-81647204D01*
X136769359Y-81647204D02*
X136816978Y-81623395D01*
X136816978Y-81623395D02*
X136840788Y-81599585D01*
X136840788Y-81599585D02*
X136864597Y-81551966D01*
X136864597Y-81551966D02*
X136864597Y-81504347D01*
X136864597Y-81504347D02*
X136840788Y-81456728D01*
X136840788Y-81456728D02*
X136816978Y-81432919D01*
X136816978Y-81432919D02*
X136769359Y-81409109D01*
X136769359Y-81409109D02*
X136650312Y-81409109D01*
X136650312Y-81409109D02*
X136578883Y-81432919D01*
X136078884Y-81861490D02*
X136102693Y-81885300D01*
X136102693Y-81885300D02*
X136174122Y-81909109D01*
X136174122Y-81909109D02*
X136221741Y-81909109D01*
X136221741Y-81909109D02*
X136293169Y-81885300D01*
X136293169Y-81885300D02*
X136340788Y-81837680D01*
X136340788Y-81837680D02*
X136364598Y-81790061D01*
X136364598Y-81790061D02*
X136388407Y-81694823D01*
X136388407Y-81694823D02*
X136388407Y-81623395D01*
X136388407Y-81623395D02*
X136364598Y-81528157D01*
X136364598Y-81528157D02*
X136340788Y-81480538D01*
X136340788Y-81480538D02*
X136293169Y-81432919D01*
X136293169Y-81432919D02*
X136221741Y-81409109D01*
X136221741Y-81409109D02*
X136174122Y-81409109D01*
X136174122Y-81409109D02*
X136102693Y-81432919D01*
X136102693Y-81432919D02*
X136078884Y-81456728D01*
X135864598Y-81909109D02*
X135864598Y-81409109D01*
X135578884Y-81909109D02*
X135793169Y-81623395D01*
X135578884Y-81409109D02*
X135864598Y-81694823D01*
D11*
X136272742Y-84369275D02*
X136539409Y-83988322D01*
X136729885Y-84369275D02*
X136729885Y-83569275D01*
X136729885Y-83569275D02*
X136425123Y-83569275D01*
X136425123Y-83569275D02*
X136348933Y-83607370D01*
X136348933Y-83607370D02*
X136310838Y-83645465D01*
X136310838Y-83645465D02*
X136272742Y-83721656D01*
X136272742Y-83721656D02*
X136272742Y-83835941D01*
X136272742Y-83835941D02*
X136310838Y-83912132D01*
X136310838Y-83912132D02*
X136348933Y-83950227D01*
X136348933Y-83950227D02*
X136425123Y-83988322D01*
X136425123Y-83988322D02*
X136729885Y-83988322D01*
X135929885Y-83950227D02*
X135663219Y-83950227D01*
X135548933Y-84369275D02*
X135929885Y-84369275D01*
X135929885Y-84369275D02*
X135929885Y-83569275D01*
X135929885Y-83569275D02*
X135548933Y-83569275D01*
X135396552Y-84445465D02*
X134787028Y-84445465D01*
X134634647Y-84140703D02*
X134253694Y-84140703D01*
X134710837Y-84369275D02*
X134444170Y-83569275D01*
X134444170Y-83569275D02*
X134177504Y-84369275D01*
D10*
X136555074Y-86909109D02*
X136721740Y-86671014D01*
X136840788Y-86909109D02*
X136840788Y-86409109D01*
X136840788Y-86409109D02*
X136650312Y-86409109D01*
X136650312Y-86409109D02*
X136602693Y-86432919D01*
X136602693Y-86432919D02*
X136578883Y-86456728D01*
X136578883Y-86456728D02*
X136555074Y-86504347D01*
X136555074Y-86504347D02*
X136555074Y-86575776D01*
X136555074Y-86575776D02*
X136578883Y-86623395D01*
X136578883Y-86623395D02*
X136602693Y-86647204D01*
X136602693Y-86647204D02*
X136650312Y-86671014D01*
X136650312Y-86671014D02*
X136840788Y-86671014D01*
X136340788Y-86647204D02*
X136174121Y-86647204D01*
X136102693Y-86909109D02*
X136340788Y-86909109D01*
X136340788Y-86909109D02*
X136340788Y-86409109D01*
X136340788Y-86409109D02*
X136102693Y-86409109D01*
X136007455Y-86956728D02*
X135626502Y-86956728D01*
X135340788Y-86647204D02*
X135269360Y-86671014D01*
X135269360Y-86671014D02*
X135245550Y-86694823D01*
X135245550Y-86694823D02*
X135221741Y-86742442D01*
X135221741Y-86742442D02*
X135221741Y-86813871D01*
X135221741Y-86813871D02*
X135245550Y-86861490D01*
X135245550Y-86861490D02*
X135269360Y-86885300D01*
X135269360Y-86885300D02*
X135316979Y-86909109D01*
X135316979Y-86909109D02*
X135507455Y-86909109D01*
X135507455Y-86909109D02*
X135507455Y-86409109D01*
X135507455Y-86409109D02*
X135340788Y-86409109D01*
X135340788Y-86409109D02*
X135293169Y-86432919D01*
X135293169Y-86432919D02*
X135269360Y-86456728D01*
X135269360Y-86456728D02*
X135245550Y-86504347D01*
X135245550Y-86504347D02*
X135245550Y-86551966D01*
X135245550Y-86551966D02*
X135269360Y-86599585D01*
X135269360Y-86599585D02*
X135293169Y-86623395D01*
X135293169Y-86623395D02*
X135340788Y-86647204D01*
X135340788Y-86647204D02*
X135507455Y-86647204D01*
X136555074Y-89409109D02*
X136721740Y-89171014D01*
X136840788Y-89409109D02*
X136840788Y-88909109D01*
X136840788Y-88909109D02*
X136650312Y-88909109D01*
X136650312Y-88909109D02*
X136602693Y-88932919D01*
X136602693Y-88932919D02*
X136578883Y-88956728D01*
X136578883Y-88956728D02*
X136555074Y-89004347D01*
X136555074Y-89004347D02*
X136555074Y-89075776D01*
X136555074Y-89075776D02*
X136578883Y-89123395D01*
X136578883Y-89123395D02*
X136602693Y-89147204D01*
X136602693Y-89147204D02*
X136650312Y-89171014D01*
X136650312Y-89171014D02*
X136840788Y-89171014D01*
X136340788Y-89147204D02*
X136174121Y-89147204D01*
X136102693Y-89409109D02*
X136340788Y-89409109D01*
X136340788Y-89409109D02*
X136340788Y-88909109D01*
X136340788Y-88909109D02*
X136102693Y-88909109D01*
X136007455Y-89456728D02*
X135626502Y-89456728D01*
X135531264Y-89385300D02*
X135459836Y-89409109D01*
X135459836Y-89409109D02*
X135340788Y-89409109D01*
X135340788Y-89409109D02*
X135293169Y-89385300D01*
X135293169Y-89385300D02*
X135269360Y-89361490D01*
X135269360Y-89361490D02*
X135245550Y-89313871D01*
X135245550Y-89313871D02*
X135245550Y-89266252D01*
X135245550Y-89266252D02*
X135269360Y-89218633D01*
X135269360Y-89218633D02*
X135293169Y-89194823D01*
X135293169Y-89194823D02*
X135340788Y-89171014D01*
X135340788Y-89171014D02*
X135436026Y-89147204D01*
X135436026Y-89147204D02*
X135483645Y-89123395D01*
X135483645Y-89123395D02*
X135507455Y-89099585D01*
X135507455Y-89099585D02*
X135531264Y-89051966D01*
X135531264Y-89051966D02*
X135531264Y-89004347D01*
X135531264Y-89004347D02*
X135507455Y-88956728D01*
X135507455Y-88956728D02*
X135483645Y-88932919D01*
X135483645Y-88932919D02*
X135436026Y-88909109D01*
X135436026Y-88909109D02*
X135316979Y-88909109D01*
X135316979Y-88909109D02*
X135245550Y-88932919D01*
X135078884Y-88909109D02*
X134959836Y-89409109D01*
X134959836Y-89409109D02*
X134864598Y-89051966D01*
X134864598Y-89051966D02*
X134769360Y-89409109D01*
X134769360Y-89409109D02*
X134650313Y-88909109D01*
X146402693Y-76909109D02*
X146640788Y-76909109D01*
X146640788Y-76909109D02*
X146640788Y-76409109D01*
X146236026Y-76647204D02*
X146069359Y-76647204D01*
X145997931Y-76909109D02*
X146236026Y-76909109D01*
X146236026Y-76909109D02*
X146236026Y-76409109D01*
X146236026Y-76409109D02*
X145997931Y-76409109D01*
X145783645Y-76909109D02*
X145783645Y-76409109D01*
X145783645Y-76409109D02*
X145664597Y-76409109D01*
X145664597Y-76409109D02*
X145593169Y-76432919D01*
X145593169Y-76432919D02*
X145545550Y-76480538D01*
X145545550Y-76480538D02*
X145521740Y-76528157D01*
X145521740Y-76528157D02*
X145497931Y-76623395D01*
X145497931Y-76623395D02*
X145497931Y-76694823D01*
X145497931Y-76694823D02*
X145521740Y-76790061D01*
X145521740Y-76790061D02*
X145545550Y-76837680D01*
X145545550Y-76837680D02*
X145593169Y-76885300D01*
X145593169Y-76885300D02*
X145664597Y-76909109D01*
X145664597Y-76909109D02*
X145783645Y-76909109D01*
X145402693Y-76956728D02*
X145021740Y-76956728D01*
X144616979Y-76909109D02*
X144783645Y-76671014D01*
X144902693Y-76909109D02*
X144902693Y-76409109D01*
X144902693Y-76409109D02*
X144712217Y-76409109D01*
X144712217Y-76409109D02*
X144664598Y-76432919D01*
X144664598Y-76432919D02*
X144640788Y-76456728D01*
X144640788Y-76456728D02*
X144616979Y-76504347D01*
X144616979Y-76504347D02*
X144616979Y-76575776D01*
X144616979Y-76575776D02*
X144640788Y-76623395D01*
X144640788Y-76623395D02*
X144664598Y-76647204D01*
X144664598Y-76647204D02*
X144712217Y-76671014D01*
X144712217Y-76671014D02*
X144902693Y-76671014D01*
X146402693Y-79409109D02*
X146640788Y-79409109D01*
X146640788Y-79409109D02*
X146640788Y-78909109D01*
X146236026Y-79147204D02*
X146069359Y-79147204D01*
X145997931Y-79409109D02*
X146236026Y-79409109D01*
X146236026Y-79409109D02*
X146236026Y-78909109D01*
X146236026Y-78909109D02*
X145997931Y-78909109D01*
X145783645Y-79409109D02*
X145783645Y-78909109D01*
X145783645Y-78909109D02*
X145664597Y-78909109D01*
X145664597Y-78909109D02*
X145593169Y-78932919D01*
X145593169Y-78932919D02*
X145545550Y-78980538D01*
X145545550Y-78980538D02*
X145521740Y-79028157D01*
X145521740Y-79028157D02*
X145497931Y-79123395D01*
X145497931Y-79123395D02*
X145497931Y-79194823D01*
X145497931Y-79194823D02*
X145521740Y-79290061D01*
X145521740Y-79290061D02*
X145545550Y-79337680D01*
X145545550Y-79337680D02*
X145593169Y-79385300D01*
X145593169Y-79385300D02*
X145664597Y-79409109D01*
X145664597Y-79409109D02*
X145783645Y-79409109D01*
X145402693Y-79456728D02*
X145021740Y-79456728D01*
X144640788Y-78932919D02*
X144688407Y-78909109D01*
X144688407Y-78909109D02*
X144759836Y-78909109D01*
X144759836Y-78909109D02*
X144831264Y-78932919D01*
X144831264Y-78932919D02*
X144878883Y-78980538D01*
X144878883Y-78980538D02*
X144902693Y-79028157D01*
X144902693Y-79028157D02*
X144926502Y-79123395D01*
X144926502Y-79123395D02*
X144926502Y-79194823D01*
X144926502Y-79194823D02*
X144902693Y-79290061D01*
X144902693Y-79290061D02*
X144878883Y-79337680D01*
X144878883Y-79337680D02*
X144831264Y-79385300D01*
X144831264Y-79385300D02*
X144759836Y-79409109D01*
X144759836Y-79409109D02*
X144712217Y-79409109D01*
X144712217Y-79409109D02*
X144640788Y-79385300D01*
X144640788Y-79385300D02*
X144616979Y-79361490D01*
X144616979Y-79361490D02*
X144616979Y-79194823D01*
X144616979Y-79194823D02*
X144712217Y-79194823D01*
X146402693Y-81909109D02*
X146640788Y-81909109D01*
X146640788Y-81909109D02*
X146640788Y-81409109D01*
X146236026Y-81647204D02*
X146069359Y-81647204D01*
X145997931Y-81909109D02*
X146236026Y-81909109D01*
X146236026Y-81909109D02*
X146236026Y-81409109D01*
X146236026Y-81409109D02*
X145997931Y-81409109D01*
X145783645Y-81909109D02*
X145783645Y-81409109D01*
X145783645Y-81409109D02*
X145664597Y-81409109D01*
X145664597Y-81409109D02*
X145593169Y-81432919D01*
X145593169Y-81432919D02*
X145545550Y-81480538D01*
X145545550Y-81480538D02*
X145521740Y-81528157D01*
X145521740Y-81528157D02*
X145497931Y-81623395D01*
X145497931Y-81623395D02*
X145497931Y-81694823D01*
X145497931Y-81694823D02*
X145521740Y-81790061D01*
X145521740Y-81790061D02*
X145545550Y-81837680D01*
X145545550Y-81837680D02*
X145593169Y-81885300D01*
X145593169Y-81885300D02*
X145664597Y-81909109D01*
X145664597Y-81909109D02*
X145783645Y-81909109D01*
X145402693Y-81956728D02*
X145021740Y-81956728D01*
X144736026Y-81647204D02*
X144664598Y-81671014D01*
X144664598Y-81671014D02*
X144640788Y-81694823D01*
X144640788Y-81694823D02*
X144616979Y-81742442D01*
X144616979Y-81742442D02*
X144616979Y-81813871D01*
X144616979Y-81813871D02*
X144640788Y-81861490D01*
X144640788Y-81861490D02*
X144664598Y-81885300D01*
X144664598Y-81885300D02*
X144712217Y-81909109D01*
X144712217Y-81909109D02*
X144902693Y-81909109D01*
X144902693Y-81909109D02*
X144902693Y-81409109D01*
X144902693Y-81409109D02*
X144736026Y-81409109D01*
X144736026Y-81409109D02*
X144688407Y-81432919D01*
X144688407Y-81432919D02*
X144664598Y-81456728D01*
X144664598Y-81456728D02*
X144640788Y-81504347D01*
X144640788Y-81504347D02*
X144640788Y-81551966D01*
X144640788Y-81551966D02*
X144664598Y-81599585D01*
X144664598Y-81599585D02*
X144688407Y-81623395D01*
X144688407Y-81623395D02*
X144736026Y-81647204D01*
X144736026Y-81647204D02*
X144902693Y-81647204D01*
X146497931Y-83909109D02*
X146497931Y-84266252D01*
X146497931Y-84266252D02*
X146521740Y-84337680D01*
X146521740Y-84337680D02*
X146569359Y-84385300D01*
X146569359Y-84385300D02*
X146640788Y-84409109D01*
X146640788Y-84409109D02*
X146688407Y-84409109D01*
X146164598Y-83909109D02*
X146069360Y-83909109D01*
X146069360Y-83909109D02*
X146021741Y-83932919D01*
X146021741Y-83932919D02*
X145974122Y-83980538D01*
X145974122Y-83980538D02*
X145950312Y-84075776D01*
X145950312Y-84075776D02*
X145950312Y-84242442D01*
X145950312Y-84242442D02*
X145974122Y-84337680D01*
X145974122Y-84337680D02*
X146021741Y-84385300D01*
X146021741Y-84385300D02*
X146069360Y-84409109D01*
X146069360Y-84409109D02*
X146164598Y-84409109D01*
X146164598Y-84409109D02*
X146212217Y-84385300D01*
X146212217Y-84385300D02*
X146259836Y-84337680D01*
X146259836Y-84337680D02*
X146283645Y-84242442D01*
X146283645Y-84242442D02*
X146283645Y-84075776D01*
X146283645Y-84075776D02*
X146259836Y-83980538D01*
X146259836Y-83980538D02*
X146212217Y-83932919D01*
X146212217Y-83932919D02*
X146164598Y-83909109D01*
X145640788Y-84171014D02*
X145640788Y-84409109D01*
X145807454Y-83909109D02*
X145640788Y-84171014D01*
X145640788Y-84171014D02*
X145474121Y-83909109D01*
X145426503Y-84456728D02*
X145045550Y-84456728D01*
X144831265Y-84171014D02*
X144831265Y-84409109D01*
X144997931Y-83909109D02*
X144831265Y-84171014D01*
X144831265Y-84171014D02*
X144664598Y-83909109D01*
X146497931Y-86409109D02*
X146497931Y-86766252D01*
X146497931Y-86766252D02*
X146521740Y-86837680D01*
X146521740Y-86837680D02*
X146569359Y-86885300D01*
X146569359Y-86885300D02*
X146640788Y-86909109D01*
X146640788Y-86909109D02*
X146688407Y-86909109D01*
X146164598Y-86409109D02*
X146069360Y-86409109D01*
X146069360Y-86409109D02*
X146021741Y-86432919D01*
X146021741Y-86432919D02*
X145974122Y-86480538D01*
X145974122Y-86480538D02*
X145950312Y-86575776D01*
X145950312Y-86575776D02*
X145950312Y-86742442D01*
X145950312Y-86742442D02*
X145974122Y-86837680D01*
X145974122Y-86837680D02*
X146021741Y-86885300D01*
X146021741Y-86885300D02*
X146069360Y-86909109D01*
X146069360Y-86909109D02*
X146164598Y-86909109D01*
X146164598Y-86909109D02*
X146212217Y-86885300D01*
X146212217Y-86885300D02*
X146259836Y-86837680D01*
X146259836Y-86837680D02*
X146283645Y-86742442D01*
X146283645Y-86742442D02*
X146283645Y-86575776D01*
X146283645Y-86575776D02*
X146259836Y-86480538D01*
X146259836Y-86480538D02*
X146212217Y-86432919D01*
X146212217Y-86432919D02*
X146164598Y-86409109D01*
X145640788Y-86671014D02*
X145640788Y-86909109D01*
X145807454Y-86409109D02*
X145640788Y-86671014D01*
X145640788Y-86671014D02*
X145474121Y-86409109D01*
X145426503Y-86956728D02*
X145045550Y-86956728D01*
X144974122Y-86409109D02*
X144640789Y-86909109D01*
X144640789Y-86409109D02*
X144974122Y-86909109D01*
X146497931Y-88909109D02*
X146497931Y-89266252D01*
X146497931Y-89266252D02*
X146521740Y-89337680D01*
X146521740Y-89337680D02*
X146569359Y-89385300D01*
X146569359Y-89385300D02*
X146640788Y-89409109D01*
X146640788Y-89409109D02*
X146688407Y-89409109D01*
X146164598Y-88909109D02*
X146069360Y-88909109D01*
X146069360Y-88909109D02*
X146021741Y-88932919D01*
X146021741Y-88932919D02*
X145974122Y-88980538D01*
X145974122Y-88980538D02*
X145950312Y-89075776D01*
X145950312Y-89075776D02*
X145950312Y-89242442D01*
X145950312Y-89242442D02*
X145974122Y-89337680D01*
X145974122Y-89337680D02*
X146021741Y-89385300D01*
X146021741Y-89385300D02*
X146069360Y-89409109D01*
X146069360Y-89409109D02*
X146164598Y-89409109D01*
X146164598Y-89409109D02*
X146212217Y-89385300D01*
X146212217Y-89385300D02*
X146259836Y-89337680D01*
X146259836Y-89337680D02*
X146283645Y-89242442D01*
X146283645Y-89242442D02*
X146283645Y-89075776D01*
X146283645Y-89075776D02*
X146259836Y-88980538D01*
X146259836Y-88980538D02*
X146212217Y-88932919D01*
X146212217Y-88932919D02*
X146164598Y-88909109D01*
X145640788Y-89171014D02*
X145640788Y-89409109D01*
X145807454Y-88909109D02*
X145640788Y-89171014D01*
X145640788Y-89171014D02*
X145474121Y-88909109D01*
X145426503Y-89456728D02*
X145045550Y-89456728D01*
X144950312Y-89385300D02*
X144878884Y-89409109D01*
X144878884Y-89409109D02*
X144759836Y-89409109D01*
X144759836Y-89409109D02*
X144712217Y-89385300D01*
X144712217Y-89385300D02*
X144688408Y-89361490D01*
X144688408Y-89361490D02*
X144664598Y-89313871D01*
X144664598Y-89313871D02*
X144664598Y-89266252D01*
X144664598Y-89266252D02*
X144688408Y-89218633D01*
X144688408Y-89218633D02*
X144712217Y-89194823D01*
X144712217Y-89194823D02*
X144759836Y-89171014D01*
X144759836Y-89171014D02*
X144855074Y-89147204D01*
X144855074Y-89147204D02*
X144902693Y-89123395D01*
X144902693Y-89123395D02*
X144926503Y-89099585D01*
X144926503Y-89099585D02*
X144950312Y-89051966D01*
X144950312Y-89051966D02*
X144950312Y-89004347D01*
X144950312Y-89004347D02*
X144926503Y-88956728D01*
X144926503Y-88956728D02*
X144902693Y-88932919D01*
X144902693Y-88932919D02*
X144855074Y-88909109D01*
X144855074Y-88909109D02*
X144736027Y-88909109D01*
X144736027Y-88909109D02*
X144664598Y-88932919D01*
X144497932Y-88909109D02*
X144378884Y-89409109D01*
X144378884Y-89409109D02*
X144283646Y-89051966D01*
X144283646Y-89051966D02*
X144188408Y-89409109D01*
X144188408Y-89409109D02*
X144069361Y-88909109D01*
X146455074Y-94509109D02*
X146621740Y-94271014D01*
X146740788Y-94509109D02*
X146740788Y-94009109D01*
X146740788Y-94009109D02*
X146550312Y-94009109D01*
X146550312Y-94009109D02*
X146502693Y-94032919D01*
X146502693Y-94032919D02*
X146478883Y-94056728D01*
X146478883Y-94056728D02*
X146455074Y-94104347D01*
X146455074Y-94104347D02*
X146455074Y-94175776D01*
X146455074Y-94175776D02*
X146478883Y-94223395D01*
X146478883Y-94223395D02*
X146502693Y-94247204D01*
X146502693Y-94247204D02*
X146550312Y-94271014D01*
X146550312Y-94271014D02*
X146740788Y-94271014D01*
X146145550Y-94009109D02*
X146050312Y-94009109D01*
X146050312Y-94009109D02*
X146002693Y-94032919D01*
X146002693Y-94032919D02*
X145955074Y-94080538D01*
X145955074Y-94080538D02*
X145931264Y-94175776D01*
X145931264Y-94175776D02*
X145931264Y-94342442D01*
X145931264Y-94342442D02*
X145955074Y-94437680D01*
X145955074Y-94437680D02*
X146002693Y-94485300D01*
X146002693Y-94485300D02*
X146050312Y-94509109D01*
X146050312Y-94509109D02*
X146145550Y-94509109D01*
X146145550Y-94509109D02*
X146193169Y-94485300D01*
X146193169Y-94485300D02*
X146240788Y-94437680D01*
X146240788Y-94437680D02*
X146264597Y-94342442D01*
X146264597Y-94342442D02*
X146264597Y-94175776D01*
X146264597Y-94175776D02*
X146240788Y-94080538D01*
X146240788Y-94080538D02*
X146193169Y-94032919D01*
X146193169Y-94032919D02*
X146145550Y-94009109D01*
X145764597Y-94009109D02*
X145645549Y-94509109D01*
X145645549Y-94509109D02*
X145550311Y-94151966D01*
X145550311Y-94151966D02*
X145455073Y-94509109D01*
X145455073Y-94509109D02*
X145336026Y-94009109D01*
X145264597Y-94556728D02*
X144883644Y-94556728D01*
X144788406Y-94056728D02*
X144764597Y-94032919D01*
X144764597Y-94032919D02*
X144716978Y-94009109D01*
X144716978Y-94009109D02*
X144597930Y-94009109D01*
X144597930Y-94009109D02*
X144550311Y-94032919D01*
X144550311Y-94032919D02*
X144526502Y-94056728D01*
X144526502Y-94056728D02*
X144502692Y-94104347D01*
X144502692Y-94104347D02*
X144502692Y-94151966D01*
X144502692Y-94151966D02*
X144526502Y-94223395D01*
X144526502Y-94223395D02*
X144812216Y-94509109D01*
X144812216Y-94509109D02*
X144502692Y-94509109D01*
X146355074Y-91909109D02*
X146521740Y-91671014D01*
X146640788Y-91909109D02*
X146640788Y-91409109D01*
X146640788Y-91409109D02*
X146450312Y-91409109D01*
X146450312Y-91409109D02*
X146402693Y-91432919D01*
X146402693Y-91432919D02*
X146378883Y-91456728D01*
X146378883Y-91456728D02*
X146355074Y-91504347D01*
X146355074Y-91504347D02*
X146355074Y-91575776D01*
X146355074Y-91575776D02*
X146378883Y-91623395D01*
X146378883Y-91623395D02*
X146402693Y-91647204D01*
X146402693Y-91647204D02*
X146450312Y-91671014D01*
X146450312Y-91671014D02*
X146640788Y-91671014D01*
X146045550Y-91409109D02*
X145950312Y-91409109D01*
X145950312Y-91409109D02*
X145902693Y-91432919D01*
X145902693Y-91432919D02*
X145855074Y-91480538D01*
X145855074Y-91480538D02*
X145831264Y-91575776D01*
X145831264Y-91575776D02*
X145831264Y-91742442D01*
X145831264Y-91742442D02*
X145855074Y-91837680D01*
X145855074Y-91837680D02*
X145902693Y-91885300D01*
X145902693Y-91885300D02*
X145950312Y-91909109D01*
X145950312Y-91909109D02*
X146045550Y-91909109D01*
X146045550Y-91909109D02*
X146093169Y-91885300D01*
X146093169Y-91885300D02*
X146140788Y-91837680D01*
X146140788Y-91837680D02*
X146164597Y-91742442D01*
X146164597Y-91742442D02*
X146164597Y-91575776D01*
X146164597Y-91575776D02*
X146140788Y-91480538D01*
X146140788Y-91480538D02*
X146093169Y-91432919D01*
X146093169Y-91432919D02*
X146045550Y-91409109D01*
X145664597Y-91409109D02*
X145545549Y-91909109D01*
X145545549Y-91909109D02*
X145450311Y-91551966D01*
X145450311Y-91551966D02*
X145355073Y-91909109D01*
X145355073Y-91909109D02*
X145236026Y-91409109D01*
X145164597Y-91956728D02*
X144783644Y-91956728D01*
X144402692Y-91909109D02*
X144688406Y-91909109D01*
X144545549Y-91909109D02*
X144545549Y-91409109D01*
X144545549Y-91409109D02*
X144593168Y-91480538D01*
X144593168Y-91480538D02*
X144640787Y-91528157D01*
X144640787Y-91528157D02*
X144688406Y-91551966D01*
D12*
X133388845Y-95986569D02*
X133388845Y-96796092D01*
X133388845Y-96796092D02*
X133341226Y-96891330D01*
X133341226Y-96891330D02*
X133293607Y-96938950D01*
X133293607Y-96938950D02*
X133198369Y-96986569D01*
X133198369Y-96986569D02*
X133007893Y-96986569D01*
X133007893Y-96986569D02*
X132912655Y-96938950D01*
X132912655Y-96938950D02*
X132865036Y-96891330D01*
X132865036Y-96891330D02*
X132817417Y-96796092D01*
X132817417Y-96796092D02*
X132817417Y-95986569D01*
X131817417Y-96986569D02*
X132388845Y-96986569D01*
X132103131Y-96986569D02*
X132103131Y-95986569D01*
X132103131Y-95986569D02*
X132198369Y-96129426D01*
X132198369Y-96129426D02*
X132293607Y-96224664D01*
X132293607Y-96224664D02*
X132388845Y-96272283D01*
D13*
X170263719Y-118931619D02*
X170263719Y-117931619D01*
X170263719Y-117931619D02*
X170025624Y-117931619D01*
X170025624Y-117931619D02*
X169882767Y-117979238D01*
X169882767Y-117979238D02*
X169787529Y-118074476D01*
X169787529Y-118074476D02*
X169739910Y-118169714D01*
X169739910Y-118169714D02*
X169692291Y-118360190D01*
X169692291Y-118360190D02*
X169692291Y-118503047D01*
X169692291Y-118503047D02*
X169739910Y-118693523D01*
X169739910Y-118693523D02*
X169787529Y-118788761D01*
X169787529Y-118788761D02*
X169882767Y-118884000D01*
X169882767Y-118884000D02*
X170025624Y-118931619D01*
X170025624Y-118931619D02*
X170263719Y-118931619D01*
X169358957Y-117931619D02*
X168692291Y-117931619D01*
X168692291Y-117931619D02*
X169120862Y-118931619D01*
D12*
X152063154Y-114401569D02*
X152396487Y-113925378D01*
X152634582Y-114401569D02*
X152634582Y-113401569D01*
X152634582Y-113401569D02*
X152253630Y-113401569D01*
X152253630Y-113401569D02*
X152158392Y-113449188D01*
X152158392Y-113449188D02*
X152110773Y-113496807D01*
X152110773Y-113496807D02*
X152063154Y-113592045D01*
X152063154Y-113592045D02*
X152063154Y-113734902D01*
X152063154Y-113734902D02*
X152110773Y-113830140D01*
X152110773Y-113830140D02*
X152158392Y-113877759D01*
X152158392Y-113877759D02*
X152253630Y-113925378D01*
X152253630Y-113925378D02*
X152634582Y-113925378D01*
X151063154Y-114306330D02*
X151110773Y-114353950D01*
X151110773Y-114353950D02*
X151253630Y-114401569D01*
X151253630Y-114401569D02*
X151348868Y-114401569D01*
X151348868Y-114401569D02*
X151491725Y-114353950D01*
X151491725Y-114353950D02*
X151586963Y-114258711D01*
X151586963Y-114258711D02*
X151634582Y-114163473D01*
X151634582Y-114163473D02*
X151682201Y-113972997D01*
X151682201Y-113972997D02*
X151682201Y-113830140D01*
X151682201Y-113830140D02*
X151634582Y-113639664D01*
X151634582Y-113639664D02*
X151586963Y-113544426D01*
X151586963Y-113544426D02*
X151491725Y-113449188D01*
X151491725Y-113449188D02*
X151348868Y-113401569D01*
X151348868Y-113401569D02*
X151253630Y-113401569D01*
X151253630Y-113401569D02*
X151110773Y-113449188D01*
X151110773Y-113449188D02*
X151063154Y-113496807D01*
X150729820Y-113401569D02*
X150110773Y-113401569D01*
X150110773Y-113401569D02*
X150444106Y-113782521D01*
X150444106Y-113782521D02*
X150301249Y-113782521D01*
X150301249Y-113782521D02*
X150206011Y-113830140D01*
X150206011Y-113830140D02*
X150158392Y-113877759D01*
X150158392Y-113877759D02*
X150110773Y-113972997D01*
X150110773Y-113972997D02*
X150110773Y-114211092D01*
X150110773Y-114211092D02*
X150158392Y-114306330D01*
X150158392Y-114306330D02*
X150206011Y-114353950D01*
X150206011Y-114353950D02*
X150301249Y-114401569D01*
X150301249Y-114401569D02*
X150586963Y-114401569D01*
X150586963Y-114401569D02*
X150682201Y-114353950D01*
X150682201Y-114353950D02*
X150729820Y-114306330D01*
X149682201Y-114020616D02*
X148920297Y-114020616D01*
X147920297Y-114401569D02*
X148491725Y-114401569D01*
X148206011Y-114401569D02*
X148206011Y-113401569D01*
X148206011Y-113401569D02*
X148301249Y-113544426D01*
X148301249Y-113544426D02*
X148396487Y-113639664D01*
X148396487Y-113639664D02*
X148491725Y-113687283D01*
X111580444Y-66013119D02*
X111580444Y-66203595D01*
X111580444Y-66203595D02*
X111628063Y-66298833D01*
X111628063Y-66298833D02*
X111723301Y-66394071D01*
X111723301Y-66394071D02*
X111913777Y-66441690D01*
X111913777Y-66441690D02*
X112247110Y-66441690D01*
X112247110Y-66441690D02*
X112437586Y-66394071D01*
X112437586Y-66394071D02*
X112532825Y-66298833D01*
X112532825Y-66298833D02*
X112580444Y-66203595D01*
X112580444Y-66203595D02*
X112580444Y-66013119D01*
X112580444Y-66013119D02*
X112532825Y-65917881D01*
X112532825Y-65917881D02*
X112437586Y-65822643D01*
X112437586Y-65822643D02*
X112247110Y-65775024D01*
X112247110Y-65775024D02*
X111913777Y-65775024D01*
X111913777Y-65775024D02*
X111723301Y-65822643D01*
X111723301Y-65822643D02*
X111628063Y-65917881D01*
X111628063Y-65917881D02*
X111580444Y-66013119D01*
X112580444Y-67346452D02*
X112580444Y-66870262D01*
X112580444Y-66870262D02*
X111580444Y-66870262D01*
X112056634Y-67679786D02*
X112056634Y-68013119D01*
X112580444Y-68155976D02*
X112580444Y-67679786D01*
X112580444Y-67679786D02*
X111580444Y-67679786D01*
X111580444Y-67679786D02*
X111580444Y-68155976D01*
X112580444Y-68584548D02*
X111580444Y-68584548D01*
X111580444Y-68584548D02*
X111580444Y-68822643D01*
X111580444Y-68822643D02*
X111628063Y-68965500D01*
X111628063Y-68965500D02*
X111723301Y-69060738D01*
X111723301Y-69060738D02*
X111818539Y-69108357D01*
X111818539Y-69108357D02*
X112009015Y-69155976D01*
X112009015Y-69155976D02*
X112151872Y-69155976D01*
X112151872Y-69155976D02*
X112342348Y-69108357D01*
X112342348Y-69108357D02*
X112437586Y-69060738D01*
X112437586Y-69060738D02*
X112532825Y-68965500D01*
X112532825Y-68965500D02*
X112580444Y-68822643D01*
X112580444Y-68822643D02*
X112580444Y-68584548D01*
X171113154Y-114401569D02*
X171446487Y-113925378D01*
X171684582Y-114401569D02*
X171684582Y-113401569D01*
X171684582Y-113401569D02*
X171303630Y-113401569D01*
X171303630Y-113401569D02*
X171208392Y-113449188D01*
X171208392Y-113449188D02*
X171160773Y-113496807D01*
X171160773Y-113496807D02*
X171113154Y-113592045D01*
X171113154Y-113592045D02*
X171113154Y-113734902D01*
X171113154Y-113734902D02*
X171160773Y-113830140D01*
X171160773Y-113830140D02*
X171208392Y-113877759D01*
X171208392Y-113877759D02*
X171303630Y-113925378D01*
X171303630Y-113925378D02*
X171684582Y-113925378D01*
X170113154Y-114306330D02*
X170160773Y-114353950D01*
X170160773Y-114353950D02*
X170303630Y-114401569D01*
X170303630Y-114401569D02*
X170398868Y-114401569D01*
X170398868Y-114401569D02*
X170541725Y-114353950D01*
X170541725Y-114353950D02*
X170636963Y-114258711D01*
X170636963Y-114258711D02*
X170684582Y-114163473D01*
X170684582Y-114163473D02*
X170732201Y-113972997D01*
X170732201Y-113972997D02*
X170732201Y-113830140D01*
X170732201Y-113830140D02*
X170684582Y-113639664D01*
X170684582Y-113639664D02*
X170636963Y-113544426D01*
X170636963Y-113544426D02*
X170541725Y-113449188D01*
X170541725Y-113449188D02*
X170398868Y-113401569D01*
X170398868Y-113401569D02*
X170303630Y-113401569D01*
X170303630Y-113401569D02*
X170160773Y-113449188D01*
X170160773Y-113449188D02*
X170113154Y-113496807D01*
X169256011Y-113734902D02*
X169256011Y-114401569D01*
X169494106Y-113353950D02*
X169732201Y-114068235D01*
X169732201Y-114068235D02*
X169113154Y-114068235D01*
X168732201Y-114020616D02*
X167970297Y-114020616D01*
X166970297Y-114401569D02*
X167541725Y-114401569D01*
X167256011Y-114401569D02*
X167256011Y-113401569D01*
X167256011Y-113401569D02*
X167351249Y-113544426D01*
X167351249Y-113544426D02*
X167446487Y-113639664D01*
X167446487Y-113639664D02*
X167541725Y-113687283D01*
D13*
X151263719Y-137931619D02*
X151263719Y-136931619D01*
X151263719Y-136931619D02*
X151025624Y-136931619D01*
X151025624Y-136931619D02*
X150882767Y-136979238D01*
X150882767Y-136979238D02*
X150787529Y-137074476D01*
X150787529Y-137074476D02*
X150739910Y-137169714D01*
X150739910Y-137169714D02*
X150692291Y-137360190D01*
X150692291Y-137360190D02*
X150692291Y-137503047D01*
X150692291Y-137503047D02*
X150739910Y-137693523D01*
X150739910Y-137693523D02*
X150787529Y-137788761D01*
X150787529Y-137788761D02*
X150882767Y-137884000D01*
X150882767Y-137884000D02*
X151025624Y-137931619D01*
X151025624Y-137931619D02*
X151263719Y-137931619D01*
X149835148Y-136931619D02*
X150025624Y-136931619D01*
X150025624Y-136931619D02*
X150120862Y-136979238D01*
X150120862Y-136979238D02*
X150168481Y-137026857D01*
X150168481Y-137026857D02*
X150263719Y-137169714D01*
X150263719Y-137169714D02*
X150311338Y-137360190D01*
X150311338Y-137360190D02*
X150311338Y-137741142D01*
X150311338Y-137741142D02*
X150263719Y-137836380D01*
X150263719Y-137836380D02*
X150216100Y-137884000D01*
X150216100Y-137884000D02*
X150120862Y-137931619D01*
X150120862Y-137931619D02*
X149930386Y-137931619D01*
X149930386Y-137931619D02*
X149835148Y-137884000D01*
X149835148Y-137884000D02*
X149787529Y-137836380D01*
X149787529Y-137836380D02*
X149739910Y-137741142D01*
X149739910Y-137741142D02*
X149739910Y-137503047D01*
X149739910Y-137503047D02*
X149787529Y-137407809D01*
X149787529Y-137407809D02*
X149835148Y-137360190D01*
X149835148Y-137360190D02*
X149930386Y-137312571D01*
X149930386Y-137312571D02*
X150120862Y-137312571D01*
X150120862Y-137312571D02*
X150216100Y-137360190D01*
X150216100Y-137360190D02*
X150263719Y-137407809D01*
X150263719Y-137407809D02*
X150311338Y-137503047D01*
X113263719Y-118931619D02*
X113263719Y-117931619D01*
X113263719Y-117931619D02*
X113025624Y-117931619D01*
X113025624Y-117931619D02*
X112882767Y-117979238D01*
X112882767Y-117979238D02*
X112787529Y-118074476D01*
X112787529Y-118074476D02*
X112739910Y-118169714D01*
X112739910Y-118169714D02*
X112692291Y-118360190D01*
X112692291Y-118360190D02*
X112692291Y-118503047D01*
X112692291Y-118503047D02*
X112739910Y-118693523D01*
X112739910Y-118693523D02*
X112787529Y-118788761D01*
X112787529Y-118788761D02*
X112882767Y-118884000D01*
X112882767Y-118884000D02*
X113025624Y-118931619D01*
X113025624Y-118931619D02*
X113263719Y-118931619D01*
X111739910Y-118931619D02*
X112311338Y-118931619D01*
X112025624Y-118931619D02*
X112025624Y-117931619D01*
X112025624Y-117931619D02*
X112120862Y-118074476D01*
X112120862Y-118074476D02*
X112216100Y-118169714D01*
X112216100Y-118169714D02*
X112311338Y-118217333D01*
D12*
X152063154Y-133451569D02*
X152396487Y-132975378D01*
X152634582Y-133451569D02*
X152634582Y-132451569D01*
X152634582Y-132451569D02*
X152253630Y-132451569D01*
X152253630Y-132451569D02*
X152158392Y-132499188D01*
X152158392Y-132499188D02*
X152110773Y-132546807D01*
X152110773Y-132546807D02*
X152063154Y-132642045D01*
X152063154Y-132642045D02*
X152063154Y-132784902D01*
X152063154Y-132784902D02*
X152110773Y-132880140D01*
X152110773Y-132880140D02*
X152158392Y-132927759D01*
X152158392Y-132927759D02*
X152253630Y-132975378D01*
X152253630Y-132975378D02*
X152634582Y-132975378D01*
X151063154Y-133356330D02*
X151110773Y-133403950D01*
X151110773Y-133403950D02*
X151253630Y-133451569D01*
X151253630Y-133451569D02*
X151348868Y-133451569D01*
X151348868Y-133451569D02*
X151491725Y-133403950D01*
X151491725Y-133403950D02*
X151586963Y-133308711D01*
X151586963Y-133308711D02*
X151634582Y-133213473D01*
X151634582Y-133213473D02*
X151682201Y-133022997D01*
X151682201Y-133022997D02*
X151682201Y-132880140D01*
X151682201Y-132880140D02*
X151634582Y-132689664D01*
X151634582Y-132689664D02*
X151586963Y-132594426D01*
X151586963Y-132594426D02*
X151491725Y-132499188D01*
X151491725Y-132499188D02*
X151348868Y-132451569D01*
X151348868Y-132451569D02*
X151253630Y-132451569D01*
X151253630Y-132451569D02*
X151110773Y-132499188D01*
X151110773Y-132499188D02*
X151063154Y-132546807D01*
X150729820Y-132451569D02*
X150110773Y-132451569D01*
X150110773Y-132451569D02*
X150444106Y-132832521D01*
X150444106Y-132832521D02*
X150301249Y-132832521D01*
X150301249Y-132832521D02*
X150206011Y-132880140D01*
X150206011Y-132880140D02*
X150158392Y-132927759D01*
X150158392Y-132927759D02*
X150110773Y-133022997D01*
X150110773Y-133022997D02*
X150110773Y-133261092D01*
X150110773Y-133261092D02*
X150158392Y-133356330D01*
X150158392Y-133356330D02*
X150206011Y-133403950D01*
X150206011Y-133403950D02*
X150301249Y-133451569D01*
X150301249Y-133451569D02*
X150586963Y-133451569D01*
X150586963Y-133451569D02*
X150682201Y-133403950D01*
X150682201Y-133403950D02*
X150729820Y-133356330D01*
X149682201Y-133070616D02*
X148920297Y-133070616D01*
X148491725Y-132546807D02*
X148444106Y-132499188D01*
X148444106Y-132499188D02*
X148348868Y-132451569D01*
X148348868Y-132451569D02*
X148110773Y-132451569D01*
X148110773Y-132451569D02*
X148015535Y-132499188D01*
X148015535Y-132499188D02*
X147967916Y-132546807D01*
X147967916Y-132546807D02*
X147920297Y-132642045D01*
X147920297Y-132642045D02*
X147920297Y-132737283D01*
X147920297Y-132737283D02*
X147967916Y-132880140D01*
X147967916Y-132880140D02*
X148539344Y-133451569D01*
X148539344Y-133451569D02*
X147920297Y-133451569D01*
D13*
X113263719Y-137931619D02*
X113263719Y-136931619D01*
X113263719Y-136931619D02*
X113025624Y-136931619D01*
X113025624Y-136931619D02*
X112882767Y-136979238D01*
X112882767Y-136979238D02*
X112787529Y-137074476D01*
X112787529Y-137074476D02*
X112739910Y-137169714D01*
X112739910Y-137169714D02*
X112692291Y-137360190D01*
X112692291Y-137360190D02*
X112692291Y-137503047D01*
X112692291Y-137503047D02*
X112739910Y-137693523D01*
X112739910Y-137693523D02*
X112787529Y-137788761D01*
X112787529Y-137788761D02*
X112882767Y-137884000D01*
X112882767Y-137884000D02*
X113025624Y-137931619D01*
X113025624Y-137931619D02*
X113263719Y-137931619D01*
X112311338Y-137026857D02*
X112263719Y-136979238D01*
X112263719Y-136979238D02*
X112168481Y-136931619D01*
X112168481Y-136931619D02*
X111930386Y-136931619D01*
X111930386Y-136931619D02*
X111835148Y-136979238D01*
X111835148Y-136979238D02*
X111787529Y-137026857D01*
X111787529Y-137026857D02*
X111739910Y-137122095D01*
X111739910Y-137122095D02*
X111739910Y-137217333D01*
X111739910Y-137217333D02*
X111787529Y-137360190D01*
X111787529Y-137360190D02*
X112358957Y-137931619D01*
X112358957Y-137931619D02*
X111739910Y-137931619D01*
D12*
X113963154Y-133451569D02*
X114296487Y-132975378D01*
X114534582Y-133451569D02*
X114534582Y-132451569D01*
X114534582Y-132451569D02*
X114153630Y-132451569D01*
X114153630Y-132451569D02*
X114058392Y-132499188D01*
X114058392Y-132499188D02*
X114010773Y-132546807D01*
X114010773Y-132546807D02*
X113963154Y-132642045D01*
X113963154Y-132642045D02*
X113963154Y-132784902D01*
X113963154Y-132784902D02*
X114010773Y-132880140D01*
X114010773Y-132880140D02*
X114058392Y-132927759D01*
X114058392Y-132927759D02*
X114153630Y-132975378D01*
X114153630Y-132975378D02*
X114534582Y-132975378D01*
X112963154Y-133356330D02*
X113010773Y-133403950D01*
X113010773Y-133403950D02*
X113153630Y-133451569D01*
X113153630Y-133451569D02*
X113248868Y-133451569D01*
X113248868Y-133451569D02*
X113391725Y-133403950D01*
X113391725Y-133403950D02*
X113486963Y-133308711D01*
X113486963Y-133308711D02*
X113534582Y-133213473D01*
X113534582Y-133213473D02*
X113582201Y-133022997D01*
X113582201Y-133022997D02*
X113582201Y-132880140D01*
X113582201Y-132880140D02*
X113534582Y-132689664D01*
X113534582Y-132689664D02*
X113486963Y-132594426D01*
X113486963Y-132594426D02*
X113391725Y-132499188D01*
X113391725Y-132499188D02*
X113248868Y-132451569D01*
X113248868Y-132451569D02*
X113153630Y-132451569D01*
X113153630Y-132451569D02*
X113010773Y-132499188D01*
X113010773Y-132499188D02*
X112963154Y-132546807D01*
X112010773Y-133451569D02*
X112582201Y-133451569D01*
X112296487Y-133451569D02*
X112296487Y-132451569D01*
X112296487Y-132451569D02*
X112391725Y-132594426D01*
X112391725Y-132594426D02*
X112486963Y-132689664D01*
X112486963Y-132689664D02*
X112582201Y-132737283D01*
X111582201Y-133070616D02*
X110820297Y-133070616D01*
X110391725Y-132546807D02*
X110344106Y-132499188D01*
X110344106Y-132499188D02*
X110248868Y-132451569D01*
X110248868Y-132451569D02*
X110010773Y-132451569D01*
X110010773Y-132451569D02*
X109915535Y-132499188D01*
X109915535Y-132499188D02*
X109867916Y-132546807D01*
X109867916Y-132546807D02*
X109820297Y-132642045D01*
X109820297Y-132642045D02*
X109820297Y-132737283D01*
X109820297Y-132737283D02*
X109867916Y-132880140D01*
X109867916Y-132880140D02*
X110439344Y-133451569D01*
X110439344Y-133451569D02*
X109820297Y-133451569D01*
D13*
X132263719Y-118931619D02*
X132263719Y-117931619D01*
X132263719Y-117931619D02*
X132025624Y-117931619D01*
X132025624Y-117931619D02*
X131882767Y-117979238D01*
X131882767Y-117979238D02*
X131787529Y-118074476D01*
X131787529Y-118074476D02*
X131739910Y-118169714D01*
X131739910Y-118169714D02*
X131692291Y-118360190D01*
X131692291Y-118360190D02*
X131692291Y-118503047D01*
X131692291Y-118503047D02*
X131739910Y-118693523D01*
X131739910Y-118693523D02*
X131787529Y-118788761D01*
X131787529Y-118788761D02*
X131882767Y-118884000D01*
X131882767Y-118884000D02*
X132025624Y-118931619D01*
X132025624Y-118931619D02*
X132263719Y-118931619D01*
X131358957Y-117931619D02*
X130739910Y-117931619D01*
X130739910Y-117931619D02*
X131073243Y-118312571D01*
X131073243Y-118312571D02*
X130930386Y-118312571D01*
X130930386Y-118312571D02*
X130835148Y-118360190D01*
X130835148Y-118360190D02*
X130787529Y-118407809D01*
X130787529Y-118407809D02*
X130739910Y-118503047D01*
X130739910Y-118503047D02*
X130739910Y-118741142D01*
X130739910Y-118741142D02*
X130787529Y-118836380D01*
X130787529Y-118836380D02*
X130835148Y-118884000D01*
X130835148Y-118884000D02*
X130930386Y-118931619D01*
X130930386Y-118931619D02*
X131216100Y-118931619D01*
X131216100Y-118931619D02*
X131311338Y-118884000D01*
X131311338Y-118884000D02*
X131358957Y-118836380D01*
D12*
X171187529Y-133530319D02*
X171520862Y-133054128D01*
X171758957Y-133530319D02*
X171758957Y-132530319D01*
X171758957Y-132530319D02*
X171378005Y-132530319D01*
X171378005Y-132530319D02*
X171282767Y-132577938D01*
X171282767Y-132577938D02*
X171235148Y-132625557D01*
X171235148Y-132625557D02*
X171187529Y-132720795D01*
X171187529Y-132720795D02*
X171187529Y-132863652D01*
X171187529Y-132863652D02*
X171235148Y-132958890D01*
X171235148Y-132958890D02*
X171282767Y-133006509D01*
X171282767Y-133006509D02*
X171378005Y-133054128D01*
X171378005Y-133054128D02*
X171758957Y-133054128D01*
X170187529Y-133435080D02*
X170235148Y-133482700D01*
X170235148Y-133482700D02*
X170378005Y-133530319D01*
X170378005Y-133530319D02*
X170473243Y-133530319D01*
X170473243Y-133530319D02*
X170616100Y-133482700D01*
X170616100Y-133482700D02*
X170711338Y-133387461D01*
X170711338Y-133387461D02*
X170758957Y-133292223D01*
X170758957Y-133292223D02*
X170806576Y-133101747D01*
X170806576Y-133101747D02*
X170806576Y-132958890D01*
X170806576Y-132958890D02*
X170758957Y-132768414D01*
X170758957Y-132768414D02*
X170711338Y-132673176D01*
X170711338Y-132673176D02*
X170616100Y-132577938D01*
X170616100Y-132577938D02*
X170473243Y-132530319D01*
X170473243Y-132530319D02*
X170378005Y-132530319D01*
X170378005Y-132530319D02*
X170235148Y-132577938D01*
X170235148Y-132577938D02*
X170187529Y-132625557D01*
X169330386Y-132863652D02*
X169330386Y-133530319D01*
X169568481Y-132482700D02*
X169806576Y-133196985D01*
X169806576Y-133196985D02*
X169187529Y-133196985D01*
X168806576Y-133149366D02*
X168044672Y-133149366D01*
X167616100Y-132625557D02*
X167568481Y-132577938D01*
X167568481Y-132577938D02*
X167473243Y-132530319D01*
X167473243Y-132530319D02*
X167235148Y-132530319D01*
X167235148Y-132530319D02*
X167139910Y-132577938D01*
X167139910Y-132577938D02*
X167092291Y-132625557D01*
X167092291Y-132625557D02*
X167044672Y-132720795D01*
X167044672Y-132720795D02*
X167044672Y-132816033D01*
X167044672Y-132816033D02*
X167092291Y-132958890D01*
X167092291Y-132958890D02*
X167663719Y-133530319D01*
X167663719Y-133530319D02*
X167044672Y-133530319D01*
X133013154Y-133451569D02*
X133346487Y-132975378D01*
X133584582Y-133451569D02*
X133584582Y-132451569D01*
X133584582Y-132451569D02*
X133203630Y-132451569D01*
X133203630Y-132451569D02*
X133108392Y-132499188D01*
X133108392Y-132499188D02*
X133060773Y-132546807D01*
X133060773Y-132546807D02*
X133013154Y-132642045D01*
X133013154Y-132642045D02*
X133013154Y-132784902D01*
X133013154Y-132784902D02*
X133060773Y-132880140D01*
X133060773Y-132880140D02*
X133108392Y-132927759D01*
X133108392Y-132927759D02*
X133203630Y-132975378D01*
X133203630Y-132975378D02*
X133584582Y-132975378D01*
X132013154Y-133356330D02*
X132060773Y-133403950D01*
X132060773Y-133403950D02*
X132203630Y-133451569D01*
X132203630Y-133451569D02*
X132298868Y-133451569D01*
X132298868Y-133451569D02*
X132441725Y-133403950D01*
X132441725Y-133403950D02*
X132536963Y-133308711D01*
X132536963Y-133308711D02*
X132584582Y-133213473D01*
X132584582Y-133213473D02*
X132632201Y-133022997D01*
X132632201Y-133022997D02*
X132632201Y-132880140D01*
X132632201Y-132880140D02*
X132584582Y-132689664D01*
X132584582Y-132689664D02*
X132536963Y-132594426D01*
X132536963Y-132594426D02*
X132441725Y-132499188D01*
X132441725Y-132499188D02*
X132298868Y-132451569D01*
X132298868Y-132451569D02*
X132203630Y-132451569D01*
X132203630Y-132451569D02*
X132060773Y-132499188D01*
X132060773Y-132499188D02*
X132013154Y-132546807D01*
X131632201Y-132546807D02*
X131584582Y-132499188D01*
X131584582Y-132499188D02*
X131489344Y-132451569D01*
X131489344Y-132451569D02*
X131251249Y-132451569D01*
X131251249Y-132451569D02*
X131156011Y-132499188D01*
X131156011Y-132499188D02*
X131108392Y-132546807D01*
X131108392Y-132546807D02*
X131060773Y-132642045D01*
X131060773Y-132642045D02*
X131060773Y-132737283D01*
X131060773Y-132737283D02*
X131108392Y-132880140D01*
X131108392Y-132880140D02*
X131679820Y-133451569D01*
X131679820Y-133451569D02*
X131060773Y-133451569D01*
X130632201Y-133070616D02*
X129870297Y-133070616D01*
X129441725Y-132546807D02*
X129394106Y-132499188D01*
X129394106Y-132499188D02*
X129298868Y-132451569D01*
X129298868Y-132451569D02*
X129060773Y-132451569D01*
X129060773Y-132451569D02*
X128965535Y-132499188D01*
X128965535Y-132499188D02*
X128917916Y-132546807D01*
X128917916Y-132546807D02*
X128870297Y-132642045D01*
X128870297Y-132642045D02*
X128870297Y-132737283D01*
X128870297Y-132737283D02*
X128917916Y-132880140D01*
X128917916Y-132880140D02*
X129489344Y-133451569D01*
X129489344Y-133451569D02*
X128870297Y-133451569D01*
D13*
X151263719Y-118931619D02*
X151263719Y-117931619D01*
X151263719Y-117931619D02*
X151025624Y-117931619D01*
X151025624Y-117931619D02*
X150882767Y-117979238D01*
X150882767Y-117979238D02*
X150787529Y-118074476D01*
X150787529Y-118074476D02*
X150739910Y-118169714D01*
X150739910Y-118169714D02*
X150692291Y-118360190D01*
X150692291Y-118360190D02*
X150692291Y-118503047D01*
X150692291Y-118503047D02*
X150739910Y-118693523D01*
X150739910Y-118693523D02*
X150787529Y-118788761D01*
X150787529Y-118788761D02*
X150882767Y-118884000D01*
X150882767Y-118884000D02*
X151025624Y-118931619D01*
X151025624Y-118931619D02*
X151263719Y-118931619D01*
X149787529Y-117931619D02*
X150263719Y-117931619D01*
X150263719Y-117931619D02*
X150311338Y-118407809D01*
X150311338Y-118407809D02*
X150263719Y-118360190D01*
X150263719Y-118360190D02*
X150168481Y-118312571D01*
X150168481Y-118312571D02*
X149930386Y-118312571D01*
X149930386Y-118312571D02*
X149835148Y-118360190D01*
X149835148Y-118360190D02*
X149787529Y-118407809D01*
X149787529Y-118407809D02*
X149739910Y-118503047D01*
X149739910Y-118503047D02*
X149739910Y-118741142D01*
X149739910Y-118741142D02*
X149787529Y-118836380D01*
X149787529Y-118836380D02*
X149835148Y-118884000D01*
X149835148Y-118884000D02*
X149930386Y-118931619D01*
X149930386Y-118931619D02*
X150168481Y-118931619D01*
X150168481Y-118931619D02*
X150263719Y-118884000D01*
X150263719Y-118884000D02*
X150311338Y-118836380D01*
D12*
X122695208Y-69511569D02*
X122695208Y-70225854D01*
X122695208Y-70225854D02*
X122742827Y-70368711D01*
X122742827Y-70368711D02*
X122838065Y-70463950D01*
X122838065Y-70463950D02*
X122980922Y-70511569D01*
X122980922Y-70511569D02*
X123076160Y-70511569D01*
X122266636Y-69606807D02*
X122219017Y-69559188D01*
X122219017Y-69559188D02*
X122123779Y-69511569D01*
X122123779Y-69511569D02*
X121885684Y-69511569D01*
X121885684Y-69511569D02*
X121790446Y-69559188D01*
X121790446Y-69559188D02*
X121742827Y-69606807D01*
X121742827Y-69606807D02*
X121695208Y-69702045D01*
X121695208Y-69702045D02*
X121695208Y-69797283D01*
X121695208Y-69797283D02*
X121742827Y-69940140D01*
X121742827Y-69940140D02*
X122314255Y-70511569D01*
X122314255Y-70511569D02*
X121695208Y-70511569D01*
D13*
X170263719Y-137931619D02*
X170263719Y-136931619D01*
X170263719Y-136931619D02*
X170025624Y-136931619D01*
X170025624Y-136931619D02*
X169882767Y-136979238D01*
X169882767Y-136979238D02*
X169787529Y-137074476D01*
X169787529Y-137074476D02*
X169739910Y-137169714D01*
X169739910Y-137169714D02*
X169692291Y-137360190D01*
X169692291Y-137360190D02*
X169692291Y-137503047D01*
X169692291Y-137503047D02*
X169739910Y-137693523D01*
X169739910Y-137693523D02*
X169787529Y-137788761D01*
X169787529Y-137788761D02*
X169882767Y-137884000D01*
X169882767Y-137884000D02*
X170025624Y-137931619D01*
X170025624Y-137931619D02*
X170263719Y-137931619D01*
X169120862Y-137360190D02*
X169216100Y-137312571D01*
X169216100Y-137312571D02*
X169263719Y-137264952D01*
X169263719Y-137264952D02*
X169311338Y-137169714D01*
X169311338Y-137169714D02*
X169311338Y-137122095D01*
X169311338Y-137122095D02*
X169263719Y-137026857D01*
X169263719Y-137026857D02*
X169216100Y-136979238D01*
X169216100Y-136979238D02*
X169120862Y-136931619D01*
X169120862Y-136931619D02*
X168930386Y-136931619D01*
X168930386Y-136931619D02*
X168835148Y-136979238D01*
X168835148Y-136979238D02*
X168787529Y-137026857D01*
X168787529Y-137026857D02*
X168739910Y-137122095D01*
X168739910Y-137122095D02*
X168739910Y-137169714D01*
X168739910Y-137169714D02*
X168787529Y-137264952D01*
X168787529Y-137264952D02*
X168835148Y-137312571D01*
X168835148Y-137312571D02*
X168930386Y-137360190D01*
X168930386Y-137360190D02*
X169120862Y-137360190D01*
X169120862Y-137360190D02*
X169216100Y-137407809D01*
X169216100Y-137407809D02*
X169263719Y-137455428D01*
X169263719Y-137455428D02*
X169311338Y-137550666D01*
X169311338Y-137550666D02*
X169311338Y-137741142D01*
X169311338Y-137741142D02*
X169263719Y-137836380D01*
X169263719Y-137836380D02*
X169216100Y-137884000D01*
X169216100Y-137884000D02*
X169120862Y-137931619D01*
X169120862Y-137931619D02*
X168930386Y-137931619D01*
X168930386Y-137931619D02*
X168835148Y-137884000D01*
X168835148Y-137884000D02*
X168787529Y-137836380D01*
X168787529Y-137836380D02*
X168739910Y-137741142D01*
X168739910Y-137741142D02*
X168739910Y-137550666D01*
X168739910Y-137550666D02*
X168787529Y-137455428D01*
X168787529Y-137455428D02*
X168835148Y-137407809D01*
X168835148Y-137407809D02*
X168930386Y-137360190D01*
D12*
X113963154Y-114401569D02*
X114296487Y-113925378D01*
X114534582Y-114401569D02*
X114534582Y-113401569D01*
X114534582Y-113401569D02*
X114153630Y-113401569D01*
X114153630Y-113401569D02*
X114058392Y-113449188D01*
X114058392Y-113449188D02*
X114010773Y-113496807D01*
X114010773Y-113496807D02*
X113963154Y-113592045D01*
X113963154Y-113592045D02*
X113963154Y-113734902D01*
X113963154Y-113734902D02*
X114010773Y-113830140D01*
X114010773Y-113830140D02*
X114058392Y-113877759D01*
X114058392Y-113877759D02*
X114153630Y-113925378D01*
X114153630Y-113925378D02*
X114534582Y-113925378D01*
X112963154Y-114306330D02*
X113010773Y-114353950D01*
X113010773Y-114353950D02*
X113153630Y-114401569D01*
X113153630Y-114401569D02*
X113248868Y-114401569D01*
X113248868Y-114401569D02*
X113391725Y-114353950D01*
X113391725Y-114353950D02*
X113486963Y-114258711D01*
X113486963Y-114258711D02*
X113534582Y-114163473D01*
X113534582Y-114163473D02*
X113582201Y-113972997D01*
X113582201Y-113972997D02*
X113582201Y-113830140D01*
X113582201Y-113830140D02*
X113534582Y-113639664D01*
X113534582Y-113639664D02*
X113486963Y-113544426D01*
X113486963Y-113544426D02*
X113391725Y-113449188D01*
X113391725Y-113449188D02*
X113248868Y-113401569D01*
X113248868Y-113401569D02*
X113153630Y-113401569D01*
X113153630Y-113401569D02*
X113010773Y-113449188D01*
X113010773Y-113449188D02*
X112963154Y-113496807D01*
X112010773Y-114401569D02*
X112582201Y-114401569D01*
X112296487Y-114401569D02*
X112296487Y-113401569D01*
X112296487Y-113401569D02*
X112391725Y-113544426D01*
X112391725Y-113544426D02*
X112486963Y-113639664D01*
X112486963Y-113639664D02*
X112582201Y-113687283D01*
X111582201Y-114020616D02*
X110820297Y-114020616D01*
X109820297Y-114401569D02*
X110391725Y-114401569D01*
X110106011Y-114401569D02*
X110106011Y-113401569D01*
X110106011Y-113401569D02*
X110201249Y-113544426D01*
X110201249Y-113544426D02*
X110296487Y-113639664D01*
X110296487Y-113639664D02*
X110391725Y-113687283D01*
X133013154Y-114401569D02*
X133346487Y-113925378D01*
X133584582Y-114401569D02*
X133584582Y-113401569D01*
X133584582Y-113401569D02*
X133203630Y-113401569D01*
X133203630Y-113401569D02*
X133108392Y-113449188D01*
X133108392Y-113449188D02*
X133060773Y-113496807D01*
X133060773Y-113496807D02*
X133013154Y-113592045D01*
X133013154Y-113592045D02*
X133013154Y-113734902D01*
X133013154Y-113734902D02*
X133060773Y-113830140D01*
X133060773Y-113830140D02*
X133108392Y-113877759D01*
X133108392Y-113877759D02*
X133203630Y-113925378D01*
X133203630Y-113925378D02*
X133584582Y-113925378D01*
X132013154Y-114306330D02*
X132060773Y-114353950D01*
X132060773Y-114353950D02*
X132203630Y-114401569D01*
X132203630Y-114401569D02*
X132298868Y-114401569D01*
X132298868Y-114401569D02*
X132441725Y-114353950D01*
X132441725Y-114353950D02*
X132536963Y-114258711D01*
X132536963Y-114258711D02*
X132584582Y-114163473D01*
X132584582Y-114163473D02*
X132632201Y-113972997D01*
X132632201Y-113972997D02*
X132632201Y-113830140D01*
X132632201Y-113830140D02*
X132584582Y-113639664D01*
X132584582Y-113639664D02*
X132536963Y-113544426D01*
X132536963Y-113544426D02*
X132441725Y-113449188D01*
X132441725Y-113449188D02*
X132298868Y-113401569D01*
X132298868Y-113401569D02*
X132203630Y-113401569D01*
X132203630Y-113401569D02*
X132060773Y-113449188D01*
X132060773Y-113449188D02*
X132013154Y-113496807D01*
X131632201Y-113496807D02*
X131584582Y-113449188D01*
X131584582Y-113449188D02*
X131489344Y-113401569D01*
X131489344Y-113401569D02*
X131251249Y-113401569D01*
X131251249Y-113401569D02*
X131156011Y-113449188D01*
X131156011Y-113449188D02*
X131108392Y-113496807D01*
X131108392Y-113496807D02*
X131060773Y-113592045D01*
X131060773Y-113592045D02*
X131060773Y-113687283D01*
X131060773Y-113687283D02*
X131108392Y-113830140D01*
X131108392Y-113830140D02*
X131679820Y-114401569D01*
X131679820Y-114401569D02*
X131060773Y-114401569D01*
X130632201Y-114020616D02*
X129870297Y-114020616D01*
X128870297Y-114401569D02*
X129441725Y-114401569D01*
X129156011Y-114401569D02*
X129156011Y-113401569D01*
X129156011Y-113401569D02*
X129251249Y-113544426D01*
X129251249Y-113544426D02*
X129346487Y-113639664D01*
X129346487Y-113639664D02*
X129441725Y-113687283D01*
D13*
X132263719Y-137931619D02*
X132263719Y-136931619D01*
X132263719Y-136931619D02*
X132025624Y-136931619D01*
X132025624Y-136931619D02*
X131882767Y-136979238D01*
X131882767Y-136979238D02*
X131787529Y-137074476D01*
X131787529Y-137074476D02*
X131739910Y-137169714D01*
X131739910Y-137169714D02*
X131692291Y-137360190D01*
X131692291Y-137360190D02*
X131692291Y-137503047D01*
X131692291Y-137503047D02*
X131739910Y-137693523D01*
X131739910Y-137693523D02*
X131787529Y-137788761D01*
X131787529Y-137788761D02*
X131882767Y-137884000D01*
X131882767Y-137884000D02*
X132025624Y-137931619D01*
X132025624Y-137931619D02*
X132263719Y-137931619D01*
X130835148Y-137264952D02*
X130835148Y-137931619D01*
X131073243Y-136884000D02*
X131311338Y-137598285D01*
X131311338Y-137598285D02*
X130692291Y-137598285D01*
D12*
X135880444Y-74642166D02*
X136594729Y-74642166D01*
X136594729Y-74642166D02*
X136737586Y-74594547D01*
X136737586Y-74594547D02*
X136832825Y-74499309D01*
X136832825Y-74499309D02*
X136880444Y-74356452D01*
X136880444Y-74356452D02*
X136880444Y-74261214D01*
X136880444Y-75642166D02*
X136880444Y-75070738D01*
X136880444Y-75356452D02*
X135880444Y-75356452D01*
X135880444Y-75356452D02*
X136023301Y-75261214D01*
X136023301Y-75261214D02*
X136118539Y-75165976D01*
X136118539Y-75165976D02*
X136166158Y-75070738D01*
X166722500Y-115725500D02*
X166722500Y-117225500D01*
X166722500Y-117225500D02*
X172122500Y-117225500D01*
X168922500Y-115975500D02*
X168922500Y-116975500D01*
X169022500Y-116475500D02*
X169922500Y-115975500D01*
X169922500Y-115975500D02*
X169922500Y-116975500D01*
X169922500Y-116975500D02*
X169022500Y-116475500D01*
X172122500Y-115725500D02*
X166722500Y-115725500D01*
X172122500Y-117225500D02*
X172122500Y-115725500D01*
X144401250Y-105246750D02*
X144401250Y-106246750D01*
X144401250Y-106246750D02*
X144601250Y-106246750D01*
X144401250Y-108846750D02*
X144401250Y-108486750D01*
X144401250Y-108846750D02*
X147681250Y-108846750D01*
D14*
X144501250Y-106146749D02*
X144501250Y-105246750D01*
D12*
X144601250Y-108486750D02*
X144401250Y-108486750D01*
D15*
X144601250Y-108646750D02*
X147301250Y-108646750D01*
D12*
X144631250Y-106246750D02*
X144631250Y-108486750D01*
D16*
X145001250Y-108346750D02*
X145001250Y-106546751D01*
D17*
X146131250Y-104846750D02*
X146131250Y-107086750D01*
D12*
X149901250Y-106946750D02*
X154901250Y-106946750D01*
D18*
X152901250Y-105146750D02*
X146201250Y-105146750D01*
D19*
X154201250Y-103946750D02*
X154201250Y-106446750D01*
D15*
X154601250Y-106646750D02*
X153201250Y-106646750D01*
D12*
X154681250Y-105946750D02*
X154681250Y-103696750D01*
D20*
X154701250Y-103546750D02*
X153301250Y-103546750D01*
D12*
X154701250Y-103696750D02*
X154901250Y-103696750D01*
D20*
X154701250Y-106046750D02*
X154701250Y-106746750D01*
D12*
X154901250Y-103346750D02*
X146501249Y-103346750D01*
X154901250Y-103696750D02*
X154901250Y-103346750D01*
X154901250Y-105946750D02*
X154701250Y-105946750D01*
X154901250Y-106946750D02*
X154901250Y-105946750D01*
X144401250Y-105246751D02*
G75*
G02*
X146501249Y-103346749I1999999J-99997D01*
G01*
D19*
X147284932Y-108425279D02*
G75*
G02*
X149501250Y-106546750I2151317J-291470D01*
G01*
D12*
X147684932Y-108825279D02*
G75*
G02*
X149901250Y-106946750I2151317J-291470D01*
G01*
X163451250Y-105246750D02*
X163451250Y-106246750D01*
X163451250Y-106246750D02*
X163651250Y-106246750D01*
X163451250Y-108846750D02*
X163451250Y-108486750D01*
X163451250Y-108846750D02*
X166731250Y-108846750D01*
D14*
X163551250Y-106146749D02*
X163551250Y-105246750D01*
D12*
X163651250Y-108486750D02*
X163451250Y-108486750D01*
D15*
X163651250Y-108646750D02*
X166351250Y-108646750D01*
D12*
X163681250Y-106246750D02*
X163681250Y-108486750D01*
D16*
X164051250Y-108346750D02*
X164051250Y-106546751D01*
D17*
X165181250Y-104846750D02*
X165181250Y-107086750D01*
D12*
X168951250Y-106946750D02*
X173951250Y-106946750D01*
D18*
X171951250Y-105146750D02*
X165251250Y-105146750D01*
D19*
X173251250Y-103946750D02*
X173251250Y-106446750D01*
D15*
X173651250Y-106646750D02*
X172251250Y-106646750D01*
D12*
X173731250Y-105946750D02*
X173731250Y-103696750D01*
D20*
X173751250Y-103546750D02*
X172351250Y-103546750D01*
D12*
X173751250Y-103696750D02*
X173951250Y-103696750D01*
D20*
X173751250Y-106046750D02*
X173751250Y-106746750D01*
D12*
X173951250Y-103346750D02*
X165551249Y-103346750D01*
X173951250Y-103696750D02*
X173951250Y-103346750D01*
X173951250Y-105946750D02*
X173751250Y-105946750D01*
X173951250Y-106946750D02*
X173951250Y-105946750D01*
X163451250Y-105246751D02*
G75*
G02*
X165551249Y-103346749I1999999J-99997D01*
G01*
D19*
X166334932Y-108425279D02*
G75*
G02*
X168551250Y-106546750I2151317J-291470D01*
G01*
D12*
X166734932Y-108825279D02*
G75*
G02*
X168951250Y-106946750I2151317J-291470D01*
G01*
X147825625Y-134725500D02*
X147825625Y-136225500D01*
X147825625Y-136225500D02*
X153225625Y-136225500D01*
X150025625Y-134975500D02*
X150025625Y-135975500D01*
X150125625Y-135475500D02*
X151025625Y-134975500D01*
X151025625Y-134975500D02*
X151025625Y-135975500D01*
X151025625Y-135975500D02*
X150125625Y-135475500D01*
X153225625Y-134725500D02*
X147825625Y-134725500D01*
X153225625Y-136225500D02*
X153225625Y-134725500D01*
X109722500Y-115725500D02*
X109722500Y-117225500D01*
X109722500Y-117225500D02*
X115122500Y-117225500D01*
X111922500Y-115975500D02*
X111922500Y-116975500D01*
X112022500Y-116475500D02*
X112922500Y-115975500D01*
X112922500Y-115975500D02*
X112922500Y-116975500D01*
X112922500Y-116975500D02*
X112022500Y-116475500D01*
X115122500Y-115725500D02*
X109722500Y-115725500D01*
X115122500Y-117225500D02*
X115122500Y-115725500D01*
X144401250Y-124296750D02*
X144401250Y-125296750D01*
X144401250Y-125296750D02*
X144601250Y-125296750D01*
X144401250Y-127896750D02*
X144401250Y-127536750D01*
X144401250Y-127896750D02*
X147681250Y-127896750D01*
D14*
X144501250Y-125196749D02*
X144501250Y-124296750D01*
D12*
X144601250Y-127536750D02*
X144401250Y-127536750D01*
D15*
X144601250Y-127696750D02*
X147301250Y-127696750D01*
D12*
X144631250Y-125296750D02*
X144631250Y-127536750D01*
D16*
X145001250Y-127396750D02*
X145001250Y-125596751D01*
D17*
X146131250Y-123896750D02*
X146131250Y-126136750D01*
D12*
X149901250Y-125996750D02*
X154901250Y-125996750D01*
D18*
X152901250Y-124196750D02*
X146201250Y-124196750D01*
D19*
X154201250Y-122996750D02*
X154201250Y-125496750D01*
D15*
X154601250Y-125696750D02*
X153201250Y-125696750D01*
D12*
X154681250Y-124996750D02*
X154681250Y-122746750D01*
D20*
X154701250Y-122596750D02*
X153301250Y-122596750D01*
D12*
X154701250Y-122746750D02*
X154901250Y-122746750D01*
D20*
X154701250Y-125096750D02*
X154701250Y-125796750D01*
D12*
X154901250Y-122396750D02*
X146501249Y-122396750D01*
X154901250Y-122746750D02*
X154901250Y-122396750D01*
X154901250Y-124996750D02*
X154701250Y-124996750D01*
X154901250Y-125996750D02*
X154901250Y-124996750D01*
X144401250Y-124296751D02*
G75*
G02*
X146501249Y-122396749I1999999J-99997D01*
G01*
D19*
X147284932Y-127475279D02*
G75*
G02*
X149501250Y-125596750I2151317J-291470D01*
G01*
D12*
X147684932Y-127875279D02*
G75*
G02*
X149901250Y-125996750I2151317J-291470D01*
G01*
X109497500Y-134725500D02*
X109497500Y-136225500D01*
X109497500Y-136225500D02*
X114897500Y-136225500D01*
X111697500Y-134975500D02*
X111697500Y-135975500D01*
X111797500Y-135475500D02*
X112697500Y-134975500D01*
X112697500Y-134975500D02*
X112697500Y-135975500D01*
X112697500Y-135975500D02*
X111797500Y-135475500D01*
X114897500Y-134725500D02*
X109497500Y-134725500D01*
X114897500Y-136225500D02*
X114897500Y-134725500D01*
X106301250Y-124296750D02*
X106301250Y-125296750D01*
X106301250Y-125296750D02*
X106501250Y-125296750D01*
X106301250Y-127896750D02*
X106301250Y-127536750D01*
X106301250Y-127896750D02*
X109581250Y-127896750D01*
D14*
X106401250Y-125196749D02*
X106401250Y-124296750D01*
D12*
X106501250Y-127536750D02*
X106301250Y-127536750D01*
D15*
X106501250Y-127696750D02*
X109201250Y-127696750D01*
D12*
X106531250Y-125296750D02*
X106531250Y-127536750D01*
D16*
X106901250Y-127396750D02*
X106901250Y-125596751D01*
D17*
X108031250Y-123896750D02*
X108031250Y-126136750D01*
D12*
X111801250Y-125996750D02*
X116801250Y-125996750D01*
D18*
X114801250Y-124196750D02*
X108101250Y-124196750D01*
D19*
X116101250Y-122996750D02*
X116101250Y-125496750D01*
D15*
X116501250Y-125696750D02*
X115101250Y-125696750D01*
D12*
X116581250Y-124996750D02*
X116581250Y-122746750D01*
D20*
X116601250Y-122596750D02*
X115201250Y-122596750D01*
D12*
X116601250Y-122746750D02*
X116801250Y-122746750D01*
D20*
X116601250Y-125096750D02*
X116601250Y-125796750D01*
D12*
X116801250Y-122396750D02*
X108401249Y-122396750D01*
X116801250Y-122746750D02*
X116801250Y-122396750D01*
X116801250Y-124996750D02*
X116601250Y-124996750D01*
X116801250Y-125996750D02*
X116801250Y-124996750D01*
X106301250Y-124296751D02*
G75*
G02*
X108401249Y-122396749I1999999J-99997D01*
G01*
D19*
X109184932Y-127475279D02*
G75*
G02*
X111401250Y-125596750I2151317J-291470D01*
G01*
D12*
X109584932Y-127875279D02*
G75*
G02*
X111801250Y-125996750I2151317J-291470D01*
G01*
X128722500Y-115725500D02*
X128722500Y-117225500D01*
X128722500Y-117225500D02*
X134122500Y-117225500D01*
X130922500Y-115975500D02*
X130922500Y-116975500D01*
X131022500Y-116475500D02*
X131922500Y-115975500D01*
X131922500Y-115975500D02*
X131922500Y-116975500D01*
X131922500Y-116975500D02*
X131022500Y-116475500D01*
X134122500Y-115725500D02*
X128722500Y-115725500D01*
X134122500Y-117225500D02*
X134122500Y-115725500D01*
X164525625Y-63725500D02*
X170525625Y-63725500D01*
X164525625Y-63975500D02*
X164525625Y-63725500D01*
X164525625Y-67225500D02*
X164525625Y-66975500D01*
X170525625Y-63725500D02*
X170525625Y-63975500D01*
X170525625Y-66975500D02*
X170525625Y-67225500D01*
X170525625Y-67225500D02*
X164525625Y-67225500D01*
X163451250Y-124296750D02*
X163451250Y-125296750D01*
X163451250Y-125296750D02*
X163651250Y-125296750D01*
X163451250Y-127896750D02*
X163451250Y-127536750D01*
X163451250Y-127896750D02*
X166731250Y-127896750D01*
D14*
X163551250Y-125196749D02*
X163551250Y-124296750D01*
D12*
X163651250Y-127536750D02*
X163451250Y-127536750D01*
D15*
X163651250Y-127696750D02*
X166351250Y-127696750D01*
D12*
X163681250Y-125296750D02*
X163681250Y-127536750D01*
D16*
X164051250Y-127396750D02*
X164051250Y-125596751D01*
D17*
X165181250Y-123896750D02*
X165181250Y-126136750D01*
D12*
X168951250Y-125996750D02*
X173951250Y-125996750D01*
D18*
X171951250Y-124196750D02*
X165251250Y-124196750D01*
D19*
X173251250Y-122996750D02*
X173251250Y-125496750D01*
D15*
X173651250Y-125696750D02*
X172251250Y-125696750D01*
D12*
X173731250Y-124996750D02*
X173731250Y-122746750D01*
D20*
X173751250Y-122596750D02*
X172351250Y-122596750D01*
D12*
X173751250Y-122746750D02*
X173951250Y-122746750D01*
D20*
X173751250Y-125096750D02*
X173751250Y-125796750D01*
D12*
X173951250Y-122396750D02*
X165551249Y-122396750D01*
X173951250Y-122746750D02*
X173951250Y-122396750D01*
X173951250Y-124996750D02*
X173751250Y-124996750D01*
X173951250Y-125996750D02*
X173951250Y-124996750D01*
X163451250Y-124296751D02*
G75*
G02*
X165551249Y-122396749I1999999J-99997D01*
G01*
D19*
X166334932Y-127475279D02*
G75*
G02*
X168551250Y-125596750I2151317J-291470D01*
G01*
D12*
X166734932Y-127875279D02*
G75*
G02*
X168951250Y-125996750I2151317J-291470D01*
G01*
X125351250Y-124296750D02*
X125351250Y-125296750D01*
X125351250Y-125296750D02*
X125551250Y-125296750D01*
X125351250Y-127896750D02*
X125351250Y-127536750D01*
X125351250Y-127896750D02*
X128631250Y-127896750D01*
D14*
X125451250Y-125196749D02*
X125451250Y-124296750D01*
D12*
X125551250Y-127536750D02*
X125351250Y-127536750D01*
D15*
X125551250Y-127696750D02*
X128251250Y-127696750D01*
D12*
X125581250Y-125296750D02*
X125581250Y-127536750D01*
D16*
X125951250Y-127396750D02*
X125951250Y-125596751D01*
D17*
X127081250Y-123896750D02*
X127081250Y-126136750D01*
D12*
X130851250Y-125996750D02*
X135851250Y-125996750D01*
D18*
X133851250Y-124196750D02*
X127151250Y-124196750D01*
D19*
X135151250Y-122996750D02*
X135151250Y-125496750D01*
D15*
X135551250Y-125696750D02*
X134151250Y-125696750D01*
D12*
X135631250Y-124996750D02*
X135631250Y-122746750D01*
D20*
X135651250Y-122596750D02*
X134251250Y-122596750D01*
D12*
X135651250Y-122746750D02*
X135851250Y-122746750D01*
D20*
X135651250Y-125096750D02*
X135651250Y-125796750D01*
D12*
X135851250Y-122396750D02*
X127451249Y-122396750D01*
X135851250Y-122746750D02*
X135851250Y-122396750D01*
X135851250Y-124996750D02*
X135651250Y-124996750D01*
X135851250Y-125996750D02*
X135851250Y-124996750D01*
X125351250Y-124296751D02*
G75*
G02*
X127451249Y-122396749I1999999J-99997D01*
G01*
D19*
X128234932Y-127475279D02*
G75*
G02*
X130451250Y-125596750I2151317J-291470D01*
G01*
D12*
X128634932Y-127875279D02*
G75*
G02*
X130851250Y-125996750I2151317J-291470D01*
G01*
X147722500Y-115725500D02*
X147722500Y-117225500D01*
X147722500Y-117225500D02*
X153122500Y-117225500D01*
X149922500Y-115975500D02*
X149922500Y-116975500D01*
X150022500Y-116475500D02*
X150922500Y-115975500D01*
X150922500Y-115975500D02*
X150922500Y-116975500D01*
X150922500Y-116975500D02*
X150022500Y-116475500D01*
X153122500Y-115725500D02*
X147722500Y-115725500D01*
X153122500Y-117225500D02*
X153122500Y-115725500D01*
X166925625Y-134725500D02*
X166925625Y-136225500D01*
X166925625Y-136225500D02*
X172325625Y-136225500D01*
X169125625Y-134975500D02*
X169125625Y-135975500D01*
X169225625Y-135475500D02*
X170125625Y-134975500D01*
X170125625Y-134975500D02*
X170125625Y-135975500D01*
X170125625Y-135975500D02*
X169225625Y-135475500D01*
X172325625Y-134725500D02*
X166925625Y-134725500D01*
X172325625Y-136225500D02*
X172325625Y-134725500D01*
X106301250Y-105246750D02*
X106301250Y-106246750D01*
X106301250Y-106246750D02*
X106501250Y-106246750D01*
X106301250Y-108846750D02*
X106301250Y-108486750D01*
X106301250Y-108846750D02*
X109581250Y-108846750D01*
D14*
X106401250Y-106146749D02*
X106401250Y-105246750D01*
D12*
X106501250Y-108486750D02*
X106301250Y-108486750D01*
D15*
X106501250Y-108646750D02*
X109201250Y-108646750D01*
D12*
X106531250Y-106246750D02*
X106531250Y-108486750D01*
D16*
X106901250Y-108346750D02*
X106901250Y-106546751D01*
D17*
X108031250Y-104846750D02*
X108031250Y-107086750D01*
D12*
X111801250Y-106946750D02*
X116801250Y-106946750D01*
D18*
X114801250Y-105146750D02*
X108101250Y-105146750D01*
D19*
X116101250Y-103946750D02*
X116101250Y-106446750D01*
D15*
X116501250Y-106646750D02*
X115101250Y-106646750D01*
D12*
X116581250Y-105946750D02*
X116581250Y-103696750D01*
D20*
X116601250Y-103546750D02*
X115201250Y-103546750D01*
D12*
X116601250Y-103696750D02*
X116801250Y-103696750D01*
D20*
X116601250Y-106046750D02*
X116601250Y-106746750D01*
D12*
X116801250Y-103346750D02*
X108401249Y-103346750D01*
X116801250Y-103696750D02*
X116801250Y-103346750D01*
X116801250Y-105946750D02*
X116601250Y-105946750D01*
X116801250Y-106946750D02*
X116801250Y-105946750D01*
X106301250Y-105246751D02*
G75*
G02*
X108401249Y-103346749I1999999J-99997D01*
G01*
D19*
X109184932Y-108425279D02*
G75*
G02*
X111401250Y-106546750I2151317J-291470D01*
G01*
D12*
X109584932Y-108825279D02*
G75*
G02*
X111801250Y-106946750I2151317J-291470D01*
G01*
X125351250Y-105246750D02*
X125351250Y-106246750D01*
X125351250Y-106246750D02*
X125551250Y-106246750D01*
X125351250Y-108846750D02*
X125351250Y-108486750D01*
X125351250Y-108846750D02*
X128631250Y-108846750D01*
D14*
X125451250Y-106146749D02*
X125451250Y-105246750D01*
D12*
X125551250Y-108486750D02*
X125351250Y-108486750D01*
D15*
X125551250Y-108646750D02*
X128251250Y-108646750D01*
D12*
X125581250Y-106246750D02*
X125581250Y-108486750D01*
D16*
X125951250Y-108346750D02*
X125951250Y-106546751D01*
D17*
X127081250Y-104846750D02*
X127081250Y-107086750D01*
D12*
X130851250Y-106946750D02*
X135851250Y-106946750D01*
D18*
X133851250Y-105146750D02*
X127151250Y-105146750D01*
D19*
X135151250Y-103946750D02*
X135151250Y-106446750D01*
D15*
X135551250Y-106646750D02*
X134151250Y-106646750D01*
D12*
X135631250Y-105946750D02*
X135631250Y-103696750D01*
D20*
X135651250Y-103546750D02*
X134251250Y-103546750D01*
D12*
X135651250Y-103696750D02*
X135851250Y-103696750D01*
D20*
X135651250Y-106046750D02*
X135651250Y-106746750D01*
D12*
X135851250Y-103346750D02*
X127451249Y-103346750D01*
X135851250Y-103696750D02*
X135851250Y-103346750D01*
X135851250Y-105946750D02*
X135651250Y-105946750D01*
X135851250Y-106946750D02*
X135851250Y-105946750D01*
X125351250Y-105246751D02*
G75*
G02*
X127451249Y-103346749I1999999J-99997D01*
G01*
D19*
X128234932Y-108425279D02*
G75*
G02*
X130451250Y-106546750I2151317J-291470D01*
G01*
D12*
X128634932Y-108825279D02*
G75*
G02*
X130851250Y-106946750I2151317J-291470D01*
G01*
X128722500Y-134725500D02*
X128722500Y-136225500D01*
X128722500Y-136225500D02*
X134122500Y-136225500D01*
X130922500Y-134975500D02*
X130922500Y-135975500D01*
X131022500Y-135475500D02*
X131922500Y-134975500D01*
X131922500Y-134975500D02*
X131922500Y-135975500D01*
X131922500Y-135975500D02*
X131022500Y-135475500D01*
X134122500Y-134725500D02*
X128722500Y-134725500D01*
X134122500Y-136225500D02*
X134122500Y-134725500D01*
D21*
X137615625Y-68415500D02*
X145435625Y-68415500D01*
X137615625Y-69335500D02*
X137615625Y-68415500D01*
X137615625Y-73615500D02*
X139215625Y-73615500D01*
X137615625Y-74535500D02*
X137615625Y-73615500D01*
X139215625Y-68415500D02*
X139215625Y-69335500D01*
X139215625Y-69335500D02*
X137615625Y-69335500D01*
X139215625Y-69615500D02*
X138000625Y-69615500D01*
X139215625Y-69615500D02*
X139215625Y-69335500D01*
X139215625Y-73615500D02*
X139215625Y-73335500D01*
X139215625Y-74535500D02*
X139215625Y-73615500D01*
X141075625Y-70975500D02*
X141075625Y-71975500D01*
X141075625Y-71975500D02*
X145435625Y-71975500D01*
X141575625Y-69175500D02*
X143175625Y-69175500D01*
X141575625Y-70175500D02*
X141575625Y-69175500D01*
X141575625Y-72775500D02*
X141575625Y-73775500D01*
X141575625Y-73775500D02*
X143175625Y-73775500D01*
X143175625Y-69175500D02*
X143175625Y-70175500D01*
X143175625Y-69675500D02*
X145435625Y-69675500D01*
X143175625Y-70175500D02*
X141575625Y-70175500D01*
X143175625Y-70175500D02*
X145435625Y-70175500D01*
X143175625Y-72775500D02*
X141575625Y-72775500D01*
X143175625Y-73775500D02*
X143175625Y-72775500D01*
X145435625Y-68415500D02*
X145435625Y-74535500D01*
X145435625Y-70975500D02*
X141075625Y-70975500D01*
X145435625Y-74535500D02*
X137615625Y-74535500D01*
M02*
