G04 #@! TF.GenerationSoftware,KiCad,Pcbnew,9.0.3*
G04 #@! TF.CreationDate,2025-07-19T22:29:45+09:00*
G04 #@! TF.ProjectId,kleinpad,6b6c6569-6e70-4616-942e-6b696361645f,1.0*
G04 #@! TF.SameCoordinates,Original*
G04 #@! TF.FileFunction,Copper,L1,Top*
G04 #@! TF.FilePolarity,Positive*
%FSLAX46Y46*%
G04 Gerber Fmt 4.6, Leading zero omitted, Abs format (unit mm)*
G04 Created by KiCad (PCBNEW 9.0.3) date 2025-07-19 22:29:45*
%MOMM*%
%LPD*%
G01*
G04 APERTURE LIST*
G04 Aperture macros list*
%AMRoundRect*
0 Rectangle with rounded corners*
0 $1 Rounding radius*
0 $2 $3 $4 $5 $6 $7 $8 $9 X,Y pos of 4 corners*
0 Add a 4 corners polygon primitive as box body*
4,1,4,$2,$3,$4,$5,$6,$7,$8,$9,$2,$3,0*
0 Add four circle primitives for the rounded corners*
1,1,$1+$1,$2,$3*
1,1,$1+$1,$4,$5*
1,1,$1+$1,$6,$7*
1,1,$1+$1,$8,$9*
0 Add four rect primitives between the rounded corners*
20,1,$1+$1,$2,$3,$4,$5,0*
20,1,$1+$1,$4,$5,$6,$7,0*
20,1,$1+$1,$6,$7,$8,$9,0*
20,1,$1+$1,$8,$9,$2,$3,0*%
G04 Aperture macros list end*
G04 #@! TA.AperFunction,ComponentPad*
%ADD10C,1.800000*%
G04 #@! TD*
G04 #@! TA.AperFunction,ComponentPad*
%ADD11RoundRect,0.450000X-0.450000X-0.450000X0.450000X-0.450000X0.450000X0.450000X-0.450000X0.450000X0*%
G04 #@! TD*
G04 #@! TA.AperFunction,ComponentPad*
%ADD12O,1.800000X4.340000*%
G04 #@! TD*
G04 #@! TA.AperFunction,ComponentPad*
%ADD13C,1.600000*%
G04 #@! TD*
G04 #@! TA.AperFunction,ComponentPad*
%ADD14R,1.397000X1.397000*%
G04 #@! TD*
G04 #@! TA.AperFunction,ComponentPad*
%ADD15C,1.397000*%
G04 #@! TD*
G04 #@! TA.AperFunction,ComponentPad*
%ADD16C,1.905000*%
G04 #@! TD*
G04 #@! TA.AperFunction,ComponentPad*
%ADD17C,1.900000*%
G04 #@! TD*
G04 #@! TA.AperFunction,ComponentPad*
%ADD18C,1.950000*%
G04 #@! TD*
G04 #@! TA.AperFunction,ComponentPad*
%ADD19C,2.400000*%
G04 #@! TD*
G04 #@! TA.AperFunction,ComponentPad*
%ADD20C,1.650000*%
G04 #@! TD*
G04 #@! TA.AperFunction,WasherPad*
%ADD21O,3.200000X2.000000*%
G04 #@! TD*
G04 #@! TA.AperFunction,ComponentPad*
%ADD22R,2.000000X2.000000*%
G04 #@! TD*
G04 #@! TA.AperFunction,ComponentPad*
%ADD23C,2.000000*%
G04 #@! TD*
G04 #@! TA.AperFunction,ComponentPad*
%ADD24R,1.700000X1.700000*%
G04 #@! TD*
G04 #@! TA.AperFunction,ComponentPad*
%ADD25O,1.700000X1.700000*%
G04 #@! TD*
G04 #@! TA.AperFunction,ComponentPad*
%ADD26RoundRect,0.250000X-0.625000X0.350000X-0.625000X-0.350000X0.625000X-0.350000X0.625000X0.350000X0*%
G04 #@! TD*
G04 #@! TA.AperFunction,ComponentPad*
%ADD27O,1.750000X1.200000*%
G04 #@! TD*
G04 #@! TA.AperFunction,ViaPad*
%ADD28C,0.600000*%
G04 #@! TD*
G04 #@! TA.AperFunction,Conductor*
%ADD29C,0.500000*%
G04 #@! TD*
G04 #@! TA.AperFunction,Conductor*
%ADD30C,0.250000*%
G04 #@! TD*
G04 APERTURE END LIST*
D10*
X133105625Y-66305500D03*
X133105625Y-68845500D03*
D11*
X133105625Y-71385500D03*
X133105625Y-73925500D03*
D10*
X133105625Y-76465500D03*
X133105625Y-79005500D03*
X133105625Y-81545500D03*
X133105625Y-84085500D03*
X133105625Y-86625500D03*
X133105625Y-89165500D03*
X133105625Y-91705500D03*
X133105625Y-94245500D03*
D12*
X148345625Y-65035500D03*
D11*
X148345625Y-68845500D03*
D10*
X148345625Y-71385500D03*
X148345625Y-73925500D03*
X148345625Y-76465500D03*
X148345625Y-79005500D03*
X148345625Y-81545500D03*
X148345625Y-84085500D03*
X148345625Y-86625500D03*
X148345625Y-89165500D03*
X148345625Y-91705500D03*
X148345625Y-94245500D03*
X136179025Y-91151780D03*
X138719025Y-91151780D03*
X141259025Y-91151780D03*
D11*
X133105625Y-63765500D03*
D10*
X148345625Y-63765500D03*
D13*
X153625625Y-82125500D03*
X153625625Y-84625500D03*
X105775625Y-84725500D03*
X105775625Y-82225500D03*
D14*
X165612500Y-116475500D03*
D15*
X173232500Y-116475500D03*
D13*
X166375625Y-70475500D03*
X163875625Y-70475500D03*
D16*
X159025625Y-63935500D03*
X159025625Y-69015500D03*
X153945625Y-69015500D03*
X153945625Y-63935500D03*
D17*
X161575625Y-89455500D03*
D18*
X161575625Y-93955500D03*
D17*
X168075625Y-89455500D03*
D18*
X168075625Y-93955500D03*
D19*
X158500625Y-78705500D03*
X171150625Y-78705500D03*
X171150625Y-88705500D03*
X158500625Y-88705500D03*
D20*
X173555625Y-86205500D03*
X173555625Y-83705500D03*
X173555625Y-81205500D03*
X167325625Y-74975500D03*
X164825625Y-74975500D03*
X162325625Y-74975500D03*
D15*
X110025625Y-63665500D03*
X110025625Y-66205500D03*
X110025625Y-68745500D03*
X110025625Y-71285500D03*
D14*
X146715625Y-135475500D03*
D15*
X154335625Y-135475500D03*
D21*
X118275625Y-83625500D03*
X118275625Y-94825500D03*
D22*
X110775625Y-86725500D03*
D23*
X110775625Y-91725500D03*
X110775625Y-89225500D03*
X125275625Y-91725500D03*
X125275625Y-86725500D03*
D14*
X108612500Y-116475500D03*
D15*
X116232500Y-116475500D03*
D14*
X108387500Y-135475500D03*
D15*
X116007500Y-135475500D03*
D14*
X127612500Y-116475500D03*
D15*
X135232500Y-116475500D03*
D23*
X164275625Y-65475500D03*
X170775625Y-65475500D03*
D14*
X146612500Y-116475500D03*
D15*
X154232500Y-116475500D03*
D24*
X116985625Y-72475500D03*
D25*
X119525625Y-72475500D03*
X122065625Y-72475500D03*
X124605625Y-72475500D03*
X127145625Y-72475500D03*
D14*
X165815625Y-135475500D03*
D15*
X173435625Y-135475500D03*
D13*
X105825625Y-91725500D03*
X105825625Y-89225500D03*
D14*
X127612500Y-135475500D03*
D15*
X135232500Y-135475500D03*
D26*
X139075625Y-70475500D03*
D27*
X139075625Y-72475500D03*
D28*
X140725625Y-115375500D03*
X140725625Y-119575500D03*
D29*
X163295625Y-95675500D02*
X166355625Y-95675500D01*
X172825625Y-90584358D02*
X172825625Y-87875500D01*
X142705625Y-68845500D02*
X139075625Y-72475500D01*
X134195625Y-72475500D02*
X133105625Y-71385500D01*
X172825625Y-87875500D02*
X171725625Y-86775500D01*
X166355625Y-95675500D02*
X168075625Y-93955500D01*
X133105625Y-71385500D02*
X133105625Y-73925500D01*
X169454483Y-93955500D02*
X172825625Y-90584358D01*
X158225625Y-67575500D02*
X162125625Y-63675500D01*
X133105625Y-71385500D02*
X128235625Y-71385500D01*
X149615625Y-67575500D02*
X158225625Y-67575500D01*
X133105625Y-71385500D02*
X135025625Y-69465500D01*
X162125625Y-63675500D02*
X168975625Y-63675500D01*
X148345625Y-68845500D02*
X149615625Y-67575500D01*
X168075625Y-93955500D02*
X169454483Y-93955500D01*
X148345625Y-68845500D02*
X142705625Y-68845500D01*
X135025625Y-69465500D02*
X135025625Y-65685500D01*
X168975625Y-63675500D02*
X170775625Y-65475500D01*
X161575625Y-93955500D02*
X163295625Y-95675500D01*
X139075625Y-72475500D02*
X134195625Y-72475500D01*
X171725625Y-83035500D02*
X173555625Y-81205500D01*
X127145625Y-84855500D02*
X125275625Y-86725500D01*
X135025625Y-65685500D02*
X133105625Y-63765500D01*
X128235625Y-71385500D02*
X127145625Y-72475500D01*
X127145625Y-84855500D02*
X127145625Y-72475500D01*
X171725625Y-86775500D02*
X171725625Y-83035500D01*
D30*
X147637000Y-117500000D02*
X146612500Y-116475500D01*
X159625625Y-117075500D02*
X159625625Y-117500000D01*
X145588000Y-117500000D02*
X128637000Y-117500000D01*
X148345625Y-91705500D02*
X151355625Y-91705500D01*
X159625625Y-117100000D02*
X160025625Y-117500000D01*
X159625625Y-99975500D02*
X159625625Y-117075500D01*
X126588000Y-117500000D02*
X109637000Y-117500000D01*
X159225625Y-117475500D02*
X159625625Y-117075500D01*
X127612500Y-116475500D02*
X126588000Y-117500000D01*
X159625625Y-117075500D02*
X159625625Y-117100000D01*
X159625625Y-117500000D02*
X159225625Y-117500000D01*
X165612500Y-116475500D02*
X164588000Y-117500000D01*
X151355625Y-91705500D02*
X159625625Y-99975500D01*
X159225625Y-117500000D02*
X147637000Y-117500000D01*
X164588000Y-117500000D02*
X160025625Y-117500000D01*
X146612500Y-116475500D02*
X145588000Y-117500000D01*
X160025625Y-117500000D02*
X159625625Y-117500000D01*
X159225625Y-117500000D02*
X159225625Y-117475500D01*
X109637000Y-117500000D02*
X108612500Y-116475500D01*
X128637000Y-117500000D02*
X127612500Y-116475500D01*
X164801125Y-136500000D02*
X147740125Y-136500000D01*
X140825625Y-100275500D02*
X140825625Y-115275500D01*
X147740125Y-136500000D02*
X146715625Y-135475500D01*
X140325625Y-136500000D02*
X128637000Y-136500000D01*
X128637000Y-136500000D02*
X127612500Y-135475500D01*
X127612500Y-135475500D02*
X126588000Y-136500000D01*
X140725625Y-119575500D02*
X140725625Y-136175500D01*
X140825625Y-136500000D02*
X140325625Y-136500000D01*
X145691125Y-136500000D02*
X141125625Y-136500000D01*
X165815625Y-135475500D02*
X165815625Y-135485500D01*
X140325625Y-136500000D02*
X140401125Y-136500000D01*
X140401125Y-136500000D02*
X140725625Y-136175500D01*
X146855625Y-94245500D02*
X140825625Y-100275500D01*
X140725625Y-136400000D02*
X140825625Y-136500000D01*
X146715625Y-135475500D02*
X145691125Y-136500000D01*
X140725625Y-136175500D02*
X140725625Y-136400000D01*
X148345625Y-94245500D02*
X146855625Y-94245500D01*
X140725625Y-136175500D02*
X140801125Y-136175500D01*
X126588000Y-136500000D02*
X109412000Y-136500000D01*
X165815625Y-135485500D02*
X164801125Y-136500000D01*
X109412000Y-136500000D02*
X108387500Y-135475500D01*
X140801125Y-136175500D02*
X141125625Y-136500000D01*
X141125625Y-136500000D02*
X140825625Y-136500000D01*
X140825625Y-115275500D02*
X140725625Y-115375500D01*
D29*
X143245625Y-66305500D02*
X139075625Y-70475500D01*
X148345625Y-66305500D02*
X143245625Y-66305500D01*
D30*
X159725625Y-71375500D02*
X164275625Y-66825500D01*
X148355625Y-71375500D02*
X159725625Y-71375500D01*
X164275625Y-66825500D02*
X164275625Y-65475500D01*
X148345625Y-71385500D02*
X148355625Y-71375500D01*
X162425625Y-72575500D02*
X164825625Y-74975500D01*
X164825625Y-74975500D02*
X165025625Y-74975500D01*
X148345625Y-84085500D02*
X159855625Y-72575500D01*
X159855625Y-72575500D02*
X162425625Y-72575500D01*
M02*
