M48
; DRILL file {KiCad 9.0.3} date 2025-07-19T22:30:28+0900
; FORMAT={-:-/ absolute / metric / decimal}
; #@! TF.CreationDate,2025-07-19T22:30:28+09:00
; #@! TF.GenerationSoftware,Kicad,Pcbnew,9.0.3
; #@! TF.FileFunction,Plated,1,2,PTH
FMAT,2
METRIC
; #@! TA.AperFunction,Plated,PTH,ViaDrill
T1C0.300
; #@! TA.AperFunction,Plated,PTH,ComponentDrill
T2C0.750
; #@! TA.AperFunction,Plated,PTH,ComponentDrill
T3C0.800
; #@! TA.AperFunction,Plated,PTH,ComponentDrill
T4C0.813
; #@! TA.AperFunction,Plated,PTH,ComponentDrill
T5C0.870
; #@! TA.AperFunction,Plated,PTH,ComponentDrill
T6C1.000
; #@! TA.AperFunction,Plated,PTH,ComponentDrill
T7C1.100
; #@! TA.AperFunction,Plated,PTH,ComponentDrill
T8C1.300
; #@! TA.AperFunction,Plated,PTH,ComponentDrill
T9C1.600
%
G90
G05
T1
X140.726Y-115.375
X140.726Y-119.575
T2
X139.076Y-70.475
X139.076Y-72.475
T3
X105.776Y-82.225
X105.776Y-84.725
X105.826Y-89.225
X105.826Y-91.725
X153.626Y-82.126
X153.626Y-84.626
X163.876Y-70.475
X166.376Y-70.475
T4
X108.387Y-135.475
X108.612Y-116.475
X110.026Y-63.665
X110.026Y-66.206
X110.026Y-68.745
X110.026Y-71.285
X116.007Y-135.475
X116.233Y-116.475
X127.612Y-116.475
X127.612Y-135.475
X135.232Y-116.475
X135.232Y-135.475
X146.612Y-116.475
X146.716Y-135.475
X154.232Y-116.475
X154.336Y-135.475
X165.612Y-116.475
X165.816Y-135.475
X173.232Y-116.475
X173.436Y-135.475
T5
X153.946Y-63.935
X153.946Y-69.016
X159.026Y-63.935
X159.026Y-69.016
T6
X110.776Y-86.725
X110.776Y-89.225
X110.776Y-91.725
X116.986Y-72.475
X119.526Y-72.475
X122.066Y-72.475
X124.606Y-72.475
X125.276Y-86.725
X125.276Y-91.725
X127.146Y-72.475
X133.106Y-63.765
X133.106Y-66.305
X133.106Y-68.846
X133.106Y-71.385
X133.106Y-73.925
X133.106Y-76.465
X133.106Y-79.005
X133.106Y-81.545
X133.106Y-84.085
X133.106Y-86.626
X133.106Y-89.165
X133.106Y-91.706
X133.106Y-94.245
X136.179Y-91.152
X138.719Y-91.152
X141.259Y-91.152
X148.346Y-63.765
X148.346Y-66.305
X148.346Y-68.846
X148.346Y-71.385
X148.346Y-73.925
X148.346Y-76.465
X148.346Y-79.005
X148.346Y-81.545
X148.346Y-84.085
X148.346Y-86.626
X148.346Y-89.165
X148.346Y-91.706
X148.346Y-94.245
T7
X162.326Y-74.975
X164.826Y-74.975
X167.326Y-74.975
X173.556Y-81.206
X173.556Y-83.706
X173.556Y-86.206
T8
X161.576Y-89.456
X161.576Y-93.956
X164.276Y-65.475
X168.076Y-89.456
X168.076Y-93.956
X170.776Y-65.475
T9
X158.501Y-78.706
X158.501Y-88.706
X171.151Y-78.706
X171.151Y-88.706
M30
